<?xml version="1.0" encoding="utf-8"?>
<!-- Generator: Adobe Illustrator 16.0.0, SVG Export Plug-In . SVG Version: 6.00 Build 0)  -->
<!DOCTYPE svg PUBLIC "-//W3C//DTD SVG 1.1//EN" "http://www.w3.org/Graphics/SVG/1.1/DTD/svg11.dtd">
<svg version="1.1" id="Layer_1" xmlns="http://www.w3.org/2000/svg" xmlns:xlink="http://www.w3.org/1999/xlink" x="0px" y="0px"
	 width="1076.536px" height="620.967px" viewBox="0 -34.161 1076.536 620.967" enable-background="new 0 -34.161 1076.536 620.967"
	 xml:space="preserve">
<g>
	<path fill="#E25B3E" d="M79.768,34.279l-7.06-18.447h-0.115c0.133,1.461,0.2,3.198,0.2,5.209v13.238h-2.234v-20.81h3.643
		l6.59,17.167h0.113l6.647-17.167h3.616v20.81h-2.42V20.871c0-1.538,0.067-3.208,0.199-5.011h-0.114l-7.116,18.418H79.768z"/>
	<path fill="#E25B3E" d="M104.277,34.564c-2.305,0-4.127-0.703-5.46-2.107c-1.333-1.404-1.999-3.354-1.999-5.849
		c0-2.515,0.62-4.512,1.857-5.993s2.902-2.22,4.988-2.22c1.957,0,3.501,0.643,4.64,1.928c1.139,1.286,1.71,2.982,1.71,5.089v1.495
		H99.266c0.048,1.831,0.51,3.222,1.388,4.17c0.878,0.948,2.114,1.423,3.707,1.423c1.68,0,3.34-0.351,4.982-1.054v2.107
		c-0.834,0.361-1.625,0.619-2.37,0.776C106.228,34.485,105.329,34.564,104.277,34.564z M103.636,20.373
		c-1.254,0-2.251,0.409-2.997,1.224c-0.745,0.816-1.183,1.945-1.318,3.388h8.157c0-1.49-0.332-2.631-0.996-3.423
		C105.819,20.769,104.869,20.373,103.636,20.373z"/>
	<path fill="#E25B3E" d="M125.853,34.279V24.187c0-1.271-0.288-2.221-0.868-2.847c-0.578-0.626-1.484-0.939-2.718-0.939
		c-1.633,0-2.83,0.441-3.588,1.323c-0.759,0.883-1.139,2.339-1.139,4.37v8.184h-2.363v-15.6h1.922l0.385,2.135h0.113
		c0.484-0.769,1.164-1.364,2.036-1.787c0.873-0.422,1.846-0.633,2.918-0.633c1.879,0,3.293,0.453,4.241,1.359
		c0.951,0.906,1.425,2.356,1.425,4.349v10.177H125.853z"/>
	<path fill="#E25B3E" d="M136.456,18.679v10.12c0,1.272,0.29,2.22,0.87,2.847c0.577,0.626,1.484,0.939,2.719,0.939
		c1.63,0,2.823-0.446,3.579-1.338c0.754-0.892,1.132-2.348,1.132-4.37v-8.198h2.362v15.6h-1.95l-0.341-2.092h-0.129
		c-0.484,0.769-1.156,1.357-2.014,1.765c-0.858,0.408-1.838,0.613-2.939,0.613c-1.899,0-3.319-0.451-4.262-1.353
		c-0.945-0.901-1.416-2.343-1.416-4.327V18.679H136.456z"/>
	<path fill="#E25B3E" d="M178.643,34.279h-2.761l-11.375-17.464h-0.114c0.152,2.049,0.229,3.928,0.229,5.636v11.829h-2.234v-20.81
		h2.733l11.343,17.395h0.114c-0.019-0.256-0.062-1.08-0.129-2.47c-0.065-1.391-0.088-2.384-0.071-2.982V13.469h2.265V34.279z"/>
	<path fill="#E25B3E" d="M194.77,34.279l-0.471-2.22h-0.115c-0.777,0.977-1.552,1.639-2.326,1.986
		c-0.774,0.346-1.739,0.52-2.897,0.52c-1.545,0-2.759-0.399-3.637-1.196c-0.877-0.797-1.316-1.932-1.316-3.402
		c0-3.15,2.519-4.801,7.559-4.953l2.646-0.085v-0.968c0-1.224-0.263-2.127-0.79-2.711c-0.526-0.583-1.369-0.875-2.526-0.875
		c-1.3,0-2.771,0.398-4.412,1.196l-0.726-1.808c0.768-0.417,1.61-0.744,2.526-0.982c0.914-0.237,1.833-0.356,2.752-0.356
		c1.862,0,3.239,0.413,4.137,1.239c0.896,0.825,1.344,2.149,1.344,3.971v10.646H194.77z M189.431,32.614
		c1.471,0,2.627-0.403,3.466-1.209c0.839-0.807,1.259-1.937,1.259-3.388v-1.409l-2.362,0.099c-1.878,0.067-3.233,0.358-4.064,0.875
		c-0.831,0.518-1.245,1.321-1.245,2.413c0,0.854,0.258,1.504,0.776,1.95C187.779,32.391,188.501,32.614,189.431,32.614z"/>
	<path fill="#E25B3E" d="M205.942,34.279l-5.921-15.6h2.532l3.36,9.251c0.76,2.165,1.205,3.569,1.338,4.214h0.114
		c0.104-0.503,0.434-1.544,0.989-3.125c0.555-1.58,1.8-5.027,3.738-10.34h2.532l-5.921,15.6H205.942z"/>
	<path fill="#E25B3E" d="M218.094,14.451c0-0.54,0.135-0.936,0.4-1.188c0.265-0.251,0.597-0.377,0.996-0.377
		c0.38,0,0.705,0.128,0.982,0.384c0.274,0.256,0.413,0.65,0.413,1.181c0,0.532-0.138,0.928-0.413,1.189
		c-0.277,0.261-0.602,0.391-0.982,0.391c-0.399,0-0.731-0.13-0.996-0.391C218.23,15.379,218.094,14.982,218.094,14.451z
		 M220.657,34.279h-2.363v-15.6h2.363V34.279z"/>
	<path fill="#E25B3E" d="M239.6,18.679v1.495l-2.889,0.341c0.266,0.332,0.502,0.766,0.712,1.302
		c0.208,0.536,0.313,1.141,0.313,1.815c0,1.527-0.523,2.747-1.565,3.658c-1.044,0.911-2.478,1.367-4.299,1.367
		c-0.466,0-0.903-0.038-1.311-0.114c-1.005,0.532-1.507,1.201-1.507,2.007c0,0.427,0.174,0.742,0.525,0.946
		c0.351,0.204,0.954,0.306,1.809,0.306h2.762c1.687,0,2.985,0.355,3.891,1.068c0.908,0.711,1.36,1.746,1.36,3.103
		c0,1.728-0.692,3.044-2.078,3.95c-1.387,0.907-3.408,1.36-6.064,1.36c-2.04,0-3.613-0.38-4.718-1.139
		c-1.106-0.759-1.658-1.832-1.658-3.217c0-0.949,0.303-1.77,0.911-2.462c0.608-0.692,1.462-1.162,2.562-1.409
		c-0.398-0.18-0.732-0.46-1.003-0.84c-0.271-0.379-0.405-0.821-0.405-1.323c0-0.57,0.151-1.068,0.456-1.494
		c0.304-0.428,0.784-0.84,1.437-1.239c-0.807-0.333-1.464-0.897-1.971-1.694c-0.508-0.796-0.761-1.708-0.761-2.732
		c0-1.708,0.511-3.025,1.536-3.95c1.025-0.925,2.478-1.387,4.356-1.387c0.817,0,1.551,0.095,2.206,0.285H239.6z M227.162,36.898
		c0,0.844,0.354,1.484,1.066,1.921c0.712,0.436,1.731,0.654,3.06,0.654c1.983,0,3.452-0.297,4.405-0.89
		c0.956-0.593,1.433-1.397,1.433-2.413c0-0.844-0.263-1.43-0.784-1.758c-0.521-0.327-1.505-0.491-2.947-0.491h-2.833
		c-1.072,0-1.907,0.256-2.503,0.769C227.459,35.204,227.162,35.939,227.162,36.898z M228.442,23.674
		c0,1.092,0.308,1.917,0.926,2.478c0.616,0.56,1.474,0.839,2.577,0.839c2.305,0,3.458-1.119,3.458-3.359
		c0-2.344-1.168-3.516-3.501-3.516c-1.111,0-1.964,0.299-2.563,0.896C228.741,21.611,228.442,22.499,228.442,23.674z"/>
	<path fill="#E25B3E" d="M253.564,34.279l-0.471-2.22h-0.113c-0.779,0.977-1.554,1.639-2.328,1.986
		c-0.774,0.346-1.739,0.52-2.895,0.52c-1.547,0-2.761-0.399-3.637-1.196c-0.879-0.797-1.316-1.932-1.316-3.402
		c0-3.15,2.518-4.801,7.558-4.953l2.647-0.085v-0.968c0-1.224-0.263-2.127-0.789-2.711c-0.528-0.583-1.371-0.875-2.527-0.875
		c-1.302,0-2.772,0.398-4.414,1.196l-0.726-1.808c0.768-0.417,1.61-0.744,2.526-0.982c0.915-0.237,1.833-0.356,2.754-0.356
		c1.86,0,3.239,0.413,4.135,1.239c0.896,0.825,1.344,2.149,1.344,3.971v10.646H253.564z M248.225,32.614
		c1.472,0,2.627-0.403,3.466-1.209c0.84-0.807,1.26-1.937,1.26-3.388v-1.409l-2.362,0.099c-1.878,0.067-3.235,0.358-4.064,0.875
		c-0.831,0.518-1.246,1.321-1.246,2.413c0,0.854,0.26,1.504,0.776,1.95C246.573,32.391,247.296,32.614,248.225,32.614z"/>
	<path fill="#E25B3E" d="M266.359,32.614c0.418,0,0.821-0.031,1.208-0.093c0.39-0.062,0.698-0.125,0.926-0.192v1.808
		c-0.256,0.124-0.633,0.225-1.131,0.306c-0.499,0.081-0.946,0.122-1.345,0.122c-3.017,0-4.528-1.59-4.528-4.769v-9.28h-2.234v-1.139
		l2.234-0.982l0.997-3.331h1.367v3.616h4.527v1.836h-4.527v9.18c0,0.94,0.223,1.661,0.668,2.164
		C264.969,32.363,265.58,32.614,266.359,32.614z"/>
	<path fill="#E25B3E" d="M272.548,14.451c0-0.54,0.133-0.936,0.398-1.188c0.265-0.251,0.598-0.377,0.996-0.377
		c0.38,0,0.707,0.128,0.982,0.384c0.276,0.256,0.414,0.65,0.414,1.181c0,0.532-0.138,0.928-0.414,1.189
		c-0.275,0.261-0.602,0.391-0.982,0.391c-0.398,0-0.731-0.13-0.996-0.391C272.681,15.379,272.548,14.982,272.548,14.451z
		 M275.111,34.279h-2.364v-15.6h2.364V34.279z"/>
	<path fill="#E25B3E" d="M294.752,26.464c0,2.544-0.641,4.529-1.922,5.957c-1.282,1.429-3.052,2.143-5.31,2.143
		c-1.395,0-2.632-0.328-3.715-0.982c-1.082-0.655-1.918-1.594-2.506-2.818c-0.588-1.224-0.882-2.656-0.882-4.299
		c0-2.543,0.637-4.523,1.907-5.942c1.272-1.418,3.038-2.127,5.296-2.127c2.181,0,3.917,0.726,5.202,2.177
		C294.109,22.024,294.752,23.988,294.752,26.464z M282.867,26.464c0,1.993,0.397,3.512,1.195,4.555
		c0.798,1.044,1.968,1.566,3.516,1.566c1.548,0,2.721-0.52,3.523-1.559c0.802-1.039,1.201-2.559,1.201-4.562
		c0-1.982-0.399-3.489-1.201-4.52c-0.802-1.029-1.986-1.543-3.552-1.543c-1.547,0-2.715,0.507-3.501,1.523
		C283.26,22.939,282.867,24.453,282.867,26.464z"/>
	<path fill="#E25B3E" d="M310.705,34.279V24.187c0-1.271-0.289-2.221-0.869-2.847c-0.577-0.626-1.484-0.939-2.718-0.939
		c-1.632,0-2.829,0.441-3.587,1.323c-0.759,0.883-1.139,2.339-1.139,4.37v8.184h-2.363v-15.6h1.922l0.385,2.135h0.113
		c0.484-0.769,1.163-1.364,2.036-1.787c0.872-0.422,1.846-0.633,2.917-0.633c1.879,0,3.293,0.453,4.24,1.359
		c0.951,0.906,1.426,2.356,1.426,4.349v10.177H310.705z"/>
</g>
<g>
	<g>
		<rect x="2.463" y="39.719" fill="#E04220" width="456.652" height="1.461"/>
	</g>
	<g>
		<path fill="#E04220" d="M461.579,43.436c1.65,0,2.988-1.338,2.988-2.987c0-1.649-1.338-2.988-2.988-2.988
			s-2.985,1.338-2.985,2.988C458.594,42.098,459.929,43.436,461.579,43.436"/>
	</g>
</g>
<text transform="matrix(1 0 0 1 592.8899 249.6978)"><tspan x="0" y="0" fill="#4C4948" font-family="'THEJung110-KSCpc-EUC-H'" font-size="8">베스트</tspan><tspan x="23.736" y="0" fill="#4C4948" font-family="'THEJung110-KSCpc-EUC-H'" font-size="8">&amp;</tspan><tspan x="29.2" y="0" fill="#4C4948" font-family="'THEJung110-KSCpc-EUC-H'" font-size="8">신제</tspan><tspan x="45.023" y="0" fill="#4C4948" font-family="'THEJung110-KSCpc-EUC-H'" font-size="8">품</tspan></text>
<text transform="matrix(1 0 0 1 820.9456 426.4663)"><tspan x="0" y="0" fill="#4C4948" font-family="'THEJung110-KSCpc-EUC-H'" font-size="8">치</tspan><tspan x="7.912" y="0" fill="#4C4948" font-family="'THEJung110-KSCpc-EUC-H'" font-size="8">크</tspan></text>
<text transform="matrix(1 0 0 1 820.4016 338.2183)"><tspan x="0" y="0" fill="#4C4948" font-family="'THEJung110-KSCpc-EUC-H'" font-size="8">향</tspan><tspan x="7.912" y="0" fill="#4C4948" font-family="'THEJung110-KSCpc-EUC-H'" font-size="8">수</tspan></text>
<text transform="matrix(1 0 0 1 822.4573 391.1616)"><tspan x="0" y="0" fill="#4C4948" font-family="'THEJung110-KSCpc-EUC-H'" font-size="8">프로 </tspan><tspan x="19.336" y="0" fill="#4C4948" font-family="'THEJung110-KSCpc-EUC-H'" font-size="8">툴</tspan></text>
<text transform="matrix(1 0 0 1 601.8176 392.4185)"><tspan x="0" y="0" fill="#4C4948" font-family="'THEJung110-KSCpc-EUC-H'" font-size="8">스페셜 세</tspan><tspan x="35.16" y="0" fill="#4C4948" font-family="'THEJung110-KSCpc-EUC-H'" font-size="8">트</tspan></text>
<text transform="matrix(1 0 0 1 586.2258 357.6577)"><tspan x="0" y="0" fill="#4C4948" font-family="'THEJung110-KSCpc-EUC-H'" font-size="8">아이 믹스 </tspan><tspan x="38.672" y="0" fill="#4C4948" font-family="'THEJung110-KSCpc-EUC-H'" font-size="8">&amp;</tspan><tspan x="44.136" y="0" fill="#4C4948" font-family="'THEJung110-KSCpc-EUC-H'" font-size="8"> 매</tspan><tspan x="55.56" y="0" fill="#4C4948" font-family="'THEJung110-KSCpc-EUC-H'" font-size="8">치</tspan></text>
<text transform="matrix(1 0 0 1 572.762 282.5776)"><tspan x="0" y="0" fill="#4C4948" font-family="'THEJung110-KSCpc-EUC-H'" font-size="8">라스트 찬</tspan><tspan x="35.16" y="0" fill="#4C4948" font-family="'THEJung110-KSCpc-EUC-H'" font-size="8">스</tspan></text>
<text transform="matrix(1 0 0 1 891.3772 255.938)"><tspan x="0" y="0" fill="#4C4948" font-family="'THEJung110-KSCpc-EUC-H'" font-size="8">페이스 메이크</tspan><tspan x="50.983" y="0" fill="#4C4948" font-family="'THEJung110-KSCpc-EUC-H'" font-size="8">업</tspan></text>
<text transform="matrix(1 0 0 1 667.1536 446.1538)"><tspan x="0" y="0" fill="#4C4948" font-family="'THEJung110-KSCpc-EUC-H'" font-size="8">아</tspan><tspan x="7.912" y="0" fill="#4C4948" font-family="'THEJung110-KSCpc-EUC-H'" font-size="8">이</tspan></text>
<text transform="matrix(1 0 0 1 592.6418 483.5942)"><tspan x="0" y="0" fill="#4C4948" font-family="'THEJung110-KSCpc-EUC-H'" font-size="8">마스카</tspan><tspan x="23.736" y="0" fill="#4C4948" font-family="'THEJung110-KSCpc-EUC-H'" font-size="8">라</tspan></text>
<text transform="matrix(1 0 0 1 584.7219 458.6743)"><tspan x="0" y="0" fill="#4C4948" font-family="'THEJung110-KSCpc-EUC-H'" font-size="8">아이라이</tspan><tspan x="31.647" y="0" fill="#4C4948" font-family="'THEJung110-KSCpc-EUC-H'" font-size="8">너</tspan></text>
<text transform="matrix(1 0 0 1 584.7219 446.2104)"><tspan x="0" y="0" fill="#4C4948" font-family="'THEJung110-KSCpc-EUC-H'" font-size="8">아이섀도</tspan><tspan x="31.647" y="0" fill="#4C4948" font-family="'THEJung110-KSCpc-EUC-H'" font-size="8">우</tspan></text>
<text transform="matrix(1 0 0 1 584.7219 471.1304)"><tspan x="0" y="0" fill="#4C4948" font-family="'THEJung110-KSCpc-EUC-H'" font-size="8">아이브라</tspan><tspan x="31.647" y="0" fill="#4C4948" font-family="'THEJung110-KSCpc-EUC-H'" font-size="8">우</tspan></text>
<text transform="matrix(1 0 0 1 592.6418 496.0503)"><tspan x="0" y="0" fill="#4C4948" font-family="'THEJung110-KSCpc-EUC-H'" font-size="8">아이기</tspan><tspan x="23.736" y="0" fill="#4C4948" font-family="'THEJung110-KSCpc-EUC-H'" font-size="8">타</tspan></text>
<text transform="matrix(1 0 0 1 915.6096 384.5063)"><tspan x="0" y="0" fill="#4C4948" font-family="'THEJung110-KSCpc-EUC-H'" font-size="8">립글로</tspan><tspan x="23.736" y="0" fill="#4C4948" font-family="'THEJung110-KSCpc-EUC-H'" font-size="8">즈</tspan></text>
<text transform="matrix(1 0 0 1 915.6096 371.7378)"><tspan x="0" y="0" fill="#4C4948" font-family="'THEJung110-KSCpc-EUC-H'" font-size="8">립스</tspan><tspan x="15.824" y="0" fill="#4C4948" font-family="'THEJung110-KSCpc-EUC-H'" font-size="8">틱</tspan></text>
<text transform="matrix(1 0 0 1 862.3215 369.9224)" fill="#4C4948" font-family="'THEJung110-KSCpc-EUC-H'" font-size="8">립</text>
<text transform="matrix(1 0 0 1 915.6096 410.0425)"><tspan x="0" y="0" fill="#4C4948" font-family="'THEJung110-KSCpc-EUC-H'" font-size="8">립라이</tspan><tspan x="23.736" y="0" fill="#4C4948" font-family="'THEJung110-KSCpc-EUC-H'" font-size="8">너</tspan></text>
<text transform="matrix(1 0 0 1 915.6096 422.8101)"><tspan x="0" y="0" fill="#4C4948" font-family="'THEJung110-KSCpc-EUC-H'" font-size="8">립 기</tspan><tspan x="19.336" y="0" fill="#4C4948" font-family="'THEJung110-KSCpc-EUC-H'" font-size="8">타</tspan></text>
<text transform="matrix(1 0 0 1 915.6096 397.2739)"><tspan x="0" y="0" fill="#4C4948" font-family="'THEJung110-KSCpc-EUC-H'" font-size="8">립틴</tspan><tspan x="15.824" y="0" fill="#4C4948" font-family="'THEJung110-KSCpc-EUC-H'" font-size="8">트</tspan></text>
<text transform="matrix(1 0 0 1 811.7219 301.7144)"><tspan x="0" y="0" fill="#4C4948" font-family="'THEJung110-KSCpc-EUC-H'" font-size="8">스킨 케</tspan><tspan x="27.248" y="0" fill="#4C4948" font-family="'THEJung110-KSCpc-EUC-H'" font-size="8">어</tspan></text>
<text transform="matrix(1 0 0 1 1002.593 257.9546)"><tspan x="0" y="0" fill="#4C4948" font-family="'THEJung110-KSCpc-EUC-H'" font-size="8">프라이</tspan><tspan x="23.736" y="0" fill="#4C4948" font-family="'THEJung110-KSCpc-EUC-H'" font-size="8">머</tspan></text>
<text transform="matrix(1 0 0 1 1002.593 290.5942)"><tspan x="0" y="0" fill="#4C4948" font-family="'THEJung110-KSCpc-EUC-H'" font-size="8">컨실</tspan><tspan x="15.824" y="0" fill="#4C4948" font-family="'THEJung110-KSCpc-EUC-H'" font-size="8">러</tspan></text>
<text transform="matrix(1 0 0 1 1002.593 315.0659)"><tspan x="0" y="0" fill="#4C4948" font-family="'THEJung110-KSCpc-EUC-H'" font-size="8">파우</tspan><tspan x="15.824" y="0" fill="#4C4948" font-family="'THEJung110-KSCpc-EUC-H'" font-size="8">더</tspan></text>
<text transform="matrix(1 0 0 1 1002.593 278.4263)"><tspan x="0" y="0" fill="#4C4948" font-family="'THEJung110-KSCpc-EUC-H'" font-size="8">BB</tspan><tspan x="11.312" y="0" fill="#4C4948" font-family="'THEJung110-KSCpc-EUC-H'" font-size="8">틴티</tspan><tspan x="27.136" y="0" fill="#4C4948" font-family="'THEJung110-KSCpc-EUC-H'" font-size="8">드</tspan></text>
<text transform="matrix(1 0 0 1 1002.593 302.7544)"><tspan x="0" y="0" fill="#4C4948" font-family="'THEJung110-KSCpc-EUC-H'" font-size="8">파운데이</tspan><tspan x="31.647" y="0" fill="#4C4948" font-family="'THEJung110-KSCpc-EUC-H'" font-size="8">션</tspan></text>
<text transform="matrix(1 0 0 1 1002.593 268.2505)"><tspan x="0" y="0" fill="#4C4948" font-family="'THEJung110-KSCpc-EUC-H'" font-size="8">루미나이</tspan><tspan x="31.647" y="0" fill="#4C4948" font-family="'THEJung110-KSCpc-EUC-H'" font-size="8">저</tspan></text>
<text transform="matrix(1 0 0 1 885.8811 302.4341)"><tspan x="0" y="0" fill="#4C4948" font-family="'THEJung110-KSCpc-EUC-H'" font-size="8">클렌</tspan><tspan x="15.824" y="0" fill="#4C4948" font-family="'THEJung110-KSCpc-EUC-H'" font-size="8">저</tspan></text>
<text transform="matrix(1 0 0 1 885.8811 314.2183)"><tspan x="0" y="0" fill="#4C4948" font-family="'THEJung110-KSCpc-EUC-H'" font-size="8">데일리 케</tspan><tspan x="35.16" y="0" fill="#4C4948" font-family="'THEJung110-KSCpc-EUC-H'" font-size="8">어</tspan></text>
<text transform="matrix(1 0 0 1 885.8811 326.0024)"><tspan x="0" y="0" fill="#4C4948" font-family="'THEJung110-KSCpc-EUC-H'" font-size="8">엑스트라 케</tspan><tspan x="43.072" y="0" fill="#4C4948" font-family="'THEJung110-KSCpc-EUC-H'" font-size="8">어</tspan></text>
<text transform="matrix(1 0 0 1 885.8811 337.7856)"><tspan x="0" y="0" fill="#4C4948" font-family="'THEJung110-KSCpc-EUC-H'" font-size="8">선 케</tspan><tspan x="19.336" y="0" fill="#4C4948" font-family="'THEJung110-KSCpc-EUC-H'" font-size="8">어</tspan></text>
<text transform="matrix(1 0 0 1 448.0813 416.2339)"><tspan x="0" y="0" fill="#4C4948" font-family="'THEJung110-KSCpc-EUC-H'" font-size="8">에브리데이 메이크</tspan><tspan x="66.808" y="0" fill="#4C4948" font-family="'THEJung110-KSCpc-EUC-H'" font-size="8">업</tspan></text>
<text transform="matrix(1 0 0 1 114.8816 182.3862)"><tspan x="0" y="0" fill="#4C4948" font-family="'THEJung110-KSCpc-EUC-H'" font-size="8">메이크업 레</tspan><tspan x="43.072" y="0" fill="#4C4948" font-family="'THEJung110-KSCpc-EUC-H'" font-size="8">슨</tspan></text>
<text transform="matrix(1 0 0 1 451.0891 127.106)"><tspan x="0" y="0" fill="#4C4948" font-family="'THEJung110-KSCpc-EUC-H'" font-size="8">뉴 컬렉</tspan><tspan x="27.248" y="0" fill="#4C4948" font-family="'THEJung110-KSCpc-EUC-H'" font-size="8">션</tspan></text>
<text transform="matrix(1 0 0 1 450.7932 205.2104)"><tspan x="0" y="0" fill="#4C4948" font-family="'THEJung110-KSCpc-EUC-H'" font-size="8">뉴</tspan><tspan x="7.912" y="0" fill="#4C4948" font-family="'THEJung110-KSCpc-EUC-H'" font-size="8">스</tspan></text>
<text transform="matrix(1 0 0 1 79.5134 345.6978)"><tspan x="0" y="0" fill="#4C4948" font-family="'THEJung110-KSCpc-EUC-H'" font-size="8">이벤</tspan><tspan x="15.824" y="0" fill="#4C4948" font-family="'THEJung110-KSCpc-EUC-H'" font-size="8">트</tspan></text>
<text transform="matrix(1 0 0 1 448.0735 436.3218)"><tspan x="0" y="0" fill="#4C4948" font-family="'THEJung110-KSCpc-EUC-H'" font-size="8">프로 메이크업 비디</tspan><tspan x="70.319" y="0" fill="#4C4948" font-family="'THEJung110-KSCpc-EUC-H'" font-size="8">오</tspan></text>
<text transform="matrix(1 0 0 1 142.1536 202.0981)"><tspan x="0" y="0" fill="#4C4948" font-family="'THEJung110-KSCpc-EUC-H'" font-size="8">멤버</tspan><tspan x="15.824" y="0" fill="#4C4948" font-family="'THEJung110-KSCpc-EUC-H'" font-size="8">쉽</tspan></text>
<text transform="matrix(1 0 0 1 451.5452 146.0825)"><tspan x="0" y="0" fill="#4C4948" font-family="'THEJung110-KSCpc-EUC-H'" font-size="8">브랜드 컨</tspan><tspan x="35.16" y="0" fill="#4C4948" font-family="'THEJung110-KSCpc-EUC-H'" font-size="8">셉</tspan></text>
<text transform="matrix(1 0 0 1 450.3293 223.0103)"><tspan x="0" y="0" fill="#4C4948" font-family="'THEJung110-KSCpc-EUC-H'" font-size="8">소셜 에스쁘</tspan><tspan x="43.072" y="0" fill="#4C4948" font-family="'THEJung110-KSCpc-EUC-H'" font-size="8">아</tspan></text>
<text transform="matrix(1 0 0 1 59.6814 363.8257)"><tspan x="0" y="0" fill="#4C4948" font-family="'THEJung110-KSCpc-EUC-H'" font-size="8">큐빅 스토</tspan><tspan x="35.16" y="0" fill="#4C4948" font-family="'THEJung110-KSCpc-EUC-H'" font-size="8">어</tspan></text>
<text transform="matrix(1 0 0 1 448.0735 455.0425)"><tspan x="0" y="0" fill="#4C4948" font-family="'THEJung110-KSCpc-EUC-H'" font-size="8">아티스트 Q</tspan><tspan x="42.056" y="0" fill="#4C4948" font-family="'THEJung110-KSCpc-EUC-H'" font-size="8">&amp;</tspan><tspan x="47.52" y="0" fill="#4C4948" font-family="'THEJung110-KSCpc-EUC-H'" font-size="8">A</tspan></text>
<text transform="matrix(1 0 0 1 118.5935 221.8101)"><tspan x="0" y="0" fill="#4C4948" font-family="'THEJung110-KSCpc-EUC-H'" font-size="8">VV</tspan><tspan x="12.624" y="0" fill="#4C4948" font-family="'THEJung110-KSCpc-EUC-H'" font-size="8">I</tspan><tspan x="14.72" y="0" fill="#4C4948" font-family="'THEJung110-KSCpc-EUC-H'" font-size="8">P</tspan><tspan x="20.032" y="0" fill="#4C4948" font-family="'THEJung110-KSCpc-EUC-H'" font-size="8"> 라운</tspan><tspan x="39.368" y="0" fill="#4C4948" font-family="'THEJung110-KSCpc-EUC-H'" font-size="8">지</tspan></text>
<text transform="matrix(1 0 0 1 450.7932 165.8022)"><tspan x="0" y="0" fill="#4C4948" font-family="'THEJung110-KSCpc-EUC-H'" font-size="8">브랜드 히스토</tspan><tspan x="50.983" y="0" fill="#4C4948" font-family="'THEJung110-KSCpc-EUC-H'" font-size="8">리</tspan></text>
<text transform="matrix(1 0 0 1 451.5618 239.2817)"><tspan x="0" y="0" fill="#4C4948" font-family="'THEJung110-KSCpc-EUC-H'" font-size="8">매장찾</tspan><tspan x="23.736" y="0" fill="#4C4948" font-family="'THEJung110-KSCpc-EUC-H'" font-size="8">기</tspan></text>
<text transform="matrix(1 0 0 1 448.0813 474.1938)"><tspan x="0" y="0" fill="#4C4948" font-family="'THEJung110-KSCpc-EUC-H'" font-size="8">파운데이션 파인</tspan><tspan x="58.896" y="0" fill="#4C4948" font-family="'THEJung110-KSCpc-EUC-H'" font-size="8">더</tspan></text>
<text transform="matrix(1 0 0 1 118.4016 241.522)"><tspan x="0" y="0" fill="#4C4948" font-family="'THEJung110-KSCpc-EUC-H'" font-size="8">아이브로우</tspan><tspan x="39.56" y="0" fill="#4C4948" font-family="'THEJung110-KSCpc-EUC-H'" font-size="8">바</tspan></text>
<text transform="matrix(1 0 0 1 450.7932 185.522)"><tspan x="0" y="0" fill="#4C4948" font-family="'THEJung110-KSCpc-EUC-H'" font-size="8">아티스트 스튜디</tspan><tspan x="58.896" y="0" fill="#4C4948" font-family="'THEJung110-KSCpc-EUC-H'" font-size="8">오</tspan></text>
<text transform="matrix(1 0 0 1 448.0813 494.314)"><tspan x="0" y="0" fill="#4C4948" font-family="'THEJung110-KSCpc-EUC-H'" font-size="8">컬러 파인</tspan><tspan x="35.16" y="0" fill="#4C4948" font-family="'THEJung110-KSCpc-EUC-H'" font-size="8">더</tspan></text>
<text transform="matrix(1 0 0 1 448.0813 511.3706)"><tspan x="0" y="0" fill="#4C4948" font-family="'THEJung110-KSCpc-EUC-H'" font-size="8">브러쉬 파인</tspan><tspan x="43.072" y="0" fill="#4C4948" font-family="'THEJung110-KSCpc-EUC-H'" font-size="8">더</tspan></text>
<line fill="none" stroke="#3E3A39" x1="270.473" y1="287.895" x2="256.099" y2="251.832"/>
<line fill="none" stroke="#4C4948" x1="308.484" y1="302.858" x2="343.652" y2="204.811"/>
<line fill="none" stroke="#3E3A39" x1="293.551" y1="386.699" x2="347.969" y2="462.122"/>
<line fill="none" stroke="#3E3A39" x1="246.78" y1="398.037" x2="218.434" y2="444.1"/>
<line fill="none" stroke="#EF4928" x1="317.947" y1="323.836" x2="705.991" y2="323.444"/>
<line fill="none" stroke="#3E3A39" x1="249.962" y1="332.762" x2="178.369" y2="352.133"/>
<g>
	<defs>
		<rect id="SVGID_1_" x="50.693" y="117.306" width="1003.391" height="397.615"/>
	</defs>
	<clipPath id="SVGID_2_">
		<use xlink:href="#SVGID_1_"  overflow="visible"/>
	</clipPath>
	<path clip-path="url(#SVGID_2_)" fill="#4C4948" d="M169.798,382.453c17.279,0,31.286-14.007,31.286-31.286
		s-14.007-31.286-31.286-31.286c-17.279,0-31.286,14.007-31.286,31.286S152.519,382.453,169.798,382.453"/>
</g>
<text transform="matrix(1 0 0 1 153.9133 354.5864)"><tspan x="0" y="0" fill="#F2F2F2" font-family="'NotoSansKR-Regular-KSCpc-EUC-H'" font-size="9">c</tspan><tspan x="4.941" y="0" fill="#F2F2F2" font-family="'NotoSansKR-Regular-KSCpc-EUC-H'" font-size="9">han</tspan><tspan x="22.032" y="0" fill="#F2F2F2" font-family="'NotoSansKR-Regular-KSCpc-EUC-H'" font-size="9">c</tspan><tspan x="26.757" y="0" fill="#F2F2F2" font-family="'NotoSansKR-Regular-KSCpc-EUC-H'" font-size="9">e</tspan></text>
<g>
	<defs>
		<rect id="SVGID_3_" x="50.693" y="117.306" width="1003.391" height="397.615"/>
	</defs>
	<clipPath id="SVGID_4_">
		<use xlink:href="#SVGID_3_"  overflow="visible"/>
	</clipPath>
	<path clip-path="url(#SVGID_4_)" fill="#4C4948" d="M210.033,494.625c17.279,0,31.286-14.007,31.286-31.285
		s-14.007-31.286-31.286-31.286s-31.286,14.008-31.286,31.286S192.754,494.625,210.033,494.625"/>
</g>
<text transform="matrix(1 0 0 1 195.2156 466.7593)"><tspan x="0" y="0" fill="#F2F2F2" font-family="'NotoSansKR-Regular-KSCpc-EUC-H'" font-size="9">r</tspan><tspan x="3.753" y="0" fill="#F2F2F2" font-family="'NotoSansKR-Regular-KSCpc-EUC-H'" font-size="9">e</tspan><tspan x="9.144" y="0" fill="#F2F2F2" font-family="'NotoSansKR-Regular-KSCpc-EUC-H'" font-size="9">vi</tspan><tspan x="17.01" y="0" fill="#F2F2F2" font-family="'NotoSansKR-Regular-KSCpc-EUC-H'" font-size="9">e</tspan><tspan x="22.4" y="0" fill="#F2F2F2" font-family="'NotoSansKR-Regular-KSCpc-EUC-H'" font-size="9">w</tspan></text>
<g>
	<defs>
		<rect id="SVGID_5_" x="50.693" y="117.306" width="1003.391" height="397.615"/>
	</defs>
	<clipPath id="SVGID_6_">
		<use xlink:href="#SVGID_5_"  overflow="visible"/>
	</clipPath>
	<path clip-path="url(#SVGID_6_)" fill="#4C4948" d="M350.622,210.633c17.278,0,31.286-14.007,31.286-31.286
		c0-17.278-14.008-31.286-31.286-31.286c-17.279,0-31.286,14.008-31.286,31.286C319.336,196.626,333.343,210.633,350.622,210.633"/>
</g>
<text transform="matrix(1 0 0 1 337.4192 182.7681)"><tspan x="0" y="0" fill="#F2F2F2" font-family="'NotoSansKR-Regular-KSCpc-EUC-H'" font-size="9">b</tspan><tspan x="5.913" y="0" fill="#F2F2F2" font-family="'NotoSansKR-Regular-KSCpc-EUC-H'" font-size="9">r</tspan><tspan x="9.522" y="0" fill="#F2F2F2" font-family="'NotoSansKR-Regular-KSCpc-EUC-H'" font-size="9">an</tspan><tspan x="20.799" y="0" fill="#F2F2F2" font-family="'NotoSansKR-Regular-KSCpc-EUC-H'" font-size="9">d</tspan></text>
<g>
	<defs>
		<rect id="SVGID_7_" x="50.693" y="117.306" width="1003.391" height="397.615"/>
	</defs>
	<clipPath id="SVGID_8_">
		<use xlink:href="#SVGID_7_"  overflow="visible"/>
	</clipPath>
	<path clip-path="url(#SVGID_8_)" fill="#4C4948" d="M246.071,256.591c17.279,0,31.286-14.007,31.286-31.285
		s-14.007-31.286-31.286-31.286s-31.286,14.008-31.286,31.286S228.791,256.591,246.071,256.591"/>
</g>
<text transform="matrix(1 0 0 1 230.2581 228.7261)"><tspan x="0" y="0" fill="#F2F2F2" font-family="'NotoSansKR-Regular-KSCpc-EUC-H'" font-size="9">se</tspan><tspan x="9.918" y="0" fill="#F2F2F2" font-family="'NotoSansKR-Regular-KSCpc-EUC-H'" font-size="9">r</tspan><tspan x="14.031" y="0" fill="#F2F2F2" font-family="'NotoSansKR-Regular-KSCpc-EUC-H'" font-size="9">vi</tspan><tspan x="21.896" y="0" fill="#F2F2F2" font-family="'NotoSansKR-Regular-KSCpc-EUC-H'" font-size="9">c</tspan><tspan x="26.622" y="0" fill="#F2F2F2" font-family="'NotoSansKR-Regular-KSCpc-EUC-H'" font-size="9">e</tspan></text>
<g>
	<defs>
		<rect id="SVGID_9_" x="50.693" y="117.306" width="1003.391" height="397.615"/>
	</defs>
	<clipPath id="SVGID_10_">
		<use xlink:href="#SVGID_9_"  overflow="visible"/>
	</clipPath>
	<path clip-path="url(#SVGID_10_)" fill="#FFFFFF" d="M274.955,411.76c35.219,0,63.77-28.552,63.77-63.771
		c0-35.219-28.551-63.77-63.77-63.77s-63.77,28.551-63.77,63.77C211.186,383.208,239.737,411.76,274.955,411.76"/>
	<circle clip-path="url(#SVGID_10_)" fill="none" stroke="#EE401D" stroke-width="4" cx="274.955" cy="347.99" r="63.771"/>
</g>
<text transform="matrix(1 0 0 1 224.9163 354.4497)"><tspan x="0" y="0" fill="#F05D3F" font-family="'NotoSansKR-Regular-KSCpc-EUC-H'" font-size="17">E</tspan><tspan x="10.659" y="0" fill="#F05D3F" font-family="'NotoSansKR-Regular-KSCpc-EUC-H'" font-size="17">s</tspan><tspan x="19.295" y="0" fill="#F05D3F" font-family="'NotoSansKR-Regular-KSCpc-EUC-H'" font-size="17">p</tspan><tspan x="30.498" y="0" fill="#F05D3F" font-family="'NotoSansKR-Regular-KSCpc-EUC-H'" font-size="17">o</tspan><tspan x="41.479" y="0" fill="#F05D3F" font-family="'NotoSansKR-Regular-KSCpc-EUC-H'" font-size="17">i</tspan><tspan x="46.817" y="0" fill="#F05D3F" font-family="'NotoSansKR-Regular-KSCpc-EUC-H'" font-size="17">r</tspan><tspan x="54.093" y="0" fill="#F05D3F" font-family="'NotoSansKR-Regular-KSCpc-EUC-H'" font-size="17"> Mai</tspan><tspan x="88.62" y="0" fill="#F05D3F" font-family="'NotoSansKR-Regular-KSCpc-EUC-H'" font-size="17">n</tspan></text>
<g>
	<defs>
		<rect id="SVGID_11_" x="50.693" y="117.306" width="1003.391" height="397.615"/>
	</defs>
	<clipPath id="SVGID_12_">
		<use xlink:href="#SVGID_11_"  overflow="visible"/>
	</clipPath>
	<path clip-path="url(#SVGID_12_)" fill="#4C4948" d="M372.374,489.521c17.279,0,31.286-14.007,31.286-31.286
		c0-17.278-14.007-31.286-31.286-31.286s-31.286,14.008-31.286,31.286C341.088,475.514,355.095,489.521,372.374,489.521"/>
</g>
<text transform="matrix(1 0 0 1 358.6223 461.6558)"><tspan x="0" y="0" fill="#F2F2F2" font-family="'NotoSansKR-Regular-KSCpc-EUC-H'" font-size="9">p</tspan><tspan x="5.931" y="0" fill="#F2F2F2" font-family="'NotoSansKR-Regular-KSCpc-EUC-H'" font-size="9">r</tspan><tspan x="9.684" y="0" fill="#F2F2F2" font-family="'NotoSansKR-Regular-KSCpc-EUC-H'" font-size="9">o</tspan><tspan x="15.327" y="0" fill="#F2F2F2" font-family="'NotoSansKR-Regular-KSCpc-EUC-H'" font-size="9">ti</tspan><tspan x="21.896" y="0" fill="#F2F2F2" font-family="'NotoSansKR-Regular-KSCpc-EUC-H'" font-size="9">p</tspan></text>
<g>
	<defs>
		<rect id="SVGID_13_" x="50.693" y="117.306" width="1003.391" height="397.615"/>
	</defs>
	<clipPath id="SVGID_14_">
		<use xlink:href="#SVGID_13_"  overflow="visible"/>
	</clipPath>
	<path clip-path="url(#SVGID_14_)" fill="#4C4948" d="M439.583,413.966c0.531,0,0.961-0.431,0.961-0.962s-0.43-0.961-0.961-0.961
		c-0.53,0-0.961,0.43-0.961,0.961S439.053,413.966,439.583,413.966"/>
	<path clip-path="url(#SVGID_14_)" fill="#4C4948" d="M439.248,434.042c0.531,0,0.962-0.43,0.962-0.961s-0.431-0.962-0.962-0.962
		c-0.53,0-0.961,0.431-0.961,0.962S438.718,434.042,439.248,434.042"/>
	<path clip-path="url(#SVGID_14_)" fill="#4C4948" d="M439.248,453.662c0.531,0,0.962-0.43,0.962-0.961s-0.431-0.962-0.962-0.962
		c-0.53,0-0.961,0.431-0.961,0.962S438.718,453.662,439.248,453.662"/>
	<path clip-path="url(#SVGID_14_)" fill="#4C4948" d="M439.583,473.098c0.531,0,0.961-0.431,0.961-0.963
		c0-0.53-0.43-0.961-0.961-0.961c-0.53,0-0.961,0.431-0.961,0.961C438.622,472.667,439.053,473.098,439.583,473.098"/>
	<path clip-path="url(#SVGID_14_)" fill="#4C4948" d="M439.583,492.808c0.531,0,0.961-0.431,0.961-0.962s-0.43-0.961-0.961-0.961
		c-0.53,0-0.961,0.43-0.961,0.961S439.053,492.808,439.583,492.808"/>
	<path clip-path="url(#SVGID_14_)" fill="#4C4948" d="M439.583,512.519c0.531,0,0.961-0.431,0.961-0.962
		c0-0.53-0.43-0.962-0.961-0.962c-0.53,0-0.961,0.432-0.961,0.962C438.622,512.088,439.053,512.519,439.583,512.519"/>
</g>
<line fill="none" stroke="#4C4948" stroke-width="0.7" x1="421.541" y1="413.223" x2="421.541" y2="511.895"/>
<line fill="none" stroke="#4C4948" stroke-width="0.7" x1="421.538" y1="433.082" x2="438.925" y2="433.082"/>
<polyline fill="none" stroke="#4C4948" stroke-width="0.7" points="377.529,433.535 397.938,413.125 421.303,413.125 
	438.69,413.125 "/>
<line fill="none" stroke="#4C4948" stroke-width="0.7" x1="421.863" y1="452.701" x2="439.249" y2="452.701"/>
<line fill="none" stroke="#4C4948" stroke-width="0.7" x1="421.863" y1="472.319" x2="439.249" y2="472.319"/>
<line fill="none" stroke="#4C4948" stroke-width="0.7" x1="421.863" y1="491.938" x2="439.249" y2="491.938"/>
<line fill="none" stroke="#4C4948" stroke-width="0.7" x1="421.354" y1="511.557" x2="438.74" y2="511.557"/>
<g>
	<defs>
		<rect id="SVGID_15_" x="50.693" y="117.306" width="1003.391" height="397.615"/>
	</defs>
	<clipPath id="SVGID_16_">
		<use xlink:href="#SVGID_15_"  overflow="visible"/>
	</clipPath>
	<path clip-path="url(#SVGID_16_)" fill="#4C4948" d="M444.436,124.225c0.531,0,0.961-0.43,0.961-0.961s-0.43-0.962-0.961-0.962
		s-0.962,0.431-0.962,0.962S443.905,124.225,444.436,124.225"/>
	<path clip-path="url(#SVGID_16_)" fill="#4C4948" d="M179.227,180.229c-0.53,0-0.961-0.432-0.961-0.962
		c0-0.531,0.431-0.961,0.961-0.961c0.531,0,0.961,0.43,0.961,0.961C180.188,179.797,179.758,180.229,179.227,180.229"/>
	<path clip-path="url(#SVGID_16_)" fill="#4C4948" d="M113.766,343.224c-0.531,0-0.962-0.43-0.962-0.961
		c0-0.53,0.431-0.962,0.962-0.962c0.531,0,0.961,0.432,0.961,0.962C114.727,342.794,114.297,343.224,113.766,343.224"/>
</g>
<polyline fill="none" stroke="#4C4948" stroke-width="0.7" points="426.409,123.483 426.316,238.067 443.592,238.067 "/>
<line fill="none" stroke="#4C4948" stroke-width="0.7" x1="197.27" y1="179.486" x2="197.27" y2="238.82"/>
<line fill="none" stroke="#231815" stroke-width="0.5" x1="131.808" y1="342.482" x2="131.808" y2="362.578"/>
<g>
	<defs>
		<rect id="SVGID_17_" x="50.693" y="117.306" width="1003.391" height="397.615"/>
	</defs>
	<clipPath id="SVGID_18_">
		<use xlink:href="#SVGID_17_"  overflow="visible"/>
	</clipPath>
	<path clip-path="url(#SVGID_18_)" fill="#4C4948" d="M444.436,222.778c0.531,0,0.961-0.43,0.961-0.961s-0.43-0.962-0.961-0.962
		s-0.962,0.431-0.962,0.962S443.905,222.778,444.436,222.778"/>
	<path clip-path="url(#SVGID_18_)" fill="#4C4948" d="M444.436,239.045c0.531,0,0.961-0.431,0.961-0.962s-0.43-0.961-0.961-0.961
		s-0.962,0.43-0.962,0.961S443.905,239.045,444.436,239.045"/>
</g>
<line fill="none" stroke="#4C4948" stroke-width="0.7" x1="426.39" y1="143.34" x2="443.777" y2="143.34"/>
<line fill="none" stroke="#4C4948" stroke-width="0.7" x1="197.274" y1="199.344" x2="179.886" y2="199.344"/>
<line fill="none" stroke="#4C4948" stroke-width="0.7" x1="131.812" y1="362.34" x2="114.425" y2="362.34"/>
<line fill="none" stroke="#4C4948" stroke-width="0.7" x1="426.39" y1="162.959" x2="444.101" y2="162.959"/>
<line fill="none" stroke="#4C4948" stroke-width="0.7" x1="197.274" y1="218.688" x2="179.886" y2="218.688"/>
<line fill="none" stroke="#4C4948" stroke-width="0.7" x1="426.57" y1="182.578" x2="444.101" y2="182.578"/>
<line fill="none" stroke="#4C4948" stroke-width="0.7" x1="197.031" y1="238.576" x2="179.645" y2="238.576"/>
<line fill="none" stroke="#4C4948" stroke-width="0.7" x1="426.57" y1="202.198" x2="444.101" y2="202.198"/>
<g>
	<defs>
		<rect id="SVGID_19_" x="50.693" y="117.306" width="1003.391" height="397.615"/>
	</defs>
	<clipPath id="SVGID_20_">
		<use xlink:href="#SVGID_19_"  overflow="visible"/>
	</clipPath>
	<path clip-path="url(#SVGID_20_)" fill="#4C4948" d="M444.554,144.302c0.53,0,0.961-0.431,0.961-0.961
		c0-0.531-0.431-0.962-0.961-0.962c-0.531,0-0.963,0.431-0.963,0.962C443.591,143.872,444.023,144.302,444.554,144.302"/>
	<path clip-path="url(#SVGID_20_)" fill="#4C4948" d="M179.2,200.305c-0.531,0-0.962-0.43-0.962-0.961s0.431-0.962,0.962-0.962
		c0.53,0,0.961,0.431,0.961,0.962S179.731,200.305,179.2,200.305"/>
	<path clip-path="url(#SVGID_20_)" fill="#4C4948" d="M113.739,363.301c-0.531,0-0.962-0.431-0.962-0.962s0.431-0.961,0.962-0.961
		c0.531,0,0.961,0.43,0.961,0.961S114.27,363.301,113.739,363.301"/>
	<path clip-path="url(#SVGID_20_)" fill="#4C4948" d="M444.503,163.921c0.531,0,0.961-0.431,0.961-0.962
		c0-0.53-0.43-0.962-0.961-0.962s-0.961,0.432-0.961,0.962C443.542,163.491,443.972,163.921,444.503,163.921"/>
	<path clip-path="url(#SVGID_20_)" fill="#4C4948" d="M179.227,219.65c-0.53,0-0.961-0.431-0.961-0.961
		c0-0.531,0.431-0.962,0.961-0.962c0.531,0,0.961,0.431,0.961,0.962C180.188,219.219,179.758,219.65,179.227,219.65"/>
	<path clip-path="url(#SVGID_20_)" fill="#4C4948" d="M444.436,183.357c0.531,0,0.961-0.431,0.961-0.962s-0.43-0.961-0.961-0.961
		s-0.962,0.43-0.962,0.961S443.905,183.357,444.436,183.357"/>
	<path clip-path="url(#SVGID_20_)" fill="#4C4948" d="M179.227,239.36c-0.53,0-0.961-0.43-0.961-0.961s0.431-0.962,0.961-0.962
		c0.531,0,0.961,0.431,0.961,0.962S179.758,239.36,179.227,239.36"/>
	<path clip-path="url(#SVGID_20_)" fill="#4C4948" d="M444.436,203.067c0.531,0,0.961-0.43,0.961-0.961
		c0-0.53-0.43-0.962-0.961-0.962s-0.962,0.432-0.962,0.962C443.474,202.637,443.905,203.067,444.436,203.067"/>
</g>
<polyline fill="none" stroke="#4C4948" stroke-width="0.7" points="372.212,160.8 400.417,123.384 426.156,123.384 443.541,123.384 
	"/>
<polyline fill="none" stroke="#4C4948" stroke-width="0.7" points="234.406,199.895 213.897,179.386 197.508,179.386 
	180.121,179.386 "/>
<line fill="none" stroke="#4C4948" stroke-width="0.7" x1="140.55" y1="342.382" x2="114.659" y2="342.382"/>
<line fill="none" stroke="#4C4948" stroke-width="0.7" x1="426.205" y1="221.816" x2="443.593" y2="221.816"/>
<polyline fill="none" stroke="#EF4928" points="724.925,276.473 712.314,246.77 653.04,246.77 "/>
<line fill="none" stroke="#EF4928" x1="712.95" y1="279.012" x2="620.395" y2="279.012"/>
<polyline fill="none" stroke="#EF4928" points="717.188,335.919 695.597,353.614 655.667,353.614 "/>
<polyline fill="none" stroke="#EF4928" points="772.257,287.94 787.148,253.058 883.156,252.82 "/>
<polyline fill="none" stroke="#EF4928" points="739.696,350.535 777.238,424.733 813.033,424.641 "/>
<polyline fill="none" stroke="#EF4928" points="737.724,306.161 783.697,367.089 855.736,367.252 "/>
<polyline fill="none" stroke="#EF4928" points="728.28,348.745 695.896,388.99 653.266,389.227 "/>
<polyline fill="none" stroke="#EF4928" points="750.866,340.383 783.915,389.609 814.685,389.371 "/>
<polyline fill="none" stroke="#EF4928" points="741.884,356.64 708.586,442.511 687.708,442.825 "/>
<line fill="none" stroke="#EF4928" x1="744.115" y1="334.84" x2="814.501" y2="334.84"/>
<polyline fill="none" stroke="#EF4928" points="752.373,320.714 770.956,299.359 805.606,299.359 "/>
<rect x="711.328" y="303.343" fill="#0D0D0D" width="56.267" height="19.693"/>
<text transform="matrix(1 0 0 1 728.468 315.9624)"><tspan x="0" y="0" fill="#4C4948" font-family="'THEJung110-KSCpc-EUC-H'" font-size="9">s</tspan><tspan x="4.617" y="0" fill="#4C4948" font-family="'THEJung110-KSCpc-EUC-H'" font-size="9">ho</tspan><tspan x="16.101" y="0" fill="#4C4948" font-family="'THEJung110-KSCpc-EUC-H'" font-size="9">p</tspan></text>
<g>
	<defs>
		<rect id="SVGID_21_" x="50.693" y="117.306" width="1003.391" height="397.615"/>
	</defs>
	<clipPath id="SVGID_22_">
		<use xlink:href="#SVGID_21_"  overflow="visible"/>
	</clipPath>
	<path clip-path="url(#SVGID_22_)" fill="#EF4928" d="M739.462,356.789c24.078,0,43.598-19.521,43.598-43.599
		c0-24.079-19.52-43.598-43.598-43.598c-24.079,0-43.598,19.519-43.598,43.598C695.865,337.268,715.383,356.789,739.462,356.789"/>
</g>
<text transform="matrix(1 0 0 1 724.7981 318.3882)"><tspan x="0" y="0" fill="#FFFFFF" font-family="'NotoSansKR-Light-KSCpc-EUC-H'" font-size="13">s</tspan><tspan x="6.383" y="0" fill="#FFFFFF" font-family="'NotoSansKR-Light-KSCpc-EUC-H'" font-size="13">h</tspan><tspan x="14.56" y="0" fill="#FFFFFF" font-family="'NotoSansKR-Light-KSCpc-EUC-H'" font-size="13">o</tspan><tspan x="22.789" y="0" fill="#FFFFFF" font-family="'NotoSansKR-Light-KSCpc-EUC-H'" font-size="13">p</tspan></text>
<g>
	<defs>
		<rect id="SVGID_23_" x="50.693" y="117.306" width="1003.391" height="397.615"/>
	</defs>
	<clipPath id="SVGID_24_">
		<use xlink:href="#SVGID_23_"  overflow="visible"/>
	</clipPath>
	<path clip-path="url(#SVGID_24_)" fill="#EF4928" d="M990.509,301.294c0.531,0,0.961-0.431,0.961-0.961
		c0-0.531-0.43-0.962-0.961-0.962s-0.961,0.431-0.961,0.962C989.548,300.864,989.978,301.294,990.509,301.294"/>
	<path clip-path="url(#SVGID_24_)" fill="#EF4928" d="M990.509,313.19c0.531,0,0.961-0.43,0.961-0.961s-0.43-0.962-0.961-0.962
		s-0.961,0.431-0.961,0.962S989.978,313.19,990.509,313.19"/>
	<path clip-path="url(#SVGID_24_)" fill="#EF4928" d="M990.509,289.399c0.531,0,0.961-0.431,0.961-0.961
		c0-0.531-0.43-0.962-0.961-0.962s-0.961,0.431-0.961,0.962C989.548,288.968,989.978,289.399,990.509,289.399"/>
</g>
<line fill="none" stroke="#EF4928" x1="973.516" y1="252.888" x2="973.516" y2="312.475"/>
<line fill="none" stroke="#EF4928" x1="973.512" y1="264.677" x2="990.899" y2="264.677"/>
<line fill="none" stroke="#EF4928" x1="956.27" y1="252.789" x2="990.663" y2="252.789"/>
<line fill="none" stroke="#EF4928" x1="973.512" y1="276.568" x2="991.223" y2="276.568"/>
<line fill="none" stroke="#EF4928" x1="973.277" y1="300.347" x2="991.223" y2="300.347"/>
<line fill="none" stroke="#EF4928" x1="973.277" y1="312.236" x2="991.223" y2="312.236"/>
<line fill="none" stroke="#EF4928" x1="973.327" y1="288.457" x2="990.714" y2="288.457"/>
<g>
	<defs>
		<rect id="SVGID_25_" x="50.693" y="117.306" width="1003.391" height="397.615"/>
	</defs>
	<clipPath id="SVGID_26_">
		<use xlink:href="#SVGID_25_"  overflow="visible"/>
	</clipPath>
	<path clip-path="url(#SVGID_26_)" fill="#EF4928" d="M990.509,277.502c0.531,0,0.961-0.43,0.961-0.961s-0.43-0.962-0.961-0.962
		s-0.961,0.431-0.961,0.962S989.978,277.502,990.509,277.502"/>
	<path clip-path="url(#SVGID_26_)" fill="#EF4928" d="M990.509,265.607c0.531,0,0.961-0.43,0.961-0.961s-0.43-0.962-0.961-0.962
		s-0.961,0.431-0.961,0.962S989.978,265.607,990.509,265.607"/>
	<path clip-path="url(#SVGID_26_)" fill="#EF4928" d="M990.509,253.711c0.531,0,0.961-0.43,0.961-0.961s-0.43-0.962-0.961-0.962
		s-0.961,0.431-0.961,0.962S989.978,253.711,990.509,253.711"/>
	<path clip-path="url(#SVGID_26_)" fill="#EF4928" d="M956.26,253.711c0.531,0,0.962-0.43,0.962-0.961s-0.431-0.962-0.962-0.962
		c-0.53,0-0.961,0.431-0.961,0.962S955.73,253.711,956.26,253.711"/>
	<path clip-path="url(#SVGID_26_)" fill="#EF4928" d="M882.701,253.711c0.531,0,0.961-0.43,0.961-0.961s-0.43-0.962-0.961-0.962
		s-0.962,0.431-0.962,0.962S882.17,253.711,882.701,253.711"/>
	<path clip-path="url(#SVGID_26_)" fill="#EF4928" d="M630.701,494.92c-0.531,0-0.961-0.43-0.961-0.961s0.43-0.962,0.961-0.962
		s0.961,0.431,0.961,0.962S631.233,494.92,630.701,494.92"/>
	<path clip-path="url(#SVGID_26_)" fill="#EF4928" d="M905.567,420.739c0.531,0,0.961-0.431,0.961-0.961
		c0-0.531-0.43-0.962-0.961-0.962c-0.53,0-0.962,0.431-0.962,0.962C904.605,420.308,905.036,420.739,905.567,420.739"/>
	<path clip-path="url(#SVGID_26_)" fill="#EF4928" d="M875.585,324.054c0.531,0,0.962-0.43,0.962-0.961
		c0-0.53-0.431-0.962-0.962-0.962s-0.961,0.432-0.961,0.962C874.624,323.625,875.054,324.054,875.585,324.054"/>
	<path clip-path="url(#SVGID_26_)" fill="#EF4928" d="M875.585,335.951c0.531,0,0.962-0.431,0.962-0.961
		c0-0.531-0.431-0.962-0.962-0.962s-0.961,0.431-0.961,0.962C874.624,335.52,875.054,335.951,875.585,335.951"/>
	<path clip-path="url(#SVGID_26_)" fill="#EF4928" d="M630.854,482.816c-0.531,0-0.962-0.43-0.962-0.961s0.431-0.962,0.962-0.962
		c0.53,0,0.961,0.431,0.961,0.962S631.384,482.816,630.854,482.816"/>
	<path clip-path="url(#SVGID_26_)" fill="#EF4928" d="M905.567,408.843c0.531,0,0.961-0.431,0.961-0.962s-0.43-0.962-0.961-0.962
		c-0.53,0-0.962,0.431-0.962,0.962S905.036,408.843,905.567,408.843"/>
	<path clip-path="url(#SVGID_26_)" fill="#EF4928" d="M875.585,312.159c0.531,0,0.962-0.43,0.962-0.961s-0.431-0.962-0.962-0.962
		s-0.961,0.431-0.961,0.962S875.054,312.159,875.585,312.159"/>
</g>
<line fill="none" stroke="#EF4928" x1="647.847" y1="442.926" x2="647.847" y2="494.002"/>
<line fill="none" stroke="#EF4928" x1="888.573" y1="367.371" x2="888.573" y2="420.029"/>
<line fill="none" stroke="#EF4928" x1="858.807" y1="299.089" x2="858.615" y2="335.235"/>
<line fill="none" stroke="#EF4928" x1="647.851" y1="456.744" x2="630.464" y2="456.744"/>
<line fill="none" stroke="#EF4928" x1="888.57" y1="381.288" x2="905.956" y2="381.288"/>
<line fill="none" stroke="#EF4928" x1="659.424" y1="442.828" x2="630.698" y2="442.828"/>
<line fill="none" stroke="#EF4928" x1="874.87" y1="367.272" x2="905.721" y2="367.272"/>
<line fill="none" stroke="#EF4928" x1="647.851" y1="469.985" x2="630.14" y2="469.985"/>
<line fill="none" stroke="#EF4928" x1="888.57" y1="394.594" x2="906.281" y2="394.594"/>
<line fill="none" stroke="#EF4928" x1="851.501" y1="299.328" x2="876.299" y2="299.328"/>
<line fill="none" stroke="#EF4928" x1="648.252" y1="493.916" x2="630.306" y2="493.916"/>
<line fill="none" stroke="#EF4928" x1="888.335" y1="419.791" x2="906.281" y2="419.791"/>
<line fill="none" stroke="#EF4928" x1="858.354" y1="323.107" x2="876.299" y2="323.107"/>
<line fill="none" stroke="#EF4928" x1="858.354" y1="334.997" x2="876.299" y2="334.997"/>
<line fill="none" stroke="#EF4928" x1="648.035" y1="481.875" x2="630.648" y2="481.875"/>
<line fill="none" stroke="#EF4928" x1="888.385" y1="407.902" x2="905.773" y2="407.902"/>
<line fill="none" stroke="#EF4928" x1="858.404" y1="311.218" x2="875.79" y2="311.218"/>
<g>
	<defs>
		<rect id="SVGID_27_" x="50.693" y="117.306" width="1003.391" height="397.615"/>
	</defs>
	<clipPath id="SVGID_28_">
		<use xlink:href="#SVGID_27_"  overflow="visible"/>
	</clipPath>
	<path clip-path="url(#SVGID_28_)" fill="#EF4928" d="M630.854,470.92c-0.531,0-0.962-0.43-0.962-0.962
		c0-0.531,0.431-0.961,0.962-0.961c0.53,0,0.961,0.43,0.961,0.961C631.815,470.491,631.384,470.92,630.854,470.92"/>
	<path clip-path="url(#SVGID_28_)" fill="#EF4928" d="M905.567,395.53c0.531,0,0.961-0.43,0.961-0.961s-0.43-0.962-0.961-0.962
		c-0.53,0-0.962,0.431-0.962,0.962S905.036,395.53,905.567,395.53"/>
	<path clip-path="url(#SVGID_28_)" fill="#EF4928" d="M875.585,300.263c0.531,0,0.962-0.43,0.962-0.961
		c0-0.532-0.431-0.962-0.962-0.962s-0.961,0.43-0.961,0.962C874.624,299.833,875.054,300.263,875.585,300.263"/>
	<path clip-path="url(#SVGID_28_)" fill="#EF4928" d="M850.812,300.263c0.531,0,0.961-0.43,0.961-0.961
		c0-0.532-0.43-0.962-0.961-0.962s-0.961,0.43-0.961,0.962C849.851,299.833,850.281,300.263,850.812,300.263"/>
	<path clip-path="url(#SVGID_28_)" fill="#EF4928" d="M806.308,300.263c0.531,0,0.961-0.43,0.961-0.961
		c0-0.532-0.43-0.962-0.961-0.962s-0.961,0.43-0.961,0.962C805.347,299.833,805.777,300.263,806.308,300.263"/>
	<path clip-path="url(#SVGID_28_)" fill="#EF4928" d="M814.501,335.801c0.53,0,0.961-0.43,0.961-0.961s-0.431-0.962-0.961-0.962
		c-0.531,0-0.961,0.431-0.961,0.962S813.97,335.801,814.501,335.801"/>
	<path clip-path="url(#SVGID_28_)" fill="#EF4928" d="M652.33,247.767c0.531,0,0.961-0.431,0.961-0.962
		c0-0.53-0.43-0.962-0.961-0.962s-0.961,0.432-0.961,0.962C651.369,247.336,651.799,247.767,652.33,247.767"/>
	<path clip-path="url(#SVGID_28_)" fill="#EF4928" d="M621.205,279.914c0.531,0,0.961-0.432,0.961-0.963
		c0-0.53-0.43-0.961-0.961-0.961s-0.962,0.431-0.962,0.961C620.243,279.482,620.674,279.914,621.205,279.914"/>
	<path clip-path="url(#SVGID_28_)" fill="#EF4928" d="M654.926,354.599c0.531,0,0.961-0.431,0.961-0.962s-0.43-0.961-0.961-0.961
		s-0.961,0.43-0.961,0.961S654.395,354.599,654.926,354.599"/>
	<path clip-path="url(#SVGID_28_)" fill="#EF4928" d="M653.095,390.04c0.531,0,0.961-0.431,0.961-0.962
		c0-0.53-0.43-0.962-0.961-0.962s-0.961,0.432-0.961,0.962C652.134,389.609,652.564,390.04,653.095,390.04"/>
	<path clip-path="url(#SVGID_28_)" fill="#EF4928" d="M659.756,443.614c0.531,0,0.962-0.43,0.962-0.961s-0.431-0.962-0.962-0.962
		c-0.53,0-0.961,0.431-0.961,0.962S659.226,443.614,659.756,443.614"/>
	<path clip-path="url(#SVGID_28_)" fill="#EF4928" d="M687.395,443.614c0.53,0,0.961-0.43,0.961-0.961s-0.431-0.962-0.961-0.962
		c-0.531,0-0.962,0.431-0.962,0.962S686.864,443.614,687.395,443.614"/>
	<path clip-path="url(#SVGID_28_)" fill="#EF4928" d="M815.333,390.3c0.53,0,0.962-0.43,0.962-0.961s-0.432-0.962-0.962-0.962
		c-0.531,0-0.961,0.431-0.961,0.962S814.802,390.3,815.333,390.3"/>
	<path clip-path="url(#SVGID_28_)" fill="#EF4928" d="M813.725,425.558c0.531,0,0.961-0.43,0.961-0.961s-0.43-0.962-0.961-0.962
		s-0.961,0.431-0.961,0.962S813.194,425.558,813.725,425.558"/>
	<path clip-path="url(#SVGID_28_)" fill="#EF4928" d="M630.854,457.673c-0.531,0-0.962-0.431-0.962-0.962s0.431-0.961,0.962-0.961
		c0.53,0,0.961,0.43,0.961,0.961S631.384,457.673,630.854,457.673"/>
	<path clip-path="url(#SVGID_28_)" fill="#EF4928" d="M905.567,382.216c0.531,0,0.961-0.431,0.961-0.962
		c0-0.53-0.43-0.961-0.961-0.961c-0.53,0-0.962,0.431-0.962,0.961C904.605,381.786,905.036,382.216,905.567,382.216"/>
	<path clip-path="url(#SVGID_28_)" fill="#EF4928" d="M630.854,443.75c-0.531,0-0.962-0.43-0.962-0.961
		c0-0.53,0.431-0.962,0.962-0.962c0.53,0,0.961,0.432,0.961,0.962C631.815,443.32,631.384,443.75,630.854,443.75"/>
	<path clip-path="url(#SVGID_28_)" fill="#EF4928" d="M905.567,368.195c0.531,0,0.961-0.43,0.961-0.961s-0.43-0.962-0.961-0.962
		c-0.53,0-0.962,0.431-0.962,0.962S905.036,368.195,905.567,368.195"/>
	<path clip-path="url(#SVGID_28_)" fill="#EF4928" d="M875.331,368.195c0.531,0,0.962-0.43,0.962-0.961s-0.431-0.962-0.962-0.962
		s-0.961,0.431-0.961,0.962S874.8,368.195,875.331,368.195"/>
	<path clip-path="url(#SVGID_28_)" fill="#EF4928" d="M855.914,368.195c0.53,0,0.961-0.43,0.961-0.961s-0.431-0.962-0.961-0.962
		c-0.531,0-0.961,0.431-0.961,0.962S855.383,368.195,855.914,368.195"/>
</g>
</svg>
