<?xml version="1.0" encoding="utf-8"?>
<!-- Generator: Adobe Illustrator 16.0.0, SVG Export Plug-In . SVG Version: 6.00 Build 0)  -->
<!DOCTYPE svg PUBLIC "-//W3C//DTD SVG 1.0//EN" "http://www.w3.org/TR/2001/REC-SVG-20010904/DTD/svg10.dtd">
<svg version="1.0" id="Layer_1" xmlns="http://www.w3.org/2000/svg" xmlns:xlink="http://www.w3.org/1999/xlink" x="0px" y="0px"
	 width="899.955px" height="592.811px" viewBox="0 0 899.955 592.811" enable-background="new 0 0 899.955 592.811"
	 xml:space="preserve">
<text transform="matrix(1 0 0 1 372.0847 94.6611)"><tspan x="0" y="0" fill="#4C4949" font-family="'NanumGothic'" font-size="11">가나다라바마사1234567</tspan><tspan x="125.2" y="0" fill="#4C4949" font-family="'NanumGothic'" font-size="11">8</tspan></text>
<text transform="matrix(1 0 0 1 372.0847 109.6655)"><tspan x="0" y="0" fill="#4C4949" font-family="'NanumGothic'" font-size="11">a</tspan><tspan x="6.424" y="0" fill="#4C4949" font-family="'NanumGothic'" font-size="11">b</tspan><tspan x="13.53" y="0" fill="#4C4949" font-family="'NanumGothic'" font-size="11">c</tspan><tspan x="19.283" y="0" fill="#4C4949" font-family="'NanumGothic'" font-size="11">AB</tspan><tspan x="34.825" y="0" fill="#4C4949" font-family="'NanumGothic'" font-size="11">C</tspan></text>
<text transform="matrix(1 0 0 1 194.1702 93.561)"><tspan x="0" y="0" fill="#4C4949" font-family="'NanumGothic'" font-size="11">나눔고</tspan><tspan x="32.339" y="0" fill="#4C4949" font-family="'NanumGothic'" font-size="11">딕</tspan></text>
<text transform="matrix(1 0 0 1 96.1902 46.2554)"><tspan x="0" y="0" fill="#F05D3F" font-family="'NanumGothic'" font-size="19">Font</tspan><tspan x="42.521" y="0" fill="#F05D3F" font-family="'NanumGothic'" font-size="19">s</tspan></text>
<text transform="matrix(1 0 0 1 95.2209 205.8364)"><tspan x="0" y="0" fill="#F05D3F" font-family="'NanumGothic'" font-size="19">Colo</tspan><tspan x="43.433" y="0" fill="#F05D3F" font-family="'NanumGothic'" font-size="19">r</tspan></text>
<text transform="matrix(1 0 0 1 611.0378 206.8359)"><tspan x="0" y="0" fill="#F05D3F" font-family="'NanumGothic'" font-size="19">Contra</tspan><tspan x="64.504" y="0" fill="#F05D3F" font-family="'NanumGothic'" font-size="19">s</tspan><tspan x="73.301" y="0" fill="#F05D3F" font-family="'NanumGothic'" font-size="19">t</tspan><tspan x="80.958" y="0" fill="#F05D3F" font-family="'NanumGothic'" font-size="19"> </tspan></text>
<line fill="none" stroke="#333333" stroke-width="0.25" x1="100.907" y1="282.073" x2="258.231" y2="282.073"/>
<line fill="none" stroke="#333333" stroke-width="0.25" x1="100.907" y1="353.267" x2="258.231" y2="353.267"/>
<line fill="none" stroke="#333333" stroke-width="0.25" x1="100.907" y1="423.843" x2="258.231" y2="423.843"/>
<g>
	<defs>
		<rect id="SVGID_1_" x="-3.777" y="24.309" width="570.297" height="731.834"/>
	</defs>
	<clipPath id="SVGID_2_">
		<use xlink:href="#SVGID_1_"  overflow="visible"/>
	</clipPath>
	<path clip-path="url(#SVGID_2_)" fill="#222222" d="M204.493,293.699c5.797,0,10.496-4.7,10.496-10.497
		c0-5.798-4.699-10.497-10.496-10.497s-10.498,4.699-10.498,10.497C193.995,289,198.697,293.699,204.493,293.699"/>
	<path clip-path="url(#SVGID_2_)" fill="#DD0330" d="M204.493,435.468c5.797,0,10.496-4.699,10.496-10.496
		c0-5.799-4.699-10.498-10.496-10.498s-10.498,4.699-10.498,10.498C193.995,430.769,198.697,435.468,204.493,435.468"/>
	<path clip-path="url(#SVGID_2_)" fill="#FFFFFF" d="M204.493,365.093c5.77,0,10.447-4.678,10.447-10.447
		c0-5.771-4.678-10.447-10.447-10.447c-5.771,0-10.449,4.676-10.449,10.447C194.044,360.415,198.723,365.093,204.493,365.093"/>
	<circle clip-path="url(#SVGID_2_)" fill="none" stroke="#000000" stroke-width="0.5" cx="204.493" cy="354.646" r="10.447"/>
</g>
<text transform="matrix(1 0 0 1 325.5535 269.9878)"><tspan x="0" y="0" fill="#4D4542" font-family="'NanumGothic'" font-size="9">R</tspan><tspan x="5.949" y="0" fill="#4D4542" font-family="'NanumGothic'" font-size="9">34</tspan><tspan x="17.577" y="0" fill="#4D4542" font-family="'NanumGothic'" font-size="9"> </tspan><tspan x="20.447" y="0" fill="#4D4542" font-family="'NanumGothic'" font-size="9">|</tspan><tspan x="22.985" y="0" fill="#4D4542" font-family="'NanumGothic'" font-size="9"> G</tspan><tspan x="33.381" y="0" fill="#4D4542" font-family="'NanumGothic'" font-size="9">34</tspan><tspan x="45.009" y="0" fill="#4D4542" font-family="'NanumGothic'" font-size="9"> </tspan><tspan x="47.879" y="0" fill="#4D4542" font-family="'NanumGothic'" font-size="9">|</tspan><tspan x="50.417" y="0" fill="#4D4542" font-family="'NanumGothic'" font-size="9"> </tspan><tspan x="53.288" y="0" fill="#4D4542" font-family="'NanumGothic'" font-size="9">B3</tspan><tspan x="64.916" y="0" fill="#4D4542" font-family="'NanumGothic'" font-size="9">4</tspan></text>
<text transform="matrix(1 0 0 1 325.5535 287.1328)"><tspan x="0" y="0" fill="#4D4542" font-family="'NanumGothic'" font-size="9">C</tspan><tspan x="6.399" y="0" fill="#4D4542" font-family="'NanumGothic'" font-size="9">83</tspan><tspan x="18.026" y="0" fill="#4D4542" font-family="'NanumGothic'" font-size="9"> </tspan><tspan x="20.897" y="0" fill="#4D4542" font-family="'NanumGothic'" font-size="9">|</tspan><tspan x="23.436" y="0" fill="#4D4542" font-family="'NanumGothic'" font-size="9"> M</tspan><tspan x="35.379" y="0" fill="#4D4542" font-family="'NanumGothic'" font-size="9">78</tspan><tspan x="47.007" y="0" fill="#4D4542" font-family="'NanumGothic'" font-size="9"> </tspan><tspan x="49.877" y="0" fill="#4D4542" font-family="'NanumGothic'" font-size="9">|</tspan><tspan x="52.415" y="0" fill="#4D4542" font-family="'NanumGothic'" font-size="9"> </tspan><tspan x="55.286" y="0" fill="#4D4542" font-family="'NanumGothic'" font-size="9">Y77</tspan><tspan x="73.268" y="0" fill="#4D4542" font-family="'NanumGothic'" font-size="9"> </tspan><tspan x="76.139" y="0" fill="#4D4542" font-family="'NanumGothic'" font-size="9">|</tspan><tspan x="78.677" y="0" fill="#4D4542" font-family="'NanumGothic'" font-size="9"> </tspan><tspan x="81.548" y="0" fill="#4D4542" font-family="'NanumGothic'" font-size="9">K6</tspan><tspan x="93.49" y="0" fill="#4D4542" font-family="'NanumGothic'" font-size="9">0</tspan></text>
<text transform="matrix(1 0 0 1 325.5535 304.2783)"><tspan x="0" y="0" fill="#4D4542" font-family="'NanumGothic'" font-size="9">#22222</tspan><tspan x="34.884" y="0" fill="#4D4542" font-family="'NanumGothic'" font-size="9">2</tspan></text>
<text transform="matrix(1 0 0 1 325.5535 409.6416)"><tspan x="0" y="0" fill="#4D4542" font-family="'NanumGothic'" font-size="9">R</tspan><tspan x="5.949" y="0" fill="#4D4542" font-family="'NanumGothic'" font-size="9">221</tspan><tspan x="23.391" y="0" fill="#4D4542" font-family="'NanumGothic'" font-size="9"> </tspan><tspan x="26.262" y="0" fill="#4D4542" font-family="'NanumGothic'" font-size="9">|</tspan><tspan x="28.8" y="0" fill="#4D4542" font-family="'NanumGothic'" font-size="9"> G</tspan><tspan x="39.194" y="0" fill="#4D4542" font-family="'NanumGothic'" font-size="9">3</tspan><tspan x="45.009" y="0" fill="#4D4542" font-family="'NanumGothic'" font-size="9"> </tspan><tspan x="47.879" y="0" fill="#4D4542" font-family="'NanumGothic'" font-size="9">|</tspan><tspan x="50.417" y="0" fill="#4D4542" font-family="'NanumGothic'" font-size="9"> </tspan><tspan x="53.288" y="0" fill="#4D4542" font-family="'NanumGothic'" font-size="9">B4</tspan><tspan x="64.916" y="0" fill="#4D4542" font-family="'NanumGothic'" font-size="9">8</tspan></text>
<text transform="matrix(1 0 0 1 325.5535 426.7861)"><tspan x="0" y="0" fill="#4D4542" font-family="'NanumGothic'" font-size="9">C</tspan><tspan x="6.399" y="0" fill="#4D4542" font-family="'NanumGothic'" font-size="9">16</tspan><tspan x="18.026" y="0" fill="#4D4542" font-family="'NanumGothic'" font-size="9"> </tspan><tspan x="20.897" y="0" fill="#4D4542" font-family="'NanumGothic'" font-size="9">|</tspan><tspan x="23.436" y="0" fill="#4D4542" font-family="'NanumGothic'" font-size="9"> M</tspan><tspan x="35.379" y="0" fill="#4D4542" font-family="'NanumGothic'" font-size="9">100</tspan><tspan x="52.82" y="0" fill="#4D4542" font-family="'NanumGothic'" font-size="9"> </tspan><tspan x="55.691" y="0" fill="#4D4542" font-family="'NanumGothic'" font-size="9">|</tspan><tspan x="58.229" y="0" fill="#4D4542" font-family="'NanumGothic'" font-size="9"> </tspan><tspan x="61.101" y="0" fill="#4D4542" font-family="'NanumGothic'" font-size="9">Y81</tspan><tspan x="79.082" y="0" fill="#4D4542" font-family="'NanumGothic'" font-size="9"> </tspan><tspan x="81.953" y="0" fill="#4D4542" font-family="'NanumGothic'" font-size="9">|</tspan><tspan x="84.49" y="0" fill="#4D4542" font-family="'NanumGothic'" font-size="9"> </tspan><tspan x="87.361" y="0" fill="#4D4542" font-family="'NanumGothic'" font-size="9">K</tspan><tspan x="93.49" y="0" fill="#4D4542" font-family="'NanumGothic'" font-size="9">0</tspan></text>
<text transform="matrix(1 0 0 1 325.5535 443.9307)"><tspan x="0" y="0" fill="#4D4542" font-family="'NanumGothic'" font-size="9">#dd033</tspan><tspan x="34.884" y="0" fill="#4D4542" font-family="'NanumGothic'" font-size="9">0</tspan></text>
<text transform="matrix(1 0 0 1 325.5535 339.3232)"><tspan x="0" y="0" fill="#4D4542" font-family="'NanumGothic'" font-size="9">R</tspan><tspan x="5.949" y="0" fill="#4D4542" font-family="'NanumGothic'" font-size="9">255</tspan><tspan x="23.391" y="0" fill="#4D4542" font-family="'NanumGothic'" font-size="9"> </tspan><tspan x="26.262" y="0" fill="#4D4542" font-family="'NanumGothic'" font-size="9">|</tspan><tspan x="28.8" y="0" fill="#4D4542" font-family="'NanumGothic'" font-size="9"> G</tspan><tspan x="39.194" y="0" fill="#4D4542" font-family="'NanumGothic'" font-size="9">255</tspan><tspan x="56.636" y="0" fill="#4D4542" font-family="'NanumGothic'" font-size="9"> </tspan><tspan x="59.507" y="0" fill="#4D4542" font-family="'NanumGothic'" font-size="9">|</tspan><tspan x="62.045" y="0" fill="#4D4542" font-family="'NanumGothic'" font-size="9"> </tspan><tspan x="64.916" y="0" fill="#4D4542" font-family="'NanumGothic'" font-size="9">B25</tspan><tspan x="82.357" y="0" fill="#4D4542" font-family="'NanumGothic'" font-size="9">5</tspan></text>
<text transform="matrix(1 0 0 1 325.5535 357.5225)"><tspan x="0" y="0" fill="#4D4542" font-family="'NanumGothic'" font-size="9">C</tspan><tspan x="6.399" y="0" fill="#4D4542" font-family="'NanumGothic'" font-size="9">0</tspan><tspan x="12.213" y="0" fill="#4D4542" font-family="'NanumGothic'" font-size="9"> </tspan><tspan x="15.084" y="0" fill="#4D4542" font-family="'NanumGothic'" font-size="9">|</tspan><tspan x="17.622" y="0" fill="#4D4542" font-family="'NanumGothic'" font-size="9"> M</tspan><tspan x="29.564" y="0" fill="#4D4542" font-family="'NanumGothic'" font-size="9">0</tspan><tspan x="35.379" y="0" fill="#4D4542" font-family="'NanumGothic'" font-size="9"> </tspan><tspan x="38.25" y="0" fill="#4D4542" font-family="'NanumGothic'" font-size="9">|</tspan><tspan x="40.787" y="0" fill="#4D4542" font-family="'NanumGothic'" font-size="9"> </tspan><tspan x="43.658" y="0" fill="#4D4542" font-family="'NanumGothic'" font-size="9">Y0</tspan><tspan x="55.826" y="0" fill="#4D4542" font-family="'NanumGothic'" font-size="9"> </tspan><tspan x="58.697" y="0" fill="#4D4542" font-family="'NanumGothic'" font-size="9">|</tspan><tspan x="61.235" y="0" fill="#4D4542" font-family="'NanumGothic'" font-size="9"> </tspan><tspan x="64.106" y="0" fill="#4D4542" font-family="'NanumGothic'" font-size="9">K</tspan><tspan x="70.235" y="0" fill="#4D4542" font-family="'NanumGothic'" font-size="9">0</tspan></text>
<text transform="matrix(1 0 0 1 325.5535 373.6045)"><tspan x="0" y="0" fill="#4D4542" font-family="'NanumGothic'" font-size="9">#FFFFF</tspan><tspan x="30.248" y="0" fill="#4D4542" font-family="'NanumGothic'" font-size="9">F</tspan></text>
<text transform="matrix(1 0 0 1 105.8679 274.688)"><tspan x="0" y="0" fill="#4C4949" font-family="'NanumGothic'" font-size="11">m</tspan><tspan x="10.428" y="0" fill="#4C4949" font-family="'NanumGothic'" font-size="11">a</tspan><tspan x="16.852" y="0" fill="#4C4949" font-family="'NanumGothic'" font-size="11">i</tspan><tspan x="19.954" y="0" fill="#4C4949" font-family="'NanumGothic'" font-size="11">n</tspan></text>
<text transform="matrix(1 0 0 1 105.8679 417.8857)"><tspan x="0" y="0" fill="#4C4949" font-family="'NanumGothic'" font-size="11">poin</tspan><tspan x="24.419" y="0" fill="#4C4949" font-family="'NanumGothic'" font-size="11">t</tspan></text>
<text transform="matrix(1 0 0 1 105.1643 346.8154)"><tspan x="0" y="0" fill="#4C4949" font-family="'NanumGothic'" font-size="11">su</tspan><tspan x="12.21" y="0" fill="#4C4949" font-family="'NanumGothic'" font-size="11">b</tspan></text>
<rect x="694.538" y="264.191" fill="none" stroke="#333333" stroke-width="0.283" width="97.404" height="29.041"/>
<text transform="matrix(1 0 0 1 716.3875 283.29)"><tspan x="0" y="0" fill="#DD0330" font-family="'NanumGothic'" font-size="14">dd033</tspan><tspan x="45.22" y="0" fill="#DD0330" font-family="'NanumGothic'" font-size="14">0</tspan></text>
<text transform="matrix(1 0 0 1 736.823 320.2305)"><tspan x="0" y="0" fill="#4C4949" font-family="'NanumGothic'" font-size="9">5</tspan><tspan x="5.813" y="0" fill="#4C4949" font-family="'NanumGothic'" font-size="9">.</tspan><tspan x="8.891" y="0" fill="#4C4949" font-family="'NanumGothic'" font-size="9">08</tspan><tspan x="20.52" y="0" fill="#4C4949" font-family="'NanumGothic'" font-size="9"> : </tspan><tspan x="29.339" y="0" fill="#4C4949" font-family="'NanumGothic'" font-size="9">1</tspan></text>
<rect x="694.538" y="358.274" fill="#222222" width="97.404" height="29.041"/>
<text transform="matrix(1 0 0 1 716.0535 377.5146)"><tspan x="0" y="0" fill="#DD0330" font-family="'NanumGothicBold'" font-size="14">DD033</tspan><tspan x="48.607" y="0" fill="#DD0330" font-family="'NanumGothicBold'" font-size="14">0</tspan></text>
<text transform="matrix(1 0 0 1 736.9939 414.4551)"><tspan x="0" y="0" fill="#4C4949" font-family="'NanumGothic'" font-size="9">3</tspan><tspan x="5.813" y="0" fill="#4C4949" font-family="'NanumGothic'" font-size="9">.</tspan><tspan x="8.892" y="0" fill="#4C4949" font-family="'NanumGothic'" font-size="9">12</tspan><tspan x="20.52" y="0" fill="#4C4949" font-family="'NanumGothic'" font-size="9"> : </tspan><tspan x="29.34" y="0" fill="#4C4949" font-family="'NanumGothic'" font-size="9">1</tspan></text>
<text transform="matrix(1 0 0 1 95.467 94.6611)"><tspan x="0" y="0" fill="#231916" font-family="'NanumGothic'" font-size="11">기</tspan><tspan x="10.78" y="0" fill="#231916" font-family="'NanumGothic'" font-size="11">본</tspan></text>
<text transform="matrix(1 0 0 1 577.0378 491.7666)"><tspan x="0" y="0" fill="#4C4949" font-family="'NanumGothic'" font-size="9">*명도</tspan><tspan x="23.453" y="0" fill="#4C4949" font-family="'NanumGothic'" font-size="9"> </tspan><tspan x="26.324" y="0" fill="#4C4949" font-family="'NanumGothic'" font-size="9">대비</tspan><tspan x="43.965" y="0" fill="#4C4949" font-family="'NanumGothic'" font-size="9"> </tspan><tspan x="46.836" y="0" fill="#4C4949" font-family="'NanumGothic'" font-size="9">3</tspan><tspan x="52.649" y="0" fill="#4C4949" font-family="'NanumGothic'" font-size="9">.</tspan><tspan x="55.727" y="0" fill="#4C4949" font-family="'NanumGothic'" font-size="9">0이상</tspan><tspan x="79.181" y="0" fill="#4C4949" font-family="'NanumGothic'" font-size="9"> </tspan><tspan x="82.052" y="0" fill="#4C4949" font-family="'NanumGothic'" font-size="9">4</tspan><tspan x="87.865" y="0" fill="#4C4949" font-family="'NanumGothic'" font-size="9">.</tspan><tspan x="90.943" y="0" fill="#4C4949" font-family="'NanumGothic'" font-size="9">5미만은</tspan><tspan x="123.217" y="0" fill="#4C4949" font-family="'NanumGothic'" font-size="9"> </tspan><tspan x="126.088" y="0" fill="#4C4949" font-family="'NanumGothic'" font-size="9">18pt이상</tspan><tspan x="164.797" y="0" fill="#4C4949" font-family="'NanumGothic'" font-size="9"> </tspan><tspan x="167.668" y="0" fill="#4C4949" font-family="'NanumGothic'" font-size="9">(또는</tspan><tspan x="188.934" y="0" fill="#4C4949" font-family="'NanumGothic'" font-size="9"> </tspan><tspan x="191.805" y="0" fill="#4C4949" font-family="'NanumGothic'" font-size="9">14pt이상</tspan><tspan x="230.514" y="0" fill="#4C4949" font-family="'NanumGothic'" font-size="9"> </tspan><tspan x="233.385" y="0" fill="#4C4949" font-family="'NanumGothic'" font-size="9">+</tspan><tspan x="239.631" y="0" fill="#4C4949" font-family="'NanumGothic'" font-size="9"> </tspan><tspan x="242.502" y="0" fill="#4C4949" font-family="'NanumGothic'" font-size="9">bold</tspan><tspan x="262.481" y="0" fill="#4C4949" font-family="'NanumGothic'" font-size="9"> </tspan><tspan x="265.353" y="0" fill="#4C4949" font-family="'NanumGothic'" font-size="9">사용</tspan><tspan x="282.992" y="0" fill="#4C4949" font-family="'NanumGothic'" font-size="9">)</tspan></text>
<line fill="none" stroke="#F05D3F" stroke-miterlimit="10" x1="-3.777" y1="59.905" x2="291.477" y2="59.905"/>
<line fill="none" stroke="#F05D3F" stroke-miterlimit="10" x1="-3.777" y1="220.905" x2="291.477" y2="220.905"/>
<line fill="none" stroke="#F05D3F" stroke-miterlimit="10" x1="599.223" y1="220.905" x2="894.477" y2="220.905"/>
</svg>
