<?xml version="1.0" encoding="utf-8"?>
<!-- Generator: Adobe Illustrator 16.0.0, SVG Export Plug-In . SVG Version: 6.00 Build 0)  -->
<!DOCTYPE svg PUBLIC "-//W3C//DTD SVG 1.1//EN" "http://www.w3.org/Graphics/SVG/1.1/DTD/svg11.dtd">
<svg version="1.1" id="Layer_1" xmlns="http://www.w3.org/2000/svg" xmlns:xlink="http://www.w3.org/1999/xlink" x="0px" y="0px"
	 width="595.279px" height="770.76px" viewBox="0 -10.241 595.279 770.76" enable-background="new 0 -10.241 595.279 770.76"
	 xml:space="preserve">
<g enable-background="new    ">
	<path fill="#B71D22" d="M61.829,33.344l-5.555-14.934h-0.089c0.105,1.182,0.157,2.588,0.157,4.217v10.717h-1.758V16.497h2.867
		l5.186,13.897h0.089l5.231-13.897h2.845v16.847h-1.904V22.489c0-1.244,0.052-2.597,0.156-4.056h-0.09l-5.599,14.911H61.829z"/>
</g>
<g enable-background="new    ">
	<path fill="#B71D22" d="M81.114,33.574c-1.814,0-3.246-0.568-4.295-1.706c-1.048-1.136-1.573-2.715-1.573-4.734
		c0-2.037,0.488-3.654,1.461-4.853c0.975-1.198,2.283-1.797,3.925-1.797c1.538,0,2.755,0.52,3.652,1.561
		c0.895,1.042,1.344,2.415,1.344,4.121v1.209h-8.456c0.038,1.482,0.401,2.608,1.092,3.375c0.69,0.77,1.663,1.153,2.917,1.153
		c1.322,0,2.627-0.284,3.919-0.853v1.706c-0.657,0.291-1.278,0.501-1.864,0.627S81.943,33.574,81.114,33.574z M80.61,22.085
		c-0.985,0-1.771,0.331-2.358,0.992c-0.585,0.66-0.931,1.574-1.036,2.741h6.417c0-1.206-0.262-2.129-0.784-2.771
		C82.327,22.407,81.58,22.085,80.61,22.085z"/>
</g>
<g enable-background="new    ">
	<path fill="#B71D22" d="M98.091,33.344v-8.171c0-1.029-0.228-1.797-0.683-2.304c-0.456-0.507-1.169-0.76-2.14-0.76
		c-1.284,0-2.225,0.357-2.822,1.072c-0.598,0.714-0.896,1.893-0.896,3.538v6.625H89.69V20.715h1.512l0.303,1.729h0.089
		c0.381-0.622,0.915-1.104,1.602-1.446c0.686-0.342,1.452-0.513,2.296-0.513c1.479,0,2.59,0.367,3.337,1.1
		c0.746,0.734,1.12,1.908,1.12,3.521v8.239H98.091z"/>
	<path fill="#B71D22" d="M105.515,20.715v8.192c0,1.03,0.228,1.798,0.683,2.305c0.456,0.507,1.168,0.762,2.139,0.762
		c1.284,0,2.224-0.361,2.817-1.084c0.594-0.722,0.891-1.9,0.891-3.537v-6.637h1.859v12.629h-1.534l-0.269-1.693H112
		c-0.38,0.621-0.908,1.098-1.585,1.429c-0.675,0.33-1.447,0.495-2.313,0.495c-1.493,0-2.611-0.365-3.354-1.094
		c-0.743-0.73-1.114-1.898-1.114-3.503v-8.262H105.515z"/>
	<path fill="#B71D22" d="M136.874,33.344h-2.173l-8.948-14.139h-0.089c0.12,1.66,0.179,3.181,0.179,4.564v9.575h-1.758V16.497h2.15
		l8.927,14.081h0.089c-0.015-0.207-0.049-0.873-0.101-1.999c-0.052-1.126-0.071-1.932-0.056-2.414v-9.669h1.78V33.344z"/>
</g>
<g enable-background="new    ">
	<path fill="#B71D22" d="M152.316,33.344l-0.37-1.798h-0.09c-0.611,0.791-1.222,1.327-1.831,1.607
		c-0.608,0.28-1.367,0.421-2.278,0.421c-1.217,0-2.171-0.323-2.861-0.967c-0.691-0.646-1.036-1.564-1.036-2.754
		c0-2.551,1.981-3.887,5.946-4.01l2.083-0.07v-0.784c0-0.99-0.206-1.722-0.621-2.195s-1.078-0.709-1.989-0.709
		c-1.022,0-2.18,0.323-3.471,0.968l-0.571-1.463c0.604-0.338,1.267-0.603,1.988-0.795c0.721-0.192,1.443-0.288,2.167-0.288
		c1.463,0,2.547,0.333,3.253,1.003c0.705,0.667,1.059,1.739,1.059,3.214v8.62H152.316z M148.116,31.995
		c1.157,0,2.066-0.327,2.727-0.979c0.661-0.652,0.991-1.567,0.991-2.742v-1.14l-1.859,0.079c-1.478,0.053-2.544,0.29-3.198,0.708
		c-0.653,0.42-0.979,1.07-0.979,1.953c0,0.691,0.204,1.218,0.611,1.579C146.815,31.816,147.384,31.995,148.116,31.995z"/>
</g>
<g enable-background="new    ">
	<path fill="#B71D22" d="M161.106,33.344l-4.658-12.629h1.993l2.644,7.49c0.596,1.751,0.947,2.888,1.052,3.411h0.09
		c0.082-0.407,0.342-1.25,0.778-2.529c0.438-1.279,1.417-4.069,2.94-8.372h1.994l-4.659,12.629H161.106z"/>
	<path fill="#B71D22" d="M169.752,17.292c0-0.437,0.104-0.758,0.313-0.963c0.209-0.203,0.471-0.304,0.785-0.304
		c0.298,0,0.556,0.103,0.772,0.311c0.216,0.207,0.325,0.526,0.325,0.956s-0.108,0.751-0.325,0.962
		c-0.217,0.211-0.475,0.316-0.772,0.316c-0.314,0-0.576-0.105-0.785-0.316C169.857,18.043,169.752,17.723,169.752,17.292z
		 M171.768,33.344h-1.859V20.715h1.859V33.344z"/>
	<path fill="#B71D22" d="M185.756,20.715v1.21l-2.273,0.277c0.209,0.268,0.395,0.62,0.56,1.054c0.164,0.434,0.247,0.923,0.247,1.469
		c0,1.238-0.411,2.225-1.232,2.962c-0.821,0.737-1.949,1.105-3.382,1.105c-0.366,0-0.71-0.031-1.03-0.092
		c-0.792,0.429-1.188,0.972-1.188,1.624c0,0.346,0.138,0.602,0.414,0.767c0.276,0.165,0.751,0.247,1.422,0.247h2.174
		c1.328,0,2.35,0.288,3.062,0.866c0.713,0.574,1.07,1.413,1.07,2.51c0,1.399-0.545,2.466-1.635,3.199
		c-1.09,0.733-2.68,1.101-4.771,1.101c-1.605,0-2.843-0.307-3.713-0.922c-0.87-0.614-1.304-1.482-1.304-2.604
		c0-0.768,0.238-1.433,0.717-1.993c0.477-0.562,1.148-0.941,2.015-1.141c-0.313-0.146-0.577-0.372-0.79-0.68
		c-0.212-0.307-0.319-0.664-0.319-1.072c0-0.461,0.119-0.864,0.358-1.209c0.239-0.347,0.616-0.681,1.131-1.003
		c-0.635-0.27-1.151-0.727-1.551-1.372c-0.399-0.646-0.599-1.383-0.599-2.212c0-1.383,0.403-2.449,1.21-3.198
		c0.806-0.749,1.948-1.123,3.426-1.123c0.643,0,1.222,0.077,1.736,0.23H185.756z M175.967,35.464c0,0.684,0.281,1.202,0.841,1.555
		c0.56,0.354,1.362,0.532,2.408,0.532c1.561,0,2.716-0.242,3.466-0.721c0.75-0.48,1.125-1.132,1.125-1.953
		c0-0.684-0.206-1.159-0.615-1.424c-0.411-0.265-1.184-0.398-2.318-0.398h-2.229c-0.845,0-1.501,0.208-1.971,0.624
		C176.203,34.094,175.967,34.688,175.967,35.464z M176.976,24.759c0,0.884,0.242,1.552,0.728,2.006
		c0.485,0.453,1.161,0.679,2.028,0.679c1.813,0,2.722-0.905,2.722-2.719c0-1.897-0.919-2.846-2.755-2.846
		c-0.875,0-1.546,0.242-2.016,0.726C177.212,23.088,176.976,23.807,176.976,24.759z"/>
</g>
<g enable-background="new    ">
	<path fill="#B71D22" d="M198.576,33.344l-0.37-1.798h-0.089c-0.613,0.791-1.223,1.327-1.832,1.607
		c-0.608,0.28-1.368,0.421-2.279,0.421c-1.217,0-2.17-0.323-2.861-0.967c-0.69-0.646-1.036-1.564-1.036-2.754
		c0-2.551,1.982-3.887,5.947-4.01l2.083-0.07v-0.784c0-0.99-0.208-1.722-0.623-2.195c-0.414-0.473-1.077-0.709-1.987-0.709
		c-1.024,0-2.181,0.323-3.473,0.968l-0.571-1.463c0.604-0.338,1.267-0.603,1.989-0.795c0.719-0.192,1.442-0.288,2.166-0.288
		c1.463,0,2.548,0.333,3.254,1.003c0.705,0.667,1.058,1.739,1.058,3.214v8.62H198.576z M194.376,31.995
		c1.157,0,2.066-0.327,2.727-0.979c0.66-0.652,0.991-1.567,0.991-2.742v-1.14l-1.859,0.079c-1.478,0.053-2.544,0.29-3.198,0.708
		c-0.653,0.42-0.979,1.07-0.979,1.953c0,0.691,0.204,1.218,0.611,1.579C193.075,31.816,193.644,31.995,194.376,31.995z"/>
	<path fill="#B71D22" d="M207.748,31.995c0.328,0,0.646-0.024,0.952-0.074c0.306-0.051,0.549-0.102,0.729-0.157v1.465
		c-0.202,0.099-0.5,0.181-0.89,0.247c-0.393,0.065-0.745,0.098-1.059,0.098c-2.374,0-3.562-1.287-3.562-3.859v-7.513h-1.758V21.28
		l1.758-0.796l0.785-2.696h1.075v2.927h3.562v1.487h-3.562v7.431c0,0.761,0.176,1.344,0.526,1.752
		C206.654,31.792,207.135,31.995,207.748,31.995z"/>
</g>
<g enable-background="new    ">
	<path fill="#B71D22" d="M213.513,17.292c0-0.437,0.104-0.758,0.313-0.963c0.208-0.203,0.471-0.304,0.784-0.304
		c0.299,0,0.556,0.103,0.773,0.311c0.216,0.207,0.325,0.526,0.325,0.956s-0.108,0.751-0.325,0.962
		c-0.217,0.211-0.475,0.316-0.773,0.316c-0.313,0-0.575-0.105-0.784-0.316C213.616,18.043,213.513,17.723,213.513,17.292z
		 M215.529,33.344h-1.859V20.715h1.859V33.344z"/>
</g>
<g enable-background="new    ">
	<path fill="#B71D22" d="M230.984,27.018c0,2.059-0.504,3.666-1.513,4.822c-1.008,1.157-2.401,1.734-4.177,1.734
		c-1.098,0-2.072-0.265-2.923-0.796c-0.85-0.529-1.508-1.29-1.971-2.28c-0.463-0.993-0.694-2.152-0.694-3.481
		c0-2.059,0.5-3.663,1.5-4.811c1.001-1.147,2.39-1.722,4.167-1.722c1.717,0,3.082,0.587,4.093,1.764
		C230.478,23.422,230.984,25.014,230.984,27.018z M221.632,27.018c0,1.612,0.314,2.843,0.94,3.687
		c0.628,0.845,1.55,1.269,2.767,1.269c1.217,0,2.14-0.421,2.771-1.262c0.631-0.841,0.947-2.072,0.947-3.693
		c0-1.605-0.315-2.824-0.947-3.659c-0.631-0.833-1.563-1.25-2.794-1.25c-1.217,0-2.136,0.41-2.755,1.233
		C221.941,24.165,221.632,25.389,221.632,27.018z"/>
</g>
<g enable-background="new    ">
	<path fill="#B71D22" d="M243.536,33.344v-8.171c0-1.029-0.228-1.797-0.683-2.304c-0.455-0.507-1.168-0.76-2.139-0.76
		c-1.284,0-2.225,0.357-2.822,1.072c-0.598,0.714-0.896,1.893-0.896,3.538v6.625h-1.859V20.715h1.512l0.302,1.729h0.09
		c0.381-0.622,0.914-1.104,1.601-1.446c0.687-0.342,1.452-0.513,2.296-0.513c1.479,0,2.591,0.367,3.338,1.1
		c0.746,0.734,1.12,1.908,1.12,3.521v8.239H243.536z"/>
</g>
<g>
	<g>
		<defs>
			<rect id="SVGID_1_" x="0" y="14.309" width="502.013" height="692.37"/>
		</defs>
		<clipPath id="SVGID_2_">
			<use xlink:href="#SVGID_1_"  overflow="visible"/>
		</clipPath>
		<g clip-path="url(#SVGID_2_)">
			<rect x="0" y="39.449" fill="#B71D22" width="375.638" height="1"/>
		</g>
	</g>
	<g>
		<defs>
			<rect id="SVGID_3_" x="0" y="14.309" width="502.013" height="692.37"/>
		</defs>
		<clipPath id="SVGID_4_">
			<use xlink:href="#SVGID_3_"  overflow="visible"/>
		</clipPath>
		<g clip-path="url(#SVGID_4_)">
			<path fill="#B71D22" d="M377.243,41.896c1.075,0,1.947-0.872,1.947-1.947c0-1.075-0.872-1.947-1.947-1.947
				c-1.074,0-1.946,0.872-1.946,1.947C375.297,41.023,376.169,41.896,377.243,41.896"/>
		</g>
	</g>
</g>
<g>
	<polygon fill="#231815" points="430.847,576.438 195.576,357.347 306.216,284.722 143.15,202.239 143.601,201.347 308.21,284.61 
		197.19,357.483 431.529,575.706 	"/>
</g>
<g>
	
		<rect x="172.049" y="385.35" transform="matrix(0.9948 0.1015 -0.1015 0.9948 44.9318 -15.278)" fill="#231815" width="1" height="96.798"/>
</g>
<g>
	
		<rect x="109.724" y="492.933" transform="matrix(0.3323 0.9432 -0.9432 0.3323 622.8231 107.0897)" fill="#231815" width="252.103" height="1"/>
</g>
<g>
	<g>
		<defs>
			<rect id="SVGID_5_" x="0" y="14.309" width="502.013" height="692.37"/>
		</defs>
		<clipPath id="SVGID_6_">
			<use xlink:href="#SVGID_5_"  overflow="visible"/>
		</clipPath>
		<g clip-path="url(#SVGID_6_)">
			<path fill="#4C4948" d="M190.026,395.729c17.278,0,31.286-14.008,31.286-31.287c0-17.277-14.008-31.285-31.286-31.285
				s-31.285,14.008-31.285,31.285C158.74,381.722,172.747,395.729,190.026,395.729"/>
		</g>
	</g>
</g>
<g enable-background="new    ">
	<path fill="#F2F2F2" d="M178.173,362.976h0.675l0.072,0.711h0.027c0.423-0.468,0.936-0.837,1.521-0.837
		c0.747,0,1.152,0.36,1.35,0.937c0.504-0.549,1.018-0.937,1.612-0.937c1.008,0,1.485,0.666,1.485,1.918v3.097h-0.819v-2.989
		c0-0.918-0.288-1.305-0.909-1.305c-0.378,0-0.774,0.243-1.233,0.747v3.547h-0.819v-2.989c0-0.918-0.288-1.305-0.909-1.305
		c-0.369,0-0.783,0.243-1.233,0.747v3.547h-0.819V362.976z"/>
</g>
<g enable-background="new    ">
	<path fill="#F2F2F2" d="M186.489,365.425c0-1.585,1.071-2.575,2.206-2.575c1.242,0,1.944,0.9,1.944,2.296
		c0,0.18-0.018,0.351-0.036,0.468h-3.295c0.054,1.045,0.693,1.711,1.621,1.711c0.477,0,0.864-0.145,1.224-0.388l0.297,0.541
		c-0.432,0.278-0.955,0.504-1.621,0.504C187.533,367.982,186.489,367.037,186.489,365.425z M189.919,365.029
		c0-0.99-0.45-1.521-1.215-1.521c-0.693,0-1.306,0.559-1.404,1.521H189.919z"/>
</g>
<g enable-background="new    ">
	<path fill="#F2F2F2" d="M192.204,362.976h0.675l0.072,0.702h0.027c0.468-0.459,0.972-0.828,1.639-0.828
		c1.026,0,1.494,0.666,1.494,1.918v3.097h-0.819v-2.989c0-0.918-0.279-1.305-0.927-1.305c-0.504,0-0.846,0.252-1.341,0.747v3.547
		h-0.819V362.976z"/>
</g>
<g enable-background="new    ">
	<path fill="#F2F2F2" d="M197.991,366.073v-3.097h0.819v2.998c0,0.909,0.27,1.297,0.918,1.297c0.504,0,0.855-0.243,1.323-0.829
		v-3.466h0.819v4.889h-0.685l-0.063-0.766h-0.027c-0.459,0.531-0.945,0.883-1.621,0.883
		C198.45,367.982,197.991,367.316,197.991,366.073z"/>
</g>
<g>
	<g>
		<defs>
			<rect id="SVGID_7_" x="0" y="14.309" width="502.013" height="692.37"/>
		</defs>
		<clipPath id="SVGID_8_">
			<use xlink:href="#SVGID_7_"  overflow="visible"/>
		</clipPath>
		<g clip-path="url(#SVGID_8_)">
			<path fill="#231815" d="M127.941,572.685c33.088,0,59.912-26.822,59.912-59.91s-26.824-59.91-59.912-59.91
				s-59.91,26.822-59.91,59.91S94.854,572.685,127.941,572.685"/>
		</g>
	</g>
</g>
<g enable-background="new    ">
	<path fill="#F2F2F2" d="M112.454,510.913h1.086l1.166,3.531c0.194,0.606,0.389,1.246,0.583,1.829h0.046
		c0.183-0.583,0.388-1.223,0.571-1.829l1.177-3.531h1.028l-2.206,6.206h-1.211L112.454,510.913z"/>
	<path fill="#F2F2F2" d="M119.118,508.958c0-0.423,0.309-0.675,0.72-0.675s0.72,0.252,0.72,0.675c0,0.389-0.309,0.674-0.72,0.674
		S119.118,509.347,119.118,508.958z M119.312,510.913h1.04v6.206h-1.04V510.913z"/>
	<path fill="#F2F2F2" d="M122.01,514.021c0-2.011,1.269-3.269,2.686-3.269c0.731,0,1.2,0.274,1.749,0.731l-0.057-1.074v-2.389h1.04
		v9.098h-0.846l-0.103-0.731h-0.022c-0.492,0.48-1.143,0.88-1.886,0.88C123.015,517.267,122.01,516.09,122.01,514.021z
		 M126.387,515.542v-3.257c-0.526-0.469-0.994-0.652-1.509-0.652c-1.005,0-1.794,0.961-1.794,2.378c0,1.497,0.617,2.389,1.714,2.389
		C125.37,516.399,125.873,516.113,126.387,515.542z"/>
</g>
<g enable-background="new    ">
	<path fill="#F2F2F2" d="M130.411,514.021c0-2.011,1.36-3.269,2.8-3.269c1.577,0,2.469,1.144,2.469,2.915
		c0,0.229-0.023,0.445-0.046,0.594h-4.183c0.068,1.326,0.88,2.172,2.057,2.172c0.605,0,1.097-0.183,1.554-0.491l0.377,0.686
		c-0.548,0.354-1.211,0.64-2.057,0.64C131.737,517.267,130.411,516.067,130.411,514.021z M134.765,513.519
		c0-1.258-0.572-1.932-1.543-1.932c-0.88,0-1.657,0.708-1.783,1.932H134.765z"/>
</g>
<g enable-background="new    ">
	<path fill="#F2F2F2" d="M137.2,514.021c0-2.068,1.36-3.269,2.88-3.269s2.88,1.2,2.88,3.269c0,2.058-1.36,3.246-2.88,3.246
		S137.2,516.079,137.2,514.021z M141.885,514.021c0-1.428-0.731-2.399-1.806-2.399s-1.794,0.972-1.794,2.399
		c0,1.429,0.72,2.378,1.794,2.378S141.885,515.45,141.885,514.021z"/>
</g>
<g>
	<g>
		<defs>
			<rect id="SVGID_9_" x="0" y="14.309" width="502.013" height="692.37"/>
		</defs>
		<clipPath id="SVGID_10_">
			<use xlink:href="#SVGID_9_"  overflow="visible"/>
		</clipPath>
		<g clip-path="url(#SVGID_10_)">
			<path fill="#B71D22" d="M458.289,370.997c19.451,0,35.22-15.768,35.22-35.219c0-19.451-15.769-35.218-35.22-35.218
				c-19.45,0-35.219,15.768-35.219,35.218C423.071,355.229,438.839,370.997,458.289,370.997"/>
		</g>
	</g>
</g>
<g>
	<rect x="426.633" y="328.905" fill="#B71D22" width="64.042" height="17.008"/>
</g>
<g enable-background="new    ">
	<path fill="#F2F2F2" d="M430.628,338.655c0-2.011,1.359-3.269,2.799-3.269c1.578,0,2.469,1.144,2.469,2.915
		c0,0.229-0.022,0.445-0.045,0.594h-4.184c0.068,1.326,0.881,2.172,2.058,2.172c0.605,0,1.097-0.183,1.554-0.491l0.377,0.686
		c-0.548,0.354-1.211,0.64-2.057,0.64C431.953,341.901,430.628,340.701,430.628,338.655z M434.982,338.153
		c0-1.258-0.571-1.932-1.543-1.932c-0.88,0-1.656,0.708-1.783,1.932H434.982z"/>
	<path fill="#F2F2F2" d="M437.428,340.518v-7.863h1.04v7.932c0,0.32,0.137,0.446,0.297,0.446c0.058,0,0.104,0,0.218-0.023
		l0.148,0.801c-0.148,0.057-0.331,0.091-0.606,0.091C437.748,341.901,437.428,341.398,437.428,340.518z"/>
	<path fill="#F2F2F2" d="M440.217,338.655c0-2.011,1.36-3.269,2.8-3.269c1.577,0,2.469,1.144,2.469,2.915
		c0,0.229-0.023,0.445-0.046,0.594h-4.183c0.068,1.326,0.88,2.172,2.057,2.172c0.605,0,1.098-0.183,1.555-0.491l0.377,0.686
		c-0.549,0.354-1.211,0.64-2.057,0.64C441.542,341.901,440.217,340.701,440.217,338.655z M444.572,338.153
		c0-1.258-0.572-1.932-1.543-1.932c-0.881,0-1.657,0.708-1.783,1.932H444.572z"/>
</g>
<g enable-background="new    ">
	<path fill="#F2F2F2" d="M447.921,338.655c0-2.068,1.405-3.269,2.994-3.269c0.811,0,1.371,0.343,1.816,0.731l-0.537,0.697
		c-0.365-0.331-0.742-0.56-1.246-0.56c-1.119,0-1.942,0.972-1.942,2.399c0,1.429,0.777,2.378,1.921,2.378
		c0.57,0,1.074-0.263,1.463-0.617l0.445,0.697c-0.549,0.503-1.258,0.788-2,0.788C449.189,341.901,447.921,340.712,447.921,338.655z"
		/>
</g>
<g enable-background="new    ">
	<path fill="#F2F2F2" d="M454.721,339.833v-3.44h-0.926v-0.788l0.972-0.058l0.125-1.737h0.869v1.737h1.68v0.846h-1.68v3.463
		c0,0.766,0.24,1.2,0.96,1.2c0.218,0,0.503-0.08,0.708-0.16l0.206,0.777c-0.354,0.114-0.766,0.229-1.143,0.229
		C455.167,341.901,454.721,341.079,454.721,339.833z"/>
</g>
<g enable-background="new    ">
	<path fill="#F2F2F2" d="M459.292,335.546h0.857l0.092,1.132h0.034c0.435-0.789,1.063-1.292,1.761-1.292
		c0.273,0,0.469,0.034,0.662,0.138l-0.193,0.914c-0.207-0.08-0.355-0.103-0.606-0.103c-0.515,0-1.154,0.365-1.565,1.429v3.988
		h-1.041V335.546z"/>
</g>
<g enable-background="new    ">
	<path fill="#F2F2F2" d="M463.591,338.655c0-2.068,1.359-3.269,2.879-3.269c1.521,0,2.881,1.2,2.881,3.269
		c0,2.058-1.36,3.246-2.881,3.246C464.95,341.901,463.591,340.712,463.591,338.655z M468.277,338.655
		c0-1.428-0.732-2.399-1.807-2.399s-1.794,0.972-1.794,2.399c0,1.429,0.72,2.378,1.794,2.378S468.277,340.083,468.277,338.655z"/>
</g>
<g enable-background="new    ">
	<path fill="#F2F2F2" d="M471.443,335.546h0.857l0.092,0.892h0.034c0.595-0.583,1.234-1.052,2.08-1.052
		c1.304,0,1.897,0.846,1.897,2.435v3.932h-1.04v-3.794c0-1.166-0.354-1.657-1.177-1.657c-0.641,0-1.074,0.319-1.703,0.948v4.503
		h-1.041V335.546z"/>
	<path fill="#F2F2F2" d="M478.232,333.592c0-0.423,0.309-0.675,0.721-0.675s0.721,0.252,0.721,0.675
		c0,0.389-0.309,0.674-0.721,0.674S478.232,333.981,478.232,333.592z M478.427,335.546h1.039v6.206h-1.039V335.546z"/>
</g>
<g enable-background="new    ">
	<path fill="#F2F2F2" d="M481.992,338.655c0-2.068,1.405-3.269,2.994-3.269c0.812,0,1.372,0.343,1.817,0.731l-0.537,0.697
		c-0.365-0.331-0.743-0.56-1.246-0.56c-1.119,0-1.943,0.972-1.943,2.399c0,1.429,0.777,2.378,1.921,2.378
		c0.571,0,1.074-0.263,1.463-0.617l0.445,0.697c-0.548,0.503-1.257,0.788-2,0.788C483.261,341.901,481.992,340.712,481.992,338.655z
		"/>
</g>
<g>
	<g>
		<defs>
			<rect id="SVGID_11_" x="0" y="14.309" width="502.013" height="692.37"/>
		</defs>
		<clipPath id="SVGID_12_">
			<use xlink:href="#SVGID_11_"  overflow="visible"/>
		</clipPath>
		<g clip-path="url(#SVGID_12_)">
			<path fill="#B71D22" d="M344.622,169.738c19.451,0,35.22-15.769,35.22-35.219c0-19.451-15.769-35.219-35.22-35.219
				c-19.45,0-35.219,15.768-35.219,35.219C309.404,153.97,325.172,169.738,344.622,169.738"/>
		</g>
	</g>
</g>
<g>
	<rect x="326.776" y="128.272" fill="#B71D22" width="35.694" height="12.493"/>
</g>
<g enable-background="new    ">
	<path fill="#F2F2F2" d="M331.409,132.657h0.857l0.092,0.903h0.033c0.537-0.595,1.189-1.063,1.932-1.063
		c0.949,0,1.463,0.457,1.715,1.188c0.641-0.696,1.291-1.188,2.046-1.188c1.28,0,1.886,0.846,1.886,2.435v3.932h-1.04v-3.794
		c0-1.166-0.366-1.657-1.154-1.657c-0.479,0-0.983,0.309-1.565,0.948v4.503h-1.041v-3.794c0-1.166-0.365-1.657-1.154-1.657
		c-0.469,0-0.994,0.309-1.565,0.948v4.503h-1.04V132.657z"/>
	<path fill="#F2F2F2" d="M341.605,137.251c0-1.349,1.178-2.023,3.817-2.32c0-0.8-0.263-1.565-1.28-1.565
		c-0.72,0-1.371,0.331-1.862,0.663l-0.411-0.721c0.57-0.365,1.451-0.812,2.445-0.812c1.508,0,2.148,1.018,2.148,2.549v3.817h-0.857
		l-0.092-0.743h-0.033c-0.595,0.492-1.292,0.892-2.058,0.892C342.382,139.011,341.605,138.372,341.605,137.251z M345.422,137.354
		v-1.737c-2.091,0.252-2.8,0.766-2.8,1.566c0,0.708,0.48,0.994,1.098,0.994C344.325,138.177,344.817,137.891,345.422,137.354z"/>
	<path fill="#F2F2F2" d="M348.245,130.703c0-0.423,0.309-0.675,0.721-0.675s0.721,0.252,0.721,0.675
		c0,0.389-0.309,0.674-0.721,0.674S348.245,131.091,348.245,130.703z M348.441,132.657h1.039v6.206h-1.039V132.657z"/>
</g>
<g enable-background="new    ">
	<path fill="#F2F2F2" d="M352.921,132.657h0.857l0.091,0.892h0.034c0.594-0.583,1.234-1.052,2.08-1.052
		c1.303,0,1.897,0.846,1.897,2.435v3.932h-1.04v-3.794c0-1.166-0.354-1.657-1.178-1.657c-0.64,0-1.074,0.319-1.703,0.948v4.503
		h-1.039V132.657z"/>
</g>
<g>
	<g>
		<defs>
			<rect id="SVGID_13_" x="0" y="14.309" width="502.013" height="692.37"/>
		</defs>
		<clipPath id="SVGID_14_">
			<use xlink:href="#SVGID_13_"  overflow="visible"/>
		</clipPath>
		<g clip-path="url(#SVGID_14_)">
			<path fill="#B71D22" d="M466.794,288.083c19.45,0,35.219-15.768,35.219-35.219c0-19.451-15.769-35.219-35.219-35.219
				c-19.451,0-35.22,15.768-35.22,35.219C431.574,272.316,447.343,288.083,466.794,288.083"/>
		</g>
	</g>
</g>
<g>
	<rect x="448.946" y="246.618" fill="#B71D22" width="35.694" height="12.493"/>
</g>
<g enable-background="new    ">
	<path fill="#F2F2F2" d="M454.438,251.002h0.857l0.091,0.892h0.035c0.594-0.583,1.234-1.052,2.08-1.052
		c1.303,0,1.896,0.846,1.896,2.435v3.932h-1.039v-3.794c0-1.166-0.355-1.657-1.178-1.657c-0.641,0-1.074,0.319-1.703,0.948v4.503
		h-1.04V251.002z"/>
</g>
<g enable-background="new    ">
	<path fill="#F2F2F2" d="M461.4,254.111c0-2.011,1.359-3.269,2.8-3.269c1.577,0,2.469,1.144,2.469,2.915
		c0,0.229-0.022,0.445-0.046,0.594h-4.183c0.068,1.326,0.88,2.172,2.058,2.172c0.605,0,1.097-0.183,1.554-0.491l0.377,0.686
		c-0.548,0.354-1.212,0.64-2.058,0.64C462.726,257.357,461.4,256.157,461.4,254.111z M465.754,253.609
		c0-1.258-0.571-1.932-1.543-1.932c-0.88,0-1.657,0.708-1.783,1.932H465.754z"/>
	<path fill="#F2F2F2" d="M467.732,254.111c0-2.068,1.406-3.269,2.994-3.269c0.812,0,1.371,0.343,1.817,0.731l-0.537,0.697
		c-0.366-0.331-0.743-0.56-1.246-0.56c-1.12,0-1.942,0.972-1.942,2.399c0,1.429,0.777,2.378,1.92,2.378
		c0.571,0,1.074-0.263,1.463-0.617l0.445,0.697c-0.549,0.503-1.257,0.788-2,0.788C469,257.357,467.732,256.168,467.732,254.111z"/>
</g>
<g enable-background="new    ">
	<path fill="#F2F2F2" d="M474.931,248.111h1.029v6.172h0.022l2.663-3.28h1.154l-2.08,2.491l2.354,3.715h-1.131l-1.817-2.994
		l-1.165,1.359v1.635h-1.029V248.111z"/>
</g>
<g>
	<g>
		<defs>
			<rect id="SVGID_15_" x="0" y="14.309" width="502.013" height="692.37"/>
		</defs>
		<clipPath id="SVGID_16_">
			<use xlink:href="#SVGID_15_"  overflow="visible"/>
		</clipPath>
		<g clip-path="url(#SVGID_16_)">
			<path fill="#B71D22" d="M415.771,212.257c19.451,0,35.219-15.768,35.219-35.219s-15.768-35.219-35.219-35.219
				s-35.219,15.768-35.219,35.219S396.319,212.257,415.771,212.257"/>
		</g>
	</g>
</g>
<g>
	<rect x="397.923" y="170.791" fill="#B71D22" width="35.694" height="12.493"/>
</g>
<g enable-background="new    ">
	<path fill="#F2F2F2" d="M403.579,180.742h-0.034l-0.091,0.64h-0.835v-9.098h1.04v2.492l-0.034,1.119
		c0.56-0.491,1.257-0.88,1.942-0.88c1.611,0,2.48,1.258,2.48,3.154c0,2.138-1.269,3.36-2.697,3.36
		C404.78,181.53,404.128,181.245,403.579,180.742z M406.962,178.193c0-1.372-0.457-2.298-1.634-2.298
		c-0.526,0-1.075,0.298-1.669,0.857v3.258c0.549,0.479,1.109,0.651,1.52,0.651C406.208,180.662,406.962,179.736,406.962,178.193z"/>
</g>
<g enable-background="new    ">
	<path fill="#F2F2F2" d="M409.661,178.284c0-2.068,1.359-3.269,2.88-3.269s2.88,1.2,2.88,3.269c0,2.058-1.359,3.246-2.88,3.246
		S409.661,180.341,409.661,178.284z M414.347,178.284c0-1.428-0.731-2.399-1.806-2.399s-1.794,0.972-1.794,2.399
		c0,1.429,0.72,2.378,1.794,2.378S414.347,179.712,414.347,178.284z"/>
</g>
<g enable-background="new    ">
	<path fill="#F2F2F2" d="M417.068,178.284c0-2.011,1.27-3.269,2.686-3.269c0.732,0,1.201,0.274,1.749,0.731l-0.058-1.074v-2.389
		h1.041v9.098h-0.846l-0.104-0.731h-0.022c-0.491,0.48-1.144,0.88-1.886,0.88C418.073,181.53,417.068,180.353,417.068,178.284z
		 M421.445,179.804v-3.257c-0.525-0.469-0.994-0.652-1.508-0.652c-1.006,0-1.795,0.961-1.795,2.378c0,1.497,0.617,2.389,1.715,2.389
		C420.428,180.662,420.931,180.375,421.445,179.804z"/>
</g>
<g enable-background="new    ">
	<path fill="#F2F2F2" d="M424.417,183.93l0.205-0.835c0.127,0.046,0.309,0.104,0.469,0.104c0.709,0,1.154-0.571,1.406-1.337
		l0.137-0.469l-2.491-6.218h1.086l1.269,3.452c0.183,0.537,0.4,1.177,0.594,1.736h0.058c0.171-0.56,0.354-1.188,0.526-1.736
		l1.107-3.452h1.018l-2.343,6.721c-0.435,1.223-1.074,2.16-2.309,2.16C424.851,184.056,424.612,184.01,424.417,183.93z"/>
</g>
<g>
	<g>
		<defs>
			<rect id="SVGID_17_" x="0" y="14.309" width="502.013" height="692.37"/>
		</defs>
		<clipPath id="SVGID_18_">
			<use xlink:href="#SVGID_17_"  overflow="visible"/>
		</clipPath>
		<g clip-path="url(#SVGID_18_)">
			<path fill="#B71D22" d="M411.237,446.117c19.451,0,35.219-15.77,35.219-35.22c0-19.451-15.768-35.221-35.219-35.221
				s-35.219,15.77-35.219,35.221C376.018,430.347,391.785,446.117,411.237,446.117"/>
		</g>
	</g>
</g>
<g enable-background="new    ">
	<path fill="#F2F2F2" d="M386.865,406.751h1.04v2.492l-0.034,1.279c0.571-0.571,1.212-1.04,2.058-1.04
		c1.303,0,1.896,0.846,1.896,2.435v3.932h-1.039v-3.794c0-1.166-0.355-1.657-1.178-1.657c-0.641,0-1.074,0.319-1.703,0.948v4.503
		h-1.04V406.751z"/>
	<path fill="#F2F2F2" d="M393.415,414.238c0-1.349,1.177-2.023,3.816-2.32c0-0.8-0.262-1.565-1.279-1.565
		c-0.721,0-1.371,0.331-1.863,0.663l-0.411-0.721c0.571-0.365,1.452-0.812,2.446-0.812c1.508,0,2.148,1.018,2.148,2.549v3.817
		h-0.857l-0.092-0.743h-0.034c-0.595,0.492-1.292,0.892-2.058,0.892C394.193,415.998,393.415,415.358,393.415,414.238z
		 M397.232,414.34v-1.737c-2.091,0.252-2.799,0.766-2.799,1.566c0,0.708,0.479,0.994,1.097,0.994
		C396.135,415.164,396.626,414.877,397.232,414.34z"/>
</g>
<g enable-background="new    ">
	<path fill="#F2F2F2" d="M401.142,409.643h0.857l0.091,1.132h0.034c0.435-0.789,1.063-1.292,1.76-1.292
		c0.275,0,0.469,0.034,0.663,0.138l-0.194,0.914c-0.205-0.08-0.354-0.103-0.605-0.103c-0.514,0-1.154,0.365-1.566,1.429v3.988
		h-1.039V409.643z"/>
</g>
<g enable-background="new    ">
	<path fill="#F2F2F2" d="M405.462,412.751c0-2.011,1.269-3.269,2.686-3.269c0.731,0,1.2,0.274,1.748,0.731l-0.057-1.074v-2.389h1.04
		v9.098h-0.846l-0.103-0.731h-0.023c-0.491,0.48-1.143,0.88-1.885,0.88C406.468,415.998,405.462,414.821,405.462,412.751z
		 M409.839,414.272v-3.257c-0.525-0.469-0.994-0.652-1.508-0.652c-1.006,0-1.795,0.961-1.795,2.378c0,1.497,0.617,2.389,1.715,2.389
		C408.822,415.129,409.325,414.843,409.839,414.272z"/>
</g>
<g enable-background="new    ">
	<path fill="#F2F2F2" d="M412.697,409.643h1.063l0.926,3.589c0.126,0.595,0.251,1.154,0.366,1.737h0.057
		c0.137-0.583,0.263-1.154,0.423-1.737l0.96-3.589h1.018l0.971,3.589c0.148,0.595,0.286,1.154,0.435,1.737h0.046
		c0.137-0.583,0.252-1.143,0.389-1.737l0.914-3.589h0.982l-1.668,6.206h-1.258l-0.902-3.349c-0.16-0.583-0.274-1.154-0.423-1.783
		h-0.058c-0.137,0.629-0.263,1.212-0.422,1.806l-0.869,3.326h-1.223L412.697,409.643z"/>
</g>
<g enable-background="new    ">
	<path fill="#F2F2F2" d="M422.55,414.238c0-1.349,1.176-2.023,3.816-2.32c0-0.8-0.263-1.565-1.279-1.565
		c-0.721,0-1.372,0.331-1.863,0.663l-0.412-0.721c0.572-0.365,1.451-0.812,2.446-0.812c1.509,0,2.148,1.018,2.148,2.549v3.817
		h-0.856l-0.092-0.743h-0.035c-0.594,0.492-1.291,0.892-2.057,0.892C423.326,415.998,422.55,415.358,422.55,414.238z
		 M426.366,414.34v-1.737c-2.092,0.252-2.8,0.766-2.8,1.566c0,0.708,0.479,0.994,1.097,0.994
		C425.269,415.164,425.761,414.877,426.366,414.34z"/>
</g>
<g enable-background="new    ">
	<path fill="#F2F2F2" d="M429.83,409.643h0.857l0.091,1.132h0.035c0.434-0.789,1.063-1.292,1.76-1.292
		c0.274,0,0.469,0.034,0.662,0.138l-0.193,0.914c-0.206-0.08-0.354-0.103-0.605-0.103c-0.515,0-1.154,0.365-1.566,1.429v3.988h-1.04
		V409.643z"/>
</g>
<g enable-background="new    ">
	<path fill="#F2F2F2" d="M434.127,412.751c0-2.011,1.36-3.269,2.8-3.269c1.577,0,2.469,1.144,2.469,2.915
		c0,0.229-0.023,0.445-0.046,0.594h-4.183c0.068,1.326,0.88,2.172,2.057,2.172c0.605,0,1.098-0.183,1.555-0.491l0.377,0.686
		c-0.549,0.354-1.211,0.64-2.057,0.64C435.452,415.998,434.127,414.797,434.127,412.751z M438.482,412.25
		c0-1.258-0.572-1.932-1.543-1.932c-0.881,0-1.657,0.708-1.783,1.932H438.482z"/>
</g>
<g>
	<g>
		<defs>
			<rect id="SVGID_19_" x="0" y="14.309" width="502.013" height="692.37"/>
		</defs>
		<clipPath id="SVGID_20_">
			<use xlink:href="#SVGID_19_"  overflow="visible"/>
		</clipPath>
		<g clip-path="url(#SVGID_20_)">
			<path fill="#231815" d="M401.912,600.38c33.089,0,59.911-26.822,59.911-59.91s-26.822-59.91-59.911-59.91
				c-33.088,0-59.91,26.822-59.91,59.91S368.824,600.38,401.912,600.38"/>
		</g>
	</g>
</g>
<g enable-background="new    ">
	<path fill="#F2F2F2" d="M377.39,543.203c0-1.349,1.178-2.023,3.817-2.32c0-0.8-0.263-1.565-1.28-1.565
		c-0.72,0-1.371,0.331-1.862,0.663l-0.411-0.721c0.57-0.365,1.451-0.812,2.445-0.812c1.508,0,2.148,1.018,2.148,2.549v3.817h-0.857
		l-0.092-0.743h-0.033c-0.595,0.492-1.292,0.892-2.058,0.892C378.167,544.962,377.39,544.323,377.39,543.203z M381.207,543.305
		v-1.737c-2.091,0.252-2.8,0.766-2.8,1.566c0,0.708,0.48,0.994,1.098,0.994C380.111,544.128,380.602,543.842,381.207,543.305z"/>
	<path fill="#F2F2F2" d="M385.185,544.174h-0.034l-0.091,0.64h-0.835v-9.098h1.04v2.492l-0.034,1.119
		c0.56-0.491,1.257-0.88,1.942-0.88c1.611,0,2.48,1.258,2.48,3.154c0,2.138-1.269,3.36-2.697,3.36
		C386.385,544.962,385.734,544.677,385.185,544.174z M388.568,541.625c0-1.372-0.457-2.298-1.634-2.298
		c-0.526,0-1.075,0.298-1.669,0.857v3.258c0.549,0.479,1.109,0.651,1.52,0.651C387.814,544.094,388.568,543.168,388.568,541.625z"/>
</g>
<g enable-background="new    ">
	<path fill="#F2F2F2" d="M391.711,541.716c0-2.068,1.36-3.269,2.88-3.269s2.88,1.2,2.88,3.269c0,2.058-1.36,3.246-2.88,3.246
		S391.711,543.774,391.711,541.716z M396.397,541.716c0-1.428-0.731-2.399-1.806-2.399s-1.795,0.972-1.795,2.399
		c0,1.429,0.721,2.378,1.795,2.378S396.397,543.145,396.397,541.716z"/>
</g>
<g enable-background="new    ">
	<path fill="#F2F2F2" d="M399.484,542.54v-3.932h1.041v3.806c0,1.154,0.342,1.646,1.165,1.646c0.64,0,1.086-0.309,1.681-1.052v-4.4
		h1.039v6.206h-0.868l-0.08-0.972h-0.034c-0.583,0.675-1.2,1.12-2.057,1.12C400.067,544.962,399.484,544.117,399.484,542.54z"/>
	<path fill="#F2F2F2" d="M406.685,542.894v-3.44h-0.926v-0.788l0.971-0.058l0.127-1.737h0.868v1.737h1.681v0.846h-1.681v3.463
		c0,0.766,0.239,1.2,0.96,1.2c0.217,0,0.503-0.08,0.709-0.16l0.205,0.777c-0.354,0.114-0.766,0.229-1.143,0.229
		C407.13,544.962,406.685,544.14,406.685,542.894z"/>
	<path fill="#F2F2F2" d="M413.291,542.54v-3.932h1.04v3.806c0,1.154,0.343,1.646,1.166,1.646c0.64,0,1.086-0.309,1.68-1.052v-4.4
		h1.04v6.206h-0.868l-0.08-0.972h-0.035c-0.582,0.675-1.199,1.12-2.057,1.12C413.874,544.962,413.291,544.117,413.291,542.54z"/>
</g>
<g enable-background="new    ">
	<path fill="#F2F2F2" d="M421.395,544.105l0.515-0.686c0.537,0.435,1.097,0.731,1.84,0.731c0.822,0,1.223-0.435,1.223-0.972
		c0-0.628-0.731-0.914-1.418-1.177c-0.868-0.32-1.851-0.743-1.851-1.794c0-0.983,0.788-1.761,2.138-1.761
		c0.766,0,1.439,0.32,1.931,0.697l-0.503,0.675c-0.434-0.32-0.869-0.549-1.428-0.549c-0.777,0-1.133,0.411-1.133,0.892
		c0,0.594,0.675,0.812,1.372,1.074c0.903,0.343,1.897,0.709,1.897,1.886c0,1.006-0.801,1.84-2.264,1.84
		C422.835,544.962,421.99,544.597,421.395,544.105z"/>
</g>
<g>
	<g>
		<defs>
			<rect id="SVGID_21_" x="0" y="14.309" width="502.013" height="692.37"/>
		</defs>
		<clipPath id="SVGID_22_">
			<use xlink:href="#SVGID_21_"  overflow="visible"/>
		</clipPath>
		<g clip-path="url(#SVGID_22_)">
			<path fill="#231815" d="M289.179,706.679c33.088,0,59.911-26.822,59.911-59.91s-26.823-59.91-59.911-59.91
				s-59.911,26.822-59.911,59.91S256.091,706.679,289.179,706.679"/>
		</g>
	</g>
</g>
<g enable-background="new    ">
	<path fill="#F2F2F2" d="M268.422,648.015c0-2.068,1.406-3.269,2.994-3.269c0.812,0,1.372,0.343,1.817,0.731l-0.537,0.697
		c-0.366-0.331-0.743-0.56-1.246-0.56c-1.12,0-1.943,0.972-1.943,2.399c0,1.429,0.777,2.378,1.92,2.378
		c0.571,0,1.074-0.263,1.463-0.617l0.445,0.697c-0.548,0.503-1.257,0.788-2,0.788C269.69,651.261,268.422,650.073,268.422,648.015z"
		/>
</g>
<g enable-background="new    ">
	<path fill="#F2F2F2" d="M274.422,648.015c0-2.068,1.36-3.269,2.88-3.269s2.88,1.2,2.88,3.269c0,2.058-1.36,3.246-2.88,3.246
		S274.422,650.073,274.422,648.015z M279.107,648.015c0-1.428-0.731-2.399-1.806-2.399s-1.794,0.972-1.794,2.399
		c0,1.429,0.72,2.378,1.794,2.378S279.107,649.444,279.107,648.015z"/>
</g>
<g enable-background="new    ">
	<path fill="#F2F2F2" d="M282.274,644.907h0.857l0.091,0.892h0.034c0.594-0.583,1.234-1.052,2.08-1.052
		c1.303,0,1.897,0.846,1.897,2.435v3.932h-1.04v-3.794c0-1.166-0.354-1.657-1.177-1.657c-0.64,0-1.074,0.319-1.703,0.948v4.503
		h-1.04V644.907z"/>
</g>
<g enable-background="new    ">
	<path fill="#F2F2F2" d="M289.886,649.193v-3.44h-0.926v-0.788l0.972-0.058l0.125-1.737h0.869v1.737h1.68v0.846h-1.68v3.463
		c0,0.766,0.24,1.2,0.96,1.2c0.217,0,0.503-0.08,0.708-0.16l0.206,0.777c-0.354,0.114-0.766,0.229-1.143,0.229
		C290.332,651.261,289.886,650.439,289.886,649.193z"/>
</g>
<g enable-background="new    ">
	<path fill="#F2F2F2" d="M293.808,649.501c0-1.349,1.177-2.023,3.817-2.32c0-0.8-0.263-1.565-1.28-1.565
		c-0.72,0-1.372,0.331-1.863,0.663l-0.412-0.721c0.571-0.365,1.451-0.812,2.446-0.812c1.508,0,2.149,1.018,2.149,2.549v3.817h-0.857
		l-0.092-0.743h-0.034c-0.594,0.492-1.292,0.892-2.057,0.892C294.585,651.261,293.808,650.622,293.808,649.501z M297.625,649.604
		v-1.737c-2.091,0.252-2.8,0.766-2.8,1.566c0,0.708,0.48,0.994,1.097,0.994C296.528,650.427,297.019,650.141,297.625,649.604z"/>
</g>
<g enable-background="new    ">
	<path fill="#F2F2F2" d="M300.62,648.015c0-2.068,1.405-3.269,2.994-3.269c0.811,0,1.371,0.343,1.816,0.731l-0.537,0.697
		c-0.365-0.331-0.742-0.56-1.246-0.56c-1.119,0-1.942,0.972-1.942,2.399c0,1.429,0.777,2.378,1.921,2.378
		c0.57,0,1.074-0.263,1.463-0.617l0.445,0.697c-0.549,0.503-1.258,0.788-2,0.788C301.888,651.261,300.62,650.073,300.62,648.015z"/>
</g>
<g enable-background="new    ">
	<path fill="#F2F2F2" d="M307.42,649.193v-3.44h-0.926v-0.788l0.972-0.058l0.125-1.737h0.869v1.737h1.68v0.846h-1.68v3.463
		c0,0.766,0.24,1.2,0.96,1.2c0.218,0,0.503-0.08,0.708-0.16l0.206,0.777c-0.354,0.114-0.766,0.229-1.143,0.229
		C307.866,651.261,307.42,650.439,307.42,649.193z"/>
</g>
<g>
	<g>
		<defs>
			<rect id="SVGID_23_" x="0" y="14.309" width="502.013" height="692.37"/>
		</defs>
		<clipPath id="SVGID_24_">
			<use xlink:href="#SVGID_23_"  overflow="visible"/>
		</clipPath>
		<g clip-path="url(#SVGID_24_)">
			<path fill="#4C4948" d="M143.149,245.284c25.051,0,45.354-20.306,45.354-45.354c0-25.049-20.306-45.354-45.354-45.354
				c-25.048,0-45.354,20.305-45.354,45.354C97.795,224.978,118.102,245.284,143.149,245.284"/>
		</g>
	</g>
</g>
<g enable-background="new    ">
	<path fill="#F2F2F2" d="M127.112,202.376v-6.193h0.819v6.248c0,0.252,0.108,0.351,0.234,0.351c0.045,0,0.081,0,0.171-0.018
		l0.117,0.63c-0.117,0.045-0.261,0.072-0.477,0.072C127.364,203.466,127.112,203.07,127.112,202.376z"/>
</g>
<g enable-background="new    ">
	<path fill="#F2F2F2" d="M129.667,200.91c0-1.63,1.071-2.575,2.269-2.575c1.197,0,2.269,0.945,2.269,2.575
		c0,1.62-1.071,2.557-2.269,2.557C130.739,203.466,129.667,202.53,129.667,200.91z M133.359,200.91c0-1.126-0.576-1.891-1.422-1.891
		c-0.847,0-1.414,0.765-1.414,1.891c0,1.125,0.567,1.872,1.414,1.872C132.782,202.782,133.359,202.035,133.359,200.91z"/>
</g>
<g enable-background="new    ">
	<path fill="#F2F2F2" d="M135.401,202.08c0-1.063,0.927-1.594,3.007-1.827c0-0.631-0.208-1.233-1.009-1.233
		c-0.567,0-1.08,0.261-1.467,0.521l-0.324-0.566c0.45-0.288,1.144-0.64,1.927-0.64c1.188,0,1.692,0.802,1.692,2.008v3.007h-0.675
		l-0.072-0.585h-0.027c-0.468,0.387-1.018,0.702-1.621,0.702C136.013,203.466,135.401,202.962,135.401,202.08z M138.408,202.161
		v-1.368c-1.648,0.198-2.206,0.604-2.206,1.233c0,0.558,0.378,0.783,0.864,0.783C137.544,202.809,137.93,202.583,138.408,202.161z"
		/>
	<path fill="#F2F2F2" d="M140.432,200.91c0-1.585,1-2.575,2.116-2.575c0.576,0,0.945,0.216,1.377,0.576l-0.045-0.846v-1.882h0.819
		v7.166h-0.667l-0.081-0.576h-0.018c-0.387,0.378-0.9,0.693-1.485,0.693C141.224,203.466,140.432,202.539,140.432,200.91z
		 M143.88,202.107v-2.566c-0.414-0.369-0.783-0.513-1.188-0.513c-0.792,0-1.414,0.756-1.414,1.872c0,1.18,0.486,1.882,1.351,1.882
		C143.079,202.782,143.475,202.557,143.88,202.107z"/>
	<path fill="#F2F2F2" d="M146.21,196.921c0-0.333,0.243-0.531,0.567-0.531c0.324,0,0.567,0.198,0.567,0.531
		c0,0.306-0.243,0.531-0.567,0.531C146.453,197.453,146.21,197.227,146.21,196.921z M146.363,198.46h0.819v4.889h-0.819V198.46z"/>
	<path fill="#F2F2F2" d="M148.838,198.46h0.675l0.072,0.702h0.027c0.468-0.459,0.972-0.828,1.639-0.828
		c1.026,0,1.494,0.666,1.494,1.918v3.097h-0.819v-2.989c0-0.918-0.279-1.305-0.927-1.305c-0.504,0-0.846,0.252-1.341,0.747v3.547
		h-0.819V198.46z"/>
</g>
<g enable-background="new    ">
	<path fill="#F2F2F2" d="M155.362,204.286c0-0.414,0.27-0.811,0.729-1.107v-0.036c-0.261-0.153-0.45-0.414-0.45-0.801
		c0-0.405,0.297-0.729,0.549-0.91v-0.035c-0.324-0.262-0.639-0.729-0.639-1.314c0-1.071,0.846-1.747,1.836-1.747
		c0.27,0,0.513,0.063,0.685,0.126h1.701v0.631h-0.999c0.234,0.225,0.396,0.585,0.396,1.008c0,1.044-0.792,1.701-1.783,1.701
		c-0.243,0-0.513-0.063-0.729-0.171c-0.18,0.153-0.315,0.315-0.315,0.585c0,0.315,0.198,0.531,0.855,0.531h0.955
		c1.134,0,1.701,0.36,1.701,1.162c0,0.909-0.954,1.692-2.467,1.692C156.19,205.6,155.362,205.131,155.362,204.286z M159.062,204.034
		c0-0.45-0.351-0.604-1-0.604h-0.846c-0.18,0-0.414-0.027-0.63-0.081c-0.351,0.252-0.504,0.54-0.504,0.828
		c0,0.522,0.531,0.864,1.422,0.864C158.441,205.042,159.062,204.546,159.062,204.034z M158.423,200.082
		c0-0.712-0.459-1.144-1.036-1.144s-1.044,0.423-1.044,1.144c0,0.711,0.477,1.161,1.044,1.161
		C157.945,201.243,158.423,200.792,158.423,200.082z"/>
</g>
<g>
	
		<rect x="329.455" y="154.569" transform="matrix(0.9649 0.2627 -0.2627 0.9649 62.8083 -79.8325)" fill="#B71D22" width="1" height="80.8"/>
</g>
<g>
	
		<rect x="370.557" y="187.366" transform="matrix(0.6524 0.7579 -0.7579 0.6524 301.4474 -202.113)" fill="#B71D22" width="1" height="80.401"/>
</g>
<g>
	
		<rect x="406.289" y="226.787" transform="matrix(0.2363 0.9717 -0.9717 0.2363 574.1531 -188.1724)" fill="#B71D22" width="1" height="88.788"/>
</g>
<g>
	
		<rect x="362.819" y="321.319" transform="matrix(0.9713 0.2377 -0.2377 0.9713 88.0028 -86.2184)" fill="#B71D22" width="77.422" height="1"/>
</g>
<g>
	
		<rect x="345.504" y="367.463" transform="matrix(0.5718 0.8204 -0.8204 0.5718 462.0371 -149.2706)" fill="#B71D22" width="57.011" height="1"/>
</g>
<g>
	<g>
		<defs>
			<rect id="SVGID_25_" x="0" y="14.309" width="502.013" height="692.37"/>
		</defs>
		<clipPath id="SVGID_26_">
			<use xlink:href="#SVGID_25_"  overflow="visible"/>
		</clipPath>
		<g clip-path="url(#SVGID_26_)">
			<path fill="#FFFFFF" d="M326.411,367.019c40.772,0,73.827-33.053,73.827-73.828c0-40.773-33.055-73.826-73.827-73.826
				s-73.826,33.053-73.826,73.826C252.585,333.966,285.639,367.019,326.411,367.019"/>
		</g>
	</g>
	<g>
		<defs>
			<rect id="SVGID_27_" x="0" y="14.309" width="502.013" height="692.37"/>
		</defs>
		<clipPath id="SVGID_28_">
			<use xlink:href="#SVGID_27_"  overflow="visible"/>
		</clipPath>
		<g clip-path="url(#SVGID_28_)">
			<path fill="#B71D22" d="M326.411,369.019c-41.811,0-75.826-34.016-75.826-75.827s34.016-75.827,75.826-75.827
				c41.812,0,75.827,34.016,75.827,75.827S368.223,369.019,326.411,369.019z M326.411,221.365
				c-39.605,0-71.826,32.221-71.826,71.827s32.221,71.827,71.826,71.827c39.605,0,71.827-32.222,71.827-71.827
				S366.017,221.365,326.411,221.365z"/>
		</g>
	</g>
</g>
<g enable-background="new    ">
	<path fill="#C03330" d="M294.444,290.421h1.275l0.136,1.055h0.051c0.833-0.681,1.87-1.292,2.94-1.292
		c2.38,0,3.672,1.869,3.672,4.708c0,3.162-1.888,4.98-4.012,4.98c-0.833,0-1.717-0.391-2.55-1.07l0.034,1.614v3.128h-1.547V290.421z
		 M300.904,294.91c0-2.04-0.681-3.417-2.432-3.417c-0.782,0-1.581,0.442-2.481,1.274v4.845c0.833,0.714,1.649,0.969,2.261,0.969
		C299.781,298.581,300.904,297.205,300.904,294.91z"/>
</g>
<g enable-background="new    ">
	<path fill="#C03330" d="M305.647,290.421h1.274l0.137,1.684h0.051c0.646-1.173,1.58-1.921,2.617-1.921
		c0.408,0,0.697,0.051,0.986,0.204l-0.289,1.359c-0.307-0.119-0.527-0.153-0.9-0.153c-0.766,0-1.717,0.544-2.329,2.125v5.933h-1.547
		V290.421z"/>
</g>
<g enable-background="new    ">
	<path fill="#C03330" d="M312.038,295.045c0-3.077,2.023-4.861,4.283-4.861c2.262,0,4.284,1.784,4.284,4.861
		c0,3.06-2.022,4.827-4.284,4.827C314.062,299.873,312.038,298.105,312.038,295.045z M319.008,295.045
		c0-2.125-1.088-3.569-2.687-3.569c-1.598,0-2.668,1.444-2.668,3.569s1.07,3.535,2.668,3.535
		C317.92,298.581,319.008,297.17,319.008,295.045z"/>
</g>
<g enable-background="new    ">
	<path fill="#C03330" d="M323.054,295.045c0-2.992,1.887-4.861,3.994-4.861c1.088,0,1.785,0.407,2.601,1.088l-0.085-1.598v-3.553
		h1.547v13.53h-1.258l-0.152-1.088h-0.035c-0.73,0.714-1.699,1.309-2.805,1.309C324.55,299.873,323.054,298.122,323.054,295.045z
		 M329.564,297.306v-4.845c-0.781-0.696-1.479-0.969-2.244-0.969c-1.495,0-2.668,1.428-2.668,3.536c0,2.227,0.918,3.552,2.549,3.552
		C328.051,298.581,328.799,298.156,329.564,297.306z"/>
	<path fill="#C03330" d="M334.138,296.269v-5.848h1.547v5.661c0,1.717,0.51,2.447,1.733,2.447c0.952,0,1.614-0.459,2.499-1.563
		v-6.545h1.547v9.23h-1.292l-0.119-1.445h-0.052c-0.866,1.003-1.784,1.666-3.059,1.666
		C335.004,299.873,334.138,298.615,334.138,296.269z"/>
</g>
<g enable-background="new    ">
	<path fill="#C03330" d="M345.204,295.045c0-3.077,2.091-4.861,4.453-4.861c1.207,0,2.041,0.51,2.703,1.088l-0.799,1.036
		c-0.544-0.492-1.105-0.832-1.853-0.832c-1.666,0-2.89,1.444-2.89,3.569s1.156,3.535,2.855,3.535c0.85,0,1.598-0.391,2.176-0.918
		l0.663,1.037c-0.815,0.748-1.87,1.173-2.975,1.173C347.091,299.873,345.204,298.105,345.204,295.045z"/>
</g>
<g enable-background="new    ">
	<path fill="#C03330" d="M355.32,296.796v-5.117h-1.377v-1.173l1.445-0.085l0.187-2.583h1.292v2.583h2.498v1.258h-2.498v5.151
		c0,1.139,0.357,1.784,1.428,1.784c0.322,0,0.748-0.119,1.054-0.237l0.306,1.155c-0.526,0.17-1.139,0.34-1.699,0.34
		C355.982,299.873,355.32,298.649,355.32,296.796z"/>
</g>
</svg>
