<?xml version="1.0" encoding="utf-8"?>
<!-- Generator: Adobe Illustrator 16.0.0, SVG Export Plug-In . SVG Version: 6.00 Build 0)  -->
<!DOCTYPE svg PUBLIC "-//W3C//DTD SVG 1.1//EN" "http://www.w3.org/Graphics/SVG/1.1/DTD/svg11.dtd">
<svg version="1.1" id="Layer_1" xmlns="http://www.w3.org/2000/svg" xmlns:xlink="http://www.w3.org/1999/xlink" x="0px" y="0px"
	 width="335.982px" height="540.949px" viewBox="0 19.282 335.982 540.949" enable-background="new 0 19.282 335.982 540.949"
	 xml:space="preserve">
<g enable-background="new    ">
	<path fill="#C20C0C" d="M47.581,51.173l-3.743-9.778h-0.06c0.07,0.775,0.105,1.695,0.105,2.761v7.017H42.7V40.144h1.931
		l3.493,9.098h0.061l3.523-9.098h1.916v11.029h-1.282v-7.108c0-0.813,0.036-1.699,0.106-2.654h-0.061l-3.772,9.762H47.581z"/>
</g>
<g enable-background="new    ">
	<path fill="#C20C0C" d="M60.572,51.324c-1.221,0-2.186-0.372-2.894-1.116c-0.706-0.745-1.06-1.777-1.06-3.101
		c0-1.333,0.329-2.392,0.985-3.177c0.656-0.784,1.538-1.176,2.644-1.176c1.036,0,1.856,0.341,2.46,1.022
		c0.603,0.682,0.904,1.58,0.904,2.698v0.791h-5.695c0.025,0.97,0.271,1.708,0.736,2.211c0.464,0.502,1.12,0.754,1.964,0.754
		c0.891,0,1.771-0.187,2.641-0.559v1.117c-0.443,0.191-0.861,0.329-1.256,0.411C61.607,51.282,61.131,51.324,60.572,51.324z
		 M60.233,43.802c-0.664,0-1.193,0.216-1.588,0.649c-0.395,0.433-0.627,1.031-0.698,1.796h4.323c0-0.79-0.176-1.395-0.528-1.814
		C61.389,44.012,60.887,43.802,60.233,43.802z"/>
</g>
<g enable-background="new    ">
	<path fill="#C20C0C" d="M72.008,51.173v-5.349c0-0.674-0.154-1.176-0.461-1.509c-0.306-0.333-0.787-0.498-1.44-0.498
		c-0.866,0-1.499,0.234-1.901,0.701c-0.403,0.468-0.604,1.24-0.604,2.316v4.338h-1.253v-8.269h1.019l0.204,1.132h0.061
		c0.256-0.407,0.616-0.723,1.079-0.947c0.463-0.223,0.978-0.335,1.546-0.335c0.996,0,1.745,0.24,2.249,0.72
		c0.502,0.48,0.754,1.248,0.754,2.306v5.394H72.008z"/>
	<path fill="#C20C0C" d="M77.009,42.904v5.364c0,0.674,0.153,1.177,0.46,1.509c0.307,0.332,0.787,0.498,1.441,0.498
		c0.864,0,1.498-0.236,1.896-0.709c0.4-0.472,0.6-1.245,0.6-2.316v-4.346h1.252v8.269h-1.034l-0.181-1.11h-0.068
		c-0.257,0.408-0.612,0.72-1.067,0.936c-0.456,0.216-0.975,0.324-1.558,0.324c-1.006,0-1.759-0.239-2.259-0.716
		c-0.501-0.479-0.75-1.243-0.75-2.295v-5.409H77.009z"/>
	<path fill="#C20C0C" d="M98.132,51.173h-1.463l-6.028-9.257h-0.06c0.081,1.086,0.12,2.082,0.12,2.987v6.27h-1.185V40.144h1.449
		l6.013,9.218h0.061c-0.01-0.136-0.033-0.572-0.068-1.308c-0.036-0.738-0.047-1.264-0.038-1.581v-6.33h1.199V51.173z"/>
</g>
<g enable-background="new    ">
	<path fill="#C20C0C" d="M108.533,51.173l-0.249-1.177h-0.06c-0.412,0.518-0.824,0.868-1.233,1.052
		c-0.41,0.184-0.922,0.275-1.535,0.275c-0.821,0-1.463-0.212-1.928-0.634c-0.465-0.422-0.697-1.024-0.697-1.802
		c0-1.671,1.334-2.545,4.005-2.625l1.404-0.046v-0.513c0-0.648-0.14-1.127-0.419-1.437c-0.278-0.309-0.725-0.464-1.339-0.464
		c-0.689,0-1.468,0.211-2.338,0.634l-0.385-0.958c0.407-0.221,0.854-0.394,1.339-0.52c0.486-0.126,0.972-0.188,1.46-0.188
		c0.985,0,1.716,0.219,2.191,0.656c0.475,0.438,0.713,1.139,0.713,2.105v5.644H108.533z M105.704,50.29
		c0.78,0,1.392-0.214,1.837-0.642c0.445-0.426,0.667-1.024,0.667-1.794v-0.747l-1.252,0.053c-0.996,0.036-1.714,0.189-2.153,0.464
		c-0.441,0.273-0.66,0.7-0.66,1.278c0,0.454,0.137,0.798,0.41,1.034C104.827,50.172,105.211,50.29,105.704,50.29z"/>
</g>
<g enable-background="new    ">
	<path fill="#C20C0C" d="M114.454,51.173l-3.138-8.269h1.343l1.781,4.904c0.402,1.146,0.638,1.891,0.708,2.233h0.061
		c0.055-0.266,0.229-0.819,0.524-1.657c0.294-0.836,0.954-2.663,1.98-5.48h1.342l-3.138,8.269H114.454z"/>
	<path fill="#C20C0C" d="M120.278,40.664c0-0.286,0.07-0.497,0.212-0.629c0.139-0.133,0.315-0.201,0.527-0.201
		c0.202,0,0.375,0.069,0.521,0.205c0.146,0.136,0.218,0.344,0.218,0.625c0,0.283-0.072,0.492-0.218,0.631
		c-0.146,0.138-0.319,0.207-0.521,0.207c-0.211,0-0.388-0.068-0.527-0.207C120.348,41.156,120.278,40.946,120.278,40.664z
		 M121.635,51.173h-1.252v-8.269h1.252V51.173z"/>
	<path fill="#C20C0C" d="M131.059,42.904v0.792l-1.531,0.182c0.14,0.176,0.267,0.406,0.376,0.691
		c0.111,0.283,0.167,0.604,0.167,0.961c0,0.81-0.276,1.457-0.83,1.939c-0.553,0.483-1.313,0.725-2.278,0.725
		c-0.247,0-0.478-0.021-0.694-0.061c-0.534,0.281-0.799,0.636-0.799,1.063c0,0.228,0.093,0.395,0.278,0.502
		c0.186,0.107,0.506,0.161,0.958,0.161h1.464c0.895,0,1.582,0.189,2.063,0.567c0.48,0.377,0.721,0.925,0.721,1.645
		c0,0.915-0.367,1.613-1.102,2.093c-0.735,0.48-1.805,0.721-3.214,0.721c-1.081,0-1.914-0.202-2.5-0.604
		c-0.586-0.403-0.879-0.971-0.879-1.705c0-0.503,0.162-0.938,0.482-1.305c0.322-0.368,0.775-0.616,1.358-0.747
		c-0.211-0.096-0.388-0.244-0.531-0.445c-0.143-0.2-0.216-0.435-0.216-0.702c0-0.301,0.081-0.565,0.242-0.792
		c0.161-0.226,0.415-0.444,0.763-0.657c-0.428-0.175-0.776-0.475-1.045-0.897c-0.269-0.422-0.404-0.905-0.404-1.448
		c0-0.905,0.271-1.603,0.814-2.093c0.543-0.49,1.314-0.735,2.309-0.735c0.433,0,0.823,0.051,1.17,0.15H131.059z M124.465,52.561
		c0,0.448,0.188,0.788,0.566,1.019c0.377,0.23,0.917,0.348,1.622,0.348c1.052,0,1.83-0.158,2.334-0.473
		c0.506-0.314,0.759-0.74,0.759-1.279c0-0.447-0.139-0.758-0.415-0.931c-0.277-0.174-0.797-0.26-1.562-0.26h-1.501
		c-0.568,0-1.011,0.136-1.328,0.407C124.623,51.664,124.465,52.052,124.465,52.561z M125.144,45.553c0,0.579,0.164,1.016,0.49,1.312
		c0.328,0.297,0.782,0.445,1.366,0.445c1.222,0,1.833-0.594,1.833-1.78c0-1.242-0.619-1.863-1.856-1.863
		c-0.588,0-1.041,0.158-1.358,0.475C125.303,44.459,125.144,44.929,125.144,45.553z"/>
</g>
<g enable-background="new    ">
	<path fill="#C20C0C" d="M139.695,51.173l-0.25-1.177h-0.061c-0.412,0.518-0.823,0.868-1.233,1.052s-0.922,0.275-1.535,0.275
		c-0.82,0-1.463-0.212-1.927-0.634c-0.466-0.422-0.698-1.024-0.698-1.802c0-1.671,1.335-2.545,4.006-2.625l1.403-0.046v-0.513
		c0-0.648-0.14-1.127-0.419-1.437c-0.279-0.309-0.725-0.464-1.339-0.464c-0.689,0-1.468,0.211-2.338,0.634l-0.384-0.958
		c0.407-0.221,0.853-0.394,1.338-0.52c0.486-0.126,0.972-0.188,1.46-0.188c0.986,0,1.716,0.219,2.191,0.656
		c0.475,0.438,0.713,1.139,0.713,2.105v5.644H139.695z M136.865,50.29c0.78,0,1.392-0.214,1.838-0.642
		c0.445-0.426,0.667-1.024,0.667-1.794v-0.747l-1.252,0.053c-0.996,0.036-1.714,0.189-2.154,0.464c-0.439,0.273-0.66,0.7-0.66,1.278
		c0,0.454,0.137,0.798,0.411,1.034C135.989,50.172,136.372,50.29,136.865,50.29z"/>
	<path fill="#C20C0C" d="M145.873,50.29c0.221,0,0.435-0.016,0.641-0.049s0.37-0.067,0.49-0.102v0.958
		c-0.135,0.066-0.335,0.12-0.6,0.164c-0.264,0.042-0.502,0.063-0.712,0.063c-1.6,0-2.399-0.843-2.399-2.527v-4.918h-1.185v-0.604
		l1.185-0.52l0.528-1.766h0.724v1.916h2.399v0.974h-2.399v4.866c0,0.498,0.118,0.88,0.354,1.146
		C145.136,50.156,145.461,50.29,145.873,50.29z"/>
</g>
<g enable-background="new    ">
	<path fill="#C20C0C" d="M149.756,40.664c0-0.286,0.07-0.497,0.211-0.629c0.14-0.133,0.317-0.201,0.528-0.201
		c0.201,0,0.374,0.069,0.52,0.205c0.146,0.136,0.219,0.344,0.219,0.625c0,0.283-0.072,0.492-0.219,0.631
		c-0.146,0.138-0.319,0.207-0.52,0.207c-0.211,0-0.388-0.068-0.528-0.207C149.826,41.156,149.756,40.946,149.756,40.664z
		 M151.114,51.173h-1.252v-8.269h1.252V51.173z"/>
</g>
<g enable-background="new    ">
	<path fill="#C20C0C" d="M161.525,47.031c0,1.349-0.339,2.401-1.019,3.158c-0.679,0.757-1.617,1.135-2.814,1.135
		c-0.74,0-1.396-0.174-1.969-0.521c-0.574-0.347-1.017-0.844-1.328-1.494c-0.312-0.649-0.468-1.409-0.468-2.279
		c0-1.347,0.336-2.397,1.011-3.15c0.674-0.751,1.609-1.127,2.807-1.127c1.157,0,2.076,0.385,2.756,1.153
		C161.185,44.678,161.525,45.719,161.525,47.031z M155.226,47.031c0,1.057,0.211,1.861,0.634,2.415
		c0.422,0.553,1.043,0.83,1.863,0.83s1.442-0.276,1.867-0.826c0.426-0.551,0.638-1.358,0.638-2.419c0-1.051-0.212-1.849-0.638-2.395
		c-0.424-0.545-1.052-0.818-1.881-0.818c-0.82,0-1.439,0.27-1.856,0.807C155.434,45.162,155.226,45.964,155.226,47.031z"/>
</g>
<g enable-background="new    ">
	<path fill="#C20C0C" d="M169.981,51.173v-5.349c0-0.674-0.156-1.176-0.461-1.509c-0.307-0.333-0.787-0.498-1.441-0.498
		c-0.865,0-1.498,0.234-1.9,0.701c-0.402,0.468-0.604,1.24-0.604,2.316v4.338h-1.253v-8.269h1.019l0.203,1.132h0.061
		c0.256-0.407,0.617-0.723,1.079-0.947c0.464-0.223,0.978-0.335,1.546-0.335c0.996,0,1.746,0.24,2.248,0.72
		c0.504,0.48,0.756,1.248,0.756,2.306v5.394H169.981z"/>
</g>
<g>
	<g>
		<defs>
			<polygon id="SVGID_1_" points="0,536.51 321.927,521.336 362.471,36.596 0,36.596 			"/>
		</defs>
		<clipPath id="SVGID_2_">
			<use xlink:href="#SVGID_1_"  overflow="visible"/>
		</clipPath>
		<g clip-path="url(#SVGID_2_)">
			<rect x="0" y="54.609" fill="#C20C0C" width="257.906" height="1"/>
		</g>
	</g>
	<g>
		<defs>
			<polygon id="SVGID_3_" points="0,536.51 321.927,521.336 362.471,36.596 0,36.596 			"/>
		</defs>
		<clipPath id="SVGID_4_">
			<use xlink:href="#SVGID_3_"  overflow="visible"/>
		</clipPath>
		<g clip-path="url(#SVGID_4_)">
			<path fill="#C20C0C" d="M259.065,56.514c0.775,0,1.406-0.63,1.406-1.406s-0.631-1.406-1.406-1.406
				c-0.776,0-1.405,0.629-1.405,1.406C257.659,55.884,258.288,56.514,259.065,56.514"/>
		</g>
	</g>
</g>
<g>
	<polygon fill="#231815" points="270.447,427.4 100.444,269.087 180.277,216.683 62.753,157.237 63.204,156.345 182.271,216.571 
		102.058,269.224 271.129,426.667 	"/>
</g>
<g>
	
		<rect x="83.542" y="289.325" transform="matrix(0.9948 0.1015 -0.1015 0.9948 33.3587 -6.8573)" fill="#231815" width="1" height="69.892"/>
</g>
<g>
	
		<rect x="38.679" y="366.865" transform="matrix(0.3323 0.9432 -0.9432 0.3323 433.0857 122.9656)" fill="#231815" width="182.03" height="1"/>
</g>
<g>
	<g>
		<defs>
			<polygon id="SVGID_5_" points="0,536.51 321.927,521.336 362.471,36.596 0,36.596 			"/>
		</defs>
		<clipPath id="SVGID_6_">
			<use xlink:href="#SVGID_5_"  overflow="visible"/>
		</clipPath>
		<g clip-path="url(#SVGID_6_)">
			<path fill="#4C4948" d="M96.661,296.819c12.477,0,22.589-10.113,22.589-22.59c0-12.475-10.112-22.589-22.589-22.589
				s-22.59,10.114-22.59,22.589C74.072,286.706,84.185,296.819,96.661,296.819"/>
		</g>
	</g>
</g>
<g enable-background="new    ">
	<path fill="#F2F2F2" d="M88.103,273.169h0.487l0.052,0.514h0.02c0.305-0.339,0.676-0.605,1.098-0.605
		c0.54,0,0.832,0.261,0.975,0.677c0.364-0.396,0.735-0.677,1.164-0.677c0.728,0,1.073,0.481,1.073,1.385v2.236H92.38v-2.158
		c0-0.663-0.208-0.942-0.656-0.942c-0.273,0-0.559,0.176-0.891,0.539v2.562h-0.591v-2.158c0-0.663-0.208-0.942-0.657-0.942
		c-0.267,0-0.565,0.176-0.891,0.539v2.562h-0.591V273.169z"/>
</g>
<g enable-background="new    ">
	<path fill="#F2F2F2" d="M94.108,274.937c0-1.144,0.773-1.859,1.592-1.859c0.897,0,1.404,0.65,1.404,1.658
		c0,0.13-0.013,0.253-0.026,0.338h-2.379c0.039,0.754,0.5,1.235,1.17,1.235c0.344,0,0.624-0.104,0.884-0.28l0.214,0.391
		c-0.312,0.201-0.689,0.364-1.17,0.364C94.862,276.784,94.108,276.101,94.108,274.937z M96.584,274.651
		c0-0.715-0.325-1.099-0.877-1.099c-0.5,0-0.942,0.403-1.014,1.099H96.584z"/>
</g>
<g enable-background="new    ">
	<path fill="#F2F2F2" d="M98.235,273.169h0.487l0.052,0.507h0.02c0.338-0.332,0.702-0.599,1.183-0.599
		c0.741,0,1.079,0.481,1.079,1.385v2.236h-0.591v-2.158c0-0.663-0.202-0.942-0.669-0.942c-0.364,0-0.611,0.182-0.969,0.539v2.562
		h-0.591V273.169z"/>
</g>
<g enable-background="new    ">
	<path fill="#F2F2F2" d="M102.412,275.405v-2.235h0.591v2.164c0,0.656,0.195,0.937,0.663,0.937c0.364,0,0.618-0.176,0.956-0.599
		v-2.502h0.591v3.529h-0.494l-0.046-0.553h-0.02c-0.332,0.384-0.682,0.638-1.17,0.638
		C102.743,276.784,102.412,276.302,102.412,275.405z"/>
</g>
<g>
	<g>
		<defs>
			<polygon id="SVGID_7_" points="0,536.51 321.927,521.336 362.471,36.596 0,36.596 			"/>
		</defs>
		<clipPath id="SVGID_8_">
			<use xlink:href="#SVGID_7_"  overflow="visible"/>
		</clipPath>
		<g clip-path="url(#SVGID_8_)">
			<path fill="#231815" d="M51.834,424.588c23.892,0,43.257-19.367,43.257-43.258c0-23.892-19.365-43.258-43.257-43.258
				c-23.891,0-43.259,19.366-43.259,43.258C8.575,405.221,27.944,424.588,51.834,424.588"/>
		</g>
	</g>
</g>
<g enable-background="new    ">
	<path fill="#F2F2F2" d="M40.652,379.983h0.784l0.842,2.551c0.141,0.438,0.281,0.899,0.421,1.32h0.033
		c0.132-0.421,0.281-0.883,0.413-1.32l0.851-2.551h0.743l-1.593,4.482H42.27L40.652,379.983z"/>
	<path fill="#F2F2F2" d="M45.464,378.571c0-0.305,0.223-0.486,0.52-0.486s0.52,0.182,0.52,0.486c0,0.281-0.223,0.487-0.52,0.487
		S45.464,378.852,45.464,378.571z M45.604,379.983h0.751v4.482h-0.751V379.983z"/>
	<path fill="#F2F2F2" d="M47.552,382.228c0-1.453,0.917-2.36,1.94-2.36c0.528,0,0.867,0.197,1.263,0.528l-0.042-0.776v-1.726h0.751
		v6.571h-0.611l-0.075-0.528h-0.016c-0.355,0.347-0.826,0.636-1.362,0.636C48.278,384.573,47.552,383.722,47.552,382.228z
		 M50.713,383.326v-2.353c-0.38-0.338-0.718-0.471-1.089-0.471c-0.727,0-1.296,0.694-1.296,1.718c0,1.081,0.446,1.725,1.238,1.725
		C49.978,383.945,50.342,383.739,50.713,383.326z"/>
</g>
<g enable-background="new    ">
	<path fill="#F2F2F2" d="M53.616,382.228c0-1.453,0.982-2.36,2.022-2.36c1.139,0,1.783,0.825,1.783,2.104
		c0,0.165-0.017,0.322-0.033,0.43h-3.021c0.049,0.957,0.635,1.568,1.486,1.568c0.438,0,0.792-0.132,1.123-0.355l0.272,0.496
		c-0.396,0.256-0.875,0.462-1.486,0.462C54.574,384.573,53.616,383.706,53.616,382.228z M56.762,381.865
		c0-0.908-0.413-1.395-1.115-1.395c-0.636,0-1.197,0.512-1.288,1.395H56.762z"/>
</g>
<g enable-background="new    ">
	<path fill="#F2F2F2" d="M58.519,382.228c0-1.494,0.982-2.36,2.081-2.36c1.098,0,2.08,0.866,2.08,2.36
		c0,1.486-0.982,2.345-2.08,2.345C59.502,384.573,58.519,383.714,58.519,382.228z M61.904,382.228c0-1.031-0.528-1.733-1.304-1.733
		c-0.776,0-1.296,0.702-1.296,1.733c0,1.032,0.52,1.717,1.296,1.717C61.376,383.945,61.904,383.26,61.904,382.228z"/>
</g>
<g>
	<g>
		<defs>
			<polygon id="SVGID_9_" points="0,536.51 321.927,521.336 362.471,36.596 0,36.596 			"/>
		</defs>
		<clipPath id="SVGID_10_">
			<use xlink:href="#SVGID_9_"  overflow="visible"/>
		</clipPath>
		<g clip-path="url(#SVGID_10_)">
			<path fill="#C20C0C" d="M290.357,278.961c14.045,0,25.43-11.385,25.43-25.429c0-14.044-11.385-25.429-25.43-25.429
				c-14.044,0-25.429,11.385-25.429,25.429C264.928,267.577,276.313,278.961,290.357,278.961"/>
		</g>
	</g>
</g>
<g>
	<rect x="267.499" y="248.57" fill="#C20C0C" width="46.24" height="12.28"/>
</g>
<g enable-background="new    ">
	<path fill="#F2F2F2" d="M270.384,255.608c0-1.453,0.982-2.36,2.022-2.36c1.14,0,1.783,0.825,1.783,2.104
		c0,0.165-0.017,0.322-0.033,0.43h-3.021c0.049,0.957,0.635,1.568,1.485,1.568c0.438,0,0.792-0.132,1.122-0.355l0.273,0.496
		c-0.396,0.256-0.875,0.462-1.486,0.462C271.341,257.953,270.384,257.085,270.384,255.608z M273.529,255.245
		c0-0.908-0.413-1.395-1.114-1.395c-0.637,0-1.197,0.512-1.288,1.395H273.529z"/>
	<path fill="#F2F2F2" d="M275.294,256.954v-5.68h0.752v5.729c0,0.23,0.099,0.321,0.214,0.321c0.042,0,0.075,0,0.157-0.016
		l0.107,0.577c-0.107,0.042-0.24,0.066-0.438,0.066C275.525,257.953,275.294,257.589,275.294,256.954z"/>
	<path fill="#F2F2F2" d="M277.307,255.608c0-1.453,0.982-2.36,2.022-2.36c1.14,0,1.783,0.825,1.783,2.104
		c0,0.165-0.017,0.322-0.033,0.43h-3.021c0.049,0.957,0.635,1.568,1.485,1.568c0.438,0,0.792-0.132,1.122-0.355l0.273,0.496
		c-0.396,0.256-0.875,0.462-1.486,0.462C278.264,257.953,277.307,257.085,277.307,255.608z M280.453,255.245
		c0-0.908-0.413-1.395-1.114-1.395c-0.637,0-1.197,0.512-1.288,1.395H280.453z"/>
</g>
<g enable-background="new    ">
	<path fill="#F2F2F2" d="M282.87,255.608c0-1.494,1.016-2.36,2.162-2.36c0.586,0,0.99,0.247,1.313,0.528l-0.388,0.503
		c-0.265-0.239-0.536-0.404-0.899-0.404c-0.809,0-1.404,0.702-1.404,1.733c0,1.032,0.563,1.717,1.388,1.717
		c0.413,0,0.776-0.189,1.057-0.445l0.321,0.504c-0.396,0.363-0.908,0.569-1.444,0.569
		C283.786,257.953,282.87,257.094,282.87,255.608z"/>
</g>
<g enable-background="new    ">
	<path fill="#F2F2F2" d="M287.78,256.458v-2.485h-0.669v-0.569l0.702-0.041l0.09-1.255h0.628v1.255h1.214v0.61h-1.214v2.502
		c0,0.553,0.173,0.866,0.693,0.866c0.157,0,0.363-0.058,0.513-0.115l0.148,0.562c-0.256,0.082-0.554,0.165-0.826,0.165
		C288.102,257.953,287.78,257.358,287.78,256.458z"/>
</g>
<g enable-background="new    ">
	<path fill="#F2F2F2" d="M291.081,253.363h0.619l0.066,0.817h0.024c0.313-0.569,0.769-0.933,1.271-0.933
		c0.198,0,0.339,0.024,0.479,0.099l-0.14,0.66c-0.148-0.058-0.256-0.074-0.438-0.074c-0.372,0-0.834,0.265-1.131,1.032v2.881h-0.752
		V253.363z"/>
</g>
<g enable-background="new    ">
	<path fill="#F2F2F2" d="M294.184,255.608c0-1.494,0.982-2.36,2.08-2.36s2.08,0.866,2.08,2.36c0,1.486-0.982,2.345-2.08,2.345
		S294.184,257.094,294.184,255.608z M297.569,255.608c0-1.031-0.528-1.733-1.305-1.733c-0.775,0-1.296,0.702-1.296,1.733
		c0,1.032,0.521,1.717,1.296,1.717C297.041,257.325,297.569,256.64,297.569,255.608z"/>
</g>
<g enable-background="new    ">
	<path fill="#F2F2F2" d="M299.854,253.363h0.619l0.066,0.644h0.023c0.43-0.421,0.893-0.759,1.503-0.759
		c0.941,0,1.37,0.61,1.37,1.758v2.84h-0.751v-2.74c0-0.843-0.256-1.197-0.851-1.197c-0.462,0-0.775,0.231-1.229,0.685v3.253h-0.751
		V253.363z"/>
	<path fill="#F2F2F2" d="M304.757,251.951c0-0.305,0.223-0.486,0.52-0.486s0.52,0.182,0.52,0.486c0,0.281-0.223,0.487-0.52,0.487
		S304.757,252.232,304.757,251.951z M304.896,253.363h0.751v4.482h-0.751V253.363z"/>
</g>
<g enable-background="new    ">
	<path fill="#F2F2F2" d="M307.471,255.608c0-1.494,1.016-2.36,2.163-2.36c0.586,0,0.99,0.247,1.313,0.528l-0.388,0.503
		c-0.265-0.239-0.537-0.404-0.9-0.404c-0.809,0-1.403,0.702-1.403,1.733c0,1.032,0.562,1.717,1.388,1.717
		c0.412,0,0.775-0.189,1.057-0.445l0.321,0.504c-0.396,0.363-0.908,0.569-1.444,0.569
		C308.387,257.953,307.471,257.094,307.471,255.608z"/>
</g>
<g>
	<g>
		<defs>
			<polygon id="SVGID_11_" points="0,536.51 321.927,521.336 362.471,36.596 0,36.596 			"/>
		</defs>
		<clipPath id="SVGID_12_">
			<use xlink:href="#SVGID_11_"  overflow="visible"/>
		</clipPath>
		<g clip-path="url(#SVGID_12_)">
			<path fill="#C20C0C" d="M208.285,133.646c14.044,0,25.429-11.385,25.429-25.429s-11.385-25.43-25.429-25.43
				c-14.045,0-25.43,11.385-25.43,25.43C182.856,122.26,194.24,133.646,208.285,133.646"/>
		</g>
	</g>
</g>
<g>
	<rect x="195.4" y="103.706" fill="#C20C0C" width="25.771" height="9.021"/>
</g>
<g enable-background="new    ">
	<path fill="#F2F2F2" d="M198.745,106.869h0.619l0.066,0.652h0.025c0.388-0.43,0.858-0.768,1.395-0.768
		c0.686,0,1.057,0.33,1.238,0.858c0.463-0.504,0.934-0.858,1.479-0.858c0.924,0,1.361,0.61,1.361,1.758v2.84h-0.751v-2.74
		c0-0.843-0.265-1.197-0.834-1.197c-0.347,0-0.71,0.223-1.131,0.685v3.253h-0.751v-2.74c0-0.843-0.264-1.197-0.834-1.197
		c-0.338,0-0.719,0.223-1.131,0.685v3.253h-0.752V106.869z"/>
	<path fill="#F2F2F2" d="M206.107,110.187c0-0.974,0.851-1.461,2.757-1.676c0-0.578-0.189-1.131-0.924-1.131
		c-0.521,0-0.991,0.239-1.346,0.479l-0.298-0.52c0.413-0.265,1.049-0.586,1.767-0.586c1.09,0,1.553,0.734,1.553,1.841v2.757h-0.619
		l-0.066-0.536h-0.025c-0.429,0.354-0.933,0.644-1.485,0.644C206.669,111.458,206.107,110.997,206.107,110.187z M208.864,110.261
		v-1.255c-1.511,0.182-2.022,0.554-2.022,1.131c0,0.512,0.347,0.719,0.792,0.719C208.071,110.856,208.427,110.649,208.864,110.261z"
		/>
	<path fill="#F2F2F2" d="M210.902,105.457c0-0.305,0.223-0.486,0.521-0.486c0.297,0,0.52,0.182,0.52,0.486
		c0,0.281-0.223,0.487-0.52,0.487C211.125,105.944,210.902,105.738,210.902,105.457z M211.042,106.869h0.752v4.482h-0.752V106.869z"
		/>
</g>
<g enable-background="new    ">
	<path fill="#F2F2F2" d="M214.276,106.869h0.619l0.066,0.644h0.024c0.429-0.421,0.892-0.759,1.503-0.759
		c0.941,0,1.37,0.61,1.37,1.758v2.84h-0.751v-2.74c0-0.843-0.256-1.197-0.851-1.197c-0.462,0-0.776,0.231-1.229,0.685v3.253h-0.752
		V106.869z"/>
</g>
<g>
	<g>
		<defs>
			<polygon id="SVGID_13_" points="0,536.51 321.927,521.336 362.471,36.596 0,36.596 			"/>
		</defs>
		<clipPath id="SVGID_14_">
			<use xlink:href="#SVGID_13_"  overflow="visible"/>
		</clipPath>
		<g clip-path="url(#SVGID_14_)">
			<path fill="#C20C0C" d="M296.497,219.095c14.045,0,25.43-11.385,25.43-25.429s-11.385-25.429-25.43-25.429
				s-25.43,11.385-25.43,25.429C271.068,207.71,282.452,219.095,296.497,219.095"/>
		</g>
	</g>
</g>
<g>
	<rect x="283.611" y="189.156" fill="#C20C0C" width="25.772" height="9.021"/>
</g>
<g enable-background="new    ">
	<path fill="#F2F2F2" d="M287.577,192.319h0.619l0.066,0.644h0.023c0.43-0.421,0.893-0.759,1.503-0.759
		c0.941,0,1.37,0.61,1.37,1.758v2.84h-0.751v-2.74c0-0.843-0.256-1.197-0.851-1.197c-0.462,0-0.775,0.231-1.229,0.685v3.253h-0.751
		V192.319z"/>
</g>
<g enable-background="new    ">
	<path fill="#F2F2F2" d="M292.602,194.564c0-1.453,0.982-2.36,2.021-2.36c1.14,0,1.783,0.825,1.783,2.104
		c0,0.165-0.016,0.322-0.033,0.43h-3.021c0.05,0.957,0.636,1.568,1.485,1.568c0.438,0,0.793-0.132,1.123-0.355l0.272,0.496
		c-0.396,0.256-0.875,0.462-1.485,0.462C293.559,196.909,292.602,196.042,292.602,194.564z M295.747,194.201
		c0-0.908-0.412-1.395-1.114-1.395c-0.636,0-1.196,0.512-1.288,1.395H295.747z"/>
	<path fill="#F2F2F2" d="M297.174,194.564c0-1.494,1.016-2.36,2.163-2.36c0.586,0,0.99,0.247,1.313,0.528l-0.389,0.503
		c-0.264-0.239-0.536-0.404-0.899-0.404c-0.809,0-1.403,0.702-1.403,1.733c0,1.032,0.562,1.717,1.387,1.717
		c0.413,0,0.776-0.189,1.057-0.445l0.322,0.504c-0.396,0.363-0.908,0.569-1.445,0.569
		C298.091,196.909,297.174,196.05,297.174,194.564z"/>
</g>
<g enable-background="new    ">
	<path fill="#F2F2F2" d="M302.374,190.23h0.742v4.458h0.018l1.923-2.369h0.833l-1.502,1.8l1.701,2.683h-0.818l-1.313-2.163
		l-0.842,0.982v1.181h-0.742V190.23z"/>
</g>
<g>
	<g>
		<defs>
			<polygon id="SVGID_15_" points="0,536.51 321.927,521.336 362.471,36.596 0,36.596 			"/>
		</defs>
		<clipPath id="SVGID_16_">
			<use xlink:href="#SVGID_15_"  overflow="visible"/>
		</clipPath>
		<g clip-path="url(#SVGID_16_)">
			<path fill="#C20C0C" d="M259.656,164.346c14.044,0,25.429-11.385,25.429-25.429c0-14.045-11.385-25.43-25.429-25.43
				c-14.045,0-25.43,11.385-25.43,25.43C234.227,152.961,245.612,164.346,259.656,164.346"/>
		</g>
	</g>
</g>
<g>
	<rect x="246.77" y="134.406" fill="#C20C0C" width="25.772" height="9.021"/>
</g>
<g enable-background="new    ">
	<path fill="#F2F2F2" d="M250.854,141.589h-0.024l-0.065,0.462h-0.604v-6.571h0.752v1.8l-0.025,0.809
		c0.404-0.354,0.908-0.635,1.403-0.635c1.164,0,1.792,0.907,1.792,2.278c0,1.543-0.917,2.427-1.949,2.427
		C251.721,142.159,251.251,141.953,250.854,141.589z M253.298,139.749c0-0.991-0.33-1.66-1.18-1.66
		c-0.381,0-0.776,0.215-1.205,0.619v2.354c0.396,0.347,0.801,0.47,1.098,0.47C252.753,141.531,253.298,140.863,253.298,139.749z"/>
</g>
<g enable-background="new    ">
	<path fill="#F2F2F2" d="M255.245,139.814c0-1.494,0.982-2.36,2.08-2.36s2.08,0.866,2.08,2.36c0,1.486-0.982,2.345-2.08,2.345
		S255.245,141.3,255.245,139.814z M258.63,139.814c0-1.031-0.528-1.733-1.305-1.733c-0.775,0-1.296,0.702-1.296,1.733
		c0,1.032,0.521,1.717,1.296,1.717C258.101,141.531,258.63,140.846,258.63,139.814z"/>
</g>
<g enable-background="new    ">
	<path fill="#F2F2F2" d="M260.593,139.814c0-1.453,0.916-2.36,1.939-2.36c0.529,0,0.867,0.197,1.264,0.528l-0.041-0.776v-1.726
		h0.751v6.571h-0.61l-0.075-0.528h-0.017c-0.354,0.347-0.825,0.636-1.361,0.636C261.319,142.159,260.593,141.308,260.593,139.814z
		 M263.755,140.912v-2.353c-0.381-0.338-0.719-0.471-1.09-0.471c-0.727,0-1.297,0.694-1.297,1.718c0,1.081,0.446,1.725,1.238,1.725
		C263.019,141.531,263.383,141.325,263.755,140.912z"/>
</g>
<g enable-background="new    ">
	<path fill="#F2F2F2" d="M265.899,143.892l0.148-0.603c0.09,0.033,0.223,0.074,0.338,0.074c0.512,0,0.834-0.413,1.016-0.966
		l0.099-0.339l-1.8-4.49h0.785l0.916,2.493c0.132,0.388,0.289,0.85,0.43,1.255h0.041c0.123-0.405,0.256-0.858,0.379-1.255
		l0.801-2.493h0.734l-1.691,4.854c-0.314,0.884-0.776,1.561-1.668,1.561C266.212,143.983,266.039,143.95,265.899,143.892z"/>
</g>
<g>
	<g>
		<defs>
			<polygon id="SVGID_17_" points="0,536.51 321.927,521.336 362.471,36.596 0,36.596 			"/>
		</defs>
		<clipPath id="SVGID_18_">
			<use xlink:href="#SVGID_17_"  overflow="visible"/>
		</clipPath>
		<g clip-path="url(#SVGID_18_)">
			<path fill="#C20C0C" d="M256.383,333.2c14.045,0,25.43-11.385,25.43-25.429s-11.385-25.431-25.43-25.431
				s-25.429,11.386-25.429,25.431S242.338,333.2,256.383,333.2"/>
		</g>
	</g>
</g>
<g enable-background="new    ">
	<path fill="#F2F2F2" d="M238.786,304.775h0.752v1.8l-0.025,0.925c0.412-0.413,0.875-0.751,1.486-0.751
		c0.941,0,1.37,0.61,1.37,1.758v2.84h-0.751v-2.74c0-0.843-0.256-1.197-0.851-1.197c-0.462,0-0.776,0.231-1.229,0.685v3.253h-0.752
		V304.775z"/>
	<path fill="#F2F2F2" d="M243.514,310.182c0-0.974,0.851-1.461,2.758-1.676c0-0.578-0.19-1.131-0.925-1.131
		c-0.521,0-0.991,0.239-1.346,0.479l-0.298-0.52c0.414-0.265,1.049-0.586,1.768-0.586c1.09,0,1.552,0.734,1.552,1.841v2.757h-0.619
		l-0.065-0.536h-0.025c-0.43,0.354-0.934,0.644-1.486,0.644C244.076,311.454,243.514,310.992,243.514,310.182z M246.272,310.256
		v-1.255c-1.512,0.182-2.023,0.554-2.023,1.131c0,0.512,0.348,0.719,0.793,0.719C245.479,310.851,245.835,310.644,246.272,310.256z"
		/>
</g>
<g enable-background="new    ">
	<path fill="#F2F2F2" d="M249.094,306.864h0.619l0.066,0.817h0.023c0.314-0.569,0.769-0.933,1.271-0.933
		c0.199,0,0.339,0.024,0.479,0.099l-0.14,0.66c-0.148-0.058-0.256-0.074-0.438-0.074c-0.372,0-0.834,0.265-1.131,1.032v2.881h-0.751
		V306.864z"/>
</g>
<g enable-background="new    ">
	<path fill="#F2F2F2" d="M252.214,309.109c0-1.453,0.916-2.36,1.939-2.36c0.528,0,0.867,0.197,1.264,0.528l-0.042-0.776v-1.726
		h0.751v6.571h-0.61l-0.075-0.528h-0.016c-0.355,0.347-0.826,0.636-1.362,0.636C252.94,311.454,252.214,310.603,252.214,309.109z
		 M255.375,310.207v-2.353c-0.38-0.338-0.718-0.471-1.089-0.471c-0.727,0-1.297,0.694-1.297,1.718c0,1.081,0.445,1.725,1.238,1.725
		C254.639,310.826,255.003,310.62,255.375,310.207z"/>
</g>
<g enable-background="new    ">
	<path fill="#F2F2F2" d="M257.437,306.864h0.769l0.668,2.592c0.091,0.43,0.182,0.834,0.264,1.255h0.042
		c0.099-0.421,0.19-0.834,0.306-1.255l0.693-2.592h0.734l0.701,2.592c0.107,0.43,0.207,0.834,0.314,1.255h0.033
		c0.099-0.421,0.182-0.825,0.28-1.255l0.66-2.592h0.71l-1.205,4.482h-0.908l-0.652-2.419c-0.115-0.421-0.197-0.834-0.305-1.287
		h-0.041c-0.1,0.453-0.19,0.875-0.307,1.304l-0.627,2.402h-0.883L257.437,306.864z"/>
</g>
<g enable-background="new    ">
	<path fill="#F2F2F2" d="M264.552,310.182c0-0.974,0.851-1.461,2.758-1.676c0-0.578-0.19-1.131-0.925-1.131
		c-0.521,0-0.991,0.239-1.346,0.479l-0.298-0.52c0.414-0.265,1.049-0.586,1.768-0.586c1.09,0,1.552,0.734,1.552,1.841v2.757h-0.619
		l-0.066-0.536h-0.024c-0.43,0.354-0.934,0.644-1.486,0.644C265.113,311.454,264.552,310.992,264.552,310.182z M267.309,310.256
		v-1.255c-1.512,0.182-2.023,0.554-2.023,1.131c0,0.512,0.348,0.719,0.793,0.719C266.516,310.851,266.872,310.644,267.309,310.256z"
		/>
</g>
<g enable-background="new    ">
	<path fill="#F2F2F2" d="M269.807,306.864h0.619l0.066,0.817h0.025c0.313-0.569,0.768-0.933,1.271-0.933
		c0.197,0,0.338,0.024,0.479,0.099l-0.141,0.66c-0.148-0.058-0.256-0.074-0.438-0.074c-0.371,0-0.834,0.265-1.131,1.032v2.881
		h-0.752V306.864z"/>
</g>
<g enable-background="new    ">
	<path fill="#F2F2F2" d="M272.911,309.109c0-1.453,0.982-2.36,2.022-2.36c1.14,0,1.783,0.825,1.783,2.104
		c0,0.165-0.017,0.322-0.033,0.43h-3.021c0.049,0.957,0.635,1.568,1.485,1.568c0.438,0,0.792-0.132,1.122-0.355l0.273,0.496
		c-0.396,0.256-0.875,0.462-1.486,0.462C273.868,311.454,272.911,310.586,272.911,309.109z M276.056,308.746
		c0-0.908-0.413-1.395-1.114-1.395c-0.637,0-1.197,0.512-1.288,1.395H276.056z"/>
</g>
<g>
	<g>
		<defs>
			<polygon id="SVGID_19_" points="0,536.51 321.927,521.336 362.471,36.596 0,36.596 			"/>
		</defs>
		<clipPath id="SVGID_20_">
			<use xlink:href="#SVGID_19_"  overflow="visible"/>
		</clipPath>
		<g clip-path="url(#SVGID_20_)">
			<path fill="#231815" d="M249.651,444.584c23.891,0,43.258-19.365,43.258-43.256c0-23.892-19.367-43.259-43.258-43.259
				s-43.258,19.367-43.258,43.259C206.393,425.219,225.76,444.584,249.651,444.584"/>
		</g>
	</g>
</g>
<g enable-background="new    ">
	<path fill="#F2F2F2" d="M231.946,403.298c0-0.974,0.85-1.461,2.756-1.676c0-0.578-0.189-1.131-0.924-1.131
		c-0.52,0-0.99,0.239-1.346,0.479l-0.297-0.52c0.412-0.265,1.048-0.586,1.766-0.586c1.09,0,1.553,0.734,1.553,1.841v2.757h-0.619
		l-0.066-0.536h-0.024c-0.429,0.354-0.933,0.644-1.485,0.644C232.507,404.57,231.946,404.108,231.946,403.298z M234.702,403.373
		v-1.255c-1.51,0.182-2.021,0.554-2.021,1.131c0,0.512,0.346,0.719,0.792,0.719C233.91,403.967,234.264,403.76,234.702,403.373z"/>
	<path fill="#F2F2F2" d="M237.574,404h-0.024l-0.066,0.462h-0.603v-6.571h0.751v1.8l-0.024,0.809
		c0.405-0.354,0.908-0.635,1.403-0.635c1.164,0,1.791,0.907,1.791,2.278c0,1.543-0.916,2.427-1.947,2.427
		C238.441,404.57,237.97,404.364,237.574,404z M240.018,402.16c0-0.991-0.331-1.66-1.182-1.66c-0.379,0-0.775,0.215-1.205,0.619
		v2.354c0.396,0.347,0.801,0.47,1.098,0.47C239.473,403.942,240.018,403.274,240.018,402.16z"/>
</g>
<g enable-background="new    ">
	<path fill="#F2F2F2" d="M242.286,402.225c0-1.494,0.982-2.36,2.08-2.36s2.08,0.866,2.08,2.36c0,1.486-0.982,2.345-2.08,2.345
		S242.286,403.711,242.286,402.225z M245.671,402.225c0-1.031-0.529-1.733-1.305-1.733c-0.776,0-1.297,0.702-1.297,1.733
		c0,1.032,0.521,1.717,1.297,1.717C245.141,403.942,245.671,403.257,245.671,402.225z"/>
</g>
<g enable-background="new    ">
	<path fill="#F2F2F2" d="M247.897,402.82v-2.84h0.752v2.749c0,0.834,0.247,1.188,0.842,1.188c0.462,0,0.783-0.223,1.213-0.76v-3.178
		h0.752v4.482h-0.628l-0.058-0.702h-0.025c-0.421,0.487-0.866,0.81-1.485,0.81C248.318,404.57,247.897,403.958,247.897,402.82z"/>
	<path fill="#F2F2F2" d="M253.096,403.076v-2.485h-0.669v-0.569l0.702-0.041l0.09-1.255h0.628v1.255h1.214v0.61h-1.214v2.502
		c0,0.553,0.173,0.866,0.693,0.866c0.157,0,0.363-0.058,0.513-0.115l0.148,0.562c-0.256,0.082-0.554,0.165-0.826,0.165
		C253.419,404.57,253.096,403.975,253.096,403.076z"/>
	<path fill="#F2F2F2" d="M257.866,402.82v-2.84h0.752v2.749c0,0.834,0.248,1.188,0.842,1.188c0.463,0,0.784-0.223,1.213-0.76v-3.178
		h0.752v4.482h-0.627l-0.059-0.702h-0.024c-0.421,0.487-0.866,0.81-1.485,0.81C258.288,404.57,257.866,403.958,257.866,402.82z"/>
</g>
<g enable-background="new    ">
	<path fill="#F2F2F2" d="M263.718,403.951l0.372-0.495c0.388,0.313,0.792,0.528,1.329,0.528c0.594,0,0.883-0.314,0.883-0.702
		c0-0.454-0.527-0.66-1.023-0.85c-0.627-0.231-1.337-0.537-1.337-1.297c0-0.71,0.569-1.271,1.544-1.271
		c0.553,0,1.039,0.23,1.395,0.503l-0.363,0.487c-0.313-0.231-0.627-0.396-1.031-0.396c-0.563,0-0.818,0.298-0.818,0.645
		c0,0.429,0.488,0.586,0.991,0.775c0.652,0.248,1.37,0.512,1.37,1.362c0,0.727-0.578,1.329-1.635,1.329
		C264.759,404.57,264.147,404.305,263.718,403.951z"/>
</g>
<g>
	<g>
		<defs>
			<polygon id="SVGID_21_" points="0,536.51 321.927,521.336 362.471,36.596 0,36.596 			"/>
		</defs>
		<clipPath id="SVGID_22_">
			<use xlink:href="#SVGID_21_"  overflow="visible"/>
		</clipPath>
		<g clip-path="url(#SVGID_22_)">
			<path fill="#231815" d="M168.252,521.336c23.892,0,43.258-19.367,43.258-43.258c0-23.893-19.366-43.256-43.258-43.256
				c-23.891,0-43.258,19.363-43.258,43.256C124.994,501.969,144.362,521.336,168.252,521.336"/>
		</g>
	</g>
</g>
<g enable-background="new    ">
	<path fill="#F2F2F2" d="M153.266,478.976c0-1.494,1.016-2.36,2.163-2.36c0.586,0,0.99,0.247,1.313,0.528l-0.388,0.503
		c-0.264-0.239-0.537-0.404-0.9-0.404c-0.809,0-1.403,0.702-1.403,1.733c0,1.032,0.562,1.717,1.387,1.717
		c0.413,0,0.776-0.189,1.057-0.445l0.322,0.504c-0.396,0.363-0.908,0.569-1.445,0.569
		C154.183,481.321,153.266,480.462,153.266,478.976z"/>
</g>
<g enable-background="new    ">
	<path fill="#F2F2F2" d="M157.599,478.976c0-1.494,0.982-2.36,2.081-2.36c1.098,0,2.08,0.866,2.08,2.36
		c0,1.486-0.982,2.345-2.08,2.345C158.582,481.321,157.599,480.462,157.599,478.976z M160.984,478.976
		c0-1.031-0.528-1.733-1.304-1.733c-0.776,0-1.296,0.702-1.296,1.733c0,1.032,0.52,1.717,1.296,1.717
		C160.456,480.693,160.984,480.008,160.984,478.976z"/>
</g>
<g enable-background="new    ">
	<path fill="#F2F2F2" d="M163.268,476.731h0.619l0.066,0.644h0.024c0.429-0.421,0.892-0.759,1.502-0.759
		c0.941,0,1.371,0.61,1.371,1.758v2.84H166.1v-2.74c0-0.843-0.256-1.197-0.85-1.197c-0.462,0-0.776,0.231-1.23,0.685v3.253h-0.751
		V476.731z"/>
</g>
<g enable-background="new    ">
	<path fill="#F2F2F2" d="M168.764,479.827v-2.485h-0.668v-0.569l0.702-0.041l0.091-1.255h0.628v1.255h1.213v0.61h-1.213v2.502
		c0,0.553,0.173,0.866,0.693,0.866c0.156,0,0.363-0.058,0.512-0.115l0.148,0.562c-0.256,0.082-0.553,0.165-0.826,0.165
		C169.087,481.321,168.764,480.726,168.764,479.827z"/>
</g>
<g enable-background="new    ">
	<path fill="#F2F2F2" d="M171.595,480.049c0-0.974,0.851-1.461,2.757-1.676c0-0.578-0.189-1.131-0.924-1.131
		c-0.521,0-0.991,0.239-1.346,0.479l-0.298-0.52c0.413-0.265,1.048-0.586,1.767-0.586c1.09,0,1.553,0.734,1.553,1.841v2.757h-0.619
		l-0.066-0.536h-0.025c-0.429,0.354-0.933,0.644-1.485,0.644C172.157,481.321,171.595,480.859,171.595,480.049z M174.352,480.124
		v-1.255c-1.511,0.182-2.022,0.554-2.022,1.131c0,0.512,0.347,0.719,0.792,0.719C173.559,480.718,173.915,480.511,174.352,480.124z"
		/>
</g>
<g enable-background="new    ">
	<path fill="#F2F2F2" d="M176.514,478.976c0-1.494,1.016-2.36,2.162-2.36c0.586,0,0.99,0.247,1.313,0.528l-0.388,0.503
		c-0.265-0.239-0.536-0.404-0.899-0.404c-0.809,0-1.404,0.702-1.404,1.733c0,1.032,0.563,1.717,1.388,1.717
		c0.413,0,0.776-0.189,1.057-0.445l0.321,0.504c-0.396,0.363-0.908,0.569-1.444,0.569
		C177.43,481.321,176.514,480.462,176.514,478.976z"/>
</g>
<g enable-background="new    ">
	<path fill="#F2F2F2" d="M181.425,479.827v-2.485h-0.668v-0.569l0.701-0.041l0.091-1.255h0.628v1.255h1.213v0.61h-1.213v2.502
		c0,0.553,0.173,0.866,0.693,0.866c0.156,0,0.363-0.058,0.512-0.115l0.148,0.562c-0.256,0.082-0.553,0.165-0.826,0.165
		C181.747,481.321,181.425,480.726,181.425,479.827z"/>
</g>
<g>
	<g>
		<defs>
			<polygon id="SVGID_23_" points="0,536.51 321.927,521.336 362.471,36.596 0,36.596 			"/>
		</defs>
		<clipPath id="SVGID_24_">
			<use xlink:href="#SVGID_23_"  overflow="visible"/>
		</clipPath>
		<g clip-path="url(#SVGID_24_)">
			<path fill="#4C4948" d="M62.814,188.192c18.087,0,32.747-14.662,32.747-32.748c0-18.086-14.66-32.747-32.747-32.747
				c-18.085,0-32.746,14.661-32.746,32.747C30.068,173.53,44.729,188.192,62.814,188.192"/>
		</g>
	</g>
</g>
<g enable-background="new    ">
	<path fill="#F2F2F2" d="M51.235,157.211v-4.472h0.591v4.511c0,0.182,0.078,0.254,0.169,0.254c0.033,0,0.059,0,0.124-0.014
		l0.084,0.455c-0.084,0.033-0.188,0.053-0.344,0.053C51.417,157.999,51.235,157.712,51.235,157.211z"/>
</g>
<g enable-background="new    ">
	<path fill="#F2F2F2" d="M53.08,156.152c0-1.177,0.773-1.859,1.638-1.859c0.864,0,1.638,0.683,1.638,1.859
		c0,1.17-0.773,1.847-1.638,1.847C53.853,157.999,53.08,157.322,53.08,156.152z M55.745,156.152c0-0.813-0.416-1.365-1.027-1.365
		c-0.611,0-1.021,0.553-1.021,1.365s0.409,1.353,1.021,1.353C55.329,157.504,55.745,156.964,55.745,156.152z"/>
</g>
<g enable-background="new    ">
	<path fill="#F2F2F2" d="M57.219,156.997c0-0.767,0.669-1.15,2.171-1.319c0-0.455-0.149-0.891-0.728-0.891
		c-0.41,0-0.78,0.188-1.06,0.377l-0.234-0.409c0.325-0.208,0.826-0.462,1.391-0.462c0.858,0,1.222,0.579,1.222,1.45v2.171h-0.487
		l-0.052-0.423h-0.02c-0.338,0.28-0.734,0.508-1.17,0.508C57.661,157.999,57.219,157.634,57.219,156.997z M59.39,157.055v-0.987
		c-1.189,0.143-1.592,0.436-1.592,0.891c0,0.402,0.273,0.565,0.624,0.565C58.766,157.524,59.046,157.361,59.39,157.055z"/>
	<path fill="#F2F2F2" d="M60.852,156.152c0-1.144,0.721-1.859,1.527-1.859c0.416,0,0.683,0.156,0.995,0.416l-0.033-0.61v-1.358
		h0.592v5.174h-0.481l-0.059-0.416H63.38c-0.279,0.273-0.65,0.501-1.072,0.501C61.424,157.999,60.852,157.329,60.852,156.152z
		 M63.341,157.016v-1.853c-0.299-0.266-0.565-0.37-0.858-0.37c-0.572,0-1.021,0.546-1.021,1.353c0,0.851,0.351,1.358,0.975,1.358
		C62.762,157.504,63.049,157.341,63.341,157.016z"/>
	<path fill="#F2F2F2" d="M65.023,153.272c0-0.24,0.176-0.383,0.41-0.383s0.41,0.143,0.41,0.383c0,0.222-0.176,0.384-0.41,0.384
		S65.023,153.494,65.023,153.272z M65.134,154.384h0.591v3.529h-0.591V154.384z"/>
	<path fill="#F2F2F2" d="M66.921,154.384h0.487l0.052,0.507h0.02c0.338-0.332,0.702-0.599,1.183-0.599
		c0.741,0,1.079,0.481,1.079,1.385v2.236h-0.591v-2.158c0-0.663-0.202-0.942-0.669-0.942c-0.364,0-0.611,0.182-0.969,0.539v2.562
		h-0.591V154.384z"/>
</g>
<g enable-background="new    ">
	<path fill="#F2F2F2" d="M71.633,158.589c0-0.299,0.195-0.585,0.526-0.799v-0.026c-0.188-0.11-0.325-0.299-0.325-0.579
		c0-0.292,0.215-0.526,0.396-0.656v-0.025c-0.234-0.188-0.461-0.527-0.461-0.949c0-0.773,0.611-1.262,1.326-1.262
		c0.195,0,0.371,0.046,0.494,0.092h1.229v0.455h-0.722c0.169,0.162,0.286,0.422,0.286,0.728c0,0.754-0.572,1.229-1.287,1.229
		c-0.175,0-0.371-0.045-0.526-0.123c-0.13,0.11-0.228,0.228-0.228,0.422c0,0.228,0.143,0.384,0.617,0.384h0.689
		c0.819,0,1.229,0.26,1.229,0.839c0,0.656-0.689,1.222-1.781,1.222C72.23,159.539,71.633,159.201,71.633,158.589z M74.304,158.408
		c0-0.325-0.253-0.436-0.722-0.436h-0.611c-0.13,0-0.299-0.02-0.455-0.059c-0.253,0.182-0.364,0.39-0.364,0.598
		c0,0.377,0.383,0.624,1.027,0.624C73.855,159.135,74.304,158.778,74.304,158.408z M73.843,155.554c0-0.514-0.332-0.826-0.748-0.826
		s-0.754,0.306-0.754,0.826c0,0.514,0.344,0.838,0.754,0.838C73.498,156.392,73.843,156.068,73.843,155.554z"/>
</g>
<g>
	
		<rect x="197.194" y="122.692" transform="matrix(0.9649 0.2627 -0.2627 0.9649 46.8386 -46.6011)" fill="#C20C0C" width="1" height="58.341"/>
</g>
<g>
	
		<rect x="226.871" y="146.373" transform="matrix(0.6524 0.7579 -0.7579 0.6524 211.966 -111.35)" fill="#C20C0C" width="1" height="58.053"/>
</g>
<g>
	
		<rect x="252.672" y="174.837" transform="matrix(0.2363 0.9717 -0.9717 0.2363 394.3711 -88.003)" fill="#C20C0C" width="1" height="64.108"/>
</g>
<g>
	
		<rect x="221.424" y="242.953" transform="matrix(0.9713 0.2377 -0.2377 0.9713 65.0134 -52.2969)" fill="#C20C0C" width="55.901" height="1"/>
</g>
<g>
	
		<rect x="208.921" y="276.271" transform="matrix(0.5718 0.8204 -0.8204 0.5718 325.3529 -69.7643)" fill="#C20C0C" width="41.165" height="1"/>
</g>
<g>
	<g>
		<defs>
			<polygon id="SVGID_25_" points="0,536.51 321.927,521.336 362.471,36.596 0,36.596 			"/>
		</defs>
		<clipPath id="SVGID_26_">
			<use xlink:href="#SVGID_25_"  overflow="visible"/>
		</clipPath>
		<g clip-path="url(#SVGID_26_)">
			<path fill="#FFFFFF" d="M195.136,276.089c29.438,0,53.306-23.865,53.306-53.306c0-29.439-23.866-53.305-53.306-53.305
				c-29.438,0-53.307,23.865-53.307,53.305C141.83,252.224,165.698,276.089,195.136,276.089"/>
		</g>
	</g>
	<g>
		<defs>
			<polygon id="SVGID_27_" points="0,536.51 321.927,521.336 362.471,36.596 0,36.596 			"/>
		</defs>
		<clipPath id="SVGID_28_">
			<use xlink:href="#SVGID_27_"  overflow="visible"/>
		</clipPath>
		<g clip-path="url(#SVGID_28_)">
			<path fill="#C20C0C" d="M195.136,278.088c-30.496,0-55.306-24.81-55.306-55.305c0-30.496,24.81-55.305,55.306-55.305
				c30.495,0,55.305,24.81,55.305,55.305C250.441,253.278,225.632,278.088,195.136,278.088z M195.136,171.478
				c-28.29,0-51.306,23.016-51.306,51.305s23.016,51.305,51.306,51.305c28.289,0,51.305-23.015,51.305-51.305
				S223.426,171.478,195.136,171.478z"/>
		</g>
	</g>
</g>
<g enable-background="new    ">
	<path fill="#CB3030" d="M172.053,220.787h0.92l0.099,0.76h0.036c0.602-0.49,1.35-0.932,2.123-0.932c1.717,0,2.65,1.35,2.65,3.397
		c0,2.282-1.362,3.595-2.896,3.595c-0.601,0-1.238-0.282-1.84-0.772l0.025,1.165v2.258h-1.117V220.787z M176.716,224.025
		c0-1.472-0.49-2.466-1.754-2.466c-0.564,0-1.141,0.319-1.791,0.92v3.496c0.601,0.516,1.189,0.7,1.631,0.7
		C175.906,226.675,176.716,225.681,176.716,224.025z"/>
</g>
<g enable-background="new    ">
	<path fill="#CB3030" d="M180.143,220.787h0.92l0.098,1.214h0.037c0.467-0.847,1.141-1.386,1.89-1.386
		c0.294,0,0.503,0.036,0.712,0.146l-0.209,0.981c-0.221-0.086-0.381-0.11-0.65-0.11c-0.553,0-1.239,0.393-1.681,1.534v4.281h-1.116
		V220.787z"/>
</g>
<g enable-background="new    ">
	<path fill="#CB3030" d="M184.758,224.124c0-2.221,1.46-3.509,3.092-3.509s3.091,1.288,3.091,3.509c0,2.208-1.459,3.483-3.091,3.483
		S184.758,226.332,184.758,224.124z M189.788,224.124c0-1.534-0.785-2.577-1.938-2.577s-1.927,1.043-1.927,2.577
		c0,1.533,0.773,2.552,1.927,2.552S189.788,225.657,189.788,224.124z"/>
</g>
<g enable-background="new    ">
	<path fill="#CB3030" d="M192.713,224.124c0-2.159,1.361-3.509,2.883-3.509c0.785,0,1.288,0.294,1.877,0.785l-0.062-1.153v-2.564
		h1.117v9.766h-0.908l-0.11-0.785h-0.024c-0.527,0.516-1.227,0.944-2.024,0.944C193.792,227.607,192.713,226.343,192.713,224.124z
		 M197.411,225.754v-3.496c-0.564-0.503-1.066-0.699-1.619-0.699c-1.08,0-1.926,1.03-1.926,2.552c0,1.607,0.662,2.564,1.84,2.564
		C196.319,226.675,196.859,226.368,197.411,225.754z"/>
	<path fill="#CB3030" d="M200.716,225.006v-4.22h1.116v4.085c0,1.239,0.368,1.767,1.251,1.767c0.688,0,1.166-0.331,1.804-1.129
		v-4.723h1.116v6.661h-0.932l-0.086-1.043h-0.037c-0.626,0.724-1.288,1.202-2.209,1.202
		C201.341,227.607,200.716,226.7,200.716,225.006z"/>
</g>
<g enable-background="new    ">
	<path fill="#CB3030" d="M208.705,224.124c0-2.221,1.509-3.509,3.214-3.509c0.871,0,1.473,0.368,1.951,0.785l-0.576,0.748
		c-0.393-0.355-0.798-0.602-1.338-0.602c-1.202,0-2.086,1.043-2.086,2.577c0,1.533,0.835,2.552,2.062,2.552
		c0.614,0,1.153-0.282,1.57-0.663l0.479,0.748c-0.589,0.54-1.35,0.847-2.147,0.847C210.067,227.607,208.705,226.332,208.705,224.124
		z"/>
</g>
<g enable-background="new    ">
	<path fill="#CB3030" d="M216.009,225.387v-3.693h-0.994v-0.847l1.043-0.061l0.135-1.865h0.933v1.865h1.804v0.907h-1.804v3.718
		c0,0.821,0.258,1.288,1.03,1.288c0.233,0,0.54-0.086,0.761-0.172l0.221,0.834c-0.38,0.123-0.821,0.245-1.227,0.245
		C216.487,227.607,216.009,226.724,216.009,225.387z"/>
</g>
</svg>
