<?xml version="1.0" encoding="utf-8"?>
<!-- Generator: Adobe Illustrator 16.0.0, SVG Export Plug-In . SVG Version: 6.00 Build 0)  -->
<!DOCTYPE svg PUBLIC "-//W3C//DTD SVG 1.1//EN" "http://www.w3.org/Graphics/SVG/1.1/DTD/svg11.dtd">
<svg version="1.1" id="Layer_1" xmlns="http://www.w3.org/2000/svg" xmlns:xlink="http://www.w3.org/1999/xlink" x="0px" y="0px"
	 width="899.955px" height="526.473px" viewBox="0 0 899.955 526.473" enable-background="new 0 0 899.955 526.473"
	 xml:space="preserve">
<g>
	<defs>
		<rect id="SVGID_1_" x="-21.645" y="19.989" width="916.6" height="486.496"/>
	</defs>
	<clipPath id="SVGID_2_">
		<use xlink:href="#SVGID_1_"  overflow="visible"/>
	</clipPath>
	<path clip-path="url(#SVGID_2_)" fill="none" stroke="#C20C0C" d="M-21.644,48.704l426.167-0.771c0,0,14.174-0.026,14.174,14.147
		v38.056c0,0,0,14.174-14.174,14.174H160.264c0,0-14.173,0-14.204,14.173l-0.041,18.75c0,0-0.032,14.173,14.142,14.139
		l101.599-0.238c0,0,14-0.033,13.971,13.967l-0.035,17.56l-0.033,6.108c0,0-0.032,6.108,14.142,6.08l114.738-0.233
		c0,0,14.175-0.029,14.169,14.146l-0.007,21.447c0,0-0.005,14.173-14.179,14.162l-120.071-0.096c0,0-9-0.007-9,8.993v12.672
		l-0.064,1.797c0,0-0.065,1.799-0.065,4.799v6.254c0,0,0,9.254-14.173,9.223l-101.256-0.227c0,0-14.173-0.031-14.248,14.143
		l-0.101,19.088c0,0-0.074,14.172,14.099,14.145l102.27-0.195c0,0,14.173-0.027,14.173,14.146v20.883c0,0,0,14.174,14.173,14.174
		h114.068c0,0,14.175,0,14.175,14.172v21.348c0,0,0,14.174-14.175,14.174H289.639c0,0-14.173,0-14.173,14.174v33.779
		c0,0,0,14.172,14.173,14.172h240.763c0,0,14.174,0,14.174-14.172V284.915c0,0,0-13,13-13h16.055"/>
	<path clip-path="url(#SVGID_2_)" fill="#333333" d="M766.387,247.821c0,0-5.67,0-5.67,5.669v39.05c0,0,0,5.67,5.67,5.67h113.898
		c0,0,5.67,0,5.67-5.67v-39.05c0,0,0-5.669-5.67-5.669H766.387z"/>
</g>
<text transform="matrix(1 0 0 1 769.5168 276.0952)"><tspan x="0" y="0" fill="#FFFFFF" font-family="'THEJung110-KSCpc-EUC-H'" font-size="10">어둡고 역동적인 분위</tspan><tspan x="97.791" y="0" fill="#FFFFFF" font-family="'THEJung110-KSCpc-EUC-H'" font-size="10">기</tspan></text>
<g>
	<defs>
		<rect id="SVGID_3_" x="-21.645" y="19.989" width="916.6" height="486.496"/>
	</defs>
	<clipPath id="SVGID_4_">
		<use xlink:href="#SVGID_3_"  overflow="visible"/>
	</clipPath>
	<path clip-path="url(#SVGID_4_)" fill="#333333" d="M766.387,404.434c0,0-5.67,0-5.67,5.67v38.236c0,0,0,5.668,5.67,5.668h108.639
		c0,0,5.668,0,5.668-5.668v-38.236c0,0,0-5.67-5.668-5.67H766.387z"/>
</g>
<text transform="matrix(1 0 0 1 788.5168 432.3022)"><tspan x="0" y="0" fill="#FFFFFF" font-family="'THEJung110-KSCpc-EUC-H'" font-size="10">슬라이드 효</tspan><tspan x="53.84" y="0" fill="#FFFFFF" font-family="'THEJung110-KSCpc-EUC-H'" font-size="10">과</tspan></text>
<text transform="matrix(1 0 0 1 18.0403 40.8979)"><tspan x="0" y="0" fill="#C20C0C" font-family="'OpenSans'" font-size="19">Prom</tspan><tspan x="51.308" y="0" fill="#C20C0C" font-family="'OpenSans'" font-size="19">o</tspan><tspan x="63.544" y="0" fill="#C20C0C" font-family="'OpenSans'" font-size="19">t</tspan><tspan x="70.993" y="0" fill="#C20C0C" font-family="'OpenSans'" font-size="19">i</tspan><tspan x="76.559" y="0" fill="#C20C0C" font-family="'OpenSans'" font-size="19">o</tspan><tspan x="88.775" y="0" fill="#C20C0C" font-family="'OpenSans'" font-size="19">n Synop</tspan><tspan x="165.476" y="0" fill="#C20C0C" font-family="'OpenSans'" font-size="19">s</tspan><tspan x="175.28" y="0" fill="#C20C0C" font-family="'OpenSans'" font-size="19">i</tspan><tspan x="180.846" y="0" fill="#C20C0C" font-family="'OpenSans'" font-size="19">s</tspan></text>
<g>
	<defs>
		<rect id="SVGID_5_" x="-21.645" y="19.989" width="916.6" height="486.496"/>
	</defs>
	<clipPath id="SVGID_6_">
		<use xlink:href="#SVGID_5_"  overflow="visible"/>
	</clipPath>
	<path clip-path="url(#SVGID_6_)" fill="#333333" d="M766.387,108.214c0,0-5.67,0-5.67,5.669v40.363c0,0,0,5.669,5.67,5.669h108.639
		c0,0,5.668,0,5.668-5.669v-40.363c0,0,0-5.669-5.668-5.669H766.387z"/>
</g>
<text transform="matrix(1 0 0 1 799.2278 130.0786)"><tspan x="0" y="0" fill="#FFFFFF" font-family="'THEJung110-KSCpc-EUC-H'" font-size="9">96</tspan><tspan x="11.961" y="0" fill="#FFFFFF" font-family="'THEJung110-KSCpc-EUC-H'" font-size="9">0</tspan></text>
<text transform="matrix(1 0 0 1 817.2278 130.0786)"><tspan x="0" y="0" fill="#FFFFFF" font-family="'THEJung110-KSCpc-EUC-H'" font-size="9"> - 19</tspan><tspan x="20.924" y="0" fill="#FFFFFF" font-family="'THEJung110-KSCpc-EUC-H'" font-size="9">2</tspan><tspan x="26.586" y="0" fill="#FFFFFF" font-family="'THEJung110-KSCpc-EUC-H'" font-size="9">0(</tspan><tspan x="35.639" y="0" fill="#FFFFFF" font-family="'THEJung110-KSCpc-EUC-H'" font-size="9">p</tspan><tspan x="41.436" y="0" fill="#FFFFFF" font-family="'THEJung110-KSCpc-EUC-H'" font-size="9">x</tspan><tspan x="46.457" y="0" fill="#FFFFFF" font-family="'THEJung110-KSCpc-EUC-H'" font-size="9">)</tspan></text>
<g>
	<defs>
		<path id="SVGID_7_" d="M782.637,123.065c0,0-3,0-3,3v2.995c0,0,0,3,3,3h6.299c0,0,3,0,3-3v-2.995c0,0,0-3-3-3H782.637z"/>
	</defs>
	<clipPath id="SVGID_8_">
		<use xlink:href="#SVGID_7_"  overflow="visible"/>
	</clipPath>
	<path clip-path="url(#SVGID_8_)" fill="#FFFFFF" d="M789.246,123.065h-8.797c-0.447,0-0.813,0.365-0.813,0.813v6.15
		c0,0.449,0.365,0.813,0.813,0.813h4.092v0.604h-1.076v0.614h2.764v-0.614h-1.074v-0.604h4.092c0.447,0,0.813-0.364,0.813-0.813
		v-6.15C790.059,123.43,789.694,123.065,789.246,123.065 M780.449,123.679h8.797c0.109,0,0.199,0.089,0.199,0.199v4.895h-9.195
		v-4.895C780.25,123.768,780.34,123.679,780.449,123.679 M789.246,130.228h-8.797c-0.109,0-0.199-0.089-0.199-0.199v-0.642h9.195
		v0.642C789.446,130.139,789.356,130.228,789.246,130.228"/>
</g>
<g>
	<defs>
		<rect id="SVGID_9_" x="-21.645" y="19.989" width="916.6" height="486.496"/>
	</defs>
	<clipPath id="SVGID_10_">
		<use xlink:href="#SVGID_9_"  overflow="visible"/>
	</clipPath>
	<path clip-path="url(#SVGID_10_)" fill="#888888" d="M371.336,223.726c0,0-6,0-6,6v3.705c0,0,0,6,6,6h77.709c0,0,6,0,6-6v-3.705
		c0,0,0-6-6-6H371.336z"/>
</g>
<text transform="matrix(1 0 0 1 373.9255 234.3511)"><tspan x="0" y="0" fill="#FFFFFF" font-family="'THEJung110-KSCpc-EUC-H'" font-size="9">컨텐츠의 분위기</tspan><tspan x="66.258" y="0" fill="#FFFFFF" font-family="'THEJung110-KSCpc-EUC-H'" font-size="9">?</tspan></text>
<g>
	<defs>
		<rect id="SVGID_11_" x="-21.645" y="19.989" width="916.6" height="486.496"/>
	</defs>
	<clipPath id="SVGID_12_">
		<use xlink:href="#SVGID_11_"  overflow="visible"/>
	</clipPath>
	<path clip-path="url(#SVGID_12_)" fill="#888888" d="M348.19,70.655c0,0-7,0-7,7v2.993c0,0,0,7,7,7h124c0,0,7,0,7-7v-2.993
		c0,0,0-7-7-7H348.19z"/>
</g>
<text transform="matrix(1 0 0 1 348.0447 81.9233)"><tspan x="0" y="0" fill="#FFFFFF" font-family="'THEJung110-KSCpc-EUC-H'" font-size="9">페이지 제작 목적이 무엇인가</tspan><tspan x="118.664" y="0" fill="#FFFFFF" font-family="'THEJung110-KSCpc-EUC-H'" font-size="9">?</tspan></text>
<g>
	<defs>
		<rect id="SVGID_13_" x="-21.645" y="19.989" width="916.6" height="486.496"/>
	</defs>
	<clipPath id="SVGID_14_">
		<use xlink:href="#SVGID_13_"  overflow="visible"/>
	</clipPath>
	<path clip-path="url(#SVGID_14_)" fill="#888888" d="M61.891,132.309c0,0-7,0-7,7v2.886c0,0,0,7,7,7h133.942c0,0,7,0,7-7v-2.886
		c0,0,0-7-7-7H61.891z"/>
</g>
<text transform="matrix(1 0 0 1 82.0906 143.5239)"><tspan x="0" y="0" fill="#FFFFFF" font-family="'THEJung110-KSCpc-EUC-H'" font-size="9">페이지 구성 레이아웃</tspan><tspan x="88.011" y="0" fill="#FFFFFF" font-family="'THEJung110-KSCpc-EUC-H'" font-size="9">?</tspan></text>
<g>
	<defs>
		<rect id="SVGID_15_" x="-21.645" y="19.989" width="916.6" height="486.496"/>
	</defs>
	<clipPath id="SVGID_16_">
		<use xlink:href="#SVGID_15_"  overflow="visible"/>
	</clipPath>
	<path clip-path="url(#SVGID_16_)" fill="#333333" d="M216.468,266.954c0,0-7,0-7,7v2.654c0,0,0,7,7,7h129.697c0,0,7,0,7-7v-2.654
		c0,0,0-7-7-7H216.468z"/>
</g>
<text transform="matrix(1 0 0 1 223.2273 278.0532)"><tspan x="0" y="0" fill="#FFFFFF" font-family="'THEJung110-KSCpc-EUC-H'" font-size="9">역동적인 일렉트로닉 분위</tspan><tspan x="105.813" y="0" fill="#FFFFFF" font-family="'THEJung110-KSCpc-EUC-H'" font-size="9">기</tspan></text>
<g>
	<defs>
		<rect id="SVGID_17_" x="-21.645" y="19.989" width="916.6" height="486.496"/>
	</defs>
	<clipPath id="SVGID_18_">
		<use xlink:href="#SVGID_17_"  overflow="visible"/>
	</clipPath>
	<path clip-path="url(#SVGID_18_)" fill="#333333" d="M229.445,105.379c0,0-6,0-6,6v3.732c0,0,0,6,6,6h103.743c0,0,6,0,6-6v-3.732
		c0,0,0-6-6-6H229.445z"/>
</g>
<text transform="matrix(1 0 0 1 232.9114 116.0171)"><tspan x="0" y="0" fill="#FFFFFF" font-family="'THEJung110-KSCpc-EUC-H'" font-size="9">f</tspan><tspan x="3.573" y="0" fill="#FFFFFF" font-family="'THEJung110-KSCpc-EUC-H'" font-size="9">ende</tspan><tspan x="26.802" y="0" fill="#FFFFFF" font-family="'THEJung110-KSCpc-EUC-H'" font-size="9">r</tspan><tspan x="30.06" y="0" fill="#FFFFFF" font-family="'THEJung110-KSCpc-EUC-H'" font-size="9"> 기타 제품 홍</tspan><tspan x="86.417" y="0" fill="#FFFFFF" font-family="'THEJung110-KSCpc-EUC-H'" font-size="9">보</tspan></text>
<g>
	<defs>
		<rect id="SVGID_19_" x="-21.645" y="19.989" width="916.6" height="486.496"/>
	</defs>
	<clipPath id="SVGID_20_">
		<use xlink:href="#SVGID_19_"  overflow="visible"/>
	</clipPath>
	<path clip-path="url(#SVGID_20_)" fill="#333333" d="M218.094,176.246c0,0-7,0-7,7v3.717c0,0,0,7,7,7h126.444c0,0,7,0,7-7v-3.717
		c0,0,0-7-7-7H218.094z"/>
</g>
<text transform="matrix(1 0 0 1 230.2302 187.8755)"><tspan x="0" y="0" fill="#FFFFFF" font-family="'THEJung110-KSCpc-EUC-H'" font-size="9">P</tspan><tspan x="6.129" y="0" fill="#FFFFFF" font-family="'THEJung110-KSCpc-EUC-H'" font-size="9">C</tspan><tspan x="12.969" y="0" fill="#FFFFFF" font-family="'THEJung110-KSCpc-EUC-H'" font-size="9">전용 원페이지 스크</tspan><tspan x="92.078" y="0" fill="#FFFFFF" font-family="'THEJung110-KSCpc-EUC-H'" font-size="9">롤</tspan></text>
<g>
	<defs>
		<rect id="SVGID_21_" x="-21.645" y="19.989" width="916.6" height="486.496"/>
	</defs>
	<clipPath id="SVGID_22_">
		<use xlink:href="#SVGID_21_"  overflow="visible"/>
	</clipPath>
	<path clip-path="url(#SVGID_22_)" fill="#888888" d="M343.219,408.809c0,0-7,0-7,7v2.885c0,0,0,7,7,7H477.16c0,0,7,0,7-7v-2.885
		c0,0,0-7-7-7H343.219z"/>
</g>
<text transform="matrix(1 0 0 1 367.8738 420.0239)"><tspan x="0" y="0" fill="#FFFFFF" font-family="'THEJung110-KSCpc-EUC-H'" font-size="9">컨텐트 이벤트 컨셉</tspan><tspan x="79.109" y="0" fill="#FFFFFF" font-family="'THEJung110-KSCpc-EUC-H'" font-size="9">?</tspan></text>
<g>
	<defs>
		<rect id="SVGID_23_" x="-21.645" y="19.989" width="916.6" height="486.496"/>
	</defs>
	<clipPath id="SVGID_24_">
		<use xlink:href="#SVGID_23_"  overflow="visible"/>
	</clipPath>
	<path clip-path="url(#SVGID_24_)" fill="#333333" d="M200.788,461.836c0,0-7,0-7,7v3.008c0,0,0,7,7,7h161.055c0,0,7,0,7-7v-3.008
		c0,0,0-7-7-7H200.788z"/>
</g>
<text transform="matrix(1 0 0 1 201.7688 473.1118)"><tspan x="0" y="0" fill="#FFFFFF" font-family="'THEJung110-KSCpc-EUC-H'" font-size="9">역동적인 슬라이드 이벤트 및 진동효</tspan><tspan x="149.319" y="0" fill="#FFFFFF" font-family="'THEJung110-KSCpc-EUC-H'" font-size="9">과</tspan></text>
<g>
	<defs>
		<rect id="SVGID_25_" x="-21.645" y="19.989" width="916.6" height="486.496"/>
	</defs>
	<clipPath id="SVGID_26_">
		<use xlink:href="#SVGID_25_"  overflow="visible"/>
	</clipPath>
	<path clip-path="url(#SVGID_26_)" fill="#333333" d="M236.925,361.915c0,0-7,0-7,7v2.789c0,0,0,7,7,7h88.782c0,0,7,0,7-7v-2.789
		c0,0,0-7-7-7H236.925z"/>
</g>
<text transform="matrix(1 0 0 1 245.4602 373.0815)"><tspan x="0" y="0" fill="#FFFFFF" font-family="'THEJung110-KSCpc-EUC-H'" font-size="9">어두운 사진 활</tspan><tspan x="61.308" y="0" fill="#FFFFFF" font-family="'THEJung110-KSCpc-EUC-H'" font-size="9">용</tspan></text>
<g>
	<defs>
		<rect id="SVGID_27_" x="-21.645" y="19.989" width="916.6" height="486.496"/>
	</defs>
	<clipPath id="SVGID_28_">
		<use xlink:href="#SVGID_27_"  overflow="visible"/>
	</clipPath>
	<path clip-path="url(#SVGID_28_)" fill="#888888" d="M76.064,318.1c0,0-7,0-7,7v2.885c0,0,0,7,7,7H201.67c0,0,7,0,7-7V325.1
		c0,0,0-7-7-7H76.064z"/>
</g>
<text transform="matrix(1 0 0 1 111.5637 329.3149)"><tspan x="0" y="0" fill="#FFFFFF" font-family="'THEJung110-KSCpc-EUC-H'" font-size="9">페이지 배경</tspan><tspan x="48.456" y="0" fill="#FFFFFF" font-family="'THEJung110-KSCpc-EUC-H'" font-size="9">?</tspan></text>
<text transform="matrix(1 0 0 1 788.3547 145.6694)"><tspan x="0" y="0" fill="#FFFFFF" font-family="'THEJung110-KSCpc-EUC-H'" font-size="9">원페이지 스크</tspan><tspan x="57.355" y="0" fill="#FFFFFF" font-family="'THEJung110-KSCpc-EUC-H'" font-size="9">롤</tspan></text>
<line fill="none" stroke="#C20C0C" x1="690.844" y1="273.172" x2="731.805" y2="273.172"/>
<path fill="none" stroke="#B4B4B5" stroke-width="0.283" d="M137.615,296.674"/>
<g>
	<defs>
		<rect id="SVGID_29_" x="-21.645" y="19.989" width="916.6" height="486.496"/>
	</defs>
	<clipPath id="SVGID_30_">
		<use xlink:href="#SVGID_29_"  overflow="visible"/>
	</clipPath>
	<path clip-path="url(#SVGID_30_)" fill="none" stroke="#C20C0C" d="M662.213,273.293h26.221c0,0,14.174,0,14.174-14.173V139.554
		c0,0,0-13,13-13h16.48"/>
</g>
<text transform="matrix(1 0 0 1 594.9368 276.1069)"><tspan x="0" y="0" fill="#4C4948" font-family="'THEJung130-KSCpc-EUC-H'" font-size="11">제작컨</tspan><tspan x="32.637" y="0" fill="#4C4948" font-family="'THEJung130-KSCpc-EUC-H'" font-size="11">셉</tspan></text>
<g>
	<defs>
		<rect id="SVGID_31_" x="-21.645" y="19.989" width="916.6" height="486.496"/>
	</defs>
	<clipPath id="SVGID_32_">
		<use xlink:href="#SVGID_31_"  overflow="visible"/>
	</clipPath>
	<path clip-path="url(#SVGID_32_)" fill="#C20C0C" d="M735.074,427.551c0-0.723-0.586-1.309-1.309-1.309
		c-0.725,0-1.311,0.586-1.311,1.309c0,0.725,0.586,1.311,1.311,1.311C734.489,428.862,735.074,428.276,735.074,427.551"/>
	<path clip-path="url(#SVGID_32_)" fill="#C20C0C" d="M733.989,273.172c0-0.723-0.586-1.309-1.309-1.309
		c-0.725,0-1.311,0.586-1.311,1.309s0.586,1.309,1.311,1.309C733.403,274.481,733.989,273.895,733.989,273.172"/>
	<path clip-path="url(#SVGID_32_)" fill="#C20C0C" d="M573.522,273.258c0.725,0,1.311-0.588,1.311-1.311s-0.586-1.309-1.311-1.309
		c-0.723,0-1.309,0.586-1.309,1.309S572.799,273.258,573.522,273.258"/>
	<path clip-path="url(#SVGID_32_)" fill="#C20C0C" d="M661.254,274.391c0.725,0,1.311-0.586,1.311-1.309s-0.586-1.309-1.311-1.309
		c-0.723,0-1.309,0.586-1.309,1.309S660.531,274.391,661.254,274.391"/>
	<path clip-path="url(#SVGID_32_)" fill="#C20C0C" d="M733.573,126.531c0-0.723-0.586-1.309-1.309-1.309
		c-0.725,0-1.311,0.586-1.311,1.309c0,0.724,0.586,1.31,1.311,1.31C732.987,127.84,733.573,127.254,733.573,126.531"/>
	<path clip-path="url(#SVGID_32_)" fill="none" stroke="#C20C0C" d="M668.276,273.299h20.264c0,0,14.174,0,14.174,14.174v127.111
		c0,0,0,13,13,13h16.967"/>
</g>
</svg>
