<?xml version="1.0" encoding="utf-8"?>
<!-- Generator: Adobe Illustrator 16.0.0, SVG Export Plug-In . SVG Version: 6.00 Build 0)  -->
<!DOCTYPE svg PUBLIC "-//W3C//DTD SVG 1.1//EN" "http://www.w3.org/Graphics/SVG/1.1/DTD/svg11.dtd">
<svg version="1.1" id="Layer_1" xmlns="http://www.w3.org/2000/svg" xmlns:xlink="http://www.w3.org/1999/xlink" x="0px" y="0px"
	 width="1076.535px" height="785.959px" viewBox="0 0 1076.535 785.959" enable-background="new 0 0 1076.535 785.959"
	 xml:space="preserve">
<path fill="none" d="M-0.961-126.369"/>
<path fill="none" d="M-0.961-126.369"/>
<g enable-background="new    ">
	<path fill="#C20C0C" d="M87.624,51.894L81.514,35.93h-0.099c0.116,1.265,0.173,2.768,0.173,4.508v11.456h-1.934V33.885h3.153
		L88.51,48.74h0.099l5.752-14.855h3.128v18.008h-2.094V40.29c0-1.329,0.058-2.775,0.173-4.335H95.47l-6.159,15.938H87.624z"/>
</g>
<g enable-background="new    ">
	<path fill="#C20C0C" d="M108.833,52.14c-1.996,0-3.57-0.607-4.724-1.823c-1.154-1.215-1.731-2.903-1.731-5.063
		c0-2.176,0.536-3.905,1.607-5.186c1.071-1.28,2.511-1.921,4.317-1.921c1.691,0,3.03,0.556,4.016,1.668
		c0.985,1.113,1.478,2.582,1.478,4.404v1.294h-9.3c0.041,1.584,0.441,2.787,1.201,3.608c0.759,0.821,1.829,1.232,3.208,1.232
		c1.454,0,2.89-0.304,4.311-0.912v1.823c-0.723,0.313-1.406,0.537-2.051,0.671C110.522,52.072,109.744,52.14,108.833,52.14z
		 M108.278,39.859c-1.084,0-1.948,0.354-2.593,1.06c-0.645,0.707-1.024,1.683-1.139,2.932h7.058c0-1.289-0.288-2.277-0.862-2.962
		C110.167,40.203,109.345,39.859,108.278,39.859z"/>
</g>
<g enable-background="new    ">
	<path fill="#C20C0C" d="M127.504,51.894v-8.733c0-1.1-0.25-1.921-0.751-2.463c-0.501-0.542-1.286-0.813-2.353-0.813
		c-1.412,0-2.447,0.382-3.104,1.146c-0.657,0.765-0.985,2.024-0.985,3.782v7.082h-2.045v-13.5h1.663l0.333,1.848h0.099
		c0.418-0.665,1.005-1.18,1.761-1.546c0.755-0.365,1.598-0.547,2.525-0.547c1.625,0,2.849,0.392,3.67,1.176
		c0.821,0.784,1.231,2.038,1.231,3.762v8.808H127.504z"/>
	<path fill="#C20C0C" d="M135.671,38.393v8.758c0,1.1,0.25,1.921,0.751,2.463c0.5,0.542,1.285,0.813,2.353,0.813
		c1.412,0,2.445-0.385,3.098-1.157c0.652-0.772,0.979-2.033,0.979-3.782v-7.095h2.044v13.5h-1.687l-0.296-1.811h-0.111
		c-0.419,0.665-1,1.174-1.743,1.527c-0.743,0.353-1.591,0.529-2.543,0.529c-1.643,0-2.873-0.39-3.689-1.17
		c-0.817-0.78-1.226-2.028-1.226-3.745v-8.832H135.671z"/>
	<path fill="#C20C0C" d="M170.159,51.894h-2.39l-9.841-15.113h-0.099c0.131,1.773,0.197,3.399,0.197,4.878v10.235h-1.934V33.885
		h2.364l9.817,15.052h0.098c-0.016-0.221-0.053-0.934-0.11-2.137c-0.058-1.203-0.078-2.063-0.062-2.581V33.885h1.958V51.894z"/>
</g>
<g enable-background="new    ">
	<path fill="#C20C0C" d="M187.142,51.894l-0.407-1.921h-0.099c-0.673,0.845-1.345,1.418-2.014,1.718
		c-0.669,0.3-1.505,0.45-2.507,0.45c-1.338,0-2.388-0.345-3.147-1.035c-0.76-0.69-1.139-1.67-1.139-2.943
		c0-2.727,2.18-4.155,6.541-4.287l2.291-0.073v-0.837c0-1.06-0.228-1.841-0.684-2.347c-0.456-0.505-1.185-0.758-2.186-0.758
		c-1.125,0-2.398,0.345-3.819,1.034l-0.628-1.564c0.666-0.361,1.395-0.644,2.187-0.85c0.792-0.204,1.587-0.307,2.384-0.307
		c1.609,0,2.802,0.356,3.578,1.072c0.775,0.714,1.164,1.859,1.164,3.437v9.213H187.142z M182.523,50.452
		c1.272,0,2.272-0.349,2.999-1.047c0.727-0.698,1.09-1.675,1.09-2.931v-1.219l-2.045,0.086c-1.625,0.058-2.798,0.31-3.516,0.758
		c-0.719,0.447-1.078,1.144-1.078,2.087c0,0.739,0.224,1.302,0.671,1.688C181.093,50.26,181.719,50.452,182.523,50.452z"/>
</g>
<g enable-background="new    ">
	<path fill="#C20C0C" d="M196.81,51.894l-5.125-13.5h2.192l2.907,8.007c0.657,1.872,1.042,3.087,1.158,3.645h0.099
		c0.09-0.435,0.375-1.336,0.856-2.703c0.48-1.368,1.558-4.351,3.233-8.95h2.192l-5.124,13.5H196.81z"/>
	<path fill="#C20C0C" d="M206.319,34.736c0-0.469,0.115-0.812,0.345-1.029c0.229-0.218,0.517-0.327,0.862-0.327
		c0.328,0,0.612,0.111,0.85,0.333c0.238,0.221,0.357,0.562,0.357,1.022c0,0.459-0.119,0.802-0.357,1.028
		c-0.238,0.226-0.522,0.339-0.85,0.339c-0.345,0-0.633-0.113-0.862-0.339C206.434,35.538,206.319,35.195,206.319,34.736z
		 M208.536,51.894h-2.045v-13.5h2.045V51.894z"/>
	<path fill="#C20C0C" d="M223.921,38.393v1.293l-2.5,0.296c0.23,0.288,0.435,0.663,0.616,1.126c0.181,0.464,0.271,0.987,0.271,1.571
		c0,1.322-0.452,2.377-1.355,3.165c-0.903,0.789-2.143,1.182-3.72,1.182c-0.402,0-0.78-0.033-1.133-0.098
		c-0.87,0.46-1.306,1.039-1.306,1.737c0,0.368,0.152,0.642,0.456,0.819c0.304,0.176,0.825,0.265,1.564,0.265h2.39
		c1.461,0,2.584,0.307,3.369,0.924c0.784,0.616,1.176,1.51,1.176,2.686c0,1.494-0.6,2.633-1.799,3.418
		c-1.199,0.784-2.948,1.175-5.247,1.175c-1.765,0-3.126-0.328-4.083-0.985c-0.957-0.657-1.434-1.584-1.434-2.784
		c0-0.821,0.262-1.531,0.788-2.131c0.525-0.599,1.265-1.005,2.217-1.219c-0.345-0.155-0.634-0.398-0.868-0.726
		c-0.234-0.329-0.351-0.71-0.351-1.146c0-0.493,0.131-0.924,0.395-1.293c0.262-0.37,0.677-0.727,1.244-1.071
		c-0.698-0.288-1.267-0.776-1.706-1.466c-0.44-0.689-0.66-1.478-0.66-2.365c0-1.477,0.443-2.616,1.331-3.418
		c0.887-0.8,2.143-1.2,3.769-1.2c0.707,0,1.343,0.082,1.909,0.246H223.921z M213.156,54.16c0,0.73,0.308,1.285,0.923,1.663
		c0.616,0.377,1.499,0.566,2.648,0.566c1.716,0,2.987-0.257,3.813-0.77c0.825-0.514,1.238-1.209,1.238-2.088
		c0-0.73-0.226-1.238-0.677-1.521c-0.452-0.283-1.302-0.426-2.55-0.426h-2.452c-0.928,0-1.65,0.222-2.167,0.666
		C213.414,52.694,213.156,53.33,213.156,54.16z M214.263,42.717c0,0.944,0.267,1.66,0.801,2.144
		c0.533,0.484,1.276,0.726,2.229,0.726c1.995,0,2.993-0.969,2.993-2.906c0-2.028-1.01-3.043-3.031-3.043
		c-0.96,0-1.7,0.259-2.217,0.776C214.522,40.931,214.263,41.699,214.263,42.717z"/>
</g>
<g enable-background="new    ">
	<path fill="#C20C0C" d="M238.02,51.894l-0.407-1.921h-0.098c-0.673,0.845-1.345,1.418-2.014,1.718
		c-0.669,0.3-1.504,0.45-2.506,0.45c-1.338,0-2.388-0.345-3.147-1.035c-0.76-0.69-1.139-1.67-1.139-2.943
		c0-2.727,2.18-4.155,6.541-4.287l2.291-0.073v-0.837c0-1.06-0.228-1.841-0.683-2.347c-0.456-0.505-1.185-0.758-2.187-0.758
		c-1.125,0-2.397,0.345-3.818,1.034l-0.628-1.564c0.666-0.361,1.394-0.644,2.187-0.85c0.792-0.204,1.587-0.307,2.383-0.307
		c1.609,0,2.803,0.356,3.578,1.072c0.776,0.714,1.164,1.859,1.164,3.437v9.213H238.02z M233.401,50.452
		c1.272,0,2.272-0.349,2.999-1.047c0.727-0.698,1.09-1.675,1.09-2.931v-1.219l-2.045,0.086c-1.626,0.058-2.798,0.31-3.516,0.758
		c-0.719,0.447-1.078,1.144-1.078,2.087c0,0.739,0.224,1.302,0.671,1.688C231.97,50.26,232.596,50.452,233.401,50.452z"/>
	<path fill="#C20C0C" d="M248.108,50.452c0.361,0,0.71-0.026,1.047-0.08c0.337-0.054,0.604-0.109,0.801-0.166v1.563
		c-0.222,0.107-0.548,0.196-0.979,0.266c-0.431,0.069-0.819,0.104-1.165,0.104c-2.611,0-3.917-1.375-3.917-4.126v-8.03h-1.934
		v-0.986l1.934-0.849l0.862-2.882h1.183v3.128h3.917v1.59h-3.917v7.945c0,0.813,0.193,1.437,0.579,1.872
		C246.905,50.235,247.434,50.452,248.108,50.452z"/>
</g>
<g enable-background="new    ">
	<path fill="#C20C0C" d="M254.449,34.736c0-0.469,0.115-0.812,0.345-1.029c0.23-0.218,0.518-0.327,0.862-0.327
		c0.328,0,0.612,0.111,0.85,0.333c0.238,0.221,0.357,0.562,0.357,1.022c0,0.459-0.119,0.802-0.357,1.028
		c-0.238,0.226-0.522,0.339-0.85,0.339c-0.345,0-0.632-0.113-0.862-0.339C254.564,35.538,254.449,35.195,254.449,34.736z
		 M256.666,51.894h-2.044v-13.5h2.044V51.894z"/>
</g>
<g enable-background="new    ">
	<path fill="#C20C0C" d="M273.663,45.131c0,2.201-0.554,3.92-1.663,5.155c-1.109,1.235-2.641,1.854-4.594,1.854
		c-1.208,0-2.279-0.283-3.215-0.85c-0.936-0.566-1.659-1.38-2.167-2.439c-0.51-1.059-0.764-2.298-0.764-3.72
		c0-2.2,0.55-3.915,1.651-5.143c1.101-1.227,2.627-1.841,4.582-1.841c1.889,0,3.39,0.628,4.502,1.885
		C273.106,41.289,273.663,42.988,273.663,45.131z M263.378,45.131c0,1.725,0.345,3.039,1.035,3.941
		c0.689,0.904,1.703,1.355,3.042,1.355c1.338,0,2.355-0.449,3.049-1.348c0.693-0.899,1.041-2.215,1.041-3.948
		c0-1.716-0.347-3.019-1.041-3.91c-0.694-0.891-1.719-1.337-3.073-1.337c-1.339,0-2.349,0.439-3.03,1.318
		S263.378,43.39,263.378,45.131z"/>
</g>
<g enable-background="new    ">
	<path fill="#C20C0C" d="M287.469,51.894v-8.733c0-1.1-0.25-1.921-0.751-2.463c-0.501-0.542-1.285-0.813-2.353-0.813
		c-1.412,0-2.447,0.382-3.104,1.146c-0.657,0.765-0.986,2.024-0.986,3.782v7.082h-2.044v-13.5h1.663l0.332,1.848h0.099
		c0.419-0.665,1.005-1.18,1.761-1.546c0.755-0.365,1.597-0.547,2.525-0.547c1.626,0,2.85,0.392,3.67,1.176
		c0.821,0.784,1.232,2.038,1.232,3.762v8.808H287.469z"/>
</g>
<g>
	<g>
		<defs>
			<polygon id="SVGID_1_" points="1,637.889 970.181,636.889 970.181,25.45 1,26.45 			"/>
		</defs>
		<clipPath id="SVGID_2_">
			<use xlink:href="#SVGID_1_"  overflow="visible"/>
		</clipPath>
		<g clip-path="url(#SVGID_2_)">
			<rect x="1" y="56.354" fill="#C20C0C" width="375.941" height="1"/>
		</g>
	</g>
	<g>
		<defs>
			<polygon id="SVGID_3_" points="1,637.889 970.181,636.889 970.181,25.45 1,26.45 			"/>
		</defs>
		<clipPath id="SVGID_4_">
			<use xlink:href="#SVGID_3_"  overflow="visible"/>
		</clipPath>
		<g clip-path="url(#SVGID_4_)">
			<path fill="#C20C0C" d="M378.847,59.163c1.274,0,2.309-1.034,2.309-2.309c0-1.274-1.034-2.309-2.309-2.309
				c-1.275,0-2.309,1.035-2.309,2.309S377.572,59.163,378.847,59.163"/>
		</g>
	</g>
</g>
<g>
	
		<rect x="434.902" y="213.896" transform="matrix(0.9521 0.3057 -0.3057 0.9521 103.7605 -120.1019)" fill="#231815" width="1" height="114.785"/>
</g>
<g>
	<g>
		<defs>
			<polygon id="SVGID_5_" points="1,637.889 970.181,636.889 970.181,25.45 1,26.45 			"/>
		</defs>
		<clipPath id="SVGID_6_">
			<use xlink:href="#SVGID_5_"  overflow="visible"/>
		</clipPath>
		<g clip-path="url(#SVGID_6_)">
			<path fill="#C20C0C" d="M269.086,582.2c23.064,0,41.764-18.697,41.764-41.764c0-23.065-18.698-41.763-41.764-41.763
				c-23.064,0-41.764,18.697-41.764,41.763C227.323,563.503,246.021,582.2,269.086,582.2"/>
		</g>
	</g>
</g>
<g>
	<rect x="231.547" y="532.287" fill="#C20C0C" width="75.941" height="20.168"/>
</g>
<g enable-background="new    ">
	<path fill="#F2F2F2" d="M236.283,543.849c0-2.385,1.613-3.875,3.32-3.875c1.87,0,2.927,1.354,2.927,3.455
		c0,0.271-0.027,0.528-0.054,0.704h-4.959c0.082,1.572,1.043,2.575,2.439,2.575c0.718,0,1.301-0.217,1.843-0.583l0.447,0.813
		c-0.65,0.421-1.436,0.759-2.439,0.759C237.855,547.696,236.283,546.274,236.283,543.849z M241.446,543.252
		c0-1.49-0.678-2.29-1.829-2.29c-1.043,0-1.965,0.841-2.114,2.29H241.446z"/>
	<path fill="#F2F2F2" d="M244.348,546.058v-9.322h1.233v9.403c0,0.379,0.163,0.528,0.353,0.528c0.067,0,0.122,0,0.257-0.027
		l0.176,0.948c-0.176,0.068-0.393,0.108-0.718,0.108C244.727,547.696,244.348,547.101,244.348,546.058z"/>
	<path fill="#F2F2F2" d="M247.655,543.849c0-2.385,1.613-3.875,3.32-3.875c1.87,0,2.927,1.354,2.927,3.455
		c0,0.271-0.027,0.528-0.054,0.704h-4.959c0.082,1.572,1.043,2.575,2.439,2.575c0.718,0,1.301-0.217,1.843-0.583l0.447,0.813
		c-0.65,0.421-1.436,0.759-2.439,0.759C249.226,547.696,247.655,546.274,247.655,543.849z M252.817,543.252
		c0-1.49-0.678-2.29-1.829-2.29c-1.043,0-1.965,0.841-2.114,2.29H252.817z"/>
</g>
<g enable-background="new    ">
	<path fill="#F2F2F2" d="M256.79,543.849c0-2.453,1.667-3.875,3.55-3.875c0.962,0,1.626,0.406,2.154,0.867l-0.637,0.826
		c-0.434-0.393-0.881-0.664-1.477-0.664c-1.328,0-2.303,1.152-2.303,2.846s0.921,2.818,2.276,2.818c0.677,0,1.273-0.312,1.734-0.731
		l0.528,0.826c-0.65,0.597-1.491,0.935-2.371,0.935C258.294,547.696,256.79,546.287,256.79,543.849z"/>
</g>
<g enable-background="new    ">
	<path fill="#F2F2F2" d="M264.854,545.244v-4.078h-1.098v-0.936l1.152-0.067l0.149-2.06h1.03v2.06h1.992v1.003h-1.992v4.105
		c0,0.907,0.285,1.423,1.138,1.423c0.257,0,0.596-0.096,0.84-0.19l0.244,0.922c-0.42,0.136-0.908,0.271-1.355,0.271
		C265.383,547.696,264.854,546.721,264.854,545.244z"/>
</g>
<g enable-background="new    ">
	<path fill="#F2F2F2" d="M270.276,540.163h1.016l0.108,1.342h0.041c0.515-0.936,1.26-1.531,2.086-1.531
		c0.325,0,0.556,0.04,0.786,0.162l-0.23,1.084c-0.244-0.095-0.42-0.122-0.718-0.122c-0.61,0-1.369,0.434-1.856,1.694v4.729h-1.233
		V540.163z"/>
</g>
<g enable-background="new    ">
	<path fill="#F2F2F2" d="M275.372,543.849c0-2.453,1.613-3.875,3.415-3.875c1.802,0,3.415,1.422,3.415,3.875
		c0,2.438-1.612,3.848-3.415,3.848C276.985,547.696,275.372,546.287,275.372,543.849z M280.927,543.849
		c0-1.693-0.867-2.846-2.141-2.846c-1.273,0-2.127,1.152-2.127,2.846s0.854,2.818,2.127,2.818
		C280.06,546.667,280.927,545.542,280.927,543.849z"/>
</g>
<g enable-background="new    ">
	<path fill="#F2F2F2" d="M284.683,540.163h1.016l0.108,1.057h0.041c0.704-0.691,1.463-1.246,2.466-1.246
		c1.545,0,2.249,1.002,2.249,2.886v4.661h-1.233v-4.498c0-1.383-0.42-1.965-1.396-1.965c-0.759,0-1.274,0.379-2.019,1.124v5.339
		h-1.233V540.163z"/>
	<path fill="#F2F2F2" d="M292.734,537.846c0-0.501,0.366-0.799,0.854-0.799c0.487,0,0.854,0.298,0.854,0.799
		c0,0.461-0.366,0.8-0.854,0.8C293.1,538.646,292.734,538.307,292.734,537.846z M292.965,540.163h1.233v7.357h-1.233V540.163z"/>
</g>
<g enable-background="new    ">
	<path fill="#F2F2F2" d="M297.194,543.849c0-2.453,1.667-3.875,3.55-3.875c0.962,0,1.626,0.406,2.154,0.867l-0.637,0.826
		c-0.434-0.393-0.881-0.664-1.477-0.664c-1.328,0-2.303,1.152-2.303,2.846s0.921,2.818,2.276,2.818c0.677,0,1.273-0.312,1.734-0.731
		l0.528,0.826c-0.65,0.597-1.491,0.935-2.371,0.935C298.698,547.696,297.194,546.287,297.194,543.849z"/>
</g>
<g>
	<g>
		<defs>
			<polygon id="SVGID_7_" points="1,637.889 970.181,636.889 970.181,25.45 1,26.45 			"/>
		</defs>
		<clipPath id="SVGID_8_">
			<use xlink:href="#SVGID_7_"  overflow="visible"/>
		</clipPath>
		<g clip-path="url(#SVGID_8_)">
			<path fill="#C20C0C" d="M265.724,293.124c23.065,0,41.764-18.697,41.764-41.763c0-23.065-18.698-41.764-41.764-41.764
				c-23.064,0-41.763,18.699-41.763,41.764S242.658,293.124,265.724,293.124"/>
		</g>
	</g>
</g>
<g>
	<rect x="244.56" y="243.953" fill="#C20C0C" width="42.328" height="14.814"/>
</g>
<g enable-background="new    ">
	<path fill="#F2F2F2" d="M250.056,249.153h1.016l0.108,1.07h0.041c0.637-0.705,1.409-1.26,2.29-1.26
		c1.125,0,1.734,0.542,2.033,1.409c0.759-0.827,1.531-1.409,2.425-1.409c1.518,0,2.236,1.002,2.236,2.886v4.661h-1.233v-4.498
		c0-1.383-0.434-1.965-1.368-1.965c-0.569,0-1.166,0.365-1.856,1.124v5.339h-1.233v-4.498c0-1.383-0.434-1.965-1.369-1.965
		c-0.556,0-1.179,0.365-1.856,1.124v5.339h-1.233V249.153z"/>
	<path fill="#F2F2F2" d="M262.146,254.601c0-1.6,1.396-2.398,4.525-2.751c0-0.948-0.312-1.856-1.518-1.856
		c-0.854,0-1.626,0.393-2.208,0.786l-0.488-0.854c0.677-0.434,1.721-0.962,2.899-0.962c1.789,0,2.547,1.205,2.547,3.021v4.525
		h-1.016l-0.108-0.881h-0.041c-0.705,0.583-1.531,1.057-2.439,1.057C263.067,256.687,262.146,255.928,262.146,254.601z
		 M266.672,254.722v-2.059c-2.479,0.298-3.32,0.907-3.32,1.855c0,0.841,0.569,1.18,1.301,1.18
		C265.371,255.698,265.953,255.359,266.672,254.722z"/>
	<path fill="#F2F2F2" d="M270.02,246.836c0-0.501,0.366-0.799,0.854-0.799c0.488,0,0.854,0.298,0.854,0.799
		c0,0.461-0.366,0.8-0.854,0.8C270.386,247.636,270.02,247.297,270.02,246.836z M270.251,249.153h1.233v7.357h-1.233V249.153z"/>
</g>
<g enable-background="new    ">
	<path fill="#F2F2F2" d="M275.564,249.153h1.016l0.108,1.057h0.041c0.704-0.691,1.463-1.246,2.466-1.246
		c1.545,0,2.249,1.002,2.249,2.886v4.661h-1.233v-4.498c0-1.383-0.42-1.965-1.396-1.965c-0.759,0-1.274,0.379-2.019,1.124v5.339
		h-1.233V249.153z"/>
</g>
<g>
	<g>
		<defs>
			<polygon id="SVGID_9_" points="1,637.889 970.181,636.889 970.181,25.45 1,26.45 			"/>
		</defs>
		<clipPath id="SVGID_10_">
			<use xlink:href="#SVGID_9_"  overflow="visible"/>
		</clipPath>
		<g clip-path="url(#SVGID_10_)">
			<path fill="#C20C0C" d="M211.943,499.338c23.065,0,41.764-18.697,41.764-41.763c0-23.066-18.697-41.764-41.764-41.764
				c-23.065,0-41.763,18.697-41.763,41.764C170.18,480.641,188.878,499.338,211.943,499.338"/>
		</g>
	</g>
</g>
<g>
	<rect x="190.779" y="450.169" fill="#C20C0C" width="42.328" height="14.814"/>
</g>
<g enable-background="new    ">
	<path fill="#F2F2F2" d="M197.291,455.369h1.016l0.108,1.057h0.041c0.704-0.691,1.463-1.246,2.466-1.246
		c1.545,0,2.249,1.002,2.249,2.886v4.661h-1.233v-4.498c0-1.383-0.42-1.965-1.396-1.965c-0.759,0-1.274,0.379-2.019,1.124v5.339
		h-1.233V455.369z"/>
</g>
<g enable-background="new    ">
	<path fill="#F2F2F2" d="M205.545,459.055c0-2.385,1.613-3.875,3.32-3.875c1.87,0,2.927,1.354,2.927,3.455
		c0,0.271-0.027,0.528-0.054,0.704h-4.959c0.082,1.572,1.043,2.575,2.439,2.575c0.718,0,1.301-0.217,1.843-0.583l0.447,0.813
		c-0.65,0.421-1.436,0.759-2.439,0.759C207.116,462.902,205.545,461.48,205.545,459.055z M210.707,458.458
		c0-1.49-0.678-2.29-1.829-2.29c-1.043,0-1.965,0.841-2.114,2.29H210.707z"/>
	<path fill="#F2F2F2" d="M213.053,459.055c0-2.453,1.667-3.875,3.55-3.875c0.962,0,1.626,0.406,2.154,0.867l-0.637,0.826
		c-0.434-0.393-0.881-0.664-1.477-0.664c-1.328,0-2.303,1.152-2.303,2.846s0.921,2.818,2.276,2.818c0.677,0,1.273-0.312,1.734-0.731
		l0.528,0.826c-0.65,0.597-1.491,0.935-2.371,0.935C214.558,462.902,213.053,461.493,213.053,459.055z"/>
</g>
<g enable-background="new    ">
	<path fill="#F2F2F2" d="M221.592,451.941h1.219v7.316h0.027l3.157-3.889h1.368l-2.466,2.954l2.791,4.403h-1.341l-2.154-3.55
		l-1.382,1.612v1.938h-1.219V451.941z"/>
</g>
<g>
	<g>
		<defs>
			<polygon id="SVGID_11_" points="1,637.889 970.181,636.889 970.181,25.45 1,26.45 			"/>
		</defs>
		<clipPath id="SVGID_12_">
			<use xlink:href="#SVGID_11_"  overflow="visible"/>
		</clipPath>
		<g clip-path="url(#SVGID_12_)">
			<path fill="#C20C0C" d="M200.177,393.963c23.065,0,41.763-18.697,41.763-41.763c0-23.066-18.697-41.764-41.763-41.764
				s-41.763,18.698-41.763,41.764C158.414,375.266,177.113,393.963,200.177,393.963"/>
		</g>
	</g>
</g>
<g>
	<rect x="179.014" y="344.792" fill="#C20C0C" width="42.328" height="14.815"/>
</g>
<g enable-background="new    ">
	<path fill="#F2F2F2" d="M185.722,356.593h-0.041l-0.108,0.759h-0.989v-10.785h1.233v2.953l-0.041,1.328
		c0.664-0.583,1.491-1.043,2.303-1.043c1.911,0,2.94,1.49,2.94,3.739c0,2.534-1.504,3.983-3.198,3.983
		C187.145,357.527,186.373,357.189,185.722,356.593z M189.733,353.571c0-1.626-0.542-2.724-1.938-2.724
		c-0.624,0-1.274,0.353-1.979,1.017v3.861c0.65,0.569,1.314,0.772,1.802,0.772C188.839,356.498,189.733,355.4,189.733,353.571z"/>
</g>
<g enable-background="new    ">
	<path fill="#F2F2F2" d="M192.934,353.68c0-2.453,1.613-3.875,3.415-3.875c1.802,0,3.415,1.422,3.415,3.875
		c0,2.438-1.612,3.848-3.415,3.848C194.547,357.527,192.934,356.118,192.934,353.68z M198.49,353.68
		c0-1.693-0.867-2.846-2.141-2.846c-1.273,0-2.127,1.152-2.127,2.846s0.854,2.818,2.127,2.818
		C197.622,356.498,198.49,355.373,198.49,353.68z"/>
</g>
<g enable-background="new    ">
	<path fill="#F2F2F2" d="M201.716,353.68c0-2.385,1.504-3.875,3.184-3.875c0.867,0,1.423,0.325,2.073,0.867l-0.068-1.274v-2.831
		h1.233v10.785h-1.002l-0.122-0.867h-0.027c-0.583,0.569-1.355,1.043-2.236,1.043C202.908,357.527,201.716,356.132,201.716,353.68z
		 M206.906,355.481v-3.861c-0.624-0.556-1.179-0.772-1.789-0.772c-1.192,0-2.127,1.139-2.127,2.818c0,1.775,0.732,2.832,2.033,2.832
		C205.699,356.498,206.296,356.159,206.906,355.481z"/>
</g>
<g enable-background="new    ">
	<path fill="#F2F2F2" d="M210.431,360.373l0.244-0.989c0.149,0.055,0.366,0.122,0.556,0.122c0.84,0,1.369-0.678,1.667-1.585
		l0.163-0.556l-2.954-7.371h1.287l1.504,4.092c0.217,0.637,0.474,1.396,0.705,2.06h0.068c0.203-0.664,0.42-1.409,0.624-2.06
		l1.314-4.092h1.206l-2.778,7.967c-0.515,1.45-1.273,2.562-2.737,2.562C210.946,360.522,210.661,360.468,210.431,360.373z"/>
</g>
<g>
	<g>
		<defs>
			<polygon id="SVGID_13_" points="1,637.889 970.181,636.889 970.181,25.45 1,26.45 			"/>
		</defs>
		<clipPath id="SVGID_14_">
			<use xlink:href="#SVGID_13_"  overflow="visible"/>
		</clipPath>
		<g clip-path="url(#SVGID_14_)">
			<path fill="#C20C0C" d="M369.927,622.536c23.064,0,41.763-18.697,41.763-41.763c0-23.066-18.697-41.766-41.763-41.766
				c-23.066,0-41.765,18.699-41.765,41.766C328.162,603.839,346.862,622.536,369.927,622.536"/>
		</g>
	</g>
</g>
<g enable-background="new    ">
	<path fill="#F2F2F2" d="M341.026,575.86h1.233v2.953l-0.041,1.518c0.677-0.678,1.436-1.232,2.439-1.232
		c1.545,0,2.249,1.002,2.249,2.886v4.661h-1.233v-4.498c0-1.383-0.42-1.965-1.396-1.965c-0.759,0-1.274,0.379-2.019,1.124v5.339
		h-1.233V575.86z"/>
	<path fill="#F2F2F2" d="M348.792,584.735c0-1.6,1.396-2.398,4.526-2.751c0-0.948-0.312-1.856-1.518-1.856
		c-0.854,0-1.626,0.393-2.208,0.786l-0.488-0.854c0.677-0.434,1.721-0.962,2.899-0.962c1.789,0,2.547,1.205,2.547,3.021v4.525
		h-1.016l-0.108-0.881h-0.041c-0.705,0.583-1.531,1.057-2.439,1.057C349.714,586.821,348.792,586.063,348.792,584.735z
		 M353.318,584.856v-2.059c-2.479,0.298-3.32,0.907-3.32,1.855c0,0.841,0.569,1.18,1.301,1.18
		C352.017,585.833,352.599,585.494,353.318,584.856z"/>
</g>
<g enable-background="new    ">
	<path fill="#F2F2F2" d="M357.955,579.288h1.016l0.108,1.342h0.041c0.515-0.936,1.26-1.531,2.086-1.531
		c0.325,0,0.556,0.04,0.786,0.162l-0.23,1.084c-0.244-0.095-0.42-0.122-0.718-0.122c-0.61,0-1.369,0.434-1.856,1.694v4.729h-1.233
		V579.288z"/>
</g>
<g enable-background="new    ">
	<path fill="#F2F2F2" d="M363.077,582.974c0-2.385,1.504-3.875,3.184-3.875c0.867,0,1.423,0.325,2.073,0.867l-0.068-1.274v-2.831
		h1.233v10.785h-1.002l-0.122-0.867h-0.027c-0.583,0.569-1.355,1.043-2.236,1.043C364.27,586.821,363.077,585.426,363.077,582.974z
		 M368.267,584.775v-3.861c-0.624-0.556-1.179-0.772-1.789-0.772c-1.192,0-2.127,1.139-2.127,2.818c0,1.775,0.732,2.832,2.033,2.832
		C367.061,585.792,367.657,585.453,368.267,584.775z"/>
</g>
<g enable-background="new    ">
	<path fill="#F2F2F2" d="M371.657,579.288h1.26l1.098,4.255c0.149,0.704,0.298,1.368,0.434,2.06h0.067
		c0.163-0.691,0.312-1.369,0.501-2.06l1.138-4.255h1.206l1.152,4.255c0.176,0.704,0.338,1.368,0.515,2.06h0.054
		c0.163-0.691,0.298-1.355,0.461-2.06l1.084-4.255h1.165l-1.978,7.357h-1.491l-1.07-3.97c-0.189-0.691-0.325-1.369-0.501-2.114
		h-0.068c-0.162,0.745-0.312,1.437-0.501,2.141l-1.03,3.943h-1.45L371.657,579.288z"/>
</g>
<g enable-background="new    ">
	<path fill="#F2F2F2" d="M383.341,584.735c0-1.6,1.396-2.398,4.525-2.751c0-0.948-0.312-1.856-1.518-1.856
		c-0.854,0-1.626,0.393-2.208,0.786l-0.488-0.854c0.677-0.434,1.721-0.962,2.899-0.962c1.789,0,2.547,1.205,2.547,3.021v4.525
		h-1.016l-0.108-0.881h-0.041c-0.705,0.583-1.531,1.057-2.439,1.057C384.261,586.821,383.341,586.063,383.341,584.735z
		 M387.866,584.856v-2.059c-2.479,0.298-3.32,0.907-3.32,1.855c0,0.841,0.569,1.18,1.301,1.18
		C386.565,585.833,387.148,585.494,387.866,584.856z"/>
</g>
<g enable-background="new    ">
	<path fill="#F2F2F2" d="M391.974,579.288h1.016l0.108,1.342h0.041c0.515-0.936,1.26-1.531,2.086-1.531
		c0.325,0,0.556,0.04,0.786,0.162l-0.23,1.084c-0.244-0.095-0.42-0.122-0.718-0.122c-0.61,0-1.369,0.434-1.856,1.694v4.729h-1.233
		V579.288z"/>
</g>
<g enable-background="new    ">
	<path fill="#F2F2F2" d="M397.07,582.974c0-2.385,1.613-3.875,3.32-3.875c1.87,0,2.927,1.354,2.927,3.455
		c0,0.271-0.027,0.528-0.054,0.704h-4.959c0.082,1.572,1.043,2.575,2.439,2.575c0.718,0,1.301-0.217,1.843-0.583l0.447,0.813
		c-0.65,0.421-1.436,0.759-2.439,0.759C398.642,586.821,397.07,585.399,397.07,582.974z M402.233,582.377
		c0-1.49-0.678-2.29-1.829-2.29c-1.043,0-1.965,0.841-2.114,2.29H402.233z"/>
</g>
<g>
	<g>
		<defs>
			<polygon id="SVGID_15_" points="1,637.889 970.181,636.889 970.181,25.45 1,26.45 			"/>
		</defs>
		<clipPath id="SVGID_16_">
			<use xlink:href="#SVGID_15_"  overflow="visible"/>
		</clipPath>
		<g clip-path="url(#SVGID_16_)">
			<path fill="#4C4948" d="M460.937,235.98c29.703,0,53.781-24.079,53.781-53.781c0-29.703-24.078-53.782-53.781-53.782
				c-29.702,0-53.782,24.079-53.782,53.782C407.155,211.901,431.235,235.98,460.937,235.98"/>
		</g>
	</g>
</g>
<g enable-background="new    ">
	<path fill="#F2F2F2" d="M441.918,185.101v-7.338h0.97v7.402c0,0.299,0.128,0.416,0.277,0.416c0.054,0,0.096,0,0.203-0.021
		l0.139,0.747c-0.139,0.053-0.309,0.085-0.565,0.085C442.217,186.392,441.918,185.922,441.918,185.101z"/>
</g>
<g enable-background="new    ">
	<path fill="#F2F2F2" d="M444.948,183.362c0-1.931,1.269-3.05,2.688-3.05c1.418,0,2.688,1.119,2.688,3.05
		c0,1.92-1.269,3.029-2.688,3.029C446.218,186.392,444.948,185.282,444.948,183.362z M449.322,183.362
		c0-1.333-0.683-2.239-1.685-2.239c-1.003,0-1.675,0.906-1.675,2.239s0.672,2.219,1.675,2.219
		C448.639,185.581,449.322,184.695,449.322,183.362z"/>
</g>
<g enable-background="new    ">
	<path fill="#F2F2F2" d="M451.746,184.749c0-1.259,1.099-1.888,3.563-2.165c0-0.747-0.246-1.461-1.195-1.461
		c-0.672,0-1.28,0.309-1.738,0.618l-0.384-0.672c0.534-0.342,1.355-0.757,2.283-0.757c1.408,0,2.005,0.949,2.005,2.378v3.563h-0.8
		l-0.085-0.693h-0.032c-0.555,0.459-1.205,0.832-1.92,0.832C452.471,186.392,451.746,185.794,451.746,184.749z M455.309,184.845
		v-1.621c-1.952,0.234-2.613,0.715-2.613,1.461c0,0.662,0.448,0.929,1.024,0.929C454.285,185.613,454.743,185.347,455.309,184.845z"
		/>
	<path fill="#F2F2F2" d="M457.712,183.362c0-1.877,1.184-3.05,2.506-3.05c0.683,0,1.12,0.256,1.632,0.683l-0.053-1.003v-2.229h0.971
		v8.49h-0.79l-0.096-0.683h-0.021c-0.458,0.448-1.066,0.821-1.76,0.821C458.651,186.392,457.712,185.293,457.712,183.362z
		 M461.797,184.781v-3.04c-0.491-0.438-0.928-0.607-1.408-0.607c-0.939,0-1.675,0.896-1.675,2.218c0,1.397,0.576,2.229,1.6,2.229
		C460.848,185.581,461.317,185.314,461.797,184.781z"/>
	<path fill="#F2F2F2" d="M464.563,178.638c0-0.395,0.288-0.63,0.672-0.63c0.384,0,0.672,0.235,0.672,0.63
		c0,0.362-0.288,0.629-0.672,0.629C464.851,179.267,464.563,179,464.563,178.638z M464.745,180.461h0.97v5.792h-0.97V180.461z"/>
	<path fill="#F2F2F2" d="M467.68,180.461h0.8l0.085,0.832h0.032c0.555-0.544,1.152-0.98,1.941-0.98c1.216,0,1.771,0.789,1.771,2.271
		v3.669h-0.971v-3.541c0-1.088-0.331-1.547-1.099-1.547c-0.597,0-1.002,0.299-1.589,0.886v4.202h-0.97V180.461z"/>
</g>
<g enable-background="new    ">
	<path fill="#F2F2F2" d="M475.418,187.362c0-0.491,0.32-0.96,0.864-1.313v-0.042c-0.31-0.182-0.534-0.491-0.534-0.949
		c0-0.48,0.352-0.864,0.651-1.077v-0.043c-0.384-0.31-0.757-0.864-0.757-1.558c0-1.269,1.002-2.068,2.176-2.068
		c0.32,0,0.608,0.074,0.811,0.148h2.016v0.747h-1.184c0.277,0.267,0.469,0.693,0.469,1.194c0,1.237-0.938,2.016-2.112,2.016
		c-0.288,0-0.608-0.074-0.864-0.202c-0.213,0.182-0.374,0.373-0.374,0.693c0,0.373,0.235,0.629,1.013,0.629h1.131
		c1.344,0,2.016,0.427,2.016,1.376c0,1.077-1.13,2.005-2.922,2.005C476.399,188.919,475.418,188.365,475.418,187.362z
		 M479.802,187.063c0-0.533-0.416-0.715-1.184-0.715h-1.002c-0.213,0-0.491-0.031-0.747-0.096c-0.416,0.299-0.597,0.64-0.597,0.981
		c0,0.618,0.629,1.023,1.685,1.023C479.066,188.258,479.802,187.672,479.802,187.063z M479.044,182.381
		c0-0.842-0.544-1.354-1.227-1.354s-1.237,0.502-1.237,1.354c0,0.843,0.565,1.376,1.237,1.376
		C478.479,183.757,479.044,183.224,479.044,182.381z"/>
</g>
<g>
	
		<rect x="379.496" y="461.026" transform="matrix(0.9646 0.2636 -0.2636 0.9646 147.6024 -82.1702)" fill="#C20C0C" width="1" height="95.814"/>
</g>
<g>
	
		<rect x="307.042" y="436.659" transform="matrix(0.6524 0.7579 -0.7579 0.6524 473.963 -64.7252)" fill="#C20C0C" width="1" height="95.34"/>
</g>
<g>
	
		<rect x="269.701" y="389.675" transform="matrix(0.2375 0.9714 -0.9714 0.2375 635.6999 74.808)" fill="#C20C0C" width="0.999" height="105.285"/>
</g>
<g>
	
		<rect x="219.427" y="371.335" transform="matrix(0.9713 0.2377 -0.2377 0.9713 95.9876 -52.4109)" fill="#C20C0C" width="91.808" height="1"/>
</g>
<g>
	
		<rect x="270.479" y="300.524" transform="matrix(0.5718 0.8204 -0.8204 0.5718 377.2613 -120.7288)" fill="#C20C0C" width="67.602" height="1"/>
</g>
<g>
	<polygon fill="#3E3A39" points="585.384,397.574 459.255,397.574 459.255,397.074 585.23,397.074 788.527,257.622 788.81,258.034 	
		"/>
</g>
<g>
	<polygon fill="#3E3A39" points="677.522,572.231 588.214,403.727 588.702,403.799 862.654,444.135 862.581,444.629 
		589.118,404.365 677.963,571.997 	"/>
</g>
<g>
	<g>
		<defs>
			<polygon id="SVGID_17_" points="1,637.889 970.181,636.889 970.181,25.45 1,26.45 			"/>
		</defs>
		<clipPath id="SVGID_18_">
			<use xlink:href="#SVGID_17_"  overflow="visible"/>
		</clipPath>
		<g clip-path="url(#SVGID_18_)">
			<path fill="#4C4948" d="M578.707,427.827c20.49,0,37.101-16.609,37.101-37.1c0-20.491-16.609-37.1-37.101-37.1
				c-20.49,0-37.1,16.609-37.1,37.1C541.608,411.218,558.218,427.827,578.707,427.827"/>
		</g>
	</g>
</g>
<g enable-background="new    ">
	<path fill="#F2F2F2" d="M564.654,388.99h0.8l0.086,0.843h0.031c0.502-0.555,1.109-0.991,1.803-0.991c0.885,0,1.365,0.426,1.6,1.108
		c0.598-0.65,1.205-1.108,1.909-1.108c1.194,0,1.761,0.789,1.761,2.271v3.669h-0.971v-3.541c0-1.088-0.342-1.547-1.078-1.547
		c-0.447,0-0.917,0.288-1.461,0.886v4.202h-0.971v-3.541c0-1.088-0.342-1.547-1.077-1.547c-0.438,0-0.928,0.288-1.462,0.886v4.202
		h-0.97V388.99z"/>
</g>
<g enable-background="new    ">
	<path fill="#F2F2F2" d="M574.515,391.892c0-1.877,1.269-3.05,2.613-3.05c1.472,0,2.304,1.066,2.304,2.72
		c0,0.213-0.021,0.416-0.043,0.555h-3.903c0.063,1.236,0.821,2.026,1.92,2.026c0.565,0,1.024-0.171,1.45-0.459l0.352,0.64
		c-0.512,0.331-1.13,0.598-1.92,0.598C575.752,394.921,574.515,393.801,574.515,391.892z M578.578,391.423
		c0-1.174-0.533-1.803-1.439-1.803c-0.821,0-1.547,0.661-1.664,1.803H578.578z"/>
</g>
<g enable-background="new    ">
	<path fill="#F2F2F2" d="M581.291,388.99h0.8l0.085,0.832h0.032c0.555-0.544,1.151-0.98,1.941-0.98c1.216,0,1.771,0.789,1.771,2.271
		v3.669h-0.971v-3.541c0-1.088-0.33-1.547-1.099-1.547c-0.597,0-1.003,0.299-1.589,0.886v4.202h-0.971V388.99z"/>
</g>
<g enable-background="new    ">
	<path fill="#F2F2F2" d="M588.154,392.66v-3.67h0.97v3.552c0,1.078,0.32,1.536,1.089,1.536c0.597,0,1.013-0.288,1.567-0.981v-4.106
		h0.971v5.792h-0.811l-0.074-0.906h-0.032c-0.544,0.629-1.12,1.045-1.92,1.045C588.698,394.921,588.154,394.132,588.154,392.66z"/>
</g>
<g>
	<g>
		<defs>
			<polygon id="SVGID_19_" points="1,637.889 970.181,636.889 970.181,25.45 1,26.45 			"/>
		</defs>
		<clipPath id="SVGID_20_">
			<use xlink:href="#SVGID_19_"  overflow="visible"/>
		</clipPath>
		<g clip-path="url(#SVGID_20_)">
			<path fill="#231815" d="M693.323,636.889c39.236,0,71.043-31.808,71.043-71.042c0-39.235-31.807-71.043-71.043-71.043
				c-39.235,0-71.043,31.808-71.043,71.043S654.088,636.889,693.323,636.889"/>
		</g>
	</g>
</g>
<g enable-background="new    ">
	<path fill="#F2F2F2" d="M668.711,567.326c0-2.453,1.666-3.875,3.55-3.875c0.962,0,1.626,0.406,2.154,0.867l-0.637,0.826
		c-0.434-0.393-0.881-0.664-1.478-0.664c-1.327,0-2.303,1.152-2.303,2.846s0.921,2.818,2.276,2.818c0.677,0,1.273-0.312,1.734-0.731
		l0.528,0.826c-0.65,0.597-1.49,0.935-2.371,0.935C670.215,571.174,668.711,569.765,668.711,567.326z"/>
</g>
<g enable-background="new    ">
	<path fill="#F2F2F2" d="M675.825,567.326c0-2.453,1.612-3.875,3.415-3.875c1.802,0,3.414,1.422,3.414,3.875
		c0,2.438-1.612,3.848-3.414,3.848C677.438,571.174,675.825,569.765,675.825,567.326z M681.381,567.326
		c0-1.693-0.867-2.846-2.141-2.846s-2.127,1.152-2.127,2.846s0.854,2.818,2.127,2.818S681.381,569.02,681.381,567.326z"/>
</g>
<g enable-background="new    ">
	<path fill="#F2F2F2" d="M685.137,563.641h1.016l0.109,1.057h0.041c0.703-0.691,1.463-1.246,2.465-1.246
		c1.545,0,2.25,1.002,2.25,2.886v4.661h-1.233V566.5c0-1.383-0.42-1.965-1.396-1.965c-0.759,0-1.273,0.379-2.02,1.124v5.339h-1.232
		V563.641z"/>
</g>
<g enable-background="new    ">
	<path fill="#F2F2F2" d="M694.164,568.722v-4.078h-1.098v-0.936l1.151-0.067l0.149-2.06h1.029v2.06h1.992v1.003h-1.992v4.105
		c0,0.907,0.285,1.423,1.139,1.423c0.257,0,0.596-0.096,0.84-0.19l0.244,0.922c-0.42,0.136-0.908,0.271-1.355,0.271
		C694.692,571.174,694.164,570.198,694.164,568.722z"/>
</g>
<g enable-background="new    ">
	<path fill="#F2F2F2" d="M698.814,569.088c0-1.6,1.396-2.398,4.525-2.751c0-0.948-0.312-1.856-1.518-1.856
		c-0.854,0-1.626,0.393-2.208,0.786l-0.488-0.854c0.678-0.434,1.721-0.962,2.899-0.962c1.788,0,2.548,1.205,2.548,3.021v4.525
		h-1.017l-0.108-0.881h-0.041c-0.704,0.583-1.531,1.057-2.438,1.057C699.735,571.174,698.814,570.415,698.814,569.088z
		 M703.339,569.209v-2.059c-2.479,0.298-3.319,0.907-3.319,1.855c0,0.841,0.568,1.18,1.301,1.18
		C702.038,570.186,702.621,569.847,703.339,569.209z"/>
</g>
<g enable-background="new    ">
	<path fill="#F2F2F2" d="M706.891,567.326c0-2.453,1.667-3.875,3.551-3.875c0.962,0,1.626,0.406,2.154,0.867l-0.637,0.826
		c-0.434-0.393-0.881-0.664-1.477-0.664c-1.328,0-2.304,1.152-2.304,2.846s0.921,2.818,2.276,2.818c0.678,0,1.273-0.312,1.734-0.731
		l0.528,0.826c-0.65,0.597-1.491,0.935-2.371,0.935C708.396,571.174,706.891,569.765,706.891,567.326z"/>
</g>
<g enable-background="new    ">
	<path fill="#F2F2F2" d="M714.955,568.722v-4.078h-1.098v-0.936l1.152-0.067l0.148-2.06h1.03v2.06h1.992v1.003h-1.992v4.105
		c0,0.907,0.284,1.423,1.138,1.423c0.258,0,0.597-0.096,0.841-0.19l0.243,0.922c-0.42,0.136-0.907,0.271-1.354,0.271
		C715.485,571.174,714.955,570.198,714.955,568.722z"/>
</g>
<g>
	<g>
		<defs>
			<polygon id="SVGID_21_" points="1,637.889 970.181,636.889 970.181,25.45 1,26.45 			"/>
		</defs>
		<clipPath id="SVGID_22_">
			<use xlink:href="#SVGID_21_"  overflow="visible"/>
		</clipPath>
		<g clip-path="url(#SVGID_22_)">
			<path fill="#231815" d="M899.139,519.242c39.236,0,71.043-31.808,71.043-71.042c0-39.236-31.807-71.043-71.043-71.043
				s-71.043,31.807-71.043,71.043C828.096,487.435,859.903,519.242,899.139,519.242"/>
		</g>
	</g>
</g>
<g enable-background="new    ">
	<path fill="#F2F2F2" d="M880.776,445.994h1.287l1.382,4.187c0.229,0.719,0.46,1.478,0.69,2.168h0.055
		c0.217-0.69,0.461-1.449,0.678-2.168l1.396-4.187h1.22l-2.615,7.357h-1.437L880.776,445.994z"/>
	<path fill="#F2F2F2" d="M888.676,443.677c0-0.501,0.366-0.799,0.854-0.799c0.487,0,0.854,0.298,0.854,0.799
		c0,0.461-0.366,0.8-0.854,0.8C889.042,444.477,888.676,444.138,888.676,443.677z M888.906,445.994h1.233v7.357h-1.233V445.994z"/>
	<path fill="#F2F2F2" d="M892.106,449.68c0-2.385,1.504-3.875,3.184-3.875c0.867,0,1.424,0.325,2.074,0.867l-0.068-1.274v-2.831
		h1.232v10.785h-1.002l-0.122-0.867h-0.027c-0.583,0.569-1.354,1.043-2.235,1.043C893.298,453.527,892.106,452.132,892.106,449.68z
		 M897.295,451.481v-3.861c-0.623-0.556-1.179-0.772-1.789-0.772c-1.191,0-2.127,1.139-2.127,2.818c0,1.775,0.732,2.832,2.033,2.832
		C896.089,452.498,896.686,452.159,897.295,451.481z"/>
</g>
<g enable-background="new    ">
	<path fill="#F2F2F2" d="M902.067,449.68c0-2.385,1.613-3.875,3.32-3.875c1.869,0,2.926,1.354,2.926,3.455
		c0,0.271-0.027,0.528-0.054,0.704h-4.96c0.082,1.572,1.044,2.575,2.439,2.575c0.719,0,1.301-0.217,1.844-0.583l0.446,0.813
		c-0.65,0.421-1.437,0.759-2.438,0.759C903.639,453.527,902.067,452.105,902.067,449.68z M907.229,449.083
		c0-1.49-0.678-2.29-1.828-2.29c-1.044,0-1.965,0.841-2.114,2.29H907.229z"/>
</g>
<g enable-background="new    ">
	<path fill="#F2F2F2" d="M910.117,449.68c0-2.453,1.613-3.875,3.414-3.875c1.803,0,3.415,1.422,3.415,3.875
		c0,2.438-1.612,3.848-3.415,3.848C911.731,453.527,910.117,452.118,910.117,449.68z M915.673,449.68
		c0-1.693-0.867-2.846-2.142-2.846c-1.273,0-2.127,1.152-2.127,2.846s0.854,2.818,2.127,2.818
		C914.806,452.498,915.673,451.373,915.673,449.68z"/>
</g>
<g>
	<g>
		<defs>
			<polygon id="SVGID_23_" points="1,637.889 970.181,636.889 974.134,24.799 4.953,25.799 			"/>
		</defs>
		<clipPath id="SVGID_24_">
			<use xlink:href="#SVGID_23_"  overflow="visible"/>
		</clipPath>
		<g clip-path="url(#SVGID_24_)">
			<path fill="#231815" d="M834.5,309.929c39.235,0,71.043-31.806,71.043-71.042c0-39.236-31.808-71.042-71.043-71.042
				s-71.044,31.806-71.044,71.042C763.456,278.124,795.265,309.929,834.5,309.929"/>
		</g>
	</g>
</g>
<g enable-background="new    ">
	<path fill="#F2F2F2" d="M805.422,242.128c0-1.6,1.396-2.398,4.525-2.751c0-0.948-0.312-1.856-1.518-1.856
		c-0.854,0-1.626,0.393-2.209,0.786l-0.487-0.854c0.677-0.434,1.721-0.962,2.899-0.962c1.789,0,2.547,1.205,2.547,3.021v4.525
		h-1.016l-0.108-0.881h-0.04c-0.705,0.583-1.531,1.057-2.439,1.057C806.343,244.214,805.422,243.455,805.422,242.128z
		 M809.948,242.249v-2.059c-2.479,0.298-3.32,0.907-3.32,1.855c0,0.841,0.57,1.18,1.301,1.18
		C808.647,243.226,809.229,242.887,809.948,242.249z"/>
	<path fill="#F2F2F2" d="M814.664,243.279h-0.04l-0.108,0.759h-0.989v-10.785h1.233v2.953l-0.041,1.328
		c0.664-0.583,1.49-1.043,2.304-1.043c1.91,0,2.94,1.49,2.94,3.739c0,2.534-1.504,3.983-3.198,3.983
		C816.088,244.214,815.315,243.876,814.664,243.279z M818.676,240.258c0-1.626-0.543-2.724-1.938-2.724
		c-0.624,0-1.274,0.353-1.979,1.017v3.861c0.65,0.569,1.314,0.772,1.802,0.772C817.781,243.185,818.676,242.087,818.676,240.258z"/>
</g>
<g enable-background="new    ">
	<path fill="#F2F2F2" d="M822.405,240.366c0-2.453,1.613-3.875,3.414-3.875c1.803,0,3.415,1.422,3.415,3.875
		c0,2.438-1.612,3.848-3.415,3.848C824.018,244.214,822.405,242.805,822.405,240.366z M827.96,240.366
		c0-1.693-0.867-2.846-2.142-2.846c-1.273,0-2.127,1.152-2.127,2.846s0.854,2.818,2.127,2.818
		C827.093,243.185,827.96,242.06,827.96,240.366z"/>
</g>
<g enable-background="new    ">
	<path fill="#F2F2F2" d="M831.621,241.342v-4.661h1.232v4.512c0,1.369,0.406,1.951,1.382,1.951c0.759,0,1.288-0.365,1.992-1.246
		v-5.217h1.233v7.357h-1.03l-0.095-1.151h-0.041c-0.691,0.799-1.422,1.327-2.438,1.327
		C832.312,244.214,831.621,243.212,831.621,241.342z"/>
	<path fill="#F2F2F2" d="M840.159,241.762v-4.078h-1.098v-0.936l1.151-0.067l0.149-2.06h1.03v2.06h1.991v1.003h-1.991v4.105
		c0,0.907,0.284,1.423,1.138,1.423c0.258,0,0.597-0.096,0.841-0.19l0.243,0.922c-0.42,0.136-0.907,0.271-1.354,0.271
		C840.688,244.214,840.159,243.238,840.159,241.762z"/>
	<path fill="#F2F2F2" d="M847.994,241.342v-4.661h1.232v4.512c0,1.369,0.406,1.951,1.382,1.951c0.759,0,1.288-0.365,1.992-1.246
		v-5.217h1.233v7.357h-1.03l-0.095-1.151h-0.041c-0.691,0.799-1.422,1.327-2.438,1.327
		C848.685,244.214,847.994,243.212,847.994,241.342z"/>
</g>
<g enable-background="new    ">
	<path fill="#F2F2F2" d="M857.604,243.198l0.609-0.813c0.637,0.515,1.301,0.867,2.182,0.867c0.977,0,1.45-0.515,1.45-1.151
		c0-0.745-0.867-1.084-1.681-1.396c-1.029-0.38-2.194-0.881-2.194-2.128c0-1.165,0.935-2.086,2.534-2.086
		c0.907,0,1.707,0.379,2.289,0.826l-0.596,0.8c-0.516-0.38-1.03-0.65-1.693-0.65c-0.922,0-1.342,0.487-1.342,1.057
		c0,0.704,0.799,0.962,1.626,1.273c1.07,0.406,2.249,0.84,2.249,2.235c0,1.193-0.948,2.182-2.683,2.182
		C859.311,244.214,858.309,243.78,857.604,243.198z"/>
</g>
<g>
	<g>
		<defs>
			<polygon id="SVGID_25_" points="1,637.889 970.181,636.889 981.179,113.71 11.999,114.71 			"/>
		</defs>
		<clipPath id="SVGID_26_">
			<use xlink:href="#SVGID_25_"  overflow="visible"/>
		</clipPath>
		<g clip-path="url(#SVGID_26_)">
			<path fill="#FFFFFF" d="M391.188,472.264c48.35,0,87.545-39.193,87.545-87.545c0-48.349-39.196-87.544-87.545-87.544
				s-87.544,39.195-87.544,87.544C303.644,433.07,342.839,472.264,391.188,472.264"/>
		</g>
	</g>
	<g>
		<defs>
			<polygon id="SVGID_27_" points="1,637.889 970.181,636.889 981.179,113.71 11.999,114.71 			"/>
		</defs>
		<clipPath id="SVGID_28_">
			<use xlink:href="#SVGID_27_"  overflow="visible"/>
		</clipPath>
		<g clip-path="url(#SVGID_28_)">
			<path fill="#C20C0C" d="M391.188,474.264c-49.375,0-89.544-40.169-89.544-89.543c0-49.375,40.169-89.544,89.544-89.544
				s89.544,40.169,89.544,89.544C480.732,434.095,440.562,474.264,391.188,474.264z M391.188,299.176
				c-47.169,0-85.544,38.375-85.544,85.544c0,47.168,38.375,85.543,85.544,85.543s85.544-38.375,85.544-85.543
				C476.732,337.551,438.357,299.176,391.188,299.176z"/>
		</g>
	</g>
</g>
<g enable-background="new    ">
	<path fill="#CB3030" d="M353.186,387.464h1.512l0.161,1.25h0.061c0.988-0.807,2.217-1.532,3.487-1.532
		c2.822,0,4.354,2.218,4.354,5.584c0,3.749-2.237,5.905-4.757,5.905c-0.988,0-2.036-0.463-3.023-1.27l0.04,1.915v3.709h-1.834
		V387.464z M360.845,392.785c0-2.419-0.806-4.052-2.882-4.052c-0.927,0-1.875,0.524-2.943,1.513v5.744
		c0.988,0.847,1.956,1.149,2.681,1.149C359.515,397.14,360.845,395.507,360.845,392.785z"/>
</g>
<g enable-background="new    ">
	<path fill="#CB3030" d="M366.47,387.464h1.512l0.161,1.996h0.061c0.766-1.392,1.875-2.278,3.104-2.278
		c0.484,0,0.827,0.061,1.169,0.242l-0.343,1.612c-0.363-0.141-0.625-0.182-1.068-0.182c-0.907,0-2.036,0.646-2.762,2.52v7.035
		h-1.834V387.464z"/>
</g>
<g enable-background="new    ">
	<path fill="#CB3030" d="M374.049,392.946c0-3.648,2.399-5.765,5.08-5.765c2.681,0,5.08,2.116,5.08,5.765
		c0,3.629-2.398,5.725-5.08,5.725C376.448,398.671,374.049,396.575,374.049,392.946z M382.314,392.946
		c0-2.52-1.29-4.232-3.185-4.232c-1.895,0-3.165,1.713-3.165,4.232s1.27,4.193,3.165,4.193
		C381.024,397.14,382.314,395.466,382.314,392.946z"/>
</g>
<g enable-background="new    ">
	<path fill="#CB3030" d="M387.113,392.946c0-3.547,2.237-5.765,4.737-5.765c1.29,0,2.117,0.484,3.084,1.29l-0.101-1.895v-4.213
		h1.834v16.045h-1.492l-0.181-1.29h-0.041c-0.867,0.847-2.016,1.552-3.326,1.552C388.886,398.671,387.113,396.595,387.113,392.946z
		 M394.833,395.628v-5.745c-0.927-0.826-1.754-1.149-2.661-1.149c-1.774,0-3.165,1.693-3.165,4.193c0,2.641,1.089,4.213,3.024,4.213
		C393.039,397.14,393.926,396.636,394.833,395.628z"/>
	<path fill="#CB3030" d="M400.256,394.398v-6.935h1.834v6.712c0,2.036,0.605,2.903,2.056,2.903c1.129,0,1.915-0.545,2.963-1.854
		v-7.761h1.834v10.945h-1.532l-0.141-1.713h-0.061c-1.028,1.188-2.117,1.975-3.628,1.975
		C401.284,398.671,400.256,397.18,400.256,394.398z"/>
</g>
<g enable-background="new    ">
	<path fill="#CB3030" d="M413.379,392.946c0-3.648,2.479-5.765,5.281-5.765c1.431,0,2.419,0.604,3.205,1.29l-0.947,1.229
		c-0.645-0.584-1.311-0.987-2.197-0.987c-1.976,0-3.427,1.713-3.427,4.232s1.371,4.193,3.386,4.193c1.008,0,1.895-0.464,2.58-1.089
		l0.786,1.229c-0.967,0.887-2.217,1.391-3.527,1.391C415.616,398.671,413.379,396.575,413.379,392.946z"/>
</g>
<g enable-background="new    ">
	<path fill="#CB3030" d="M425.373,395.022v-6.066h-1.632v-1.392l1.713-0.101l0.222-3.063h1.532v3.063h2.963v1.492h-2.963v6.107
		c0,1.351,0.423,2.116,1.693,2.116c0.383,0,0.887-0.142,1.25-0.282l0.363,1.371c-0.625,0.201-1.351,0.402-2.016,0.402
		C426.159,398.671,425.373,397.22,425.373,395.022z"/>
</g>
</svg>
