<?xml version="1.0" encoding="utf-8"?>
<!-- Generator: Adobe Illustrator 16.0.0, SVG Export Plug-In . SVG Version: 6.00 Build 0)  -->
<!DOCTYPE svg PUBLIC "-//W3C//DTD SVG 1.1//EN" "http://www.w3.org/Graphics/SVG/1.1/DTD/svg11.dtd">
<svg version="1.1" id="Layer_1" xmlns="http://www.w3.org/2000/svg" xmlns:xlink="http://www.w3.org/1999/xlink" x="0px" y="0px"
	 width="354.729px" height="1072px" viewBox="0 0 354.729 1072" enable-background="new 0 0 354.729 1072" xml:space="preserve">
<g>
	<g enable-background="new    ">
		<path fill="#4E4542" d="M195.326,173.69v2.799h-0.448v-6.424h1.529c0.797,0,1.386,0.146,1.767,0.441s0.571,0.738,0.571,1.328
			c0,0.432-0.114,0.795-0.341,1.09c-0.228,0.297-0.571,0.51-1.034,0.639l1.745,2.926h-0.536l-1.657-2.799H195.326z M195.326,173.304
			h1.226c0.542,0,0.962-0.121,1.261-0.363c0.299-0.24,0.448-0.598,0.448-1.07c0-0.488-0.146-0.844-0.439-1.066
			c-0.293-0.222-0.771-0.334-1.433-0.334h-1.063V173.304z"/>
	</g>
	<g enable-background="new    ">
		<path fill="#4E4542" d="M204.303,173.259c0,1.129-0.172,1.965-0.516,2.506c-0.346,0.543-0.865,0.813-1.563,0.813
			c-0.671,0-1.181-0.279-1.529-0.836c-0.349-0.559-0.522-1.385-0.522-2.482c0-1.117,0.169-1.947,0.507-2.486
			c0.339-0.539,0.854-0.809,1.545-0.809c0.677,0,1.192,0.279,1.547,0.838C204.126,171.358,204.303,172.179,204.303,173.259z
			 M200.647,173.259c0,0.998,0.13,1.732,0.392,2.209c0.261,0.477,0.655,0.715,1.187,0.715c0.554,0,0.957-0.246,1.211-0.738
			c0.253-0.492,0.38-1.221,0.38-2.186c0-0.949-0.127-1.67-0.38-2.162c-0.254-0.492-0.657-0.738-1.211-0.738
			s-0.955,0.246-1.204,0.738C200.772,171.589,200.647,172.31,200.647,173.259z"/>
	</g>
	<g enable-background="new    ">
		<path fill="#4E4542" d="M210.094,169.63h0.404v9.084h-0.404V169.63z"/>
	</g>
	<g enable-background="new    ">
		<path fill="#4E4542" d="M219.218,173.251h2.369v2.932c-0.621,0.264-1.32,0.395-2.096,0.395c-1.015,0-1.791-0.285-2.331-0.859
			c-0.541-0.572-0.812-1.383-0.812-2.432c0-0.652,0.134-1.232,0.402-1.738c0.269-0.506,0.651-0.895,1.15-1.172
			c0.5-0.273,1.073-0.412,1.722-0.412c0.699,0,1.329,0.129,1.885,0.387l-0.18,0.404c-0.558-0.258-1.135-0.387-1.731-0.387
			c-0.847,0-1.519,0.262-2.015,0.785c-0.497,0.521-0.745,1.227-0.745,2.115c0,0.967,0.235,1.693,0.708,2.182
			c0.472,0.489,1.165,0.732,2.079,0.732c0.592,0,1.094-0.084,1.507-0.252v-2.258h-1.912L219.218,173.251L219.218,173.251z"/>
	</g>
	<g enable-background="new    ">
		<path fill="#4E4542" d="M224.107,176.489l2.646-6.002h-3.634v-0.422h4.156v0.32l-2.653,6.104H224.107z"/>
		<path fill="#4E4542" d="M230.773,176.489h-0.431v-4.68c0-0.424,0.018-0.865,0.053-1.322c-0.044,0.043-0.089,0.086-0.136,0.127
			s-0.5,0.396-1.358,1.068l-0.25-0.313l1.745-1.305h0.378L230.773,176.489L230.773,176.489z"/>
	</g>
	<g enable-background="new    ">
		<path fill="#4E4542" d="M238.564,169.63h0.404v9.084h-0.404V169.63z"/>
	</g>
	<g enable-background="new    ">
		<path fill="#4E4542" d="M244.8,170.065h1.762c0.794,0,1.377,0.135,1.749,0.404c0.372,0.27,0.559,0.676,0.559,1.221
			c0,0.373-0.114,0.682-0.341,0.93c-0.228,0.248-0.559,0.406-0.995,0.477v0.027c0.513,0.076,0.89,0.238,1.131,0.484
			c0.241,0.248,0.362,0.594,0.362,1.035c0,0.592-0.195,1.049-0.589,1.367c-0.393,0.32-0.949,0.479-1.67,0.479H244.8V170.065z
			 M245.248,172.925h1.415c0.604,0,1.042-0.1,1.315-0.301c0.274-0.199,0.411-0.514,0.411-0.941c0-0.427-0.155-0.738-0.464-0.932
			s-0.771-0.291-1.382-0.291h-1.296V172.925L245.248,172.925z M245.248,173.321v2.773h1.512c1.189,0,1.784-0.484,1.784-1.451
			c0-0.881-0.627-1.322-1.881-1.322H245.248z"/>
		<path fill="#4E4542" d="M252.53,176.489h-0.431v-4.68c0-0.424,0.019-0.865,0.053-1.322c-0.044,0.043-0.089,0.086-0.136,0.127
			s-0.5,0.396-1.357,1.068l-0.25-0.313l1.744-1.305h0.378L252.53,176.489L252.53,176.489z"/>
		<path fill="#4E4542" d="M259.684,174.851h-1.106v1.639h-0.413v-1.639h-3.306v-0.295l3.187-4.525h0.532v4.441h1.106V174.851
			L259.684,174.851z M258.163,174.472v-1.836c0-0.885,0.021-1.627,0.062-2.229h-0.035c-0.059,0.109-0.238,0.385-0.541,0.826
			l-2.268,3.238L258.163,174.472L258.163,174.472z"/>
	</g>
	<g enable-background="new    ">
		<path fill="#4E4542" d="M265.883,173.259c0,1.129-0.172,1.965-0.516,2.506c-0.346,0.543-0.865,0.813-1.563,0.813
			c-0.671,0-1.181-0.279-1.529-0.836c-0.349-0.559-0.522-1.385-0.522-2.482c0-1.117,0.169-1.947,0.507-2.486
			c0.339-0.539,0.854-0.809,1.545-0.809c0.677,0,1.192,0.279,1.547,0.838C265.706,171.358,265.883,172.179,265.883,173.259z
			 M262.227,173.259c0,0.998,0.13,1.732,0.392,2.209c0.261,0.477,0.655,0.715,1.187,0.715c0.554,0,0.957-0.246,1.211-0.738
			c0.253-0.492,0.38-1.221,0.38-2.186c0-0.949-0.127-1.67-0.38-2.162c-0.254-0.492-0.657-0.738-1.211-0.738
			s-0.955,0.246-1.204,0.738C262.352,171.589,262.227,172.31,262.227,173.259z"/>
	</g>
	<g enable-background="new    ">
		<path fill="#4E4542" d="M197.62,187.521c-0.807,0-1.44,0.26-1.903,0.773c-0.463,0.518-0.694,1.223-0.694,2.119
			c0,0.918,0.219,1.629,0.655,2.135c0.437,0.508,1.061,0.762,1.872,0.762c0.539,0,1.034-0.068,1.485-0.207v0.395
			c-0.426,0.15-0.955,0.225-1.592,0.225c-0.901,0-1.612-0.291-2.131-0.875c-0.519-0.582-0.777-1.396-0.777-2.443
			c0-0.652,0.124-1.229,0.371-1.728c0.247-0.498,0.604-0.883,1.067-1.152c0.464-0.271,1.004-0.408,1.62-0.408
			c0.627,0,1.188,0.119,1.683,0.352l-0.18,0.404C198.628,187.64,198.135,187.521,197.62,187.521z"/>
	</g>
	<g enable-background="new    ">
		<path fill="#4E4542" d="M204.462,189.935c0,0.844-0.111,1.549-0.332,2.117c-0.221,0.568-0.543,0.988-0.967,1.262
			c-0.423,0.271-0.936,0.408-1.536,0.408c-0.306,0-0.586-0.037-0.844-0.113v-0.379c0.126,0.041,0.276,0.072,0.454,0.096
			c0.178,0.021,0.313,0.031,0.407,0.031c0.725,0,1.291-0.26,1.701-0.783c0.41-0.523,0.639-1.285,0.687-2.287h-0.054
			c-0.214,0.281-0.469,0.496-0.765,0.648c-0.296,0.15-0.605,0.225-0.927,0.225c-0.596,0-1.06-0.162-1.392-0.492
			c-0.333-0.326-0.499-0.793-0.499-1.396c0-0.645,0.183-1.166,0.547-1.564s0.839-0.598,1.422-0.598c0.422,0,0.791,0.111,1.106,0.332
			c0.316,0.221,0.561,0.545,0.732,0.973C204.376,188.841,204.462,189.349,204.462,189.935z M202.365,187.495
			c-0.464,0-0.832,0.156-1.107,0.469c-0.275,0.311-0.413,0.738-0.413,1.279c0,0.51,0.127,0.896,0.382,1.16
			c0.255,0.264,0.62,0.396,1.094,0.396c0.297,0,0.572-0.066,0.829-0.197c0.256-0.133,0.459-0.307,0.61-0.525
			c0.151-0.218,0.227-0.439,0.227-0.666c0-0.344-0.067-0.664-0.203-0.963c-0.138-0.299-0.327-0.531-0.571-0.701
			C202.967,187.579,202.685,187.495,202.365,187.495z"/>
		<path fill="#4E4542" d="M209.599,189.935c0,0.844-0.111,1.549-0.332,2.117c-0.221,0.568-0.543,0.988-0.967,1.262
			c-0.423,0.271-0.935,0.408-1.536,0.408c-0.305,0-0.586-0.037-0.844-0.113v-0.379c0.126,0.041,0.276,0.072,0.455,0.096
			c0.177,0.021,0.313,0.031,0.407,0.031c0.724,0,1.291-0.26,1.7-0.783c0.41-0.523,0.64-1.285,0.687-2.287h-0.053
			c-0.215,0.281-0.47,0.496-0.766,0.648c-0.296,0.15-0.604,0.225-0.927,0.225c-0.595,0-1.059-0.162-1.391-0.492
			c-0.333-0.326-0.499-0.793-0.499-1.396c0-0.645,0.182-1.166,0.547-1.564c0.363-0.398,0.838-0.598,1.421-0.598
			c0.422,0,0.791,0.111,1.106,0.332c0.316,0.221,0.561,0.545,0.732,0.973C209.513,188.841,209.599,189.349,209.599,189.935z
			 M207.503,187.495c-0.463,0-0.832,0.156-1.107,0.469c-0.274,0.311-0.413,0.738-0.413,1.279c0,0.51,0.127,0.896,0.383,1.16
			c0.255,0.264,0.619,0.396,1.094,0.396c0.296,0,0.572-0.066,0.829-0.197c0.256-0.133,0.459-0.307,0.609-0.525
			c0.151-0.218,0.228-0.439,0.228-0.666c0-0.344-0.068-0.664-0.204-0.963c-0.137-0.299-0.327-0.531-0.571-0.701
			C208.104,187.579,207.822,187.495,207.503,187.495z"/>
	</g>
	<g enable-background="new    ">
		<path fill="#4E4542" d="M215.833,186.774h0.403v9.084h-0.403V186.774z"/>
	</g>
	<g enable-background="new    ">
		<path fill="#4E4542" d="M224.895,193.634l-2.395-5.932h-0.035c0.022,0.363,0.035,0.734,0.035,1.115v4.816h-0.432v-6.424h0.694
			l2.276,5.65h0.025l2.276-5.65h0.677v6.424h-0.453v-4.869c0-0.34,0.019-0.691,0.054-1.055h-0.035l-2.404,5.924L224.895,193.634
			L224.895,193.634z"/>
		<path fill="#4E4542" d="M230.393,193.634l2.646-6.002h-3.635v-0.422h4.157v0.32l-2.653,6.104H230.393z"/>
		<path fill="#4E4542" d="M234.638,190.896c0-0.834,0.113-1.537,0.34-2.105c0.228-0.57,0.55-0.992,0.967-1.27
			c0.418-0.273,0.922-0.412,1.511-0.412c0.274,0,0.526,0.033,0.756,0.102v0.387c-0.214-0.08-0.473-0.119-0.773-0.119
			c-0.724,0-1.287,0.262-1.688,0.781c-0.403,0.523-0.629,1.281-0.68,2.277h0.058c0.223-0.287,0.478-0.504,0.765-0.65
			c0.287-0.146,0.59-0.221,0.91-0.221c0.601,0,1.07,0.172,1.409,0.516c0.338,0.342,0.507,0.816,0.507,1.418
			c0,0.658-0.178,1.176-0.534,1.555c-0.355,0.379-0.836,0.568-1.438,0.568c-0.65,0-1.164-0.248-1.54-0.744
			C234.826,192.481,234.638,191.788,234.638,190.896z M236.743,193.335c0.479,0,0.854-0.15,1.12-0.453
			c0.268-0.301,0.4-0.73,0.4-1.291c0-0.492-0.132-0.875-0.396-1.152c-0.265-0.273-0.623-0.412-1.077-0.412
			c-0.299,0-0.577,0.066-0.833,0.197c-0.257,0.133-0.461,0.307-0.613,0.525s-0.229,0.441-0.229,0.67
			c0,0.326,0.071,0.639,0.218,0.939c0.145,0.299,0.341,0.537,0.589,0.713C236.171,193.247,236.444,193.335,236.743,193.335z"/>
	</g>
	<g enable-background="new    ">
		<path fill="#4E4542" d="M245.57,186.774h0.404v9.084h-0.404V186.774z"/>
	</g>
	<g enable-background="new    ">
		<path fill="#4E4542" d="M253.281,190.726l1.882-3.516h0.482l-2.14,3.941v2.482h-0.461v-2.447l-2.149-3.977h0.515L253.281,190.726z
			"/>
		<path fill="#4E4542" d="M258.642,193.634h-0.431v-4.68c0-0.424,0.018-0.865,0.053-1.322c-0.044,0.043-0.089,0.086-0.136,0.127
			s-0.5,0.396-1.358,1.068l-0.25-0.313l1.745-1.305h0.378L258.642,193.634L258.642,193.634z"/>
		<path fill="#4E4542" d="M263.142,189.771c0.687,0,1.226,0.166,1.619,0.498c0.395,0.33,0.592,0.785,0.592,1.365
			c0,0.66-0.205,1.174-0.615,1.539c-0.409,0.367-0.977,0.549-1.696,0.549c-0.319,0-0.623-0.031-0.91-0.094s-0.527-0.152-0.721-0.271
			v-0.451c0.315,0.16,0.598,0.273,0.844,0.336s0.508,0.094,0.787,0.094c0.563,0,1.013-0.148,1.353-0.445
			c0.34-0.297,0.51-0.699,0.51-1.207c0-0.477-0.165-0.852-0.495-1.125c-0.331-0.271-0.781-0.408-1.35-0.408
			c-0.381,0-0.779,0.057-1.195,0.172l-0.264-0.172l0.255-2.939h3.094v0.422h-2.681l-0.198,2.268
			C262.527,189.813,262.885,189.771,263.142,189.771z"/>
	</g>
	<g enable-background="new    ">
		<path fill="#4E4542" d="M272.288,186.774h0.403v9.084h-0.403V186.774z"/>
	</g>
	<g enable-background="new    ">
		<path fill="#4E4542" d="M283.204,193.634h-0.552l-2.465-3.393l-0.856,0.756v2.637h-0.447v-6.424h0.447v3.34l0.713-0.713
			l2.518-2.627h0.572l-2.633,2.715L283.204,193.634z"/>
	</g>
	<g enable-background="new    ">
		<path fill="#4E4542" d="M287.857,188.722c0,0.398-0.125,0.732-0.375,1.006c-0.25,0.271-0.586,0.447-1.008,0.523v0.025
			c0.516,0.064,0.908,0.229,1.178,0.492c0.271,0.263,0.404,0.619,0.404,1.064c0,0.6-0.205,1.064-0.613,1.395
			c-0.407,0.331-0.998,0.494-1.766,0.494c-0.652,0-1.223-0.121-1.709-0.365v-0.434c0.246,0.129,0.521,0.23,0.828,0.303
			c0.307,0.074,0.594,0.109,0.863,0.109c0.647,0,1.135-0.131,1.459-0.393c0.325-0.262,0.487-0.633,0.487-1.109
			c0-0.426-0.166-0.752-0.498-0.98c-0.334-0.229-0.821-0.344-1.467-0.344h-0.692v-0.422h0.702c0.533,0,0.955-0.125,1.269-0.379
			c0.313-0.254,0.469-0.598,0.469-1.031c0-0.357-0.127-0.643-0.381-0.859c-0.254-0.215-0.586-0.322-0.996-0.322
			c-0.318,0-0.609,0.045-0.873,0.135c-0.264,0.088-0.561,0.242-0.889,0.459l-0.215-0.295c0.248-0.207,0.549-0.373,0.899-0.494
			c0.352-0.121,0.707-0.184,1.068-0.184c0.592,0,1.049,0.141,1.371,0.42C287.697,187.817,287.857,188.212,287.857,188.722z"/>
	</g>
	<g enable-background="new    ">
		<path fill="#4E4542" d="M198.218,206.7l-0.334,1.75h1.332v0.346h-1.406l-0.378,1.982h-0.396l0.387-1.982h-1.582l-0.378,1.982
			h-0.387l0.378-1.982h-1.244v-0.346h1.313l0.334-1.75h-1.305v-0.352h1.367l0.378-1.994h0.399l-0.391,1.994h1.604l0.387-1.994h0.378
			l-0.387,1.994h1.252v0.352H198.218z M195.902,208.45h1.596l0.343-1.75h-1.595L195.902,208.45z"/>
		<path fill="#4E4542" d="M204.418,207.548c0,1.129-0.172,1.965-0.517,2.506c-0.345,0.543-0.864,0.813-1.563,0.813
			c-0.671,0-1.181-0.279-1.529-0.836c-0.349-0.559-0.522-1.385-0.522-2.482c0-1.117,0.169-1.947,0.507-2.486
			c0.339-0.539,0.854-0.809,1.545-0.809c0.677,0,1.191,0.279,1.547,0.838C204.241,205.647,204.418,206.468,204.418,207.548z
			 M200.762,207.548c0,0.998,0.13,1.732,0.391,2.209c0.262,0.477,0.656,0.715,1.188,0.715c0.554,0,0.957-0.246,1.211-0.738
			c0.253-0.492,0.38-1.221,0.38-2.186c0-0.949-0.127-1.67-0.38-2.162c-0.254-0.492-0.657-0.738-1.211-0.738
			s-0.955,0.246-1.204,0.738C200.887,205.878,200.762,206.599,200.762,207.548z"/>
		<path fill="#4E4542" d="M209.555,207.548c0,1.129-0.172,1.965-0.516,2.506c-0.346,0.543-0.865,0.813-1.563,0.813
			c-0.671,0-1.181-0.279-1.529-0.836c-0.349-0.559-0.522-1.385-0.522-2.482c0-1.117,0.169-1.947,0.507-2.486
			c0.339-0.539,0.854-0.809,1.545-0.809c0.677,0,1.192,0.279,1.547,0.838C209.378,205.647,209.555,206.468,209.555,207.548z
			 M205.899,207.548c0,0.998,0.13,1.732,0.392,2.209c0.261,0.477,0.655,0.715,1.187,0.715c0.554,0,0.957-0.246,1.211-0.738
			c0.253-0.492,0.38-1.221,0.38-2.186c0-0.949-0.127-1.67-0.38-2.162c-0.254-0.492-0.657-0.738-1.211-0.738
			s-0.955,0.246-1.204,0.738C206.024,205.878,205.899,206.599,205.899,207.548z"/>
		<path fill="#4E4542" d="M215.071,209.14h-1.106v1.639h-0.413v-1.639h-3.305v-0.295l3.186-4.525h0.532v4.441h1.106V209.14
			L215.071,209.14z M213.55,208.761v-1.836c0-0.885,0.021-1.627,0.062-2.229h-0.034c-0.06,0.109-0.239,0.385-0.541,0.826
			l-2.269,3.238L213.55,208.761L213.55,208.761z"/>
		<path fill="#4E4542" d="M216.661,210.778l2.646-6.002h-3.634v-0.422h4.157v0.32l-2.654,6.104H216.661z"/>
		<path fill="#4E4542" d="M222.888,204.243c0.545,0,0.983,0.141,1.316,0.418c0.332,0.279,0.499,0.654,0.499,1.129
			c0,0.33-0.104,0.619-0.311,0.871c-0.206,0.252-0.541,0.484-1.004,0.699c0.563,0.23,0.958,0.484,1.188,0.76
			c0.229,0.276,0.343,0.609,0.343,1.002c0,0.531-0.187,0.953-0.557,1.27c-0.37,0.316-0.867,0.475-1.491,0.475
			c-0.647,0-1.145-0.146-1.49-0.443c-0.346-0.295-0.52-0.727-0.52-1.293c0-0.383,0.122-0.721,0.365-1.01
			c0.243-0.291,0.62-0.537,1.129-0.742c-0.472-0.223-0.804-0.459-0.998-0.705c-0.192-0.248-0.29-0.545-0.29-0.891
			c0-0.309,0.078-0.578,0.233-0.811s0.373-0.412,0.653-0.539C222.234,204.308,222.546,204.243,222.888,204.243z M221.311,209.196
			c0,0.404,0.137,0.719,0.411,0.941c0.274,0.222,0.657,0.334,1.149,0.334c0.479,0,0.866-0.119,1.159-0.354
			c0.294-0.236,0.439-0.557,0.439-0.961c0-0.363-0.115-0.658-0.345-0.885c-0.23-0.229-0.673-0.465-1.33-0.715
			c-0.539,0.209-0.921,0.438-1.147,0.689C221.422,208.496,221.311,208.815,221.311,209.196z M222.88,204.64
			c-0.413,0-0.745,0.102-0.995,0.305c-0.251,0.205-0.376,0.484-0.376,0.838c0,0.205,0.046,0.387,0.139,0.543
			c0.093,0.156,0.226,0.299,0.399,0.426s0.467,0.277,0.877,0.445c0.478-0.184,0.82-0.387,1.028-0.609
			c0.208-0.222,0.312-0.49,0.312-0.805c0-0.352-0.124-0.629-0.372-0.836C223.645,204.743,223.307,204.64,222.88,204.64z"/>
	</g>
	<g enable-background="new    ">
		<path fill="#4E4542" d="M231.28,204.665c-0.806,0-1.439,0.26-1.902,0.773c-0.463,0.518-0.694,1.223-0.694,2.119
			c0,0.918,0.218,1.629,0.655,2.135c0.437,0.508,1.061,0.762,1.872,0.762c0.539,0,1.034-0.068,1.484-0.207v0.395
			c-0.425,0.15-0.955,0.225-1.591,0.225c-0.901,0-1.612-0.291-2.131-0.875c-0.519-0.582-0.778-1.396-0.778-2.443
			c0-0.652,0.124-1.229,0.372-1.727c0.247-0.498,0.604-0.883,1.067-1.152c0.464-0.271,1.004-0.408,1.62-0.408
			c0.627,0,1.188,0.119,1.683,0.353l-0.18,0.404C232.288,204.784,231.796,204.665,231.28,204.665z"/>
	</g>
</g>
<g>
	<g enable-background="new    ">
		<path fill="#4E4542" d="M197.314,446.755v2.799h-0.449v-6.424h1.529c0.797,0,1.387,0.146,1.769,0.441
			c0.381,0.295,0.569,0.737,0.569,1.328c0,0.432-0.112,0.795-0.34,1.09c-0.227,0.297-0.572,0.51-1.035,0.639l1.744,2.926h-0.535
			l-1.655-2.799H197.314z M197.314,446.368h1.228c0.541,0,0.961-0.121,1.26-0.363c0.299-0.24,0.449-0.598,0.449-1.07
			c0-0.487-0.146-0.844-0.439-1.065s-0.771-0.334-1.434-0.334h-1.063V446.368z"/>
	</g>
	<g enable-background="new    ">
		<path fill="#4E4542" d="M204.015,445.69c0.687,0,1.226,0.166,1.619,0.498c0.395,0.329,0.592,0.784,0.592,1.364
			c0,0.66-0.205,1.174-0.615,1.539c-0.409,0.367-0.977,0.549-1.696,0.549c-0.318,0-0.623-0.03-0.91-0.094
			c-0.287-0.063-0.527-0.152-0.721-0.271v-0.451c0.315,0.16,0.598,0.272,0.844,0.336c0.246,0.063,0.51,0.094,0.787,0.094
			c0.563,0,1.014-0.147,1.354-0.445c0.34-0.297,0.51-0.698,0.51-1.207c0-0.477-0.166-0.852-0.496-1.125
			c-0.331-0.271-0.78-0.407-1.35-0.407c-0.381,0-0.779,0.057-1.195,0.172l-0.264-0.172l0.256-2.939h3.094v0.422h-2.682l-0.197,2.269
			C203.4,445.733,203.757,445.69,204.015,445.69z"/>
		<path fill="#4E4542" d="M209.788,449.554h-0.431v-4.68c0-0.424,0.019-0.865,0.054-1.322c-0.045,0.043-0.091,0.086-0.138,0.127
			s-0.5,0.396-1.356,1.068l-0.25-0.313l1.744-1.305h0.377V449.554L209.788,449.554z"/>
	</g>
	<g enable-background="new    ">
		<path fill="#4E4542" d="M217.579,442.694h0.403v9.084h-0.403V442.694z"/>
	</g>
	<g enable-background="new    ">
		<path fill="#4E4542" d="M226.702,446.315h2.368v2.932c-0.62,0.264-1.319,0.395-2.098,0.395c-1.014,0-1.791-0.284-2.33-0.858
			c-0.541-0.572-0.811-1.383-0.811-2.433c0-0.651,0.133-1.231,0.399-1.737c0.271-0.506,0.652-0.896,1.152-1.172
			c0.5-0.273,1.072-0.412,1.721-0.412c0.699,0,1.328,0.129,1.885,0.387l-0.18,0.404c-0.557-0.259-1.135-0.388-1.731-0.388
			c-0.847,0-1.519,0.263-2.015,0.785c-0.498,0.521-0.746,1.228-0.746,2.115c0,0.967,0.236,1.693,0.709,2.182
			c0.472,0.488,1.164,0.732,2.078,0.732c0.592,0,1.094-0.084,1.508-0.252v-2.258h-1.911L226.702,446.315L226.702,446.315z"/>
	</g>
	<g enable-background="new    ">
		<path fill="#4E4542" d="M232.484,445.69c0.687,0,1.228,0.166,1.621,0.498c0.394,0.329,0.59,0.784,0.59,1.364
			c0,0.66-0.205,1.174-0.614,1.539c-0.41,0.367-0.976,0.549-1.695,0.549c-0.32,0-0.623-0.03-0.91-0.094
			c-0.287-0.063-0.527-0.152-0.721-0.271v-0.451c0.315,0.16,0.598,0.272,0.844,0.336c0.246,0.063,0.508,0.094,0.787,0.094
			c0.563,0,1.014-0.147,1.354-0.445c0.341-0.297,0.511-0.698,0.511-1.207c0-0.477-0.166-0.852-0.498-1.125
			c-0.33-0.271-0.779-0.407-1.349-0.407c-0.381,0-0.778,0.057-1.194,0.172l-0.265-0.172l0.254-2.939h3.095v0.422h-2.681
			l-0.198,2.269C231.868,445.733,232.226,445.69,232.484,445.69z"/>
		<path fill="#4E4542" d="M238.259,449.554h-0.432v-4.68c0-0.424,0.018-0.865,0.053-1.322c-0.043,0.043-0.088,0.086-0.135,0.127
			c-0.048,0.041-0.5,0.396-1.359,1.068l-0.25-0.313l1.744-1.305h0.379V449.554z"/>
	</g>
	<g enable-background="new    ">
		<path fill="#4E4542" d="M246.048,442.694h0.404v9.084h-0.404V442.694z"/>
	</g>
	<g enable-background="new    ">
		<path fill="#4E4542" d="M252.284,443.13h1.762c0.795,0,1.377,0.135,1.75,0.404c0.371,0.27,0.557,0.676,0.557,1.221
			c0,0.373-0.113,0.682-0.34,0.93s-0.559,0.406-0.996,0.478v0.027c0.514,0.075,0.892,0.237,1.133,0.483
			c0.242,0.248,0.361,0.594,0.361,1.035c0,0.592-0.195,1.049-0.588,1.367c-0.394,0.32-0.949,0.479-1.67,0.479h-1.969V443.13z
			 M252.732,445.989h1.416c0.604,0,1.041-0.101,1.316-0.301c0.272-0.199,0.41-0.515,0.41-0.941s-0.154-0.738-0.463-0.932
			c-0.312-0.193-0.771-0.291-1.384-0.291h-1.297L252.732,445.989L252.732,445.989z M252.732,446.386v2.773h1.513
			c1.188,0,1.784-0.484,1.784-1.451c0-0.881-0.627-1.322-1.881-1.322H252.732L252.732,446.386z"/>
		<path fill="#4E4542" d="M259.376,445.69c0.686,0,1.227,0.166,1.621,0.498c0.393,0.329,0.59,0.784,0.59,1.364
			c0,0.66-0.205,1.174-0.615,1.539c-0.41,0.367-0.975,0.549-1.695,0.549c-0.319,0-0.623-0.03-0.909-0.094
			c-0.287-0.063-0.527-0.152-0.722-0.271v-0.451c0.316,0.16,0.599,0.272,0.844,0.336c0.246,0.063,0.509,0.094,0.787,0.094
			c0.563,0,1.015-0.147,1.354-0.445c0.34-0.297,0.51-0.698,0.51-1.207c0-0.477-0.166-0.852-0.498-1.125
			c-0.33-0.271-0.779-0.407-1.348-0.407c-0.381,0-0.779,0.057-1.195,0.172l-0.264-0.172l0.254-2.939h3.094v0.422h-2.68l-0.199,2.269
			C258.761,445.733,259.118,445.69,259.376,445.69z"/>
	</g>
	<g enable-background="new    ">
		<path fill="#4E4542" d="M266.232,449.554H265.8v-4.68c0-0.424,0.018-0.865,0.053-1.322c-0.043,0.043-0.088,0.086-0.135,0.127
			s-0.5,0.396-1.359,1.068l-0.25-0.313l1.744-1.305h0.379V449.554L266.232,449.554z"/>
	</g>
	<g enable-background="new    ">
		<path fill="#4E4542" d="M199.607,461.64c-0.805,0-1.438,0.261-1.901,0.773c-0.463,0.518-0.693,1.223-0.693,2.119
			c0,0.918,0.217,1.629,0.654,2.135c0.436,0.508,1.061,0.762,1.871,0.762c0.539,0,1.034-0.067,1.485-0.207v0.396
			c-0.426,0.149-0.955,0.225-1.592,0.225c-0.902,0-1.611-0.291-2.131-0.875c-0.518-0.582-0.777-1.396-0.777-2.442
			c0-0.652,0.123-1.229,0.371-1.728s0.604-0.883,1.068-1.151c0.463-0.271,1.004-0.408,1.619-0.408c0.627,0,1.188,0.119,1.684,0.352
			l-0.182,0.404C200.615,461.759,200.122,461.64,199.607,461.64z"/>
	</g>
	<g enable-background="new    ">
		<path fill="#4E4542" d="M202.472,465.015c0-0.834,0.113-1.537,0.34-2.104c0.228-0.57,0.549-0.992,0.967-1.271
			c0.418-0.272,0.921-0.412,1.511-0.412c0.274,0,0.526,0.033,0.756,0.103v0.387c-0.215-0.08-0.474-0.119-0.773-0.119
			c-0.725,0-1.287,0.263-1.688,0.781c-0.404,0.523-0.629,1.281-0.681,2.277h0.058c0.223-0.287,0.479-0.504,0.766-0.65
			c0.287-0.146,0.59-0.221,0.91-0.221c0.6,0,1.068,0.172,1.408,0.516c0.338,0.342,0.508,0.816,0.508,1.418
			c0,0.658-0.18,1.177-0.535,1.556c-0.354,0.379-0.836,0.567-1.438,0.567c-0.65,0-1.164-0.248-1.539-0.744
			C202.659,466.601,202.472,465.907,202.472,465.015z M204.575,467.454c0.479,0,0.854-0.15,1.12-0.453
			c0.269-0.301,0.4-0.73,0.4-1.291c0-0.492-0.133-0.875-0.396-1.152c-0.265-0.272-0.621-0.411-1.076-0.411
			c-0.299,0-0.576,0.065-0.832,0.196c-0.258,0.133-0.461,0.308-0.613,0.525s-0.229,0.44-0.229,0.67c0,0.326,0.071,0.639,0.217,0.938
			c0.145,0.3,0.342,0.537,0.59,0.714C204.003,467.366,204.277,467.454,204.575,467.454z"/>
		<path fill="#4E4542" d="M211.585,464.054c0,0.845-0.111,1.549-0.332,2.117s-0.543,0.988-0.967,1.262
			c-0.425,0.271-0.937,0.408-1.535,0.408c-0.306,0-0.586-0.037-0.844-0.113v-0.379c0.125,0.041,0.276,0.072,0.454,0.097
			c0.177,0.021,0.313,0.03,0.406,0.03c0.724,0,1.291-0.26,1.701-0.782c0.41-0.523,0.639-1.285,0.686-2.287h-0.053
			c-0.215,0.28-0.469,0.496-0.766,0.647c-0.295,0.15-0.605,0.226-0.928,0.226c-0.595,0-1.06-0.162-1.392-0.492
			c-0.332-0.326-0.498-0.793-0.498-1.396c0-0.645,0.183-1.166,0.547-1.563c0.365-0.398,0.838-0.598,1.422-0.598
			c0.423,0,0.791,0.11,1.107,0.332c0.316,0.221,0.562,0.545,0.732,0.973C211.499,462.96,211.585,463.468,211.585,464.054z
			 M209.49,461.614c-0.464,0-0.832,0.156-1.107,0.469c-0.275,0.311-0.414,0.738-0.414,1.279c0,0.51,0.129,0.896,0.383,1.16
			c0.256,0.264,0.619,0.396,1.094,0.396c0.298,0,0.572-0.066,0.83-0.197c0.257-0.133,0.459-0.307,0.609-0.524
			c0.15-0.219,0.227-0.439,0.227-0.666c0-0.344-0.067-0.664-0.202-0.963c-0.138-0.3-0.328-0.531-0.572-0.701
			C210.091,461.698,209.808,461.614,209.49,461.614z"/>
	</g>
	<g enable-background="new    ">
		<path fill="#4E4542" d="M217.822,460.894h0.404v9.084h-0.404V460.894z"/>
	</g>
	<g enable-background="new    ">
		<path fill="#4E4542" d="M226.882,467.753l-2.396-5.932h-0.034c0.022,0.362,0.034,0.733,0.034,1.114v4.816h-0.43v-6.424h0.693
			l2.276,5.649h0.025l2.277-5.649h0.676v6.424h-0.453v-4.869c0-0.34,0.018-0.69,0.053-1.055h-0.035l-2.401,5.924L226.882,467.753
			L226.882,467.753z"/>
		<path fill="#4E4542" d="M231.488,465.015c0-0.834,0.113-1.537,0.343-2.104c0.227-0.57,0.549-0.992,0.967-1.271
			c0.418-0.272,0.92-0.412,1.51-0.412c0.275,0,0.527,0.033,0.756,0.103v0.387c-0.215-0.08-0.473-0.119-0.772-0.119
			c-0.726,0-1.287,0.263-1.689,0.781c-0.404,0.523-0.631,1.281-0.68,2.277h0.057c0.224-0.287,0.479-0.504,0.767-0.65
			c0.287-0.146,0.59-0.221,0.907-0.221c0.603,0,1.07,0.172,1.41,0.516c0.338,0.342,0.506,0.816,0.506,1.418
			c0,0.658-0.178,1.177-0.532,1.556c-0.355,0.379-0.836,0.567-1.439,0.567c-0.65,0-1.164-0.248-1.539-0.744
			C231.677,466.601,231.488,465.907,231.488,465.015z M233.593,467.454c0.479,0,0.854-0.15,1.121-0.453
			c0.266-0.301,0.399-0.73,0.399-1.291c0-0.492-0.133-0.875-0.396-1.152c-0.264-0.272-0.623-0.411-1.076-0.411
			c-0.299,0-0.576,0.065-0.832,0.196c-0.258,0.133-0.461,0.308-0.613,0.525c-0.151,0.218-0.229,0.44-0.229,0.67
			c0,0.326,0.072,0.639,0.217,0.938c0.146,0.3,0.342,0.537,0.59,0.714C233.021,467.366,233.294,467.454,233.593,467.454z"/>
		<path fill="#4E4542" d="M240.353,462.841c0,0.398-0.127,0.732-0.377,1.006c-0.25,0.271-0.586,0.447-1.008,0.523v0.025
			c0.516,0.063,0.908,0.229,1.178,0.491c0.271,0.264,0.404,0.619,0.404,1.064c0,0.6-0.205,1.063-0.613,1.395
			s-0.996,0.494-1.764,0.494c-0.654,0-1.226-0.121-1.711-0.365v-0.434c0.246,0.129,0.522,0.23,0.828,0.303
			c0.307,0.074,0.596,0.109,0.864,0.109c0.646,0,1.134-0.131,1.459-0.394c0.324-0.262,0.486-0.633,0.486-1.108
			c0-0.426-0.166-0.752-0.498-0.98c-0.332-0.228-0.82-0.344-1.465-0.344h-0.695v-0.422h0.703c0.533,0,0.955-0.125,1.269-0.379
			c0.313-0.254,0.469-0.599,0.469-1.031c0-0.356-0.127-0.643-0.381-0.859c-0.254-0.215-0.584-0.321-0.994-0.321
			c-0.32,0-0.611,0.045-0.875,0.135c-0.264,0.088-0.562,0.242-0.889,0.459l-0.216-0.295c0.25-0.207,0.55-0.373,0.9-0.494
			s0.709-0.184,1.068-0.184c0.592,0,1.049,0.141,1.371,0.42C240.191,461.937,240.353,462.331,240.353,462.841z"/>
	</g>
	<g enable-background="new    ">
		<path fill="#4E4542" d="M247.556,460.894h0.404v9.084h-0.404V460.894z"/>
	</g>
	<g enable-background="new    ">
		<path fill="#4E4542" d="M255.269,464.845l1.881-3.516h0.482l-2.139,3.941v2.481h-0.464v-2.447l-2.147-3.977h0.514L255.269,464.845
			z"/>
		<path fill="#4E4542" d="M258.208,465.015c0-0.834,0.112-1.537,0.34-2.104c0.229-0.57,0.551-0.992,0.967-1.271
			c0.418-0.272,0.922-0.412,1.51-0.412c0.275,0,0.527,0.033,0.757,0.103v0.387c-0.214-0.08-0.472-0.119-0.773-0.119
			c-0.723,0-1.287,0.263-1.689,0.781c-0.401,0.523-0.629,1.281-0.678,2.277h0.058c0.223-0.287,0.477-0.504,0.764-0.65
			c0.287-0.146,0.592-0.221,0.91-0.221c0.602,0,1.069,0.172,1.407,0.516c0.339,0.342,0.509,0.816,0.509,1.418
			c0,0.658-0.179,1.177-0.533,1.556c-0.357,0.379-0.836,0.567-1.439,0.567c-0.649,0-1.164-0.248-1.541-0.744
			S258.208,465.907,258.208,465.015z M260.314,467.454c0.48,0,0.854-0.15,1.121-0.453c0.267-0.301,0.398-0.73,0.398-1.291
			c0-0.492-0.131-0.875-0.396-1.152c-0.264-0.272-0.623-0.411-1.076-0.411c-0.299,0-0.577,0.065-0.834,0.196
			c-0.256,0.133-0.461,0.308-0.612,0.525c-0.152,0.218-0.229,0.44-0.229,0.67c0,0.326,0.072,0.639,0.219,0.938
			c0.146,0.3,0.341,0.537,0.589,0.714C259.741,467.366,260.015,467.454,260.314,467.454z"/>
		<path fill="#4E4542" d="M267.288,467.753h-4.021v-0.387l1.709-1.783c0.48-0.498,0.818-0.879,1.012-1.143
			c0.194-0.265,0.334-0.517,0.427-0.757c0.09-0.239,0.137-0.491,0.137-0.756c0-0.385-0.127-0.694-0.379-0.938
			c-0.252-0.238-0.578-0.359-0.98-0.359c-0.535,0-1.049,0.195-1.537,0.584l-0.237-0.303c0.537-0.451,1.131-0.678,1.785-0.678
			c0.559,0,1,0.149,1.319,0.448c0.32,0.3,0.48,0.711,0.48,1.234c0,0.426-0.107,0.836-0.322,1.232
			c-0.215,0.397-0.609,0.889-1.18,1.471l-1.648,1.69v0.019h3.438v0.424H267.288z"/>
	</g>
	<g enable-background="new    ">
		<path fill="#4E4542" d="M274.279,460.894h0.404v9.084h-0.404V460.894z"/>
	</g>
	<g enable-background="new    ">
		<path fill="#4E4542" d="M285.193,467.753h-0.549l-2.465-3.393l-0.857,0.756v2.637h-0.448v-6.424h0.448v3.34l0.712-0.713
			l2.52-2.627h0.57l-2.634,2.715L285.193,467.753z"/>
	</g>
	<g enable-background="new    ">
		<path fill="#4E4542" d="M287.904,463.89c0.687,0,1.226,0.166,1.619,0.498c0.396,0.33,0.592,0.785,0.592,1.365
			c0,0.66-0.204,1.174-0.614,1.539c-0.41,0.367-0.978,0.549-1.697,0.549c-0.318,0-0.623-0.031-0.91-0.094
			c-0.287-0.063-0.526-0.152-0.721-0.271v-0.45c0.315,0.159,0.598,0.272,0.844,0.336c0.246,0.063,0.51,0.094,0.787,0.094
			c0.563,0,1.014-0.148,1.354-0.445c0.341-0.297,0.511-0.699,0.511-1.207c0-0.477-0.166-0.852-0.496-1.125
			c-0.332-0.271-0.781-0.407-1.351-0.407c-0.381,0-0.778,0.057-1.194,0.172l-0.265-0.172l0.257-2.939h3.094v0.422h-2.683
			l-0.196,2.269C287.288,463.933,287.646,463.89,287.904,463.89z"/>
	</g>
	<g enable-background="new    ">
		<path fill="#4E4542" d="M293.599,461.218c0.545,0,0.982,0.142,1.316,0.418c0.332,0.279,0.498,0.654,0.498,1.129
			c0,0.33-0.104,0.619-0.312,0.871c-0.205,0.252-0.541,0.484-1.004,0.699c0.563,0.23,0.959,0.484,1.188,0.76
			c0.229,0.276,0.342,0.609,0.342,1.002c0,0.531-0.187,0.953-0.556,1.271c-0.37,0.315-0.868,0.475-1.491,0.475
			c-0.648,0-1.146-0.146-1.49-0.442c-0.346-0.295-0.521-0.728-0.521-1.293c0-0.384,0.123-0.722,0.365-1.011
			c0.244-0.291,0.619-0.537,1.129-0.741c-0.471-0.224-0.803-0.46-0.996-0.705c-0.192-0.248-0.291-0.545-0.291-0.892
			c0-0.309,0.078-0.578,0.232-0.811c0.156-0.232,0.373-0.412,0.654-0.539C292.945,461.282,293.255,461.218,293.599,461.218z
			 M292.021,466.171c0,0.404,0.138,0.719,0.41,0.941c0.273,0.222,0.658,0.334,1.15,0.334c0.479,0,0.866-0.119,1.16-0.354
			c0.293-0.235,0.438-0.557,0.438-0.961c0-0.363-0.115-0.658-0.346-0.885c-0.23-0.229-0.674-0.465-1.33-0.715
			c-0.539,0.209-0.92,0.438-1.146,0.688C292.134,465.474,292.021,465.79,292.021,466.171z M293.589,461.614
			c-0.412,0-0.744,0.102-0.994,0.305c-0.252,0.205-0.377,0.484-0.377,0.838c0,0.205,0.047,0.387,0.139,0.543
			c0.093,0.156,0.226,0.299,0.4,0.426c0.174,0.127,0.467,0.277,0.877,0.445c0.477-0.184,0.82-0.387,1.027-0.609
			c0.209-0.223,0.313-0.489,0.313-0.805c0-0.352-0.125-0.629-0.371-0.836C294.355,461.718,294.017,461.614,293.589,461.614z"/>
	</g>
	<g enable-background="new    ">
		<path fill="#4E4542" d="M200.204,479.757l-0.334,1.75h1.332v0.346h-1.406l-0.377,1.982h-0.396l0.388-1.982h-1.582l-0.377,1.982
			h-0.388l0.377-1.982h-1.244v-0.346h1.314l0.334-1.75h-1.305v-0.352h1.367l0.377-1.994h0.399l-0.391,1.994h1.604l0.388-1.994h0.377
			l-0.388,1.994h1.254v0.352H200.204z M197.89,481.507h1.594l0.345-1.75h-1.597L197.89,481.507z"/>
	</g>
	<g enable-background="new    ">
		<path fill="#4E4542" d="M206.423,478.923c0,0.398-0.125,0.732-0.375,1.006c-0.252,0.271-0.588,0.447-1.01,0.523v0.024
			c0.516,0.064,0.907,0.229,1.178,0.492c0.27,0.264,0.404,0.619,0.404,1.064c0,0.6-0.203,1.063-0.613,1.395
			c-0.408,0.33-0.996,0.494-1.764,0.494c-0.654,0-1.224-0.121-1.709-0.365v-0.434c0.245,0.129,0.521,0.229,0.827,0.303
			c0.306,0.074,0.595,0.109,0.863,0.109c0.646,0,1.133-0.131,1.459-0.394c0.324-0.262,0.488-0.633,0.488-1.108
			c0-0.426-0.168-0.752-0.5-0.98c-0.332-0.228-0.82-0.344-1.465-0.344h-0.695v-0.422h0.703c0.533,0,0.957-0.125,1.27-0.379
			c0.312-0.254,0.468-0.599,0.468-1.031c0-0.356-0.127-0.643-0.379-0.859c-0.255-0.215-0.587-0.321-0.996-0.321
			c-0.32,0-0.611,0.045-0.875,0.135c-0.265,0.088-0.56,0.242-0.888,0.459l-0.217-0.295c0.25-0.207,0.551-0.373,0.902-0.494
			c0.351-0.121,0.707-0.184,1.065-0.184c0.593,0,1.05,0.141,1.371,0.42C206.261,478.019,206.423,478.413,206.423,478.923z"/>
		<path fill="#4E4542" d="M211.56,478.923c0,0.398-0.125,0.732-0.375,1.006c-0.252,0.271-0.588,0.447-1.01,0.523v0.024
			c0.516,0.064,0.908,0.229,1.178,0.492c0.271,0.264,0.404,0.619,0.404,1.064c0,0.6-0.203,1.063-0.613,1.395
			c-0.408,0.33-0.996,0.494-1.764,0.494c-0.652,0-1.224-0.121-1.709-0.365v-0.434c0.246,0.129,0.521,0.229,0.828,0.303
			c0.307,0.074,0.594,0.109,0.862,0.109c0.648,0,1.136-0.131,1.459-0.394c0.326-0.262,0.488-0.633,0.488-1.108
			c0-0.426-0.166-0.752-0.5-0.98c-0.332-0.229-0.82-0.344-1.465-0.344h-0.693v-0.422h0.703c0.533,0,0.955-0.125,1.269-0.379
			c0.311-0.254,0.467-0.599,0.467-1.031c0-0.356-0.127-0.643-0.379-0.859c-0.254-0.215-0.586-0.321-0.996-0.321
			c-0.318,0-0.611,0.045-0.875,0.135c-0.264,0.088-0.56,0.242-0.887,0.459l-0.216-0.295c0.248-0.207,0.55-0.373,0.9-0.494
			s0.707-0.184,1.068-0.184c0.592,0,1.049,0.141,1.371,0.42C211.4,478.019,211.56,478.413,211.56,478.923z"/>
		<path fill="#4E4542" d="M216.697,478.923c0,0.398-0.125,0.732-0.375,1.006c-0.25,0.271-0.586,0.447-1.008,0.523v0.024
			c0.517,0.064,0.908,0.229,1.179,0.492c0.27,0.264,0.403,0.619,0.403,1.064c0,0.6-0.205,1.063-0.612,1.395
			c-0.408,0.331-0.998,0.494-1.767,0.494c-0.651,0-1.223-0.121-1.709-0.365v-0.434c0.246,0.129,0.521,0.229,0.828,0.303
			c0.307,0.074,0.594,0.109,0.863,0.109c0.647,0,1.135-0.131,1.459-0.394c0.326-0.262,0.487-0.633,0.487-1.108
			c0-0.426-0.166-0.752-0.497-0.98c-0.335-0.229-0.822-0.344-1.468-0.344h-0.692v-0.422h0.703c0.532,0,0.954-0.125,1.268-0.379
			s0.469-0.599,0.469-1.031c0-0.356-0.127-0.643-0.381-0.859c-0.254-0.215-0.586-0.321-0.996-0.321
			c-0.317,0-0.608,0.045-0.873,0.135c-0.264,0.088-0.561,0.242-0.889,0.459l-0.215-0.295c0.248-0.207,0.549-0.373,0.899-0.494
			c0.352-0.121,0.707-0.184,1.068-0.184c0.592,0,1.049,0.141,1.371,0.42C216.536,478.019,216.697,478.413,216.697,478.923z"/>
		<path fill="#4E4542" d="M221.835,478.923c0,0.398-0.127,0.732-0.377,1.006c-0.25,0.271-0.586,0.447-1.008,0.523v0.024
			c0.516,0.064,0.907,0.229,1.178,0.492c0.27,0.264,0.404,0.619,0.404,1.064c0,0.6-0.205,1.063-0.613,1.395
			s-0.996,0.494-1.765,0.494c-0.653,0-1.225-0.121-1.711-0.365v-0.434c0.246,0.129,0.523,0.229,0.828,0.303
			c0.308,0.074,0.597,0.109,0.865,0.109c0.646,0,1.133-0.131,1.459-0.394c0.324-0.262,0.486-0.633,0.486-1.108
			c0-0.426-0.166-0.752-0.498-0.98c-0.332-0.228-0.82-0.344-1.465-0.344h-0.695v-0.422h0.703c0.533,0,0.955-0.125,1.268-0.379
			c0.313-0.254,0.469-0.599,0.469-1.031c0-0.356-0.127-0.643-0.381-0.859c-0.254-0.215-0.584-0.321-0.994-0.321
			c-0.319,0-0.61,0.045-0.875,0.135c-0.264,0.088-0.561,0.242-0.889,0.459l-0.215-0.295c0.25-0.207,0.549-0.373,0.9-0.494
			c0.351-0.121,0.709-0.184,1.067-0.184c0.592,0,1.049,0.141,1.371,0.42C221.673,478.019,221.835,478.413,221.835,478.923z"/>
		<path fill="#4E4542" d="M226.972,478.923c0,0.398-0.125,0.732-0.375,1.006c-0.252,0.271-0.588,0.447-1.01,0.523v0.024
			c0.516,0.064,0.908,0.229,1.178,0.492c0.271,0.264,0.404,0.619,0.404,1.064c0,0.6-0.203,1.063-0.613,1.395
			c-0.408,0.33-0.996,0.494-1.764,0.494c-0.654,0-1.224-0.121-1.709-0.365v-0.434c0.246,0.129,0.521,0.229,0.828,0.303
			c0.305,0.074,0.594,0.109,0.862,0.109c0.646,0,1.134-0.131,1.459-0.394c0.324-0.262,0.488-0.633,0.488-1.108
			c0-0.426-0.168-0.752-0.5-0.98c-0.332-0.228-0.82-0.344-1.465-0.344h-0.695v-0.422h0.703c0.533,0,0.957-0.125,1.271-0.379
			c0.311-0.254,0.467-0.599,0.467-1.031c0-0.356-0.127-0.643-0.379-0.859c-0.254-0.215-0.586-0.321-0.996-0.321
			c-0.32,0-0.611,0.045-0.875,0.135c-0.265,0.088-0.56,0.242-0.888,0.459l-0.217-0.295c0.25-0.207,0.552-0.373,0.902-0.494
			s0.707-0.184,1.066-0.184c0.592,0,1.049,0.141,1.37,0.42C226.81,478.019,226.972,478.413,226.972,478.923z"/>
	</g>
	<g enable-background="new    ">
		<path fill="#4E4542" d="M233.909,478.923c0,0.398-0.127,0.732-0.377,1.006c-0.25,0.271-0.587,0.447-1.009,0.523v0.024
			c0.517,0.064,0.908,0.229,1.179,0.492c0.27,0.264,0.403,0.619,0.403,1.064c0,0.6-0.205,1.063-0.612,1.395
			c-0.408,0.331-0.996,0.494-1.765,0.494c-0.653,0-1.225-0.121-1.711-0.365v-0.434c0.246,0.129,0.523,0.229,0.828,0.303
			c0.307,0.074,0.596,0.109,0.865,0.109c0.646,0,1.133-0.131,1.459-0.394c0.324-0.262,0.485-0.633,0.485-1.108
			c0-0.426-0.166-0.752-0.497-0.98c-0.332-0.228-0.82-0.344-1.466-0.344h-0.694v-0.422h0.703c0.532,0,0.954-0.125,1.268-0.379
			s0.469-0.599,0.469-1.031c0-0.356-0.127-0.643-0.381-0.859c-0.254-0.215-0.584-0.321-0.994-0.321c-0.319,0-0.61,0.045-0.875,0.135
			c-0.264,0.088-0.561,0.242-0.889,0.459l-0.215-0.295c0.25-0.207,0.549-0.373,0.899-0.494c0.352-0.121,0.709-0.184,1.068-0.184
			c0.592,0,1.049,0.141,1.371,0.42C233.747,478.019,233.909,478.413,233.909,478.923z"/>
	</g>
</g>
<g>
	<g>
		<rect x="55.548" y="137.439" fill="#00468C" width="85.957" height="103.617"/>
	</g>
	<g>
		<path fill="#FFFFFF" d="M141.755,241.306H55.298V137.189h86.457V241.306z M55.798,240.806h85.457V137.689H55.798V240.806z"/>
	</g>
	<g>
		<polygon fill="#FFFFFF" points="87.139,147.367 64.413,170.159 79.563,185.348 64.139,200.776 86.871,223.583 94.416,215.989 
			79.235,200.761 94.71,185.348 79.581,170.159 94.71,154.974 		"/>
	</g>
	<g>
		<path fill="#00468C" d="M86.871,223.784l-0.101-0.102l-22.832-22.906l0.101-0.101l15.323-15.327l-15.148-15.189l0.1-0.101
			l22.826-22.892l0.101,0.101l7.671,7.707l-15.129,15.185l15.129,15.189l-0.102,0.1l-15.375,15.313l15.182,15.228L86.871,223.784z
			 M64.339,200.776l22.533,22.605l7.345-7.393L79.034,200.76l0.101-0.1l15.375-15.313l-15.128-15.189l15.129-15.185l-7.372-7.406
			l-22.526,22.591l15.15,15.189L64.339,200.776z"/>
	</g>
	<g>
		<polygon fill="#FFFFFF" points="110.009,185.616 94.865,200.825 110.041,215.965 102.426,223.53 109.994,231.091 132.763,208.33 
					"/>
	</g>
	<g>
		<path fill="#00468C" d="M109.994,231.292l-7.77-7.762l7.615-7.564l-15.176-15.14l0.1-0.101l15.244-15.309l0.101,0.1l22.854,22.813
			L109.994,231.292z M102.627,223.531l7.368,7.36l22.567-22.562l-22.553-22.513l-14.945,15.008l15.178,15.141L102.627,223.531z"/>
	</g>
	<g>
		<polygon fill="#FFFFFF" points="124.916,155.745 109.851,170.881 124.916,185.967 		"/>
	</g>
	<g>
		<path fill="#00468C" d="M125.058,186.309l-15.407-15.428l0.101-0.1l15.307-15.379V186.309z M110.051,170.881l14.724,14.744
			v-29.538L110.051,170.881z"/>
	</g>
</g>
<g>
	<g>
		<rect x="57.585" y="275.439" fill="#FFFFFF" width="85.956" height="103.617"/>
	</g>
	<g>
		<path fill="#00468C" d="M144.04,379.557H57.085V274.939h86.956L144.04,379.557L144.04,379.557z M58.085,378.557h84.956V275.939
			H58.085V378.557z"/>
	</g>
	<g>
		<polygon fill="#FFFFFF" points="89.175,285.367 66.448,308.159 81.597,323.348 66.175,338.776 88.906,361.582 96.452,353.988 
			81.27,338.761 96.745,323.348 81.615,308.159 96.745,292.974 		"/>
	</g>
	<g>
		<path fill="#00468C" d="M88.907,362.646l-23.792-23.873l15.422-15.426l-15.148-15.189l23.786-23.854l8.628,8.67l-15.13,15.184
			l15.132,15.191l-15.474,15.413l15.179,15.223L88.907,362.646z M67.234,338.776l21.671,21.744l6.489-6.531L80.209,338.76
			l15.475-15.413l-15.128-15.188l15.13-15.185l-6.512-6.544l-21.667,21.729l15.15,15.189L67.234,338.776z"/>
	</g>
	<g>
		<polygon fill="#FFFFFF" points="112.046,323.616 96.899,338.825 112.075,353.965 104.462,361.529 112.029,369.092 134.8,346.33 		
			"/>
	</g>
	<g>
		<path fill="#00468C" d="M112.029,370.152l-8.629-8.623l7.613-7.564l-15.174-15.138l16.205-16.271l23.815,23.773L112.029,370.152z
			 M105.525,361.531l6.504,6.5l21.709-21.701l-21.688-21.652L97.96,338.823l15.181,15.144L105.525,361.531z"/>
	</g>
	<g>
		<polygon fill="#FFFFFF" points="126.95,293.745 111.886,308.881 126.95,323.967 		"/>
	</g>
	<g>
		<path fill="#00468C" d="M127.7,325.78l-16.873-16.897l16.873-16.954V325.78z M112.945,308.88l13.257,13.274v-26.593
			L112.945,308.88z"/>
	</g>
</g>
<g>
	<g>
		<rect x="57.584" y="413.439" fill="#333333" width="85.957" height="103.616"/>
	</g>
	<g>
		<path fill="#FFFFFF" d="M143.791,517.306H57.334V413.189h86.457V517.306z M57.834,516.806h85.457V413.689H57.834V516.806z"/>
	</g>
	<g>
		<polygon fill="#FFFFFF" points="89.174,423.367 66.449,446.159 81.596,461.349 66.174,476.776 88.906,499.583 96.451,491.989 
			81.27,476.761 96.746,461.349 81.617,446.159 96.746,430.974 		"/>
	</g>
	<g>
		<path fill="#00468C" d="M88.906,499.784l-0.1-0.103l-22.834-22.905l0.103-0.103l15.321-15.326l-15.147-15.188l0.1-0.103
			l22.826-22.891l7.771,7.807l-0.1,0.102l-15.029,15.085l15.129,15.188l-0.1,0.101L81.47,476.762l15.18,15.228l-0.098,0.1
			L88.906,499.784z M66.373,476.776l22.532,22.604l7.347-7.393L81.07,476.759l0.101-0.1l15.375-15.313l-15.129-15.188l15.131-15.187
			l-7.373-7.405l-22.525,22.592l15.148,15.188l-0.103,0.101L66.373,476.776z"/>
	</g>
	<g>
		<polygon fill="#FFFFFF" points="112.045,461.616 96.899,476.825 112.076,491.966 104.463,499.53 112.031,507.091 134.799,484.329 
					"/>
	</g>
	<g>
		<path fill="#00468C" d="M112.031,507.292l-0.1-0.1l-7.67-7.662l7.615-7.564l-15.179-15.141l15.347-15.408l0.1,0.1l22.854,22.813
			l-0.101,0.102L112.031,507.292z M104.662,499.53l7.368,7.36l22.566-22.563l-22.553-22.512L97.1,476.825l15.178,15.141
			l-0.102,0.101L104.662,499.53z"/>
	</g>
	<g>
		<polygon fill="#FFFFFF" points="126.951,431.745 111.885,446.882 126.951,461.968 		"/>
	</g>
	<g>
		<path fill="#00468C" d="M127.094,462.31l-0.242-0.241l-15.166-15.187l0.101-0.1l15.309-15.38L127.094,462.31L127.094,462.31z
			 M112.086,446.882l14.725,14.744v-29.538L112.086,446.882z"/>
	</g>
</g>
<g enable-background="new    ">
	<path fill="#325A99" d="M52.456,51.53c0,2.239-0.607,3.951-1.823,5.136c-1.215,1.185-2.964,1.776-5.246,1.776H41.63V44.879h4.156
		c2.108,0,3.748,0.585,4.917,1.753C51.872,47.802,52.456,49.435,52.456,51.53z M50.786,51.587c0-1.77-0.444-3.103-1.331-3.999
		c-0.889-0.896-2.207-1.345-3.957-1.345h-2.292v10.836h1.92c1.88,0,3.293-0.463,4.24-1.388
		C50.313,54.768,50.786,53.398,50.786,51.587z"/>
	<path fill="#325A99" d="M59.544,58.628c-1.503,0-2.689-0.458-3.559-1.373c-0.868-0.915-1.303-2.187-1.303-3.813
		c0-1.64,0.404-2.941,1.21-3.906c0.809-0.965,1.892-1.447,3.252-1.447c1.274,0,2.282,0.419,3.024,1.257
		c0.742,0.839,1.113,1.944,1.113,3.317v0.974h-7.005c0.031,1.193,0.333,2.1,0.905,2.718c0.572,0.619,1.377,0.928,2.417,0.928
		c1.095,0,2.177-0.229,3.247-0.686v1.373c-0.544,0.234-1.059,0.403-1.544,0.505C60.817,58.577,60.231,58.628,59.544,58.628z
		 M59.127,49.378c-0.816,0-1.467,0.267-1.953,0.799c-0.485,0.531-0.771,1.268-0.858,2.207h5.316c0-0.971-0.217-1.714-0.649-2.23
		C60.549,49.637,59.93,49.378,59.127,49.378z"/>
	<path fill="#325A99" d="M72.468,55.669c0,0.945-0.353,1.676-1.058,2.189s-1.695,0.77-2.97,0.77c-1.349,0-2.399-0.213-3.153-0.641
		V56.56c0.487,0.247,1.013,0.441,1.572,0.584c0.561,0.143,1.1,0.213,1.619,0.213c0.805,0,1.422-0.128,1.855-0.385
		c0.433-0.256,0.648-0.647,0.648-1.174c0-0.396-0.171-0.733-0.515-1.016c-0.343-0.281-1.013-0.613-2.008-0.997
		c-0.946-0.353-1.619-0.66-2.019-0.923c-0.397-0.263-0.694-0.562-0.891-0.896c-0.194-0.334-0.292-0.733-0.292-1.196
		c0-0.829,0.337-1.483,1.011-1.963c0.674-0.479,1.6-0.719,2.774-0.719c1.095,0,2.165,0.223,3.21,0.668l-0.547,1.252
		c-1.021-0.42-1.945-0.631-2.774-0.631c-0.729,0-1.28,0.115-1.65,0.344c-0.371,0.229-0.558,0.544-0.558,0.946
		c0,0.272,0.069,0.504,0.209,0.696c0.14,0.191,0.363,0.374,0.672,0.547c0.31,0.173,0.903,0.424,1.781,0.752
		c1.206,0.438,2.021,0.881,2.445,1.326C72.256,54.435,72.468,54.994,72.468,55.669z"/>
</g>
<g enable-background="new    ">
	<path fill="#325A99" d="M77.066,45.519c0-0.352,0.086-0.61,0.261-0.774c0.173-0.163,0.39-0.245,0.648-0.245
		c0.247,0,0.46,0.083,0.641,0.25c0.179,0.167,0.269,0.424,0.269,0.77c0,0.347-0.09,0.605-0.269,0.775
		c-0.181,0.17-0.394,0.255-0.641,0.255c-0.26,0-0.477-0.085-0.648-0.255C77.152,46.124,77.066,45.865,77.066,45.519z M78.736,58.442
		h-1.54V48.274h1.54V58.442z"/>
	<path fill="#325A99" d="M90.323,48.274v0.975l-1.883,0.223c0.173,0.216,0.328,0.499,0.464,0.849
		c0.137,0.35,0.204,0.743,0.204,1.183c0,0.996-0.34,1.791-1.021,2.385c-0.682,0.594-1.614,0.891-2.802,0.891
		c-0.304,0-0.589-0.025-0.854-0.074c-0.656,0.346-0.983,0.782-0.983,1.308c0,0.278,0.114,0.484,0.344,0.617
		c0.229,0.133,0.622,0.199,1.178,0.199h1.8c1.102,0,1.947,0.231,2.537,0.696c0.591,0.463,0.886,1.138,0.886,2.021
		c0,1.126-0.451,1.984-1.354,2.575c-0.903,0.59-2.221,0.886-3.952,0.886c-1.33,0-2.355-0.247-3.076-0.742
		c-0.72-0.495-1.081-1.193-1.081-2.097c0-0.618,0.198-1.153,0.595-1.604c0.396-0.452,0.951-0.758,1.67-0.919
		c-0.261-0.117-0.479-0.3-0.654-0.548c-0.177-0.247-0.265-0.534-0.265-0.862c0-0.371,0.099-0.696,0.297-0.974
		c0.197-0.279,0.51-0.548,0.937-0.808c-0.525-0.217-0.954-0.585-1.285-1.104c-0.331-0.52-0.497-1.113-0.497-1.781
		c0-1.113,0.334-1.971,1.002-2.574s1.614-0.904,2.84-0.904c0.531,0,1.011,0.062,1.438,0.186h3.518V48.274z M82.215,60.149
		c0,0.551,0.231,0.968,0.696,1.252c0.464,0.285,1.128,0.428,1.994,0.428c1.292,0,2.25-0.194,2.872-0.58
		c0.621-0.387,0.933-0.911,0.933-1.572c0-0.551-0.17-0.933-0.51-1.146c-0.341-0.213-0.98-0.32-1.921-0.32h-1.846
		c-0.699,0-1.243,0.168-1.633,0.502S82.215,59.524,82.215,60.149z M83.05,51.53c0,0.712,0.201,1.25,0.603,1.615
		c0.402,0.364,0.961,0.547,1.68,0.547c1.503,0,2.254-0.729,2.254-2.189c0-1.527-0.761-2.291-2.282-2.291
		c-0.724,0-1.28,0.194-1.67,0.584C83.244,50.186,83.05,50.764,83.05,51.53z"/>
	<path fill="#325A99" d="M99.368,58.442v-6.578c0-0.828-0.189-1.447-0.566-1.855c-0.377-0.408-0.968-0.611-1.772-0.611
		c-1.063,0-1.843,0.287-2.338,0.862c-0.495,0.575-0.741,1.524-0.741,2.849v5.334h-1.54V48.274h1.252l0.25,1.392h0.073
		c0.315-0.501,0.758-0.889,1.327-1.164s1.203-0.413,1.902-0.413c1.225,0,2.146,0.296,2.765,0.886
		c0.618,0.591,0.929,1.536,0.929,2.835v6.633L99.368,58.442L99.368,58.442z"/>
	<path fill="#325A99" d="M108.423,54.927c0-0.805,0.215-1.516,0.645-2.135c0.431-0.618,1.201-1.242,2.314-1.873
		c-0.526-0.588-0.883-1.033-1.071-1.336c-0.188-0.304-0.339-0.619-0.45-0.947c-0.11-0.327-0.167-0.668-0.167-1.02
		c0-0.928,0.304-1.652,0.909-2.172c0.606-0.52,1.45-0.779,2.533-0.779c1.002,0,1.791,0.259,2.366,0.775s0.863,1.235,0.863,2.156
		c0,0.662-0.211,1.273-0.632,1.833s-1.116,1.127-2.087,1.702l3.776,3.627c0.346-0.383,0.623-0.833,0.831-1.35
		c0.207-0.516,0.381-1.08,0.523-1.693h1.56c-0.421,1.77-1.055,3.111-1.902,4.027l2.774,2.699h-2.125l-1.716-1.651
		c-0.73,0.655-1.473,1.126-2.228,1.41c-0.755,0.284-1.596,0.427-2.522,0.427c-1.33,0-2.361-0.328-3.095-0.983
		S108.423,56.083,108.423,54.927z M112.654,57.245c1.49,0,2.729-0.476,3.712-1.428l-4.055-3.934
		c-0.687,0.42-1.172,0.769-1.457,1.043c-0.285,0.275-0.495,0.57-0.631,0.887c-0.136,0.314-0.204,0.674-0.204,1.076
		c0,0.723,0.24,1.297,0.719,1.721C111.217,57.034,111.856,57.245,112.654,57.245z M111.216,47.579c0,0.426,0.111,0.833,0.334,1.22
		c0.223,0.387,0.603,0.852,1.141,1.396c0.798-0.463,1.354-0.892,1.666-1.284c0.313-0.393,0.469-0.846,0.469-1.359
		c0-0.477-0.159-0.864-0.479-1.164c-0.318-0.3-0.744-0.45-1.275-0.45c-0.551,0-0.996,0.148-1.341,0.445
		C111.387,46.679,111.216,47.077,111.216,47.579z"/>
	<path fill="#325A99" d="M133.852,46.095c-1.491,0-2.667,0.496-3.53,1.488c-0.862,0.993-1.294,2.352-1.294,4.078
		c0,1.774,0.416,3.146,1.248,4.114c0.832,0.968,2.019,1.452,3.559,1.452c0.945,0,2.024-0.171,3.237-0.511v1.382
		c-0.939,0.354-2.1,0.529-3.479,0.529c-1.998,0-3.54-0.606-4.625-1.818c-1.086-1.212-1.628-2.935-1.628-5.168
		c0-1.397,0.261-2.622,0.784-3.674c0.522-1.051,1.276-1.861,2.264-2.43c0.987-0.569,2.148-0.854,3.484-0.854
		c1.422,0,2.666,0.26,3.729,0.779l-0.668,1.354C135.906,46.335,134.879,46.095,133.852,46.095z"/>
	<path fill="#325A99" d="M148.575,53.349c0,1.658-0.417,2.952-1.253,3.883c-0.835,0.932-1.988,1.396-3.46,1.396
		c-0.908,0-1.716-0.213-2.421-0.641c-0.705-0.426-1.25-1.039-1.633-1.836c-0.384-0.799-0.575-1.732-0.575-2.803
		c0-1.657,0.414-2.948,1.243-3.873c0.829-0.924,1.979-1.387,3.451-1.387c1.422,0,2.553,0.473,3.391,1.42
		C148.156,50.454,148.575,51.735,148.575,53.349z M140.829,53.349c0,1.299,0.26,2.289,0.778,2.969
		c0.521,0.681,1.283,1.021,2.292,1.021s1.773-0.339,2.296-1.017c0.523-0.677,0.784-1.668,0.784-2.974
		c0-1.292-0.261-2.273-0.784-2.945c-0.521-0.671-1.294-1.006-2.313-1.006c-1.008,0-1.77,0.33-2.282,0.992
		C141.085,51.052,140.829,52.038,140.829,53.349z"/>
	<path fill="#325A99" d="M152.815,58.442h-1.54V44.007h1.54V58.442z"/>
	<path fill="#325A99" d="M164.857,53.349c0,1.658-0.417,2.952-1.252,3.883c-0.835,0.932-1.988,1.396-3.46,1.396
		c-0.909,0-1.716-0.213-2.421-0.641c-0.705-0.426-1.25-1.039-1.633-1.836c-0.384-0.799-0.575-1.732-0.575-2.803
		c0-1.657,0.414-2.948,1.243-3.873c0.829-0.924,1.979-1.387,3.451-1.387c1.422,0,2.553,0.473,3.391,1.42
		C164.438,50.454,164.857,51.735,164.857,53.349z M157.111,53.349c0,1.299,0.261,2.289,0.779,2.969
		c0.521,0.681,1.283,1.021,2.292,1.021c1.008,0,1.773-0.339,2.296-1.017c0.523-0.677,0.784-1.668,0.784-2.974
		c0-1.292-0.261-2.273-0.784-2.945c-0.521-0.671-1.294-1.006-2.313-1.006c-1.008,0-1.77,0.33-2.282,0.992
		C157.367,51.052,157.111,52.038,157.111,53.349z"/>
</g>
<g enable-background="new    ">
	<path fill="#325A99" d="M172.462,48.089c0.451,0,0.855,0.037,1.215,0.111l-0.213,1.429c-0.421-0.093-0.792-0.14-1.113-0.14
		c-0.823,0-1.525,0.334-2.109,1.002c-0.586,0.668-0.878,1.5-0.878,2.496v5.455h-1.539V48.274h1.271l0.176,1.883h0.074
		c0.377-0.661,0.832-1.172,1.364-1.53C171.24,48.269,171.824,48.089,172.462,48.089z"/>
</g>
<g enable-background="new    ">
	<path fill="#325A99" d="M59.4,604.522c0,1.194-0.433,2.125-1.299,2.793s-2.041,1.002-3.524,1.002c-1.608,0-2.846-0.207-3.711-0.621
		v-1.521c0.557,0.234,1.162,0.42,1.817,0.558c0.655,0.137,1.305,0.202,1.948,0.202c1.051,0,1.843-0.198,2.375-0.598
		c0.532-0.397,0.798-0.953,0.798-1.666c0-0.469-0.094-0.854-0.283-1.154c-0.188-0.299-0.504-0.575-0.945-0.83
		c-0.442-0.254-1.115-0.541-2.019-0.862c-1.262-0.451-2.163-0.986-2.704-1.605c-0.542-0.616-0.812-1.424-0.812-2.42
		c0-1.045,0.393-1.877,1.178-2.496c0.785-0.618,1.824-0.928,3.117-0.928c1.348,0,2.588,0.248,3.72,0.742l-0.492,1.373
		c-1.12-0.471-2.208-0.705-3.266-0.705c-0.835,0-1.488,0.18-1.958,0.537c-0.47,0.358-0.705,0.856-0.705,1.494
		c0,0.471,0.086,0.854,0.26,1.155c0.173,0.3,0.465,0.574,0.876,0.824c0.412,0.252,1.041,0.527,1.889,0.83
		c1.422,0.508,2.4,1.053,2.936,1.633C59.133,602.841,59.4,603.595,59.4,604.522z"/>
	<path fill="#325A99" d="M61.812,595.208c0-0.352,0.086-0.609,0.26-0.773s0.391-0.245,0.649-0.245c0.247,0,0.46,0.084,0.64,0.25
		c0.18,0.168,0.27,0.424,0.27,0.77c0,0.348-0.09,0.605-0.27,0.775s-0.393,0.256-0.64,0.256c-0.26,0-0.477-0.086-0.649-0.256
		C61.899,595.813,61.812,595.556,61.812,595.208z M63.482,608.132h-1.54v-10.168h1.54V608.132z"/>
	<path fill="#325A99" d="M73.251,608.132h-7.375v-1.049l5.548-7.922h-5.205v-1.197h6.893v1.197l-5.474,7.772h5.613V608.132z"/>
</g>
<g enable-background="new    ">
	<path fill="#325A99" d="M80.586,608.317c-1.503,0-2.689-0.457-3.559-1.373c-0.868-0.914-1.303-2.187-1.303-3.813
		c0-1.639,0.404-2.94,1.21-3.906c0.809-0.965,1.892-1.446,3.252-1.446c1.274,0,2.282,0.42,3.024,1.258s1.113,1.943,1.113,3.315
		v0.976H77.32c0.031,1.192,0.333,2.1,0.905,2.717c0.572,0.619,1.377,0.928,2.417,0.928c1.095,0,2.177-0.229,3.247-0.686v1.373
		c-0.544,0.233-1.059,0.403-1.544,0.506C81.858,608.267,81.272,608.317,80.586,608.317z M80.168,599.067
		c-0.816,0-1.467,0.268-1.953,0.799c-0.485,0.531-0.771,1.268-0.858,2.207h5.316c0-0.972-0.217-1.713-0.649-2.23
		C81.591,599.327,80.972,599.067,80.168,599.067z"/>
</g>
<g>
	<rect x="1.742" y="62.938" fill="#00468C" width="297.638" height="1"/>
</g>
<g>
	<path fill="#00468C" d="M300.363,65.458c1.074,0,1.945-0.872,1.945-1.947c0-1.075-0.871-1.947-1.945-1.947
		s-1.946,0.872-1.946,1.947C298.416,64.586,299.287,65.458,300.363,65.458"/>
</g>
<g>
	<path fill="#00468C" d="M297.613,614.364c1.074,0,1.945-0.872,1.945-1.947s-0.871-1.947-1.945-1.947
		c-1.073,0-1.946,0.872-1.946,1.947S296.538,614.364,297.613,614.364"/>
</g>
<g>
	<rect x="-1.15" y="611.917" fill="#00468C" width="297.637" height="1"/>
</g>
<g>
	<g enable-background="new    ">
		<path fill="#4E4542" d="M201.81,305.509c0,0.27-0.045,0.521-0.117,0.746c-0.081,0.234-0.188,0.441-0.314,0.613
			c-0.145,0.18-0.307,0.324-0.486,0.432c-0.188,0.127-0.387,0.207-0.594,0.262l1.639,2.754h-0.396l-1.611-2.691h-2.467v2.691h-0.36
			v-6.932h2.575c0.288,0,0.558,0.055,0.819,0.145c0.252,0.098,0.485,0.234,0.684,0.414c0.189,0.189,0.342,0.414,0.459,0.674
			C201.747,304.888,201.81,305.185,201.81,305.509z M199.677,307.265c0.234,0,0.468-0.037,0.684-0.117
			c0.217-0.072,0.405-0.18,0.567-0.334c0.162-0.145,0.288-0.332,0.387-0.559c0.09-0.215,0.136-0.459,0.136-0.746
			c0-0.279-0.046-0.531-0.136-0.756c-0.099-0.217-0.225-0.396-0.378-0.551c-0.162-0.143-0.351-0.26-0.558-0.342
			c-0.216-0.072-0.45-0.117-0.685-0.117h-2.232v3.521L199.677,307.265L199.677,307.265z"/>
	</g>
	<g enable-background="new    ">
		<path fill="#4E4542" d="M205.329,303.339c0.288,0,0.558,0.055,0.818,0.162c0.252,0.107,0.486,0.262,0.686,0.441
			c0.188,0.197,0.342,0.422,0.459,0.674c0.107,0.271,0.171,0.551,0.171,0.855c0,0.162-0.027,0.334-0.063,0.496
			c-0.045,0.17-0.107,0.332-0.18,0.494c-0.081,0.162-0.18,0.316-0.288,0.459c-0.117,0.145-0.243,0.271-0.387,0.379
			c-0.18,0.135-0.369,0.27-0.576,0.396c-0.216,0.145-0.423,0.279-0.639,0.414c-0.217,0.145-0.433,0.297-0.63,0.441
			c-0.207,0.152-0.388,0.307-0.54,0.449c-0.162,0.162-0.288,0.316-0.378,0.469c-0.1,0.162-0.145,0.332-0.145,0.494h3.952v0.352
			h-4.447c0-0.396,0.108-0.756,0.324-1.07c0.216-0.307,0.486-0.586,0.81-0.848c0.315-0.252,0.657-0.484,1.036-0.711
			c0.36-0.215,0.702-0.441,1.018-0.674c0.216-0.162,0.387-0.389,0.53-0.676c0.136-0.27,0.207-0.559,0.207-0.865
			c0-0.231-0.045-0.467-0.135-0.684c-0.09-0.207-0.216-0.387-0.369-0.549c-0.162-0.152-0.351-0.279-0.558-0.379
			c-0.216-0.09-0.441-0.135-0.675-0.135c-0.208,0-0.415,0.037-0.612,0.107c-0.207,0.072-0.387,0.182-0.549,0.307
			c-0.171,0.135-0.307,0.297-0.405,0.478c-0.107,0.188-0.153,0.396-0.153,0.623h-0.387c0-0.271,0.054-0.523,0.18-0.758
			c0.117-0.232,0.279-0.432,0.478-0.602c0.198-0.162,0.423-0.299,0.675-0.396C204.806,303.394,205.058,303.339,205.329,303.339z"/>
	</g>
	<g enable-background="new    ">
		<path fill="#4E4542" d="M212.853,303.384v0.359h-3.105l-0.315,2.791c0.09-0.098,0.198-0.189,0.333-0.279
			c0.126-0.08,0.261-0.152,0.405-0.215c0.135-0.055,0.279-0.1,0.423-0.135c0.135-0.027,0.261-0.045,0.387-0.045
			c0.307,0,0.604,0.063,0.874,0.18c0.271,0.125,0.504,0.287,0.711,0.486c0.198,0.215,0.352,0.449,0.478,0.719
			c0.107,0.271,0.171,0.559,0.171,0.865s-0.063,0.604-0.171,0.873c-0.126,0.279-0.279,0.521-0.478,0.729
			c-0.207,0.217-0.44,0.379-0.711,0.506c-0.271,0.125-0.566,0.188-0.874,0.188c-0.27,0-0.513-0.045-0.747-0.135
			c-0.233-0.08-0.449-0.197-0.63-0.359c-0.198-0.154-0.359-0.334-0.485-0.549c-0.145-0.199-0.243-0.424-0.298-0.676h0.388
			c0.045,0.207,0.126,0.387,0.243,0.549c0.107,0.172,0.233,0.314,0.396,0.432c0.144,0.127,0.324,0.217,0.522,0.279
			c0.188,0.072,0.396,0.1,0.611,0.1c0.252,0,0.486-0.055,0.721-0.162c0.225-0.1,0.423-0.242,0.603-0.424
			c0.162-0.17,0.297-0.377,0.405-0.611c0.09-0.234,0.144-0.477,0.144-0.738c0-0.252-0.054-0.504-0.144-0.738
			c-0.108-0.225-0.243-0.424-0.405-0.604c-0.171-0.162-0.369-0.297-0.594-0.404c-0.234-0.09-0.479-0.146-0.729-0.146
			c-0.278,0-0.531,0.063-0.756,0.172c-0.234,0.115-0.44,0.27-0.612,0.459h-0.575l0.396-3.467L212.853,303.384L212.853,303.384z"/>
		<path fill="#4E4542" d="M218.181,303.384v0.359h-3.105l-0.315,2.791c0.09-0.098,0.198-0.189,0.333-0.279
			c0.126-0.08,0.261-0.152,0.405-0.215c0.135-0.055,0.278-0.1,0.423-0.135c0.135-0.027,0.261-0.045,0.387-0.045
			c0.306,0,0.604,0.063,0.874,0.18c0.271,0.125,0.504,0.287,0.711,0.486c0.198,0.215,0.352,0.449,0.478,0.719
			c0.107,0.271,0.171,0.559,0.171,0.865s-0.063,0.604-0.171,0.873c-0.126,0.279-0.279,0.521-0.478,0.729
			c-0.207,0.217-0.44,0.379-0.711,0.506c-0.271,0.125-0.567,0.188-0.874,0.188c-0.27,0-0.513-0.045-0.747-0.135
			c-0.233-0.08-0.45-0.197-0.63-0.359c-0.198-0.154-0.36-0.334-0.486-0.549c-0.144-0.199-0.242-0.424-0.297-0.676h0.388
			c0.045,0.207,0.126,0.387,0.242,0.549c0.108,0.172,0.234,0.314,0.396,0.432c0.144,0.127,0.324,0.217,0.521,0.279
			c0.189,0.072,0.396,0.1,0.612,0.1c0.252,0,0.486-0.055,0.72-0.162c0.226-0.1,0.424-0.242,0.604-0.424
			c0.162-0.17,0.297-0.377,0.405-0.611c0.09-0.234,0.144-0.477,0.144-0.738c0-0.252-0.054-0.504-0.144-0.738
			c-0.108-0.225-0.243-0.424-0.405-0.604c-0.171-0.162-0.369-0.297-0.594-0.404c-0.234-0.09-0.479-0.146-0.729-0.146
			c-0.279,0-0.531,0.063-0.756,0.172c-0.234,0.115-0.441,0.27-0.612,0.459h-0.576l0.396-3.467L218.181,303.384L218.181,303.384z"/>
		<path fill="#4E4542" d="M223.328,311.351h-0.36v-7.967h0.36V311.351z"/>
		<path fill="#4E4542" d="M233.572,309.515c-0.144,0.135-0.306,0.252-0.494,0.359c-0.198,0.117-0.405,0.217-0.621,0.289
			c-0.226,0.08-0.45,0.145-0.676,0.18c-0.233,0.045-0.449,0.063-0.647,0.063c-0.486,0-0.927-0.098-1.323-0.297
			c-0.396-0.189-0.738-0.449-1.008-0.783c-0.288-0.324-0.504-0.693-0.648-1.125c-0.161-0.424-0.233-0.863-0.233-1.332
			c0-0.459,0.072-0.9,0.216-1.332c0.144-0.424,0.351-0.803,0.63-1.127c0.271-0.322,0.604-0.584,1.008-0.783
			c0.396-0.188,0.847-0.287,1.359-0.287c0.396,0,0.774,0.08,1.144,0.225c0.36,0.162,0.702,0.379,1.044,0.658l-0.252,0.27
			c-0.252-0.234-0.549-0.432-0.892-0.576c-0.342-0.145-0.693-0.217-1.044-0.217c-0.414,0-0.783,0.082-1.125,0.244
			c-0.351,0.162-0.657,0.387-0.909,0.666c-0.261,0.287-0.459,0.631-0.604,1.008c-0.145,0.387-0.217,0.801-0.217,1.252
			c0,0.449,0.063,0.873,0.207,1.252c0.136,0.395,0.333,0.729,0.585,1.008c0.243,0.287,0.541,0.514,0.9,0.674
			c0.342,0.162,0.729,0.244,1.161,0.244c0.162,0,0.333-0.01,0.531-0.045c0.18-0.027,0.369-0.072,0.558-0.135
			c0.18-0.055,0.36-0.127,0.541-0.217c0.162-0.08,0.315-0.17,0.45-0.279v-2.34h-1.629v-0.361h1.99v2.844H233.572z"/>
	</g>
	<g enable-background="new    ">
		<path fill="#4E4542" d="M239.033,303.339c0.287,0,0.558,0.055,0.818,0.162c0.252,0.107,0.486,0.262,0.685,0.441
			c0.188,0.197,0.342,0.422,0.459,0.674c0.108,0.271,0.172,0.551,0.172,0.855c0,0.162-0.027,0.334-0.063,0.496
			c-0.045,0.17-0.108,0.332-0.182,0.494c-0.08,0.162-0.18,0.316-0.287,0.459c-0.117,0.145-0.242,0.271-0.387,0.379
			c-0.181,0.135-0.369,0.27-0.576,0.396c-0.217,0.145-0.424,0.279-0.64,0.414c-0.217,0.145-0.434,0.297-0.631,0.441
			c-0.208,0.152-0.388,0.307-0.541,0.449c-0.161,0.162-0.288,0.316-0.378,0.469c-0.099,0.162-0.144,0.332-0.144,0.494h3.952v0.352
			h-4.447c0-0.396,0.108-0.756,0.324-1.07c0.216-0.307,0.485-0.586,0.81-0.848c0.315-0.252,0.657-0.484,1.035-0.711
			c0.36-0.215,0.703-0.441,1.018-0.674c0.218-0.162,0.388-0.389,0.531-0.676c0.135-0.27,0.207-0.559,0.207-0.865
			c0-0.231-0.045-0.467-0.135-0.684c-0.09-0.207-0.217-0.387-0.369-0.549c-0.162-0.152-0.352-0.279-0.559-0.379
			c-0.217-0.09-0.441-0.135-0.676-0.135c-0.208,0-0.414,0.037-0.611,0.107c-0.207,0.072-0.387,0.182-0.549,0.307
			c-0.171,0.135-0.307,0.297-0.405,0.478c-0.108,0.188-0.153,0.396-0.153,0.623h-0.387c0-0.271,0.054-0.523,0.18-0.758
			c0.117-0.232,0.279-0.432,0.478-0.602c0.197-0.162,0.423-0.299,0.675-0.396C238.51,303.394,238.762,303.339,239.033,303.339z"/>
	</g>
	<g enable-background="new    ">
		<path fill="#4E4542" d="M246.559,303.384v0.359h-3.106l-0.314,2.791c0.09-0.098,0.197-0.189,0.334-0.279
			c0.125-0.08,0.26-0.152,0.404-0.215c0.135-0.055,0.278-0.1,0.424-0.135c0.135-0.027,0.26-0.045,0.387-0.045
			c0.308,0,0.604,0.063,0.873,0.18c0.271,0.125,0.504,0.287,0.711,0.486c0.199,0.215,0.353,0.449,0.478,0.719
			c0.108,0.271,0.172,0.559,0.172,0.865s-0.063,0.604-0.172,0.873c-0.125,0.279-0.277,0.521-0.478,0.729
			c-0.207,0.217-0.44,0.379-0.711,0.506c-0.27,0.125-0.565,0.188-0.873,0.188c-0.27,0-0.514-0.045-0.748-0.135
			c-0.233-0.08-0.448-0.197-0.629-0.359c-0.199-0.154-0.36-0.334-0.485-0.549c-0.146-0.199-0.244-0.424-0.298-0.676h0.388
			c0.045,0.207,0.125,0.387,0.242,0.549c0.108,0.172,0.233,0.314,0.396,0.432c0.145,0.127,0.324,0.217,0.521,0.279
			c0.188,0.072,0.396,0.1,0.612,0.1c0.252,0,0.486-0.055,0.722-0.162c0.225-0.1,0.422-0.242,0.602-0.424
			c0.162-0.17,0.299-0.377,0.406-0.611c0.09-0.234,0.145-0.477,0.145-0.738c0-0.252-0.055-0.504-0.145-0.738
			c-0.107-0.225-0.244-0.424-0.406-0.604c-0.17-0.162-0.369-0.297-0.594-0.404c-0.234-0.09-0.478-0.146-0.729-0.146
			c-0.278,0-0.531,0.063-0.756,0.172c-0.234,0.115-0.44,0.27-0.613,0.459h-0.575l0.396-3.467L246.559,303.384L246.559,303.384z"/>
		<path fill="#4E4542" d="M251.887,303.384v0.359h-3.107l-0.313,2.791c0.09-0.098,0.197-0.189,0.334-0.279
			c0.125-0.08,0.26-0.152,0.404-0.215c0.135-0.055,0.278-0.1,0.424-0.135c0.135-0.027,0.26-0.045,0.387-0.045
			c0.307,0,0.604,0.063,0.873,0.18c0.271,0.125,0.504,0.287,0.711,0.486c0.199,0.215,0.353,0.449,0.478,0.719
			c0.108,0.271,0.172,0.559,0.172,0.865s-0.063,0.604-0.172,0.873c-0.125,0.279-0.277,0.521-0.478,0.729
			c-0.207,0.217-0.44,0.379-0.711,0.506c-0.27,0.125-0.566,0.188-0.873,0.188c-0.27,0-0.514-0.045-0.748-0.135
			c-0.233-0.08-0.449-0.197-0.629-0.359c-0.199-0.154-0.361-0.334-0.486-0.549c-0.145-0.199-0.243-0.424-0.297-0.676h0.388
			c0.045,0.207,0.125,0.387,0.241,0.549c0.109,0.172,0.234,0.314,0.396,0.432c0.145,0.127,0.324,0.217,0.521,0.279
			c0.189,0.072,0.396,0.1,0.613,0.1c0.252,0,0.486-0.055,0.721-0.162c0.226-0.1,0.423-0.242,0.603-0.424
			c0.162-0.17,0.299-0.377,0.406-0.611c0.09-0.234,0.145-0.477,0.145-0.738c0-0.252-0.055-0.504-0.145-0.738
			c-0.107-0.225-0.244-0.424-0.406-0.604c-0.17-0.162-0.369-0.297-0.594-0.404c-0.234-0.09-0.478-0.146-0.729-0.146
			c-0.279,0-0.531,0.063-0.756,0.172c-0.234,0.115-0.441,0.27-0.613,0.459h-0.576l0.396-3.467L251.887,303.384L251.887,303.384z"/>
		<path fill="#4E4542" d="M257.034,311.351h-0.361v-7.967h0.361V311.351z"/>
	</g>
	<g enable-background="new    ">
		<path fill="#4E4542" d="M266.997,306.697c0.271,0.037,0.496,0.109,0.692,0.225c0.183,0.127,0.334,0.271,0.459,0.434
			c0.117,0.17,0.207,0.352,0.263,0.539c0.055,0.199,0.082,0.379,0.082,0.549c0,0.262-0.056,0.506-0.146,0.721
			c-0.109,0.234-0.244,0.432-0.406,0.594c-0.18,0.182-0.377,0.316-0.594,0.406c-0.234,0.107-0.477,0.152-0.729,0.152h-3.15v-6.932
			h2.951c0.233,0,0.469,0.045,0.686,0.135c0.207,0.09,0.396,0.217,0.558,0.369c0.153,0.162,0.278,0.352,0.379,0.559
			c0.09,0.217,0.135,0.449,0.135,0.693c0,0.162-0.027,0.324-0.08,0.494c-0.063,0.182-0.145,0.352-0.244,0.496
			c-0.106,0.152-0.233,0.279-0.377,0.377C267.331,306.617,267.169,306.679,266.997,306.697z M263.829,303.744v2.801h2.573
			c0.189,0,0.369-0.037,0.55-0.117c0.172-0.072,0.323-0.172,0.459-0.297c0.127-0.127,0.227-0.27,0.307-0.451
			c0.072-0.162,0.107-0.342,0.107-0.539c0-0.199-0.035-0.387-0.107-0.568c-0.072-0.162-0.17-0.314-0.297-0.439
			c-0.125-0.117-0.279-0.217-0.441-0.289c-0.18-0.063-0.358-0.1-0.559-0.1L263.829,303.744L263.829,303.744z M266.62,309.957
			c0.207,0,0.403-0.037,0.594-0.117c0.18-0.072,0.334-0.18,0.477-0.324c0.136-0.135,0.244-0.297,0.324-0.486
			c0.072-0.18,0.117-0.369,0.117-0.586c0-0.188-0.035-0.377-0.101-0.566c-0.069-0.18-0.17-0.342-0.286-0.486
			c-0.127-0.145-0.263-0.26-0.425-0.352c-0.17-0.09-0.35-0.135-0.549-0.135h-2.942v3.053L266.62,309.957L266.62,309.957z"/>
		<path fill="#4E4542" d="M271.569,303.339c0.289,0,0.56,0.055,0.818,0.162c0.254,0.107,0.486,0.262,0.686,0.441
			c0.189,0.197,0.343,0.422,0.46,0.674c0.106,0.271,0.17,0.551,0.17,0.855c0,0.162-0.025,0.334-0.063,0.496
			c-0.045,0.17-0.106,0.332-0.18,0.494c-0.082,0.162-0.181,0.316-0.29,0.459c-0.115,0.145-0.242,0.271-0.387,0.379
			c-0.181,0.135-0.369,0.27-0.576,0.396c-0.215,0.145-0.422,0.279-0.64,0.414c-0.217,0.145-0.432,0.297-0.631,0.441
			c-0.207,0.152-0.387,0.307-0.539,0.449c-0.162,0.162-0.289,0.316-0.379,0.469c-0.1,0.162-0.145,0.332-0.145,0.494h3.954v0.352
			h-4.448c0-0.396,0.106-0.756,0.324-1.07c0.215-0.307,0.485-0.586,0.811-0.848c0.314-0.252,0.656-0.484,1.035-0.711
			c0.359-0.215,0.701-0.441,1.018-0.674c0.216-0.162,0.388-0.389,0.531-0.676c0.135-0.27,0.208-0.559,0.208-0.865
			c0-0.231-0.045-0.467-0.137-0.684c-0.09-0.207-0.215-0.387-0.369-0.549c-0.16-0.152-0.35-0.279-0.557-0.379
			c-0.218-0.09-0.441-0.135-0.677-0.135c-0.207,0-0.413,0.037-0.61,0.107c-0.207,0.072-0.39,0.182-0.551,0.307
			c-0.171,0.135-0.306,0.297-0.404,0.478c-0.107,0.188-0.152,0.396-0.152,0.623h-0.389c0-0.271,0.055-0.523,0.182-0.758
			c0.117-0.232,0.277-0.432,0.478-0.602c0.196-0.162,0.424-0.299,0.676-0.396C271.048,303.394,271.3,303.339,271.569,303.339z"/>
	</g>
	<g enable-background="new    ">
		<path fill="#4E4542" d="M279.452,303.384v0.359h-3.105l-0.313,2.791c0.09-0.098,0.196-0.189,0.331-0.279
			c0.128-0.08,0.263-0.152,0.406-0.215c0.135-0.055,0.279-0.1,0.422-0.135c0.138-0.027,0.263-0.045,0.39-0.045
			c0.305,0,0.602,0.063,0.873,0.18c0.27,0.125,0.504,0.287,0.711,0.486c0.196,0.215,0.352,0.449,0.477,0.719
			c0.109,0.271,0.172,0.559,0.172,0.865s-0.063,0.604-0.172,0.873c-0.125,0.279-0.279,0.521-0.477,0.729
			c-0.207,0.217-0.441,0.379-0.711,0.506c-0.271,0.125-0.568,0.188-0.873,0.188c-0.271,0-0.515-0.045-0.748-0.135
			c-0.234-0.08-0.449-0.197-0.631-0.359c-0.197-0.154-0.359-0.334-0.484-0.549c-0.145-0.199-0.244-0.424-0.299-0.676h0.389
			c0.045,0.207,0.125,0.387,0.242,0.549c0.107,0.172,0.234,0.314,0.396,0.432c0.146,0.127,0.324,0.217,0.521,0.279
			c0.188,0.072,0.396,0.1,0.613,0.1c0.252,0,0.485-0.055,0.719-0.162c0.227-0.1,0.424-0.242,0.604-0.424
			c0.162-0.17,0.298-0.377,0.406-0.611c0.09-0.234,0.144-0.477,0.144-0.738c0-0.252-0.054-0.504-0.144-0.738
			c-0.108-0.225-0.244-0.424-0.406-0.604c-0.17-0.162-0.368-0.297-0.594-0.404c-0.233-0.09-0.477-0.146-0.729-0.146
			c-0.279,0-0.531,0.063-0.759,0.172c-0.231,0.115-0.438,0.27-0.61,0.459h-0.576l0.396-3.467L279.452,303.384L279.452,303.384z"/>
	</g>
	<g enable-background="new    ">
		<path fill="#4E4542" d="M285.132,303.384v0.359h-3.105l-0.315,2.791c0.09-0.098,0.199-0.189,0.334-0.279
			c0.125-0.08,0.262-0.152,0.403-0.215c0.136-0.055,0.279-0.1,0.425-0.135c0.135-0.027,0.262-0.045,0.387-0.045
			c0.307,0,0.604,0.063,0.873,0.18c0.271,0.125,0.504,0.287,0.711,0.486c0.199,0.215,0.352,0.449,0.479,0.719
			c0.107,0.271,0.171,0.559,0.171,0.865s-0.063,0.604-0.171,0.873c-0.127,0.279-0.278,0.521-0.479,0.729
			c-0.207,0.217-0.439,0.379-0.711,0.506c-0.271,0.125-0.566,0.188-0.873,0.188c-0.271,0-0.514-0.045-0.746-0.135
			c-0.234-0.08-0.451-0.197-0.631-0.359c-0.197-0.154-0.359-0.334-0.486-0.549c-0.145-0.199-0.242-0.424-0.297-0.676h0.387
			c0.045,0.207,0.127,0.387,0.244,0.549c0.107,0.172,0.232,0.314,0.396,0.432c0.145,0.127,0.323,0.217,0.522,0.279
			c0.189,0.072,0.396,0.1,0.611,0.1c0.252,0,0.486-0.055,0.721-0.162c0.226-0.1,0.424-0.242,0.604-0.424
			c0.162-0.17,0.297-0.377,0.403-0.611c0.091-0.234,0.146-0.477,0.146-0.738c0-0.252-0.055-0.504-0.146-0.738
			c-0.106-0.225-0.241-0.424-0.403-0.604c-0.172-0.162-0.369-0.297-0.595-0.404c-0.233-0.09-0.479-0.146-0.729-0.146
			c-0.279,0-0.531,0.063-0.756,0.172c-0.234,0.115-0.441,0.27-0.611,0.459h-0.576l0.396-3.467L285.132,303.384L285.132,303.384z"/>
	</g>
	<g enable-background="new    ">
		<path fill="#4E4542" d="M202.396,327.712c-0.288,0.27-0.611,0.486-0.98,0.648c-0.378,0.162-0.774,0.242-1.188,0.242
			c-0.485,0-0.927-0.098-1.323-0.297c-0.396-0.189-0.737-0.449-1.008-0.783c-0.288-0.324-0.504-0.693-0.647-1.125
			c-0.162-0.424-0.234-0.863-0.234-1.332c0-0.459,0.072-0.9,0.216-1.332c0.145-0.424,0.352-0.803,0.63-1.127
			c0.271-0.322,0.604-0.584,1.009-0.783c0.396-0.188,0.847-0.287,1.358-0.287c0.396,0,0.774,0.08,1.145,0.225
			c0.359,0.162,0.701,0.379,1.044,0.658l-0.252,0.27c-0.252-0.234-0.55-0.432-0.892-0.576c-0.342-0.146-0.692-0.217-1.044-0.217
			c-0.414,0-0.783,0.082-1.125,0.244c-0.351,0.162-0.657,0.387-0.909,0.666c-0.261,0.287-0.459,0.631-0.604,1.008
			c-0.145,0.387-0.216,0.801-0.216,1.252c0,0.449,0.063,0.873,0.207,1.252c0.135,0.395,0.333,0.729,0.585,1.008
			c0.243,0.287,0.54,0.514,0.899,0.674c0.343,0.162,0.729,0.244,1.161,0.244c0.353,0,0.703-0.072,1.044-0.217
			c0.342-0.135,0.63-0.324,0.882-0.566L202.396,327.712z"/>
	</g>
	<g enable-background="new    ">
		<path fill="#4E4542" d="M206.138,321.492c0.378,0,0.72,0.09,1.026,0.252c0.288,0.18,0.541,0.424,0.748,0.729
			c0.197,0.316,0.342,0.693,0.449,1.127c0.1,0.439,0.153,0.926,0.153,1.449c0,0.531-0.054,1.016-0.153,1.449
			c-0.107,0.441-0.252,0.818-0.449,1.125c-0.207,0.314-0.459,0.559-0.748,0.721c-0.307,0.18-0.648,0.26-1.026,0.26
			c-0.387,0-0.729-0.08-1.017-0.26c-0.307-0.162-0.55-0.406-0.747-0.721c-0.207-0.307-0.36-0.684-0.459-1.125
			c-0.108-0.434-0.153-0.918-0.153-1.449c0-0.523,0.045-1.01,0.153-1.449c0.099-0.434,0.252-0.811,0.459-1.127
			c0.197-0.305,0.44-0.549,0.747-0.729C205.409,321.582,205.752,321.492,206.138,321.492z M206.138,328.244
			c0.288,0,0.558-0.063,0.812-0.207c0.242-0.135,0.459-0.342,0.639-0.613c0.18-0.27,0.314-0.602,0.423-1.008
			c0.09-0.396,0.144-0.846,0.144-1.367c0-0.514-0.054-0.973-0.144-1.379c-0.108-0.395-0.243-0.729-0.423-0.998
			c-0.18-0.271-0.396-0.469-0.639-0.613c-0.253-0.135-0.522-0.207-0.812-0.207c-0.297,0-0.567,0.072-0.81,0.207
			c-0.252,0.145-0.459,0.342-0.64,0.613c-0.18,0.27-0.324,0.604-0.414,0.998c-0.107,0.406-0.152,0.865-0.152,1.379
			c0,0.521,0.045,0.971,0.152,1.367c0.09,0.406,0.234,0.738,0.414,1.008c0.181,0.271,0.388,0.479,0.64,0.613
			C205.572,328.181,205.842,328.244,206.138,328.244z"/>
		<path fill="#4E4542" d="M213.383,329.548h-0.36v-7.967h0.36V329.548z"/>
		<path fill="#4E4542" d="M224.077,321.582l0.278,6.932h-0.359l-0.243-6.211l-2.548,5.076l-2.558-5.076l-0.225,6.211h-0.36
			l0.279-6.932h0.306l2.558,4.871l2.557-4.871H224.077z"/>
		<path fill="#4E4542" d="M227.621,321.492c0.378,0,0.72,0.09,1.025,0.252c0.288,0.18,0.54,0.424,0.748,0.729
			c0.198,0.316,0.342,0.693,0.45,1.127c0.099,0.439,0.153,0.926,0.153,1.449c0,0.531-0.055,1.016-0.153,1.449
			c-0.108,0.441-0.252,0.818-0.45,1.125c-0.208,0.314-0.459,0.559-0.748,0.721c-0.306,0.18-0.647,0.26-1.025,0.26
			c-0.388,0-0.729-0.08-1.018-0.26c-0.306-0.162-0.549-0.406-0.747-0.721c-0.207-0.307-0.359-0.684-0.459-1.125
			c-0.107-0.434-0.152-0.918-0.152-1.449c0-0.523,0.045-1.01,0.152-1.449c0.1-0.434,0.252-0.811,0.459-1.127
			c0.198-0.305,0.441-0.549,0.747-0.729C226.892,321.582,227.235,321.492,227.621,321.492z M227.621,328.244
			c0.288,0,0.559-0.063,0.811-0.207c0.243-0.135,0.459-0.342,0.639-0.613c0.181-0.27,0.315-0.602,0.424-1.008
			c0.09-0.396,0.144-0.846,0.144-1.367c0-0.514-0.054-0.973-0.144-1.379c-0.108-0.395-0.243-0.729-0.424-0.998
			c-0.18-0.271-0.396-0.469-0.639-0.613c-0.252-0.135-0.521-0.207-0.811-0.207c-0.297,0-0.567,0.072-0.811,0.207
			c-0.252,0.145-0.459,0.342-0.639,0.613c-0.18,0.27-0.324,0.604-0.414,0.998c-0.108,0.406-0.153,0.865-0.153,1.379
			c0,0.521,0.045,0.971,0.153,1.367c0.09,0.406,0.234,0.738,0.414,1.008c0.18,0.271,0.387,0.479,0.639,0.613
			C227.054,328.181,227.324,328.244,227.621,328.244z"/>
		<path fill="#4E4542" d="M234.865,329.548h-0.36v-7.967h0.36V329.548z"/>
	</g>
	<g enable-background="new    ">
		<path fill="#4E4542" d="M245.307,325.525v2.988h-0.358v-2.988l-2.55-3.943h0.451l2.277,3.557l2.276-3.557h0.441L245.307,325.525z"
			/>
	</g>
	<g enable-background="new    ">
		<path fill="#4E4542" d="M251.337,321.492c0.379,0,0.721,0.09,1.026,0.252c0.287,0.18,0.539,0.424,0.746,0.729
			c0.199,0.316,0.343,0.693,0.451,1.127c0.099,0.439,0.152,0.926,0.152,1.449c0,0.531-0.055,1.016-0.152,1.449
			c-0.108,0.441-0.252,0.818-0.451,1.125c-0.207,0.314-0.459,0.559-0.746,0.721c-0.307,0.18-0.647,0.26-1.026,0.26
			c-0.387,0-0.729-0.08-1.019-0.26c-0.305-0.162-0.549-0.406-0.746-0.721c-0.206-0.307-0.36-0.684-0.459-1.125
			c-0.108-0.434-0.153-0.918-0.153-1.449c0-0.523,0.045-1.01,0.153-1.449c0.099-0.434,0.253-0.811,0.459-1.127
			c0.197-0.305,0.441-0.549,0.746-0.729C250.608,321.582,250.95,321.492,251.337,321.492z M251.337,328.244
			c0.289,0,0.559-0.063,0.811-0.207c0.244-0.135,0.459-0.342,0.64-0.613c0.182-0.27,0.315-0.602,0.424-1.008
			c0.09-0.396,0.145-0.846,0.145-1.367c0-0.514-0.055-0.973-0.145-1.379c-0.107-0.395-0.242-0.729-0.424-0.998
			c-0.181-0.271-0.396-0.469-0.64-0.613c-0.252-0.135-0.521-0.207-0.811-0.207c-0.297,0-0.566,0.072-0.812,0.207
			c-0.252,0.145-0.459,0.342-0.639,0.613c-0.18,0.27-0.324,0.604-0.414,0.998c-0.106,0.406-0.152,0.865-0.152,1.379
			c0,0.521,0.046,0.971,0.152,1.367c0.09,0.406,0.234,0.738,0.414,1.008c0.18,0.271,0.387,0.479,0.639,0.613
			C250.77,328.181,251.04,328.244,251.337,328.244z"/>
		<path fill="#4E4542" d="M258.581,329.548h-0.359v-7.967h0.359V329.548z"/>
	</g>
	<g enable-background="new    ">
		<path fill="#4E4542" d="M266.059,324.769l3.646,3.744h-0.47l-3.491-3.385l-0.722,0.811v2.574h-0.358v-6.932h0.358v3.781
			l3.494-3.781h0.512L266.059,324.769z"/>
	</g>
	<g enable-background="new    ">
		<path fill="#4E4542" d="M273.178,321.492c0.379,0,0.721,0.09,1.028,0.252c0.287,0.18,0.539,0.424,0.746,0.729
			c0.198,0.316,0.342,0.693,0.45,1.127c0.099,0.439,0.152,0.926,0.152,1.449c0,0.531-0.055,1.016-0.152,1.449
			c-0.108,0.441-0.252,0.818-0.45,1.125c-0.207,0.314-0.459,0.559-0.746,0.721c-0.308,0.18-0.648,0.26-1.028,0.26
			c-0.387,0-0.729-0.08-1.018-0.26c-0.306-0.162-0.55-0.406-0.746-0.721c-0.207-0.307-0.361-0.684-0.459-1.125
			c-0.109-0.434-0.154-0.918-0.154-1.449c0-0.523,0.045-1.01,0.154-1.449c0.098-0.434,0.252-0.811,0.459-1.127
			c0.196-0.305,0.44-0.549,0.746-0.729C272.45,321.582,272.792,321.492,273.178,321.492z M273.178,328.244
			c0.29,0,0.559-0.063,0.811-0.207c0.244-0.135,0.46-0.342,0.64-0.613c0.182-0.27,0.315-0.602,0.424-1.008
			c0.09-0.396,0.145-0.846,0.145-1.367c0-0.514-0.055-0.973-0.145-1.379c-0.107-0.395-0.242-0.729-0.424-0.998
			c-0.18-0.271-0.396-0.469-0.64-0.613c-0.252-0.135-0.521-0.207-0.811-0.207c-0.297,0-0.566,0.072-0.811,0.207
			c-0.253,0.145-0.459,0.342-0.64,0.613c-0.18,0.27-0.324,0.604-0.414,0.998c-0.106,0.406-0.151,0.865-0.151,1.379
			c0,0.521,0.045,0.971,0.151,1.367c0.09,0.406,0.234,0.738,0.414,1.008c0.181,0.271,0.387,0.479,0.64,0.613
			C272.612,328.181,272.882,328.244,273.178,328.244z"/>
	</g>
	<g enable-background="new    ">
		<path fill="#4E4542" d="M201.45,340.175l-0.243,1.953h0.874l-0.055,0.342h-0.873l-0.271,2.125h-0.36l0.288-2.125h-2.584
			l-0.27,2.125h-0.352l0.271-2.125h-0.973l0.063-0.342h0.972l0.243-1.953h-0.972l0.063-0.352h0.973l0.314-2.16h0.342l-0.314,2.16
			h2.575l0.297-2.16h0.342l-0.288,2.16h0.882l-0.054,0.352H201.45z M201.108,340.175h-2.574l-0.253,1.953h2.575L201.108,340.175z"/>
	</g>
	<g enable-background="new    ">
		<path fill="#4E4542" d="M208.263,338.023h-4.15v2.926h3.664v0.361h-3.664v3.285h-0.359v-6.932h4.51V338.023z"/>
		<path fill="#4E4542" d="M213.862,338.023h-4.149v2.926h3.664v0.361h-3.664v3.285h-0.36v-6.932h4.51V338.023z"/>
		<path fill="#4E4542" d="M219.459,338.023h-4.15v2.926h3.664v0.361h-3.664v3.285h-0.359v-6.932h4.51V338.023z"/>
		<path fill="#4E4542" d="M225.057,338.023h-4.149v2.926h3.663v0.361h-3.663v3.285h-0.36v-6.932h4.51V338.023z"/>
		<path fill="#4E4542" d="M230.655,338.023h-4.149v2.926h3.664v0.361h-3.664v3.285h-0.36v-6.932h4.51V338.023z"/>
	</g>
	<g enable-background="new    ">
		<path fill="#4E4542" d="M238.009,338.023h-4.15v2.926h3.664v0.361h-3.664v3.285h-0.359v-6.932h4.51V338.023z"/>
	</g>
</g>
<g>
	<rect x="194.043" y="976.579" fill="#3E3A39" width="0.25" height="2.041"/>
</g>
<g>
	<rect x="146.499" y="931.062" fill="#00468C" width="36.857" height="43.668"/>
</g>
<g>
	<path fill="#FFFFFF" d="M183.658,975.029h-37.459v-44.27h37.459V975.029z M146.8,974.429h36.258v-43.066H146.8V974.429z"/>
</g>
<g>
	<polygon fill="#FFFFFF" points="159.915,935.245 150.298,944.841 156.71,951.236 150.185,957.729 159.802,967.336 162.995,964.138 
		156.573,957.729 163.119,951.236 156.719,944.841 163.119,938.447 	"/>
</g>
<g>
	<path fill="#00468C" d="M159.802,967.577l-9.858-9.847l0.122-0.119l6.405-6.375l-6.412-6.396l9.856-9.835l0.12,0.119l3.326,3.322
		l-6.402,6.394l6.402,6.396l-0.122,0.122l-6.426,6.369l6.422,6.409L159.802,967.577z M150.425,957.729l9.377,9.366l2.952-2.959
		l-6.421-6.409l0.122-0.119l6.426-6.372l-6.403-6.396l6.403-6.394l-2.965-2.961l-9.375,9.354l6.412,6.396l-0.122,0.122
		L150.425,957.729z"/>
</g>
<g>
	<polygon fill="#FFFFFF" points="169.935,951.462 163.497,957.839 169.947,964.188 166.709,967.359 169.926,970.531 
		179.606,960.984 	"/>
</g>
<g>
	<path fill="#00468C" d="M169.926,970.771l-3.458-3.41l3.235-3.172l-6.447-6.35l6.68-6.616l0.12,0.119l9.793,9.644l-0.122,0.122
		L169.926,970.771z M166.953,967.359l2.973,2.933l9.438-9.308l-9.429-9.283l-6.196,6.138l6.45,6.35L166.953,967.359z"/>
</g>
<g>
	<polygon fill="#FFFFFF" points="176.254,938.762 169.989,945.007 176.254,951.236 	"/>
</g>
<g>
	<path fill="#00468C" d="M176.422,951.646l-6.675-6.639l6.675-6.652V951.646z M170.228,945.007l5.854,5.821v-11.656L170.228,945.007
		z"/>
</g>
<g>
	<rect x="146.814" y="980.814" fill="#3E3A39" width="36.159" height="0.301"/>
</g>
<g>
	<rect x="146.663" y="979.726" fill="#3E3A39" width="0.3" height="2.452"/>
</g>
<g>
	<rect x="191.872" y="931.592" fill="#3E3A39" width="0.3" height="42.815"/>
</g>
<g>
	<rect x="190.809" y="931.441" fill="#3E3A39" width="2.452" height="0.301"/>
</g>
<g>
	<rect x="190.809" y="974.161" fill="#3E3A39" width="2.452" height="0.3"/>
</g>
<g enable-background="new    ">
	<path fill="#3E3A39" d="M201.839,957.896h-0.46v-4.997c0-0.455,0.019-0.926,0.056-1.412c-0.047,0.047-0.096,0.091-0.146,0.136
		c-0.049,0.042-0.532,0.422-1.45,1.141l-0.269-0.334l1.863-1.394h0.404L201.839,957.896L201.839,957.896z"/>
	<path fill="#3E3A39" d="M208.718,952.648c0,0.425-0.134,0.783-0.401,1.074c-0.267,0.29-0.626,0.477-1.076,0.559v0.027
		c0.551,0.068,0.969,0.244,1.257,0.525c0.289,0.282,0.432,0.659,0.432,1.136c0,0.642-0.218,1.139-0.654,1.49
		s-1.064,0.527-1.884,0.527c-0.697,0-1.307-0.131-1.825-0.39v-0.465c0.264,0.136,0.56,0.244,0.886,0.323
		c0.325,0.078,0.633,0.117,0.922,0.117c0.691,0,1.21-0.142,1.558-0.42c0.348-0.281,0.521-0.676,0.521-1.186
		c0-0.455-0.179-0.802-0.533-1.046s-0.877-0.366-1.564-0.366h-0.742v-0.449h0.751c0.57,0,1.021-0.138,1.354-0.406
		c0.333-0.272,0.5-0.639,0.5-1.102c0-0.382-0.136-0.688-0.406-0.917c-0.27-0.229-0.624-0.345-1.063-0.345
		c-0.34,0-0.652,0.047-0.935,0.143c-0.28,0.095-0.598,0.259-0.947,0.49l-0.23-0.313c0.265-0.224,0.587-0.398,0.962-0.527
		c0.375-0.132,0.756-0.195,1.142-0.195c0.631,0,1.118,0.148,1.464,0.448C208.546,951.682,208.718,952.104,208.718,952.648z"/>
	<path fill="#3E3A39" d="M216.835,957.896v-3.347c0-0.497-0.097-0.859-0.291-1.088c-0.194-0.229-0.49-0.343-0.893-0.343
		c-0.522,0-0.907,0.143-1.158,0.432c-0.251,0.286-0.375,0.739-0.375,1.355v2.988h-0.475v-3.485c0-0.861-0.394-1.29-1.182-1.29
		c-0.535,0-0.924,0.154-1.168,0.467c-0.244,0.31-0.366,0.81-0.366,1.494v2.814h-0.464v-5.101h0.385l0.099,0.699h0.028
		c0.142-0.253,0.34-0.45,0.602-0.589c0.261-0.142,0.547-0.209,0.858-0.209c0.806,0,1.321,0.301,1.548,0.905h0.02
		c0.167-0.291,0.389-0.517,0.668-0.671c0.279-0.156,0.598-0.234,0.955-0.234c0.556,0,0.974,0.147,1.253,0.445
		c0.279,0.296,0.417,0.771,0.417,1.417v3.336h-0.461V957.896z"/>
</g>
<g enable-background="new    ">
	<path fill="#3E3A39" d="M226.471,957.896v-3.347c0-0.497-0.096-0.859-0.291-1.088c-0.194-0.229-0.49-0.343-0.892-0.343
		c-0.523,0-0.908,0.143-1.159,0.432c-0.251,0.286-0.375,0.739-0.375,1.355v2.988h-0.475v-3.485c0-0.861-0.394-1.29-1.182-1.29
		c-0.535,0-0.924,0.154-1.168,0.467c-0.244,0.31-0.366,0.81-0.366,1.494v2.814H220.1v-5.101h0.385l0.1,0.699h0.027
		c0.142-0.253,0.341-0.45,0.602-0.589c0.261-0.142,0.547-0.209,0.858-0.209c0.806,0,1.321,0.301,1.549,0.905h0.019
		c0.167-0.291,0.389-0.517,0.668-0.671c0.279-0.156,0.598-0.234,0.955-0.234c0.556,0,0.974,0.147,1.253,0.445
		c0.279,0.296,0.417,0.771,0.417,1.417v3.336h-0.461V957.896z"/>
</g>
<g enable-background="new    ">
	<path fill="#3E3A39" d="M153.317,993.135h-0.46v-4.998c0-0.455,0.02-0.924,0.058-1.412c-0.047,0.048-0.095,0.093-0.146,0.137
		c-0.049,0.043-0.533,0.423-1.45,1.141l-0.267-0.333l1.863-1.394h0.402V993.135L153.317,993.135z"/>
	<path fill="#3E3A39" d="M158.802,993.135h-0.46v-4.998c0-0.455,0.019-0.924,0.057-1.412c-0.047,0.048-0.094,0.093-0.146,0.137
		c-0.049,0.043-0.533,0.423-1.45,1.141l-0.267-0.333l1.862-1.394h0.403V993.135L158.802,993.135z"/>
	<path fill="#3E3A39" d="M168.314,993.135v-3.346c0-0.498-0.096-0.861-0.291-1.089c-0.191-0.23-0.49-0.343-0.892-0.343
		c-0.521,0-0.908,0.144-1.159,0.432c-0.249,0.286-0.375,0.739-0.375,1.356v2.988h-0.474v-3.486c0-0.86-0.396-1.29-1.184-1.29
		c-0.535,0-0.924,0.154-1.168,0.467c-0.244,0.31-0.366,0.81-0.366,1.495v2.814h-0.465v-5.101h0.386l0.099,0.698h0.028
		c0.141-0.254,0.342-0.45,0.601-0.59c0.26-0.141,0.546-0.208,0.858-0.208c0.805,0,1.32,0.301,1.549,0.905h0.019
		c0.167-0.291,0.391-0.517,0.669-0.671c0.281-0.157,0.599-0.234,0.955-0.234c0.56,0,0.977,0.147,1.253,0.445
		c0.279,0.296,0.417,0.771,0.417,1.417v3.337h-0.46V993.135z"/>
</g>
<g enable-background="new    ">
	<path fill="#3E3A39" d="M177.952,993.135v-3.346c0-0.498-0.099-0.861-0.291-1.089c-0.195-0.23-0.493-0.343-0.893-0.343
		c-0.522,0-0.911,0.144-1.159,0.432c-0.251,0.286-0.375,0.739-0.375,1.356v2.988h-0.474v-3.486c0-0.86-0.395-1.29-1.183-1.29
		c-0.535,0-0.925,0.154-1.168,0.467c-0.244,0.31-0.366,0.81-0.366,1.495v2.814h-0.464v-5.101h0.385l0.099,0.698h0.028
		c0.141-0.254,0.34-0.45,0.601-0.59c0.259-0.141,0.544-0.208,0.858-0.208c0.802,0,1.319,0.301,1.548,0.905h0.02
		c0.164-0.291,0.387-0.517,0.668-0.671c0.278-0.157,0.599-0.234,0.955-0.234c0.556,0,0.974,0.147,1.253,0.445
		c0.276,0.296,0.417,0.771,0.417,1.417v3.337h-0.459V993.135z"/>
</g>
<g enable-background="new    ">
	<path fill="#3E3A39" d="M139.573,1021.443v-0.378h2.889v-2.402h0.432v2.402c1.017,0,2.034-0.107,3.071-0.348l0.065,0.368
		c-1.039,0.236-2.229,0.356-3.568,0.356L139.573,1021.443L139.573,1021.443z M142.558,1015.787v-0.346h-2.325v-0.381h2.337v-1.024
		h0.433v1.024h2.357v0.381h-2.346v0.346c0,0.542,0.271,1.114,0.813,1.698c0.54,0.594,1.178,1.026,1.911,1.285l-0.323,0.303
		c-0.779-0.303-1.438-0.768-2.001-1.414c-0.279-0.303-0.485-0.617-0.614-0.933c-0.141,0.349-0.357,0.704-0.65,1.05
		c-0.563,0.691-1.223,1.188-1.978,1.504l-0.326-0.303c0.725-0.281,1.363-0.734,1.905-1.372
		C142.288,1016.977,142.558,1016.371,142.558,1015.787z M147.414,1023.822h-0.433v-10.166h0.433V1023.822z"/>
	<path fill="#3E3A39" d="M154.333,1019.28v2.703h4.509v0.38h-9.453v-0.38h4.509v-2.703H154.333z M157.653,1019.28
		c-1.188-0.368-2.12-0.941-2.769-1.721c-0.359-0.423-0.617-0.865-0.771-1.317c-0.161,0.452-0.42,0.896-0.778,1.317
		c-0.648,0.778-1.567,1.353-2.757,1.721l-0.324-0.303c1.145-0.346,2.032-0.875,2.682-1.602c0.626-0.713,0.953-1.492,0.953-2.314
		v-0.647h0.453v0.647c0,0.822,0.313,1.603,0.962,2.314c0.629,0.727,1.525,1.256,2.672,1.602L157.653,1019.28z"/>
	<path fill="#3E3A39" d="M165.348,1020.88c-0.779-0.497-1.438-1.198-1.999-2.13c-0.281-0.453-0.488-0.929-0.629-1.405
		c-0.141,0.497-0.345,0.994-0.626,1.472c-0.563,0.94-1.222,1.666-1.989,2.173l-0.326-0.304c0.737-0.477,1.375-1.168,1.915-2.053
		c0.53-0.887,0.801-1.807,0.801-2.76v-1.459h0.456v1.459c0,0.94,0.27,1.84,0.812,2.703c0.54,0.878,1.178,1.549,1.915,2.013
		L165.348,1020.88z M167.523,1018.091v5.731h-0.434v-10.166h0.434v4.057h1.892v0.378H167.523z"/>
	<path fill="#3E3A39" d="M175.815,1017.474c0,0.823-0.26,1.504-0.767,2.034c-0.521,0.539-1.168,0.8-1.947,0.8
		c-0.791,0-1.438-0.261-1.948-0.8c-0.518-0.53-0.767-1.211-0.767-2.034c0-0.82,0.249-1.502,0.767-2.044
		c0.51-0.529,1.157-0.8,1.948-0.8c0.779,0,1.426,0.271,1.947,0.8C175.554,1015.972,175.815,1016.652,175.815,1017.474z
		 M175.381,1017.474c0-0.713-0.216-1.298-0.647-1.772c-0.434-0.453-0.974-0.692-1.624-0.692c-0.658,0-1.198,0.239-1.633,0.692
		c-0.443,0.476-0.66,1.061-0.66,1.772c0,0.704,0.217,1.288,0.66,1.753c0.435,0.477,0.975,0.703,1.633,0.703
		c0.65,0,1.189-0.228,1.624-0.703C175.165,1018.762,175.381,1018.178,175.381,1017.474z M178.227,1023.822h-0.434v-10.166h0.434
		V1023.822z"/>
</g>
<g enable-background="new    ">
	<path fill="#3E3A39" d="M191.339,1021.983v0.38h-9.45v-0.38H191.339z M189.892,1019.496c-0.953-0.324-1.773-0.843-2.457-1.567
		c-0.39-0.4-0.659-0.812-0.821-1.223c-0.173,0.411-0.454,0.821-0.82,1.223c-0.692,0.726-1.504,1.243-2.457,1.567l-0.324-0.303
		c0.908-0.291,1.708-0.779,2.379-1.447c0.659-0.671,0.995-1.363,0.995-2.089v-0.542h-2.963v-0.377h6.381v0.377h-2.963v0.542
		c0,0.726,0.335,1.418,1.007,2.089c0.659,0.668,1.447,1.156,2.367,1.447L189.892,1019.496z"/>
</g>
<g>
	<rect x="119.05" y="677.913" fill="#00468C" width="93.04" height="110.066"/>
</g>
<g>
	<path fill="#FFFFFF" d="M212.39,788.28h-93.64V677.613h93.641L212.39,788.28L212.39,788.28z M119.35,787.68h92.439V678.214H119.35
		V787.68z"/>
</g>
<g>
	<polygon fill="#FFFFFF" points="153.222,688.46 128.647,712.667 145.028,728.805 128.35,745.19 152.932,769.417 161.091,761.351 
		144.674,745.176 161.408,728.805 145.049,712.667 161.408,696.54 	"/>
</g>
<g>
	<path fill="#00468C" d="M152.932,769.656l-0.119-0.117l-24.705-24.349l16.679-16.387l-16.382-16.138l0.123-0.119l24.694-24.325
		l0.12,0.117l8.308,8.2l-0.123,0.122l-16.235,16.005l16.358,16.138l-0.124,0.122l-16.609,16.249l16.417,16.175L152.932,769.656z
		 M128.593,745.19l24.34,23.986l7.917-7.827l-16.418-16.175l0.124-0.122l16.61-16.249l-16.358-16.138l0.124-0.119l16.235-16.008
		l-7.944-7.841l-24.333,23.968l16.381,16.138L128.593,745.19z"/>
</g>
<g>
	<polygon fill="#FFFFFF" points="178.01,729.107 161.629,745.258 178.045,761.334 169.807,769.37 177.995,777.398 202.624,753.229 	
		"/>
</g>
<g>
	<path fill="#00468C" d="M177.995,777.638l-0.119-0.117l-8.313-8.149l0.124-0.122l8.113-7.914l-16.415-16.076l0.123-0.119
		l16.5-16.269l24.857,24.357l-0.124,0.122L177.995,777.638z M170.05,769.37l7.945,7.791l24.386-23.934l-24.37-23.882l-16.141,15.911
		l16.417,16.076L170.05,769.37z"/>
</g>
<g>
	<polygon fill="#FFFFFF" points="194.134,697.358 177.86,713.416 194.134,729.419 	"/>
</g>
<g>
	<path fill="#00468C" d="M194.304,729.825l-0.29-0.284l-16.396-16.125l16.687-16.463V729.825z M178.102,713.416l15.862,15.598
		v-31.247L178.102,713.416z"/>
</g>
<g>
	<rect x="220.364" y="679.241" fill="#3E3A39" width="0.301" height="108.394"/>
</g>
<g>
	<rect x="177.233" y="698.104" fill="#3E3A39" width="2.452" height="0.301"/>
</g>
<g>
	<rect x="219.335" y="787.469" fill="#3E3A39" width="2.452" height="0.3"/>
</g>
<g>
	<rect x="119.75" y="796.691" fill="#3E3A39" width="91.817" height="0.3"/>
</g>
<g>
	<rect x="119.601" y="795.603" fill="#3E3A39" width="0.3" height="2.452"/>
</g>
<g>
	<rect x="211.335" y="795.603" fill="#3E3A39" width="0.3" height="2.452"/>
</g>
<g enable-background="new    ">
	<path fill="#3E3A39" d="M232.477,729.978c0,0.426-0.134,0.783-0.4,1.074c-0.268,0.291-0.626,0.478-1.077,0.56v0.027
		c0.55,0.068,0.969,0.244,1.257,0.525s0.432,0.659,0.432,1.136c0,0.642-0.218,1.139-0.653,1.49
		c-0.438,0.352-1.065,0.527-1.885,0.527c-0.696,0-1.306-0.131-1.824-0.391v-0.464c0.263,0.136,0.558,0.243,0.884,0.323
		c0.327,0.077,0.634,0.117,0.922,0.117c0.69,0,1.21-0.142,1.558-0.42c0.348-0.281,0.521-0.677,0.521-1.186
		c0-0.455-0.178-0.803-0.533-1.047c-0.355-0.243-0.877-0.365-1.565-0.365h-0.74v-0.451h0.751c0.568,0,1.021-0.136,1.354-0.404
		c0.333-0.272,0.5-0.64,0.5-1.102c0-0.383-0.136-0.688-0.406-0.917s-0.625-0.346-1.063-0.346c-0.341,0-0.652,0.047-0.935,0.144
		c-0.28,0.095-0.598,0.259-0.947,0.49l-0.23-0.313c0.267-0.224,0.586-0.398,0.962-0.527c0.375-0.132,0.755-0.195,1.141-0.195
		c0.632,0,1.12,0.148,1.464,0.448C232.305,729.011,232.477,729.434,232.477,729.978z"/>
	<path fill="#3E3A39" d="M238.192,735.224h-4.293v-0.413l1.825-1.904c0.513-0.532,0.873-0.938,1.079-1.221
		c0.206-0.281,0.358-0.552,0.455-0.807c0.097-0.259,0.146-0.526,0.146-0.808c0-0.41-0.134-0.743-0.402-0.999
		c-0.271-0.259-0.618-0.386-1.046-0.386c-0.573,0-1.12,0.206-1.644,0.624l-0.253-0.323c0.573-0.483,1.208-0.724,1.905-0.724
		c0.598,0,1.066,0.16,1.41,0.479c0.342,0.318,0.514,0.758,0.514,1.318c0,0.452-0.115,0.892-0.345,1.315
		c-0.23,0.423-0.65,0.945-1.26,1.57l-1.76,1.806v0.021h3.669L238.192,735.224L238.192,735.224z"/>
	<path fill="#3E3A39" d="M239.614,734.857c0-0.309,0.125-0.46,0.375-0.46c0.257,0,0.386,0.151,0.386,0.46
		c0,0.306-0.128,0.46-0.386,0.46C239.739,735.317,239.614,735.163,239.614,734.857z"/>
	<path fill="#3E3A39" d="M243.658,731.099c0.731,0,1.309,0.178,1.729,0.53c0.42,0.354,0.631,0.84,0.631,1.46
		c0,0.703-0.219,1.25-0.657,1.643c-0.438,0.39-1.042,0.587-1.812,0.587c-0.341,0-0.665-0.035-0.971-0.102
		c-0.308-0.067-0.563-0.164-0.771-0.289v-0.482c0.338,0.172,0.638,0.291,0.901,0.358c0.263,0.065,0.542,0.102,0.84,0.102
		c0.601,0,1.083-0.159,1.445-0.477c0.362-0.318,0.544-0.749,0.544-1.288c0-0.512-0.178-0.91-0.53-1.201
		c-0.354-0.29-0.833-0.437-1.44-0.437c-0.406,0-0.833,0.062-1.275,0.184l-0.282-0.184l0.272-3.14h3.304v0.45h-2.862l-0.211,2.422
		C243.002,731.144,243.384,731.099,243.658,731.099z"/>
	<path fill="#3E3A39" d="M253.85,735.224v-3.346c0-0.497-0.097-0.861-0.291-1.089c-0.193-0.229-0.491-0.342-0.892-0.342
		c-0.523,0-0.909,0.143-1.159,0.432c-0.251,0.286-0.376,0.738-0.376,1.355v2.988h-0.474v-3.485c0-0.861-0.395-1.29-1.183-1.29
		c-0.535,0-0.925,0.153-1.168,0.467c-0.244,0.31-0.366,0.809-0.366,1.494v2.814h-0.464v-5.101h0.385l0.099,0.699h0.027
		c0.142-0.254,0.342-0.45,0.602-0.589c0.26-0.142,0.546-0.209,0.859-0.209c0.804,0,1.319,0.301,1.548,0.904h0.019
		c0.166-0.29,0.389-0.516,0.669-0.671c0.279-0.157,0.599-0.233,0.955-0.233c0.556,0,0.974,0.146,1.252,0.445
		c0.279,0.295,0.417,0.771,0.417,1.417v3.336h-0.459V735.224z"/>
</g>
<g enable-background="new    ">
	<path fill="#3E3A39" d="M264.256,735.224v-3.346c0-0.497-0.096-0.861-0.291-1.089c-0.195-0.229-0.49-0.342-0.892-0.342
		c-0.523,0-0.908,0.143-1.159,0.432c-0.251,0.286-0.375,0.738-0.375,1.355v2.988h-0.475v-3.485c0-0.861-0.394-1.29-1.182-1.29
		c-0.535,0-0.924,0.153-1.168,0.467c-0.244,0.31-0.366,0.809-0.366,1.494v2.814h-0.464v-5.101h0.385l0.1,0.699h0.027
		c0.142-0.254,0.34-0.45,0.602-0.589c0.261-0.142,0.547-0.209,0.858-0.209c0.806,0,1.321,0.301,1.549,0.904h0.019
		c0.167-0.29,0.389-0.516,0.668-0.671c0.279-0.157,0.598-0.233,0.955-0.233c0.556,0,0.974,0.146,1.253,0.445
		c0.279,0.295,0.417,0.771,0.417,1.417v3.336h-0.461V735.224z"/>
</g>
<g enable-background="new    ">
	<path fill="#3E3A39" d="M151.242,812.268h-4.293v-0.413l1.824-1.904c0.515-0.532,0.873-0.938,1.08-1.221
		c0.207-0.281,0.358-0.552,0.455-0.808c0.097-0.258,0.146-0.524,0.146-0.807c0-0.41-0.135-0.744-0.404-0.999
		c-0.269-0.259-0.618-0.385-1.046-0.385c-0.572,0-1.12,0.205-1.643,0.623l-0.253-0.323c0.572-0.483,1.208-0.724,1.905-0.724
		c0.598,0,1.067,0.159,1.41,0.479c0.343,0.319,0.514,0.758,0.514,1.317c0,0.453-0.114,0.893-0.345,1.316
		c-0.23,0.423-0.65,0.945-1.26,1.569l-1.76,1.807v0.021h3.669L151.242,812.268L151.242,812.268z"/>
	<path fill="#3E3A39" d="M153.471,812.268l2.825-6.409h-3.88v-0.45h4.438v0.343l-2.834,6.518L153.471,812.268L153.471,812.268z"/>
	<path fill="#3E3A39" d="M158.15,811.901c0-0.309,0.125-0.46,0.375-0.46c0.256,0,0.386,0.151,0.386,0.46
		c0,0.305-0.129,0.46-0.386,0.46C158.275,812.361,158.15,812.206,158.15,811.901z"/>
	<path fill="#3E3A39" d="M162.195,808.143c0.732,0,1.31,0.177,1.729,0.53s0.631,0.84,0.631,1.46c0,0.703-0.219,1.25-0.657,1.643
		c-0.438,0.39-1.042,0.587-1.811,0.587c-0.341,0-0.665-0.035-0.971-0.102c-0.308-0.067-0.563-0.165-0.771-0.289v-0.482
		c0.338,0.172,0.638,0.291,0.901,0.358c0.263,0.065,0.542,0.102,0.84,0.102c0.601,0,1.082-0.159,1.445-0.478
		c0.362-0.317,0.544-0.748,0.544-1.287c0-0.512-0.178-0.91-0.53-1.201c-0.354-0.291-0.833-0.438-1.441-0.438
		c-0.405,0-0.832,0.063-1.275,0.185l-0.281-0.185l0.271-3.139h3.305v0.45h-2.862l-0.211,2.422
		C161.538,808.188,161.92,808.143,162.195,808.143z"/>
	<path fill="#3E3A39" d="M172.386,812.268v-3.346c0-0.497-0.097-0.861-0.291-1.089c-0.194-0.229-0.491-0.343-0.892-0.343
		c-0.522,0-0.909,0.144-1.159,0.432c-0.25,0.287-0.375,0.739-0.375,1.356v2.988h-0.475v-3.485c0-0.861-0.394-1.291-1.183-1.291
		c-0.535,0-0.924,0.155-1.168,0.467c-0.244,0.311-0.366,0.81-0.366,1.495v2.814h-0.465v-5.101h0.385l0.1,0.699h0.027
		c0.142-0.254,0.342-0.451,0.602-0.589c0.26-0.142,0.546-0.209,0.858-0.209c0.805,0,1.32,0.3,1.549,0.904h0.019
		c0.166-0.291,0.389-0.516,0.669-0.671c0.28-0.157,0.598-0.233,0.955-0.233c0.557,0,0.975,0.146,1.253,0.444
		c0.279,0.296,0.417,0.771,0.417,1.418v3.336h-0.46V812.268z"/>
</g>
<g enable-background="new    ">
	<path fill="#3E3A39" d="M182.792,812.268v-3.346c0-0.497-0.098-0.861-0.291-1.089c-0.194-0.229-0.491-0.343-0.893-0.343
		c-0.521,0-0.907,0.144-1.158,0.432c-0.25,0.287-0.375,0.739-0.375,1.356v2.988h-0.475v-3.485c0-0.861-0.394-1.291-1.182-1.291
		c-0.535,0-0.925,0.155-1.168,0.467c-0.244,0.311-0.366,0.81-0.366,1.495v2.814h-0.464v-5.101h0.385l0.099,0.699h0.028
		c0.142-0.254,0.341-0.451,0.602-0.589c0.26-0.142,0.546-0.209,0.858-0.209c0.804,0,1.32,0.3,1.548,0.904h0.02
		c0.166-0.291,0.389-0.516,0.668-0.671c0.28-0.157,0.598-0.233,0.955-0.233c0.557,0,0.974,0.146,1.252,0.444
		c0.278,0.296,0.418,0.771,0.418,1.418v3.336h-0.461V812.268z"/>
</g>
<g enable-background="new    ">
	<path fill="#3E3A39" d="M139.836,834.479c1.188-0.41,2.216-1.146,3.103-2.193c0.801-0.953,1.244-2.067,1.32-3.344h-4.099v-0.377
		h4.563c0,1.513-0.455,2.821-1.363,3.914c-0.907,1.104-1.979,1.87-3.2,2.303L139.836,834.479z M147.459,837.756h-0.433V827.59h0.433
		V837.756z"/>
	<path fill="#3E3A39" d="M154.107,835.464v-2.304h-4.779v-0.378h9.668v0.378h-4.456v2.304H154.107z M157.438,831.646
		c-0.952-0.247-1.772-0.671-2.455-1.267c-0.39-0.324-0.66-0.646-0.821-0.962c-0.174,0.314-0.455,0.638-0.822,0.962
		c-0.692,0.596-1.503,1.019-2.456,1.267l-0.324-0.303c0.919-0.218,1.708-0.604,2.379-1.146c0.66-0.54,0.996-1.049,0.996-1.525
		v-0.324h-2.963v-0.377h6.38v0.377h-2.963v0.324c0,0.478,0.335,0.985,1.006,1.525c0.659,0.542,1.449,0.929,2.368,1.146
		L157.438,831.646z M157.459,837.486h-6.488v-3.028h0.432v2.648h6.057V837.486z"/>
	<path fill="#3E3A39" d="M165.395,834.814c-0.778-0.498-1.438-1.199-2.001-2.132c-0.281-0.451-0.486-0.929-0.627-1.404
		c-0.14,0.498-0.346,0.995-0.627,1.472c-0.563,0.94-1.222,1.665-1.99,2.172l-0.324-0.303c0.734-0.477,1.374-1.168,1.914-2.053
		c0.529-0.888,0.801-1.808,0.801-2.76v-1.46h0.455v1.46c0,0.94,0.271,1.84,0.811,2.702c0.541,0.878,1.179,1.549,1.915,2.015
		L165.395,834.814z M167.569,832.024v5.73h-0.433V827.59h0.433v4.058h1.893v0.378L167.569,832.024L167.569,832.024z"/>
	<path fill="#3E3A39" d="M175.86,831.407c0,0.824-0.26,1.504-0.768,2.034c-0.52,0.54-1.168,0.801-1.947,0.801
		c-0.79,0-1.438-0.261-1.947-0.801c-0.519-0.53-0.768-1.21-0.768-2.034c0-0.821,0.249-1.501,0.768-2.043
		c0.51-0.53,1.157-0.801,1.947-0.801c0.778,0,1.428,0.271,1.947,0.801C175.6,829.906,175.86,830.586,175.86,831.407z
		 M175.427,831.407c0-0.713-0.216-1.297-0.649-1.773c-0.433-0.453-0.974-0.691-1.622-0.691c-0.658,0-1.199,0.238-1.633,0.691
		c-0.442,0.478-0.659,1.062-0.659,1.773c0,0.704,0.217,1.288,0.659,1.753c0.434,0.477,0.975,0.704,1.633,0.704
		c0.648,0,1.189-0.229,1.622-0.704C175.211,832.695,175.427,832.111,175.427,831.407z M178.271,837.756h-0.432V827.59h0.432V837.756
		z"/>
</g>
<g enable-background="new    ">
	<path fill="#3E3A39" d="M191.385,835.917v0.38h-9.451v-0.38H191.385z M189.936,833.43c-0.951-0.322-1.772-0.842-2.455-1.566
		c-0.39-0.4-0.66-0.813-0.821-1.223c-0.174,0.41-0.455,0.821-0.822,1.223c-0.692,0.726-1.503,1.244-2.455,1.566l-0.325-0.303
		c0.909-0.291,1.709-0.778,2.379-1.447c0.66-0.671,0.995-1.362,0.995-2.088v-0.542h-2.963v-0.378h6.381v0.378h-2.963v0.542
		c0,0.726,0.335,1.417,1.006,2.088c0.659,0.669,1.449,1.156,2.369,1.447L189.936,833.43z"/>
</g>
</svg>
