<?xml version="1.0" encoding="utf-8"?>
<!-- Generator: Adobe Illustrator 16.0.0, SVG Export Plug-In . SVG Version: 6.00 Build 0)  -->
<!DOCTYPE svg PUBLIC "-//W3C//DTD SVG 1.1//EN" "http://www.w3.org/Graphics/SVG/1.1/DTD/svg11.dtd">
<svg version="1.1" id="Layer_1" xmlns="http://www.w3.org/2000/svg" xmlns:xlink="http://www.w3.org/1999/xlink" x="0px" y="0px"
	 width="545.604px" height="614.274px" viewBox="0 0 545.604 614.274" enable-background="new 0 0 545.604 614.274"
	 xml:space="preserve">
<g enable-background="new    ">
	<path fill="#4E4542" d="M102.006,283.196v2.799h-0.448v-6.425h1.529c0.797,0,1.386,0.146,1.767,0.441
		c0.381,0.295,0.571,0.738,0.571,1.329c0,0.432-0.114,0.795-0.34,1.09c-0.229,0.297-0.572,0.509-1.035,0.638l1.745,2.927h-0.536
		l-1.657-2.799H102.006z M102.006,282.809h1.226c0.542,0,0.962-0.121,1.262-0.363c0.299-0.241,0.447-0.598,0.447-1.07
		c0-0.488-0.146-0.845-0.438-1.067s-0.771-0.334-1.434-0.334h-1.063V282.809z"/>
</g>
<g enable-background="new    ">
	<path fill="#4E4542" d="M110.983,282.764c0,1.129-0.172,1.964-0.516,2.506c-0.345,0.542-0.865,0.813-1.563,0.813
		c-0.671,0-1.181-0.279-1.528-0.837c-0.35-0.559-0.523-1.385-0.523-2.481c0-1.118,0.169-1.947,0.507-2.486
		c0.339-0.539,0.854-0.809,1.545-0.809c0.678,0,1.192,0.278,1.548,0.837C110.805,280.864,110.983,281.684,110.983,282.764z
		 M107.326,282.764c0,0.997,0.13,1.732,0.391,2.209c0.261,0.476,0.656,0.714,1.187,0.714c0.555,0,0.957-0.246,1.211-0.738
		c0.254-0.492,0.381-1.22,0.381-2.185c0-0.949-0.127-1.67-0.381-2.162c-0.254-0.492-0.656-0.738-1.211-0.738
		c-0.554,0-0.954,0.246-1.203,0.738C107.451,281.094,107.326,281.815,107.326,282.764z"/>
</g>
<g enable-background="new    ">
	<path fill="#4E4542" d="M116.774,279.135h0.404v9.083h-0.404V279.135z"/>
</g>
<g enable-background="new    ">
	<path fill="#4E4542" d="M125.897,282.756h2.369v2.931c-0.621,0.264-1.32,0.396-2.096,0.396c-1.015,0-1.791-0.286-2.331-0.859
		c-0.541-0.572-0.812-1.383-0.812-2.432c0-0.653,0.135-1.233,0.402-1.738c0.27-0.506,0.652-0.896,1.151-1.172
		c0.5-0.274,1.072-0.412,1.721-0.412c0.7,0,1.329,0.129,1.885,0.387l-0.18,0.404c-0.557-0.258-1.134-0.387-1.731-0.387
		c-0.847,0-1.519,0.261-2.015,0.784c-0.497,0.522-0.745,1.228-0.745,2.116c0,0.967,0.236,1.693,0.708,2.182
		c0.472,0.487,1.165,0.731,2.079,0.731c0.592,0,1.094-0.083,1.507-0.251v-2.258h-1.912L125.897,282.756L125.897,282.756z"/>
</g>
<g enable-background="new    ">
	<path fill="#4E4542" d="M130.786,285.995l2.646-6.003h-3.634v-0.422h4.157v0.321l-2.654,6.104H130.786z"/>
	<path fill="#4E4542" d="M137.453,285.995h-0.432v-4.68c0-0.425,0.019-0.866,0.054-1.323c-0.045,0.044-0.09,0.087-0.137,0.128
		s-0.5,0.396-1.357,1.067l-0.25-0.312l1.745-1.306h0.378L137.453,285.995L137.453,285.995z"/>
</g>
<g enable-background="new    ">
	<path fill="#4E4542" d="M145.244,279.135h0.403v9.083h-0.403V279.135z"/>
</g>
<g enable-background="new    ">
	<path fill="#4E4542" d="M151.479,279.57h1.763c0.794,0,1.377,0.135,1.748,0.404c0.372,0.269,0.559,0.677,0.559,1.222
		c0,0.372-0.114,0.682-0.34,0.93c-0.229,0.247-0.56,0.406-0.996,0.477v0.026c0.513,0.076,0.89,0.238,1.131,0.485
		c0.242,0.248,0.363,0.593,0.363,1.035c0,0.592-0.196,1.048-0.589,1.367c-0.394,0.319-0.949,0.479-1.671,0.479h-1.969
		L151.479,279.57L151.479,279.57z M151.927,282.43h1.415c0.604,0,1.042-0.1,1.316-0.301c0.273-0.2,0.41-0.515,0.41-0.942
		s-0.154-0.738-0.464-0.932c-0.309-0.194-0.77-0.29-1.382-0.29h-1.296V282.43L151.927,282.43z M151.927,282.827v2.772h1.512
		c1.189,0,1.784-0.483,1.784-1.45c0-0.882-0.627-1.322-1.881-1.322H151.927z"/>
	<path fill="#4E4542" d="M159.209,285.995h-0.432v-4.68c0-0.425,0.019-0.866,0.054-1.323c-0.044,0.044-0.089,0.087-0.137,0.128
		c-0.047,0.041-0.5,0.396-1.357,1.067l-0.25-0.312l1.745-1.306h0.378L159.209,285.995L159.209,285.995z"/>
	<path fill="#4E4542" d="M166.364,284.356h-1.106v1.639h-0.413v-1.639h-3.305v-0.295l3.186-4.526h0.532v4.442h1.106V284.356
		L166.364,284.356z M164.843,283.977v-1.836c0-0.885,0.021-1.628,0.062-2.229h-0.034c-0.06,0.108-0.239,0.384-0.541,0.826
		l-2.269,3.238L164.843,283.977L164.843,283.977z"/>
</g>
<g enable-background="new    ">
	<path fill="#4E4542" d="M172.563,282.764c0,1.129-0.172,1.964-0.516,2.506c-0.345,0.542-0.865,0.813-1.563,0.813
		c-0.671,0-1.181-0.279-1.528-0.837c-0.35-0.559-0.523-1.385-0.523-2.481c0-1.118,0.169-1.947,0.507-2.486
		c0.339-0.539,0.854-0.809,1.545-0.809c0.678,0,1.192,0.278,1.547,0.837C172.385,280.864,172.563,281.684,172.563,282.764z
		 M168.906,282.764c0,0.997,0.131,1.732,0.392,2.209c0.261,0.476,0.656,0.714,1.187,0.714c0.555,0,0.957-0.246,1.211-0.738
		c0.254-0.492,0.381-1.22,0.381-2.185c0-0.949-0.127-1.67-0.381-2.162c-0.254-0.492-0.656-0.738-1.211-0.738
		c-0.554,0-0.955,0.246-1.204,0.738C169.031,281.094,168.906,281.815,168.906,282.764z"/>
</g>
<g enable-background="new    ">
	<path fill="#4E4542" d="M104.3,297.026c-0.806,0-1.44,0.259-1.903,0.773c-0.463,0.517-0.693,1.223-0.693,2.119
		c0,0.917,0.218,1.629,0.654,2.135c0.438,0.508,1.062,0.761,1.872,0.761c0.539,0,1.034-0.068,1.485-0.206v0.395
		c-0.425,0.15-0.955,0.225-1.591,0.225c-0.902,0-1.613-0.291-2.131-0.875c-0.52-0.582-0.778-1.396-0.778-2.443
		c0-0.652,0.124-1.229,0.372-1.727c0.247-0.498,0.603-0.883,1.066-1.153c0.465-0.271,1.005-0.407,1.62-0.407
		c0.627,0,1.188,0.118,1.684,0.352l-0.181,0.404C105.307,297.144,104.815,297.026,104.3,297.026z"/>
</g>
<g enable-background="new    ">
	<path fill="#4E4542" d="M111.141,299.439c0,0.844-0.111,1.55-0.332,2.118s-0.543,0.988-0.967,1.262
		c-0.423,0.271-0.935,0.408-1.536,0.408c-0.305,0-0.586-0.038-0.844-0.114v-0.378c0.126,0.041,0.276,0.072,0.455,0.095
		c0.177,0.021,0.313,0.032,0.407,0.032c0.724,0,1.29-0.261,1.7-0.784c0.41-0.522,0.64-1.285,0.687-2.287h-0.053
		c-0.215,0.281-0.47,0.497-0.766,0.648c-0.296,0.15-0.604,0.226-0.927,0.226c-0.595,0-1.06-0.163-1.391-0.492
		c-0.333-0.327-0.499-0.793-0.499-1.396c0-0.645,0.182-1.166,0.547-1.564c0.363-0.398,0.838-0.598,1.421-0.598
		c0.422,0,0.791,0.11,1.106,0.331c0.316,0.222,0.561,0.546,0.732,0.974C111.055,298.346,111.141,298.853,111.141,299.439z
		 M109.045,297c-0.463,0-0.832,0.155-1.107,0.468c-0.274,0.313-0.413,0.739-0.413,1.28c0,0.51,0.127,0.896,0.383,1.16
		c0.255,0.264,0.619,0.396,1.094,0.396c0.296,0,0.571-0.066,0.829-0.198c0.256-0.132,0.459-0.307,0.609-0.525
		c0.151-0.218,0.228-0.439,0.228-0.665c0-0.344-0.068-0.664-0.204-0.963c-0.137-0.299-0.327-0.532-0.571-0.701
		C109.646,297.084,109.365,297,109.045,297z"/>
	<path fill="#4E4542" d="M116.279,299.439c0,0.844-0.11,1.55-0.332,2.118c-0.221,0.568-0.543,0.988-0.967,1.262
		c-0.423,0.271-0.935,0.408-1.536,0.408c-0.305,0-0.586-0.038-0.844-0.114v-0.378c0.126,0.041,0.277,0.072,0.455,0.095
		c0.177,0.021,0.313,0.032,0.407,0.032c0.724,0,1.291-0.261,1.701-0.784c0.409-0.522,0.639-1.285,0.686-2.287h-0.053
		c-0.214,0.281-0.469,0.497-0.766,0.648c-0.296,0.15-0.604,0.226-0.927,0.226c-0.595,0-1.059-0.163-1.391-0.492
		c-0.333-0.327-0.499-0.793-0.499-1.396c0-0.645,0.182-1.166,0.547-1.564c0.364-0.398,0.838-0.598,1.421-0.598
		c0.422,0,0.791,0.11,1.107,0.331c0.315,0.222,0.56,0.546,0.731,0.974C116.193,298.346,116.279,298.853,116.279,299.439z
		 M114.182,297c-0.463,0-0.832,0.155-1.106,0.468c-0.275,0.313-0.413,0.739-0.413,1.28c0,0.51,0.127,0.896,0.382,1.16
		c0.255,0.264,0.62,0.396,1.094,0.396c0.296,0,0.572-0.066,0.829-0.198c0.256-0.132,0.459-0.307,0.61-0.525
		c0.15-0.218,0.227-0.439,0.227-0.665c0-0.344-0.068-0.664-0.204-0.963c-0.137-0.299-0.327-0.532-0.571-0.701
		C114.783,297.084,114.502,297,114.182,297z"/>
</g>
<g enable-background="new    ">
	<path fill="#4E4542" d="M122.513,296.28h0.404v9.083h-0.404V296.28z"/>
</g>
<g enable-background="new    ">
	<path fill="#4E4542" d="M131.575,303.139l-2.396-5.933h-0.035c0.023,0.363,0.035,0.735,0.035,1.116v4.816h-0.431v-6.425h0.693
		l2.276,5.651h0.026l2.275-5.651h0.677v6.425h-0.452v-4.869c0-0.34,0.018-0.691,0.053-1.055h-0.035l-2.404,5.924L131.575,303.139
		L131.575,303.139z"/>
	<path fill="#4E4542" d="M137.073,303.139l2.646-6.003h-3.634v-0.422h4.157v0.321l-2.654,6.104H137.073z"/>
	<path fill="#4E4542" d="M141.318,300.401c0-0.834,0.113-1.537,0.341-2.106c0.227-0.57,0.55-0.992,0.967-1.269
		c0.418-0.274,0.921-0.412,1.51-0.412c0.275,0,0.527,0.033,0.756,0.101v0.387c-0.214-0.079-0.472-0.118-0.772-0.118
		c-0.725,0-1.287,0.261-1.689,0.781c-0.403,0.522-0.629,1.281-0.679,2.277h0.057c0.223-0.287,0.479-0.504,0.765-0.65
		c0.287-0.146,0.591-0.221,0.91-0.221c0.602,0,1.07,0.172,1.409,0.515c0.338,0.343,0.507,0.816,0.507,1.419
		c0,0.657-0.178,1.175-0.534,1.554c-0.355,0.38-0.836,0.569-1.438,0.569c-0.65,0-1.164-0.248-1.54-0.745
		C141.506,301.986,141.318,301.292,141.318,300.401z M143.423,302.84c0.479,0,0.854-0.15,1.121-0.453
		c0.267-0.301,0.399-0.73,0.399-1.291c0-0.492-0.132-0.876-0.396-1.152c-0.264-0.274-0.623-0.412-1.077-0.412
		c-0.299,0-0.577,0.065-0.833,0.197c-0.257,0.132-0.461,0.307-0.613,0.525c-0.151,0.218-0.229,0.441-0.229,0.67
		c0,0.325,0.072,0.638,0.218,0.938c0.146,0.3,0.341,0.538,0.589,0.714C142.85,302.752,143.124,302.84,143.423,302.84z"/>
</g>
<g enable-background="new    ">
	<path fill="#4E4542" d="M152.249,296.28h0.403v9.083h-0.403V296.28z"/>
</g>
<g enable-background="new    ">
	<path fill="#4E4542" d="M159.961,300.23l1.881-3.516h0.483l-2.141,3.942v2.482h-0.461v-2.447l-2.148-3.978h0.514L159.961,300.23z"
		/>
	<path fill="#4E4542" d="M165.322,303.139h-0.431v-4.68c0-0.425,0.019-0.866,0.053-1.323c-0.044,0.044-0.089,0.087-0.136,0.128
		s-0.5,0.396-1.357,1.067l-0.25-0.312l1.744-1.306h0.378L165.322,303.139L165.322,303.139z"/>
	<path fill="#4E4542" d="M169.822,299.276c0.687,0,1.226,0.166,1.62,0.497s0.592,0.786,0.592,1.366c0,0.66-0.205,1.173-0.615,1.539
		c-0.41,0.366-0.977,0.549-1.696,0.549c-0.319,0-0.623-0.031-0.91-0.095c-0.287-0.063-0.526-0.152-0.721-0.271v-0.452
		c0.316,0.161,0.598,0.273,0.844,0.336s0.508,0.095,0.787,0.095c0.563,0,1.014-0.148,1.354-0.446c0.34-0.297,0.51-0.699,0.51-1.206
		c0-0.478-0.166-0.853-0.497-1.125s-0.781-0.408-1.349-0.408c-0.382,0-0.779,0.057-1.195,0.171l-0.265-0.171l0.256-2.94h3.094v0.422
		h-2.681l-0.198,2.268C169.207,299.319,169.564,299.276,169.822,299.276z"/>
</g>
<g enable-background="new    ">
	<path fill="#4E4542" d="M178.969,296.28h0.404v9.083h-0.404V296.28z"/>
</g>
<g enable-background="new    ">
	<path fill="#4E4542" d="M189.884,303.139h-0.549l-2.465-3.393l-0.857,0.756v2.637h-0.448v-6.425h0.448v3.34l0.712-0.712
		l2.519-2.628h0.57l-2.632,2.716L189.884,303.139z"/>
</g>
<g enable-background="new    ">
	<path fill="#4E4542" d="M194.538,298.226c0,0.398-0.125,0.733-0.375,1.007c-0.251,0.271-0.587,0.446-1.01,0.522v0.026
		c0.517,0.063,0.908,0.229,1.179,0.492c0.27,0.263,0.403,0.618,0.403,1.063c0,0.601-0.203,1.065-0.612,1.396
		c-0.408,0.329-0.997,0.494-1.765,0.494c-0.652,0-1.223-0.121-1.709-0.365v-0.435c0.246,0.129,0.522,0.23,0.828,0.304
		c0.307,0.074,0.594,0.109,0.864,0.109c0.646,0,1.134-0.131,1.459-0.394c0.325-0.262,0.488-0.632,0.488-1.109
		c0-0.425-0.167-0.751-0.499-0.979s-0.821-0.344-1.465-0.344h-0.694v-0.422h0.703c0.533,0,0.956-0.126,1.268-0.38
		c0.313-0.253,0.468-0.597,0.468-1.03c0-0.357-0.127-0.644-0.38-0.859c-0.254-0.215-0.585-0.322-0.996-0.322
		c-0.318,0-0.61,0.044-0.875,0.134c-0.264,0.089-0.56,0.242-0.888,0.459l-0.215-0.294c0.249-0.208,0.549-0.373,0.901-0.495
		c0.352-0.121,0.708-0.183,1.067-0.183c0.592,0,1.049,0.141,1.371,0.42C194.377,297.322,194.538,297.716,194.538,298.226z"/>
</g>
<g enable-background="new    ">
	<path fill="#4E4542" d="M104.897,316.206l-0.334,1.75h1.332v0.346h-1.406l-0.378,1.982h-0.396l0.387-1.982h-1.582l-0.378,1.982
		h-0.387l0.378-1.982h-1.244v-0.346h1.314l0.334-1.75h-1.306v-0.352h1.367l0.378-1.995h0.4l-0.392,1.995h1.604l0.387-1.995h0.378
		l-0.387,1.995h1.252v0.352H104.897z M102.581,317.956h1.595l0.343-1.75h-1.595L102.581,317.956z"/>
	<path fill="#4E4542" d="M111.098,317.053c0,1.129-0.172,1.964-0.516,2.506c-0.346,0.542-0.865,0.813-1.563,0.813
		c-0.671,0-1.181-0.279-1.528-0.836c-0.35-0.56-0.523-1.386-0.523-2.481c0-1.118,0.169-1.947,0.507-2.486
		c0.339-0.538,0.854-0.81,1.545-0.81c0.677,0,1.192,0.279,1.547,0.838C110.921,315.153,111.098,315.973,111.098,317.053z
		 M107.442,317.053c0,0.996,0.13,1.732,0.392,2.209c0.261,0.477,0.655,0.714,1.187,0.714c0.555,0,0.957-0.246,1.211-0.737
		c0.253-0.492,0.38-1.221,0.38-2.186c0-0.949-0.127-1.67-0.38-2.162c-0.254-0.492-0.656-0.738-1.211-0.738
		c-0.554,0-0.955,0.246-1.204,0.738S107.442,316.104,107.442,317.053z"/>
	<path fill="#4E4542" d="M116.235,317.053c0,1.129-0.172,1.964-0.516,2.506c-0.345,0.542-0.865,0.813-1.563,0.813
		c-0.671,0-1.181-0.279-1.528-0.836c-0.35-0.56-0.523-1.386-0.523-2.481c0-1.118,0.169-1.947,0.507-2.486
		c0.34-0.538,0.854-0.81,1.545-0.81c0.678,0,1.192,0.279,1.548,0.838C116.058,315.153,116.235,315.973,116.235,317.053z
		 M112.579,317.053c0,0.996,0.13,1.732,0.391,2.209s0.656,0.714,1.188,0.714c0.554,0,0.956-0.246,1.211-0.737
		c0.253-0.492,0.38-1.221,0.38-2.186c0-0.949-0.127-1.67-0.38-2.162c-0.255-0.492-0.657-0.738-1.211-0.738
		c-0.555,0-0.955,0.246-1.204,0.738S112.579,316.104,112.579,317.053z"/>
	<path fill="#4E4542" d="M121.75,318.645h-1.107v1.639h-0.413v-1.639h-3.305v-0.295l3.186-4.525h0.532v4.441h1.107V318.645z
		 M120.23,318.266v-1.836c0-0.885,0.021-1.629,0.063-2.229h-0.035c-0.06,0.107-0.239,0.383-0.541,0.825l-2.269,3.238L120.23,318.266
		L120.23,318.266z"/>
	<path fill="#4E4542" d="M123.341,320.284l2.646-6.002h-3.634v-0.423h4.157v0.321l-2.654,6.104H123.341L123.341,320.284z"/>
	<path fill="#4E4542" d="M129.568,313.749c0.545,0,0.983,0.141,1.316,0.418c0.332,0.278,0.499,0.654,0.499,1.129
		c0,0.33-0.104,0.619-0.311,0.871c-0.205,0.252-0.541,0.484-1.004,0.699c0.563,0.23,0.958,0.484,1.188,0.76
		c0.229,0.276,0.343,0.609,0.343,1.002c0,0.531-0.186,0.953-0.556,1.271c-0.371,0.315-0.868,0.476-1.492,0.476
		c-0.647,0-1.145-0.147-1.49-0.443c-0.346-0.297-0.519-0.727-0.519-1.293c0-0.383,0.122-0.721,0.364-1.01
		c0.243-0.291,0.62-0.539,1.13-0.744c-0.473-0.223-0.805-0.457-0.998-0.705c-0.193-0.247-0.29-0.543-0.29-0.889
		c0-0.31,0.078-0.578,0.232-0.813c0.155-0.232,0.373-0.412,0.653-0.538C128.914,313.812,129.225,313.749,129.568,313.749z
		 M127.99,318.702c0,0.404,0.137,0.719,0.41,0.94c0.274,0.222,0.657,0.334,1.149,0.334c0.479,0,0.867-0.118,1.16-0.354
		s0.438-0.556,0.438-0.959c0-0.363-0.114-0.66-0.345-0.887c-0.229-0.229-0.673-0.465-1.33-0.714
		c-0.539,0.208-0.921,0.438-1.146,0.688C128.101,318.002,127.99,318.321,127.99,318.702z M129.559,314.145
		c-0.413,0-0.745,0.102-0.995,0.305c-0.251,0.204-0.376,0.483-0.376,0.838c0,0.205,0.046,0.387,0.14,0.543
		c0.092,0.156,0.225,0.299,0.398,0.426s0.467,0.277,0.877,0.445c0.479-0.184,0.82-0.388,1.028-0.609
		c0.208-0.223,0.312-0.49,0.312-0.805c0-0.352-0.124-0.629-0.372-0.836C130.324,314.249,129.987,314.145,129.559,314.145z"/>
</g>
<g enable-background="new    ">
	<path fill="#4E4542" d="M137.96,314.17c-0.807,0-1.44,0.259-1.903,0.772c-0.463,0.517-0.694,1.224-0.694,2.119
		c0,0.917,0.219,1.629,0.655,2.136c0.438,0.508,1.062,0.76,1.872,0.76c0.539,0,1.034-0.067,1.485-0.205v0.395
		c-0.425,0.15-0.955,0.225-1.591,0.225c-0.902,0-1.613-0.291-2.132-0.875c-0.519-0.582-0.777-1.396-0.777-2.442
		c0-0.652,0.124-1.229,0.372-1.728c0.247-0.498,0.603-0.883,1.066-1.152c0.464-0.271,1.004-0.407,1.62-0.407
		c0.627,0,1.188,0.118,1.684,0.353l-0.181,0.403C138.968,314.29,138.475,314.17,137.96,314.17z"/>
</g>
<g enable-background="new    ">
	<path fill="#4E4542" d="M361.376,283.204v2.799h-0.448v-6.425h1.528c0.798,0,1.387,0.147,1.768,0.441
		c0.381,0.295,0.571,0.738,0.571,1.329c0,0.432-0.114,0.795-0.342,1.09c-0.227,0.297-0.571,0.509-1.034,0.638l1.744,2.927h-0.535
		l-1.656-2.799H361.376L361.376,283.204z M361.376,282.817h1.227c0.541,0,0.962-0.121,1.261-0.363
		c0.299-0.241,0.448-0.598,0.448-1.07c0-0.488-0.146-0.845-0.439-1.067s-0.771-0.334-1.433-0.334h-1.063L361.376,282.817
		L361.376,282.817z"/>
</g>
<g enable-background="new    ">
	<path fill="#4E4542" d="M368.076,282.139c0.687,0,1.226,0.166,1.619,0.497c0.395,0.331,0.592,0.786,0.592,1.366
		c0,0.66-0.205,1.173-0.614,1.539c-0.41,0.366-0.978,0.549-1.697,0.549c-0.318,0-0.622-0.031-0.909-0.095
		c-0.287-0.063-0.527-0.152-0.721-0.271v-0.452c0.315,0.161,0.598,0.273,0.844,0.336s0.509,0.095,0.786,0.095
		c0.563,0,1.014-0.148,1.354-0.446c0.341-0.297,0.511-0.699,0.511-1.206c0-0.478-0.165-0.853-0.496-1.125
		c-0.331-0.271-0.781-0.408-1.351-0.408c-0.381,0-0.778,0.057-1.194,0.171l-0.265-0.171l0.257-2.94h3.094V280h-2.683l-0.196,2.268
		C367.462,282.182,367.82,282.139,368.076,282.139z"/>
	<path fill="#4E4542" d="M373.852,286.002h-0.431v-4.68c0-0.425,0.018-0.866,0.053-1.323c-0.044,0.044-0.09,0.087-0.137,0.128
		c-0.048,0.041-0.499,0.396-1.357,1.067l-0.25-0.312l1.744-1.306h0.378V286.002z"/>
</g>
<g enable-background="new    ">
	<path fill="#4E4542" d="M381.643,279.143h0.404v9.083h-0.404V279.143z"/>
</g>
<g enable-background="new    ">
	<path fill="#4E4542" d="M390.765,282.764h2.369v2.931c-0.621,0.264-1.32,0.396-2.098,0.396c-1.014,0-1.791-0.286-2.331-0.859
		c-0.541-0.572-0.811-1.383-0.811-2.432c0-0.653,0.134-1.233,0.401-1.738c0.269-0.506,0.65-0.896,1.15-1.172
		c0.5-0.274,1.073-0.412,1.722-0.412c0.699,0,1.327,0.129,1.885,0.387l-0.18,0.404c-0.558-0.258-1.135-0.387-1.731-0.387
		c-0.847,0-1.519,0.261-2.015,0.784c-0.497,0.522-0.745,1.228-0.745,2.116c0,0.967,0.234,1.693,0.708,2.182
		c0.471,0.487,1.164,0.731,2.078,0.731c0.592,0,1.094-0.083,1.508-0.251v-2.258h-1.912L390.765,282.764L390.765,282.764z"/>
</g>
<g enable-background="new    ">
	<path fill="#4E4542" d="M396.547,282.139c0.686,0,1.226,0.166,1.619,0.497c0.394,0.331,0.591,0.786,0.591,1.366
		c0,0.66-0.205,1.173-0.615,1.539s-0.976,0.549-1.695,0.549c-0.319,0-0.623-0.031-0.91-0.095c-0.286-0.063-0.526-0.152-0.721-0.271
		v-0.452c0.316,0.161,0.598,0.273,0.844,0.336s0.509,0.095,0.787,0.095c0.563,0,1.015-0.148,1.354-0.446
		c0.34-0.297,0.51-0.699,0.51-1.206c0-0.478-0.166-0.853-0.497-1.125c-0.331-0.271-0.78-0.408-1.349-0.408
		c-0.382,0-0.779,0.057-1.195,0.171l-0.264-0.171l0.254-2.94h3.094V280h-2.68l-0.198,2.268
		C395.932,282.182,396.288,282.139,396.547,282.139z"/>
	<path fill="#4E4542" d="M402.322,286.002h-0.431v-4.68c0-0.425,0.018-0.866,0.053-1.323c-0.044,0.044-0.089,0.087-0.136,0.128
		s-0.5,0.396-1.358,1.067l-0.251-0.312l1.745-1.306h0.378V286.002z"/>
</g>
<g enable-background="new    ">
	<path fill="#4E4542" d="M410.112,279.143h0.404v9.083h-0.404V279.143z"/>
</g>
<g enable-background="new    ">
	<path fill="#4E4542" d="M416.347,279.578h1.762c0.795,0,1.377,0.135,1.75,0.404c0.371,0.27,0.558,0.677,0.558,1.222
		c0,0.372-0.113,0.682-0.341,0.93c-0.227,0.247-0.559,0.406-0.995,0.477v0.026c0.514,0.076,0.891,0.238,1.133,0.485
		c0.241,0.248,0.361,0.593,0.361,1.035c0,0.592-0.195,1.048-0.589,1.367c-0.393,0.319-0.949,0.479-1.67,0.479h-1.969V279.578z
		 M416.795,282.438h1.415c0.604,0,1.042-0.1,1.315-0.301c0.273-0.2,0.41-0.515,0.41-0.942c0-0.427-0.154-0.738-0.463-0.932
		c-0.311-0.193-0.771-0.29-1.383-0.29h-1.296L416.795,282.438L416.795,282.438z M416.795,282.834v2.772h1.512
		c1.188,0,1.784-0.483,1.784-1.45c0-0.882-0.627-1.322-1.881-1.322H416.795z"/>
	<path fill="#4E4542" d="M423.44,282.139c0.687,0,1.227,0.166,1.62,0.497c0.393,0.331,0.59,0.786,0.59,1.366
		c0,0.66-0.205,1.173-0.615,1.539c-0.409,0.366-0.975,0.549-1.694,0.549c-0.32,0-0.623-0.031-0.91-0.095
		c-0.287-0.063-0.527-0.152-0.721-0.271v-0.452c0.315,0.161,0.598,0.273,0.844,0.336s0.508,0.095,0.787,0.095
		c0.563,0,1.014-0.148,1.354-0.446c0.34-0.297,0.51-0.699,0.51-1.206c0-0.478-0.166-0.853-0.497-1.125
		c-0.331-0.271-0.779-0.408-1.349-0.408c-0.381,0-0.779,0.057-1.195,0.171l-0.264-0.171l0.254-2.94h3.094V280h-2.68l-0.198,2.268
		C422.823,282.182,423.182,282.139,423.44,282.139z"/>
</g>
<g enable-background="new    ">
	<path fill="#4E4542" d="M430.294,286.002h-0.432v-4.68c0-0.425,0.019-0.866,0.054-1.323c-0.045,0.044-0.09,0.087-0.137,0.128
		s-0.5,0.396-1.357,1.067l-0.251-0.312l1.745-1.306h0.378V286.002z"/>
</g>
<g enable-background="new    ">
	<path fill="#4E4542" d="M363.67,298.088c-0.807,0-1.44,0.259-1.903,0.773c-0.463,0.517-0.693,1.223-0.693,2.119
		c0,0.917,0.218,1.629,0.654,2.135c0.437,0.508,1.061,0.761,1.872,0.761c0.539,0,1.034-0.068,1.485-0.206v0.395
		c-0.426,0.15-0.955,0.225-1.592,0.225c-0.901,0-1.611-0.291-2.132-0.875c-0.518-0.582-0.776-1.396-0.776-2.443
		c0-0.652,0.122-1.229,0.37-1.727s0.604-0.883,1.068-1.153s1.004-0.407,1.619-0.407c0.627,0,1.188,0.118,1.684,0.352l-0.181,0.404
		C364.678,298.207,364.186,298.088,363.67,298.088z"/>
</g>
<g enable-background="new    ">
	<path fill="#4E4542" d="M366.533,301.463c0-0.834,0.113-1.537,0.34-2.106c0.228-0.57,0.551-0.992,0.968-1.269
		c0.418-0.274,0.921-0.412,1.51-0.412c0.275,0,0.527,0.033,0.756,0.101v0.387c-0.214-0.079-0.472-0.118-0.772-0.118
		c-0.725,0-1.287,0.261-1.689,0.781c-0.403,0.522-0.629,1.281-0.68,2.277h0.058c0.223-0.287,0.479-0.504,0.765-0.65
		c0.287-0.146,0.591-0.221,0.91-0.221c0.601,0,1.069,0.172,1.408,0.515c0.338,0.343,0.508,0.816,0.508,1.419
		c0,0.657-0.179,1.175-0.534,1.554c-0.355,0.38-0.836,0.569-1.438,0.569c-0.65,0-1.164-0.248-1.54-0.745
		C366.722,303.048,366.533,302.355,366.533,301.463z M368.639,303.903c0.479,0,0.854-0.15,1.12-0.453
		c0.268-0.301,0.399-0.731,0.399-1.291c0-0.492-0.132-0.876-0.396-1.152c-0.265-0.274-0.622-0.412-1.077-0.412
		c-0.299,0-0.576,0.065-0.832,0.197c-0.257,0.132-0.461,0.307-0.613,0.525c-0.151,0.218-0.229,0.441-0.229,0.67
		c0,0.325,0.072,0.638,0.218,0.938c0.145,0.3,0.341,0.538,0.589,0.714C368.067,303.815,368.34,303.903,368.639,303.903z"/>
	<path fill="#4E4542" d="M375.648,300.501c0,0.844-0.11,1.55-0.332,2.118c-0.221,0.568-0.543,0.988-0.967,1.262
		c-0.423,0.271-0.936,0.408-1.535,0.408c-0.305,0-0.586-0.038-0.844-0.114v-0.378c0.126,0.041,0.276,0.072,0.455,0.095
		c0.177,0.021,0.313,0.032,0.405,0.032c0.725,0,1.291-0.261,1.701-0.784c0.41-0.522,0.64-1.285,0.687-2.287h-0.054
		c-0.215,0.281-0.469,0.497-0.766,0.648c-0.295,0.15-0.604,0.226-0.927,0.226c-0.595,0-1.06-0.163-1.393-0.492
		c-0.332-0.327-0.498-0.793-0.498-1.396c0-0.645,0.183-1.166,0.548-1.564c0.364-0.398,0.839-0.598,1.422-0.598
		c0.422,0,0.791,0.11,1.106,0.331c0.316,0.222,0.562,0.546,0.732,0.974C375.562,299.409,375.648,299.916,375.648,300.501z
		 M373.552,298.063c-0.463,0-0.832,0.155-1.107,0.468c-0.274,0.312-0.413,0.739-0.413,1.28c0,0.51,0.128,0.896,0.382,1.16
		c0.257,0.264,0.62,0.396,1.096,0.396c0.296,0,0.57-0.066,0.829-0.198c0.256-0.132,0.459-0.307,0.608-0.525
		c0.151-0.218,0.228-0.439,0.228-0.665c0-0.344-0.068-0.664-0.203-0.963c-0.137-0.299-0.328-0.532-0.572-0.701
		C374.154,298.147,373.87,298.063,373.552,298.063z"/>
</g>
<g enable-background="new    ">
	<path fill="#4E4542" d="M381.884,297.342h0.403v9.083h-0.403V297.342z"/>
</g>
<g enable-background="new    ">
	<path fill="#4E4542" d="M390.946,304.202l-2.396-5.933h-0.035c0.022,0.363,0.035,0.735,0.035,1.116v4.816h-0.431v-6.425h0.693
		l2.277,5.651h0.024l2.277-5.651h0.676v6.425h-0.452v-4.869c0-0.34,0.019-0.691,0.054-1.055h-0.035l-2.403,5.924L390.946,304.202
		L390.946,304.202z"/>
	<path fill="#4E4542" d="M395.551,301.463c0-0.834,0.112-1.537,0.341-2.106c0.227-0.57,0.549-0.992,0.967-1.269
		c0.418-0.274,0.92-0.412,1.51-0.412c0.275,0,0.527,0.033,0.757,0.101v0.387c-0.216-0.079-0.474-0.118-0.773-0.118
		c-0.725,0-1.287,0.261-1.689,0.781c-0.403,0.522-0.63,1.281-0.68,2.277h0.057c0.224-0.287,0.479-0.504,0.767-0.65
		s0.59-0.221,0.909-0.221c0.601,0,1.068,0.172,1.408,0.515c0.339,0.343,0.508,0.816,0.508,1.419c0,0.657-0.18,1.175-0.534,1.554
		c-0.355,0.38-0.836,0.569-1.439,0.569c-0.649,0-1.164-0.248-1.539-0.745C395.74,303.048,395.551,302.355,395.551,301.463z
		 M397.656,303.903c0.48,0,0.854-0.15,1.121-0.453c0.268-0.301,0.4-0.731,0.4-1.291c0-0.492-0.133-0.876-0.396-1.152
		c-0.264-0.274-0.622-0.412-1.076-0.412c-0.299,0-0.575,0.065-0.832,0.197c-0.258,0.132-0.461,0.307-0.612,0.525
		c-0.152,0.218-0.229,0.441-0.229,0.67c0,0.325,0.072,0.638,0.217,0.938c0.146,0.3,0.343,0.538,0.591,0.714
		C397.082,303.815,397.357,303.903,397.656,303.903z"/>
	<path fill="#4E4542" d="M404.414,299.289c0,0.398-0.126,0.733-0.376,1.007c-0.251,0.271-0.587,0.446-1.009,0.522v0.026
		c0.517,0.064,0.908,0.229,1.178,0.492c0.271,0.263,0.404,0.618,0.404,1.063c0,0.601-0.204,1.065-0.613,1.396
		c-0.407,0.329-0.995,0.494-1.764,0.494c-0.654,0-1.224-0.121-1.71-0.365v-0.435c0.246,0.129,0.522,0.229,0.828,0.304
		s0.595,0.109,0.864,0.109c0.646,0,1.133-0.131,1.459-0.394c0.324-0.262,0.486-0.632,0.486-1.109c0-0.425-0.167-0.751-0.499-0.979
		c-0.331-0.228-0.819-0.344-1.465-0.344h-0.694v-0.422h0.703c0.532,0,0.955-0.126,1.269-0.38c0.312-0.253,0.468-0.597,0.468-1.03
		c0-0.357-0.127-0.644-0.38-0.859c-0.254-0.215-0.585-0.322-0.995-0.322c-0.32,0-0.61,0.044-0.875,0.134
		c-0.264,0.089-0.56,0.242-0.888,0.459l-0.216-0.294c0.25-0.208,0.55-0.373,0.9-0.495c0.353-0.121,0.708-0.183,1.067-0.183
		c0.592,0,1.049,0.141,1.371,0.42C404.253,298.384,404.414,298.779,404.414,299.289z"/>
</g>
<g enable-background="new    ">
	<path fill="#4E4542" d="M411.617,297.342h0.404v9.083h-0.404V297.342z"/>
</g>
<g enable-background="new    ">
	<path fill="#4E4542" d="M419.33,301.292l1.882-3.516h0.482l-2.14,3.942v2.482h-0.462v-2.447l-2.149-3.978h0.516L419.33,301.292z"/>
	<path fill="#4E4542" d="M422.271,301.463c0-0.834,0.113-1.537,0.341-2.106c0.229-0.57,0.55-0.992,0.967-1.269
		c0.418-0.274,0.922-0.412,1.511-0.412c0.274,0,0.526,0.033,0.756,0.101v0.387c-0.214-0.079-0.472-0.118-0.773-0.118
		c-0.724,0-1.287,0.261-1.688,0.781c-0.403,0.522-0.63,1.281-0.68,2.277h0.058c0.223-0.287,0.478-0.504,0.765-0.65
		s0.591-0.221,0.909-0.221c0.602,0,1.07,0.172,1.409,0.515c0.338,0.343,0.507,0.816,0.507,1.419c0,0.657-0.178,1.175-0.533,1.554
		c-0.355,0.38-0.836,0.569-1.438,0.569c-0.65,0-1.164-0.248-1.54-0.745C422.459,303.048,422.271,302.355,422.271,301.463z
		 M424.376,303.903c0.479,0,0.854-0.15,1.12-0.453c0.267-0.301,0.399-0.731,0.399-1.291c0-0.492-0.132-0.876-0.396-1.152
		c-0.265-0.274-0.623-0.412-1.076-0.412c-0.299,0-0.577,0.065-0.833,0.197c-0.257,0.132-0.461,0.307-0.613,0.525
		c-0.152,0.218-0.229,0.441-0.229,0.67c0,0.325,0.072,0.638,0.219,0.938c0.145,0.3,0.341,0.538,0.589,0.714
		C423.804,303.815,424.076,303.903,424.376,303.903z"/>
	<path fill="#4E4542" d="M431.351,304.202h-4.021v-0.387l1.709-1.784c0.48-0.498,0.818-0.879,1.013-1.143
		c0.193-0.264,0.335-0.516,0.426-0.756c0.091-0.24,0.137-0.492,0.137-0.756c0-0.384-0.127-0.695-0.379-0.937
		c-0.252-0.239-0.578-0.359-0.979-0.359c-0.536,0-1.05,0.194-1.538,0.584l-0.237-0.303c0.536-0.451,1.131-0.678,1.784-0.678
		c0.56,0,1,0.15,1.32,0.449c0.319,0.299,0.48,0.71,0.48,1.234c0,0.425-0.108,0.836-0.323,1.232c-0.215,0.397-0.607,0.888-1.18,1.471
		l-1.648,1.691v0.018h3.438v0.424H431.351z"/>
</g>
<g enable-background="new    ">
	<path fill="#4E4542" d="M438.341,297.342h0.403v9.083h-0.403V297.342z"/>
</g>
<g enable-background="new    ">
	<path fill="#4E4542" d="M449.255,304.202h-0.55l-2.465-3.393l-0.856,0.756v2.637h-0.448v-6.425h0.448v3.34l0.712-0.712l2.519-2.628
		h0.57l-2.632,2.716L449.255,304.202z"/>
</g>
<g enable-background="new    ">
	<path fill="#4E4542" d="M451.966,300.338c0.686,0,1.225,0.166,1.619,0.497c0.394,0.331,0.592,0.786,0.592,1.366
		c0,0.66-0.205,1.173-0.615,1.539c-0.41,0.366-0.977,0.549-1.697,0.549c-0.317,0-0.622-0.031-0.909-0.095
		c-0.286-0.063-0.526-0.152-0.721-0.271v-0.452c0.316,0.161,0.598,0.273,0.844,0.336s0.51,0.095,0.786,0.095
		c0.563,0,1.015-0.148,1.354-0.446c0.34-0.297,0.51-0.699,0.51-1.206c0-0.478-0.165-0.853-0.496-1.125s-0.781-0.408-1.35-0.408
		c-0.381,0-0.779,0.057-1.195,0.171l-0.264-0.171l0.256-2.94h3.094v0.422h-2.682l-0.197,2.268
		C451.351,300.381,451.707,300.338,451.966,300.338z"/>
</g>
<g enable-background="new    ">
	<path fill="#4E4542" d="M457.66,297.667c0.545,0,0.982,0.14,1.316,0.418c0.332,0.278,0.498,0.654,0.498,1.129
		c0,0.329-0.104,0.619-0.312,0.871c-0.204,0.252-0.541,0.484-1.004,0.698c0.563,0.231,0.959,0.485,1.188,0.761
		c0.229,0.276,0.342,0.609,0.342,1.002c0,0.53-0.186,0.953-0.555,1.27c-0.371,0.316-0.869,0.475-1.492,0.475
		c-0.648,0-1.146-0.147-1.49-0.443c-0.345-0.296-0.519-0.727-0.519-1.293c0-0.383,0.122-0.721,0.363-1.01
		c0.244-0.291,0.62-0.538,1.131-0.743c-0.473-0.223-0.805-0.458-0.997-0.705c-0.193-0.248-0.291-0.544-0.291-0.89
		c0-0.309,0.078-0.578,0.232-0.812c0.155-0.232,0.372-0.412,0.653-0.538C457.007,297.73,457.318,297.667,457.66,297.667z
		 M456.082,302.62c0,0.404,0.138,0.718,0.41,0.94c0.274,0.223,0.658,0.334,1.15,0.334c0.479,0,0.867-0.118,1.16-0.354
		s0.438-0.556,0.438-0.96c0-0.363-0.114-0.659-0.346-0.886c-0.23-0.228-0.673-0.465-1.329-0.714
		c-0.539,0.208-0.921,0.438-1.146,0.689C456.197,301.922,456.082,302.239,456.082,302.62z M457.652,298.063
		c-0.412,0-0.744,0.102-0.994,0.305c-0.252,0.204-0.377,0.483-0.377,0.838c0,0.205,0.047,0.386,0.14,0.542
		c0.092,0.157,0.226,0.299,0.399,0.427c0.174,0.127,0.467,0.276,0.877,0.445c0.478-0.184,0.82-0.388,1.027-0.61
		c0.209-0.223,0.313-0.49,0.313-0.804c0-0.352-0.124-0.63-0.37-0.836C458.416,298.166,458.078,298.063,457.652,298.063z"/>
</g>
<g enable-background="new    ">
	<path fill="#4E4542" d="M364.268,316.206l-0.334,1.75h1.331v0.346h-1.406l-0.377,1.982h-0.396l0.387-1.982h-1.582l-0.377,1.982
		h-0.387l0.377-1.982h-1.243v-0.346h1.313l0.334-1.75h-1.305v-0.352h1.367l0.377-1.995h0.399l-0.391,1.995h1.604l0.387-1.995h0.378
		l-0.387,1.995h1.253v0.352H364.268z M361.951,317.956h1.596l0.343-1.75h-1.596L361.951,317.956z"/>
</g>
<g enable-background="new    ">
	<path fill="#4E4542" d="M370.486,315.372c0,0.397-0.125,0.732-0.375,1.006c-0.252,0.271-0.588,0.447-1.01,0.522v0.026
		c0.516,0.064,0.908,0.229,1.178,0.492c0.271,0.263,0.404,0.617,0.404,1.063c0,0.602-0.203,1.064-0.613,1.396
		c-0.408,0.328-0.996,0.494-1.764,0.494c-0.653,0-1.224-0.121-1.709-0.365v-0.436c0.246,0.129,0.521,0.23,0.828,0.305
		c0.306,0.072,0.594,0.108,0.862,0.108c0.647,0,1.135-0.131,1.459-0.394c0.325-0.262,0.488-0.633,0.488-1.109
		c0-0.425-0.167-0.751-0.5-0.979c-0.332-0.229-0.82-0.344-1.465-0.344h-0.694v-0.423h0.703c0.533,0,0.956-0.126,1.27-0.38
		c0.311-0.253,0.467-0.598,0.467-1.029c0-0.357-0.127-0.645-0.379-0.859c-0.254-0.215-0.586-0.322-0.996-0.322
		c-0.319,0-0.611,0.044-0.875,0.134c-0.264,0.089-0.56,0.242-0.887,0.459l-0.217-0.294c0.249-0.208,0.551-0.373,0.901-0.494
		c0.352-0.121,0.707-0.184,1.067-0.184c0.592,0,1.049,0.141,1.371,0.42S370.486,314.861,370.486,315.372z"/>
	<path fill="#4E4542" d="M375.621,315.372c0,0.397-0.125,0.732-0.375,1.006c-0.251,0.271-0.587,0.447-1.009,0.522v0.026
		c0.517,0.064,0.908,0.229,1.179,0.492c0.27,0.263,0.403,0.617,0.403,1.063c0,0.602-0.204,1.064-0.613,1.396
		c-0.407,0.328-0.996,0.494-1.765,0.494c-0.652,0-1.223-0.121-1.709-0.365v-0.436c0.246,0.129,0.521,0.23,0.828,0.305
		s0.594,0.108,0.863,0.108c0.647,0,1.135-0.131,1.459-0.394c0.326-0.262,0.487-0.633,0.487-1.109c0-0.425-0.166-0.751-0.499-0.979
		c-0.333-0.229-0.82-0.344-1.466-0.344h-0.692v-0.423h0.703c0.532,0,0.954-0.126,1.268-0.38c0.312-0.253,0.468-0.598,0.468-1.029
		c0-0.357-0.127-0.645-0.38-0.859c-0.254-0.215-0.586-0.322-0.996-0.322c-0.318,0-0.609,0.044-0.874,0.134
		c-0.264,0.089-0.56,0.242-0.888,0.459l-0.215-0.294c0.248-0.208,0.549-0.373,0.899-0.494c0.353-0.121,0.707-0.184,1.068-0.184
		c0.592,0,1.049,0.141,1.371,0.42C375.462,314.465,375.621,314.861,375.621,315.372z"/>
	<path fill="#4E4542" d="M380.76,315.372c0,0.397-0.126,0.732-0.376,1.006c-0.25,0.271-0.586,0.447-1.008,0.522v0.026
		c0.516,0.064,0.907,0.229,1.178,0.492c0.27,0.263,0.403,0.617,0.403,1.063c0,0.602-0.204,1.064-0.612,1.396
		c-0.408,0.328-0.997,0.494-1.766,0.494c-0.652,0-1.224-0.121-1.71-0.365v-0.436c0.246,0.129,0.522,0.23,0.828,0.305
		c0.308,0.072,0.596,0.108,0.864,0.108c0.647,0,1.134-0.131,1.459-0.394c0.325-0.262,0.487-0.633,0.487-1.109
		c0-0.425-0.166-0.751-0.498-0.979c-0.333-0.229-0.821-0.344-1.466-0.344h-0.694v-0.423h0.703c0.533,0,0.955-0.126,1.268-0.38
		c0.313-0.253,0.469-0.598,0.469-1.029c0-0.357-0.127-0.645-0.381-0.859s-0.585-0.322-0.995-0.322c-0.318,0-0.609,0.044-0.874,0.134
		c-0.264,0.089-0.561,0.242-0.889,0.459l-0.215-0.294c0.249-0.208,0.549-0.373,0.9-0.494s0.708-0.184,1.067-0.184
		c0.592,0,1.049,0.141,1.371,0.42C380.599,314.465,380.76,314.861,380.76,315.372z"/>
	<path fill="#4E4542" d="M385.898,315.372c0,0.397-0.126,0.732-0.376,1.006c-0.251,0.271-0.587,0.447-1.009,0.522v0.026
		c0.516,0.064,0.908,0.229,1.178,0.492c0.271,0.263,0.404,0.617,0.404,1.063c0,0.602-0.204,1.064-0.613,1.396
		c-0.408,0.328-0.996,0.494-1.764,0.494c-0.654,0-1.225-0.121-1.71-0.365v-0.436c0.246,0.129,0.521,0.23,0.828,0.305
		c0.306,0.074,0.595,0.108,0.863,0.108c0.646,0,1.133-0.131,1.459-0.394c0.324-0.262,0.487-0.633,0.487-1.109
		c0-0.425-0.167-0.751-0.499-0.979c-0.332-0.229-0.82-0.344-1.465-0.344h-0.695v-0.423h0.703c0.533,0,0.956-0.126,1.27-0.38
		c0.312-0.253,0.468-0.598,0.468-1.029c0-0.357-0.127-0.645-0.38-0.859c-0.254-0.215-0.585-0.322-0.995-0.322
		c-0.32,0-0.611,0.044-0.875,0.134c-0.265,0.089-0.561,0.242-0.889,0.459l-0.216-0.294c0.25-0.208,0.55-0.373,0.901-0.494
		s0.708-0.184,1.067-0.184c0.592,0,1.049,0.141,1.37,0.42C385.736,314.465,385.898,314.861,385.898,315.372z"/>
	<path fill="#4E4542" d="M391.033,315.372c0,0.397-0.125,0.732-0.375,1.006c-0.252,0.271-0.588,0.447-1.01,0.522v0.026
		c0.516,0.064,0.908,0.229,1.178,0.492c0.271,0.263,0.404,0.617,0.404,1.063c0,0.602-0.203,1.064-0.613,1.396
		c-0.407,0.328-0.996,0.494-1.764,0.494c-0.653,0-1.223-0.121-1.709-0.365v-0.436c0.246,0.129,0.521,0.23,0.828,0.305
		c0.306,0.072,0.594,0.108,0.863,0.108c0.646,0,1.134-0.131,1.459-0.394c0.324-0.262,0.487-0.633,0.487-1.109
		c0-0.425-0.167-0.751-0.5-0.979c-0.332-0.229-0.819-0.344-1.465-0.344h-0.694v-0.423h0.703c0.533,0,0.956-0.126,1.27-0.38
		c0.311-0.253,0.467-0.598,0.467-1.029c0-0.357-0.127-0.645-0.379-0.859c-0.254-0.215-0.586-0.322-0.996-0.322
		c-0.319,0-0.611,0.044-0.875,0.134c-0.264,0.089-0.559,0.242-0.887,0.459l-0.216-0.294c0.249-0.208,0.55-0.373,0.9-0.494
		c0.353-0.121,0.707-0.184,1.067-0.184c0.592,0,1.049,0.141,1.371,0.42C390.872,314.465,391.033,314.861,391.033,315.372z"/>
</g>
<g enable-background="new    ">
	<path fill="#4E4542" d="M397.972,315.372c0,0.397-0.126,0.732-0.376,1.006c-0.251,0.271-0.587,0.447-1.009,0.522v0.026
		c0.516,0.064,0.907,0.229,1.178,0.492c0.27,0.263,0.404,0.617,0.404,1.063c0,0.602-0.204,1.064-0.613,1.396
		c-0.408,0.328-0.996,0.494-1.765,0.494c-0.653,0-1.224-0.121-1.71-0.365v-0.436c0.246,0.129,0.522,0.23,0.828,0.305
		c0.307,0.074,0.596,0.108,0.864,0.108c0.646,0,1.133-0.131,1.459-0.394c0.324-0.262,0.487-0.633,0.487-1.109
		c0-0.425-0.167-0.751-0.499-0.979c-0.332-0.229-0.82-0.344-1.465-0.344h-0.695v-0.423h0.703c0.533,0,0.956-0.126,1.269-0.38
		c0.313-0.253,0.469-0.598,0.469-1.029c0-0.357-0.128-0.645-0.381-0.859c-0.254-0.215-0.585-0.322-0.994-0.322
		c-0.32,0-0.611,0.044-0.875,0.134c-0.265,0.089-0.561,0.242-0.889,0.459l-0.216-0.294c0.25-0.208,0.55-0.373,0.901-0.494
		s0.708-0.184,1.066-0.184c0.592,0,1.049,0.141,1.371,0.42C397.81,314.465,397.972,314.861,397.972,315.372z"/>
</g>
<g>
	<rect x="100.897" y="125.515" fill="#00468C" width="85.957" height="103.617"/>
</g>
<g>
	<path fill="#FFFFFF" d="M187.104,229.382h-86.457V125.265h86.457V229.382z M101.147,228.882h85.457V125.765h-85.457V228.882z"/>
</g>
<g>
	<polygon fill="#FFFFFF" points="132.488,135.443 109.762,158.234 124.911,173.424 109.488,188.851 132.22,211.658 139.765,204.064 
		124.583,188.837 140.059,173.424 124.93,158.234 140.059,143.05 	"/>
</g>
<g>
	<path fill="#00468C" d="M132.22,211.859l-0.1-0.101l-22.832-22.907l0.1-0.1l15.324-15.327l-15.149-15.19l0.101-0.1l22.825-22.892
		l0.101,0.101l7.671,7.707l-15.129,15.184l15.129,15.19l-0.101,0.1l-15.375,15.313l15.181,15.227L132.22,211.859z M109.687,188.851
		l22.533,22.606l7.345-7.394l-15.182-15.228l0.101-0.1l15.375-15.313l-15.128-15.189l15.129-15.184l-7.372-7.406l-22.525,22.59
		l15.149,15.19L109.687,188.851z"/>
</g>
<g>
	<polygon fill="#FFFFFF" points="155.358,173.692 140.213,188.901 155.39,204.041 147.775,211.606 155.343,219.167 178.112,196.405 
			"/>
</g>
<g>
	<path fill="#00468C" d="M155.343,219.367l-7.769-7.762l7.614-7.564l-15.176-15.14l0.1-0.1l15.244-15.31l0.102,0.1l22.854,22.813
		L155.343,219.367z M147.975,211.606l7.368,7.36l22.568-22.562l-22.554-22.513L140.413,188.9l15.177,15.141L147.975,211.606z"/>
</g>
<g>
	<polygon fill="#FFFFFF" points="170.265,143.821 155.199,158.957 170.265,174.043 	"/>
</g>
<g>
	<path fill="#00468C" d="M170.406,174.385L155,158.957l0.1-0.1l15.308-15.379v30.907H170.406z M155.399,158.957l14.725,14.744
		v-29.538L155.399,158.957z"/>
</g>
<g>
	<rect x="230.583" y="125.765" fill="#FFFFFF" width="85.955" height="103.617"/>
</g>
<g>
	<path fill="#00468C" d="M317.038,229.882h-86.955V125.265h86.955V229.882z M231.083,228.882h84.955V126.265h-84.955V228.882
		L231.083,228.882z"/>
</g>
<g>
	<polygon fill="#FFFFFF" points="262.173,135.693 239.447,158.484 254.596,173.674 239.173,189.101 261.905,211.908 269.45,204.314 
		254.269,189.087 269.743,173.674 254.614,158.484 269.743,143.3 	"/>
</g>
<g>
	<path fill="#00468C" d="M261.906,212.972L238.114,189.1l15.423-15.427l-15.148-15.189l23.786-23.854l8.628,8.67l-15.13,15.184
		l15.132,15.192l-15.474,15.413l15.179,15.224L261.906,212.972z M240.233,189.102l21.671,21.743l6.489-6.53l-15.185-15.23
		l15.475-15.413l-15.128-15.188l15.13-15.185l-6.512-6.544l-21.667,21.729l15.149,15.19L240.233,189.102z"/>
</g>
<g>
	<polygon fill="#FFFFFF" points="285.044,173.942 269.898,189.151 285.074,204.291 277.461,211.856 285.028,219.417 
		307.798,196.655 	"/>
</g>
<g>
	<path fill="#00468C" d="M285.028,220.478l-8.629-8.623l7.612-7.564l-15.173-15.137l16.205-16.272l23.816,23.774L285.028,220.478z
		 M278.524,211.857l6.504,6.499l21.709-21.701l-21.689-21.652l-14.088,14.146l15.18,15.143L278.524,211.857z"/>
</g>
<g>
	<polygon fill="#FFFFFF" points="299.948,144.071 284.884,159.207 299.948,174.293 	"/>
</g>
<g>
	<path fill="#00468C" d="M300.698,176.105l-16.873-16.897l16.873-16.954V176.105z M285.943,159.206l13.257,13.274v-26.593
		L285.943,159.206z"/>
</g>
<g>
	<rect x="360.268" y="125.515" fill="#333333" width="85.957" height="103.617"/>
</g>
<g>
	<path fill="#FFFFFF" d="M446.475,229.382h-86.457V125.265h86.457V229.382z M360.518,228.882h85.457V125.765h-85.457V228.882z"/>
</g>
<g>
	<polygon fill="#FFFFFF" points="391.857,135.443 369.132,158.234 384.28,173.424 368.857,188.851 391.59,211.658 399.135,204.064 
		383.952,188.837 399.429,173.424 384.3,158.234 399.429,143.05 	"/>
</g>
<g>
	<path fill="#00468C" d="M391.59,211.859l-0.102-0.101l-22.833-22.907l0.102-0.1l15.321-15.327l-15.146-15.19l0.1-0.1l22.825-22.892
		l7.771,7.808l-0.1,0.1L384.5,158.234l15.129,15.19l-0.102,0.1l-15.375,15.313l15.182,15.227l-0.1,0.1L391.59,211.859z
		 M369.057,188.851l22.533,22.606l7.346-7.394l-15.183-15.228l0.101-0.1l15.375-15.313L384.1,158.234l15.13-15.184l-7.373-7.406
		l-22.523,22.59l15.146,15.19l-0.101,0.1L369.057,188.851z"/>
</g>
<g>
	<polygon fill="#FFFFFF" points="414.729,173.692 399.581,188.901 414.76,204.041 407.146,211.606 414.714,219.167 437.482,196.405 
			"/>
</g>
<g>
	<path fill="#00468C" d="M414.714,219.367l-0.101-0.1l-7.669-7.662l7.614-7.564l-15.178-15.14l15.347-15.41l0.1,0.1l22.854,22.813
		l-0.102,0.1L414.714,219.367z M407.346,211.606l7.368,7.36l22.566-22.562l-22.553-22.513L399.781,188.9l15.179,15.141l-0.102,0.101
		L407.346,211.606z"/>
</g>
<g>
	<polygon fill="#FFFFFF" points="429.635,143.821 414.569,158.957 429.635,174.043 	"/>
</g>
<g>
	<path fill="#00468C" d="M429.777,174.385l-0.242-0.242l-15.166-15.186l0.101-0.1l15.309-15.379L429.777,174.385L429.777,174.385z
		 M414.769,158.957l14.725,14.744v-29.538L414.769,158.957z"/>
</g>
<g enable-background="new    ">
	<path fill="#325A99" d="M51.052,39.606c0,2.239-0.607,3.951-1.823,5.136c-1.215,1.185-2.964,1.776-5.246,1.776h-3.757V32.955h4.156
		c2.109,0,3.748,0.585,4.917,1.753C50.468,35.877,51.052,37.51,51.052,39.606z M49.383,39.663c0-1.77-0.444-3.103-1.331-3.999
		c-0.888-0.896-2.207-1.345-3.957-1.345h-2.292v10.836h1.92c1.88,0,3.293-0.463,4.24-1.388
		C48.909,42.843,49.383,41.474,49.383,39.663z"/>
	<path fill="#325A99" d="M58.14,46.704c-1.503,0-2.688-0.458-3.558-1.373s-1.304-2.187-1.304-3.813c0-1.64,0.404-2.941,1.21-3.906
		c0.809-0.965,1.892-1.447,3.253-1.447c1.273,0,2.281,0.419,3.023,1.257c0.742,0.839,1.113,1.944,1.113,3.317v0.974h-7.004
		c0.03,1.193,0.333,2.1,0.904,2.718c0.572,0.619,1.377,0.928,2.417,0.928c1.096,0,2.178-0.229,3.247-0.686v1.373
		c-0.544,0.234-1.059,0.403-1.544,0.505C59.413,46.653,58.827,46.704,58.14,46.704z M57.723,37.454
		c-0.815,0-1.467,0.267-1.953,0.799c-0.484,0.531-0.771,1.268-0.857,2.207h5.315c0-0.971-0.217-1.714-0.648-2.23
		C59.145,37.712,58.527,37.454,57.723,37.454z"/>
	<path fill="#325A99" d="M71.064,43.745c0,0.945-0.353,1.676-1.058,2.189s-1.695,0.77-2.969,0.77c-1.35,0-2.4-0.213-3.154-0.641
		v-1.428c0.488,0.247,1.013,0.441,1.573,0.584c0.56,0.143,1.099,0.213,1.619,0.213c0.804,0,1.422-0.128,1.854-0.385
		c0.433-0.256,0.649-0.647,0.649-1.174c0-0.396-0.171-0.733-0.516-1.016c-0.343-0.281-1.013-0.613-2.008-0.997
		c-0.946-0.353-1.619-0.66-2.018-0.923s-0.695-0.562-0.892-0.896c-0.193-0.334-0.292-0.733-0.292-1.196
		c0-0.829,0.337-1.483,1.012-1.963c0.674-0.479,1.599-0.719,2.773-0.719c1.095,0,2.165,0.223,3.21,0.668l-0.547,1.252
		c-1.021-0.42-1.945-0.631-2.774-0.631c-0.729,0-1.279,0.115-1.65,0.344s-0.558,0.544-0.558,0.946c0,0.272,0.069,0.504,0.209,0.696
		c0.14,0.191,0.363,0.374,0.673,0.547c0.309,0.173,0.902,0.424,1.78,0.752c1.206,0.438,2.021,0.881,2.445,1.326
		C70.852,42.51,71.064,43.07,71.064,43.745z"/>
</g>
<g enable-background="new    ">
	<path fill="#325A99" d="M75.662,33.594c0-0.352,0.086-0.61,0.26-0.774c0.173-0.163,0.39-0.245,0.648-0.245
		c0.247,0,0.46,0.083,0.641,0.25c0.179,0.167,0.269,0.424,0.269,0.77c0,0.347-0.09,0.605-0.269,0.775
		c-0.181,0.17-0.394,0.255-0.641,0.255c-0.26,0-0.477-0.085-0.648-0.255C75.748,34.2,75.662,33.941,75.662,33.594z M77.332,46.518
		h-1.54V36.35h1.54V46.518z"/>
	<path fill="#325A99" d="M88.919,36.35v0.975l-1.883,0.223c0.173,0.216,0.327,0.499,0.464,0.849c0.136,0.35,0.204,0.743,0.204,1.183
		c0,0.996-0.341,1.791-1.021,2.385c-0.681,0.594-1.614,0.891-2.802,0.891c-0.303,0-0.588-0.025-0.854-0.074
		c-0.655,0.346-0.982,0.782-0.982,1.308c0,0.278,0.114,0.484,0.343,0.617c0.229,0.133,0.622,0.199,1.178,0.199h1.801
		c1.101,0,1.946,0.23,2.536,0.696c0.592,0.463,0.887,1.138,0.887,2.021c0,1.126-0.452,1.984-1.354,2.575
		c-0.903,0.59-2.221,0.886-3.952,0.886c-1.33,0-2.354-0.247-3.076-0.742c-0.72-0.495-1.08-1.193-1.08-2.097
		c0-0.618,0.197-1.153,0.594-1.604c0.396-0.452,0.952-0.758,1.67-0.919c-0.26-0.117-0.479-0.3-0.654-0.548
		c-0.177-0.247-0.265-0.534-0.265-0.862c0-0.371,0.099-0.696,0.297-0.974c0.198-0.279,0.51-0.548,0.937-0.808
		c-0.525-0.217-0.953-0.585-1.284-1.104c-0.331-0.52-0.497-1.113-0.497-1.781c0-1.113,0.334-1.971,1.002-2.574
		s1.613-0.904,2.839-0.904c0.532,0,1.011,0.062,1.438,0.186h3.519V36.35z M80.811,48.225c0,0.551,0.232,0.968,0.696,1.252
		c0.464,0.285,1.128,0.428,1.995,0.428c1.292,0,2.25-0.194,2.872-0.58c0.621-0.387,0.932-0.911,0.932-1.572
		c0-0.551-0.17-0.933-0.51-1.146s-0.98-0.32-1.92-0.32H83.03c-0.698,0-1.242,0.168-1.633,0.502
		C81.007,47.123,80.811,47.6,80.811,48.225z M81.646,39.606c0,0.712,0.201,1.25,0.604,1.615c0.401,0.364,0.961,0.547,1.679,0.547
		c1.503,0,2.254-0.729,2.254-2.189c0-1.527-0.761-2.291-2.282-2.291c-0.724,0-1.279,0.194-1.67,0.584
		C81.84,38.262,81.646,38.839,81.646,39.606z"/>
	<path fill="#325A99" d="M97.965,46.518V39.94c0-0.828-0.189-1.447-0.566-1.855s-0.968-0.611-1.771-0.611
		c-1.064,0-1.843,0.287-2.338,0.862s-0.742,1.524-0.742,2.849v5.334h-1.54V36.35h1.252l0.25,1.392h0.074
		c0.314-0.501,0.757-0.889,1.327-1.164c0.568-0.275,1.202-0.413,1.901-0.413c1.226,0,2.146,0.296,2.766,0.886
		c0.617,0.591,0.928,1.536,0.928,2.835v6.633L97.965,46.518L97.965,46.518z"/>
	<path fill="#325A99" d="M107.019,43.002c0-0.805,0.215-1.516,0.646-2.135c0.43-0.618,1.2-1.242,2.313-1.873
		c-0.525-0.588-0.883-1.033-1.07-1.336c-0.189-0.304-0.34-0.619-0.45-0.947c-0.111-0.327-0.167-0.668-0.167-1.02
		c0-0.928,0.303-1.652,0.909-2.172c0.605-0.52,1.449-0.779,2.532-0.779c1.002,0,1.791,0.259,2.366,0.775s0.863,1.235,0.863,2.156
		c0,0.662-0.21,1.273-0.631,1.833s-1.117,1.127-2.087,1.702l3.775,3.627c0.346-0.383,0.623-0.833,0.831-1.35
		c0.207-0.516,0.381-1.08,0.524-1.693h1.559c-0.421,1.77-1.055,3.111-1.902,4.027l2.774,2.699h-2.125l-1.716-1.651
		c-0.73,0.655-1.472,1.126-2.228,1.41c-0.755,0.284-1.596,0.427-2.522,0.427c-1.33,0-2.361-0.328-3.094-0.983
		C107.386,45.065,107.019,44.159,107.019,43.002z M111.25,45.321c1.49,0,2.728-0.476,3.711-1.428l-4.054-3.934
		c-0.688,0.42-1.173,0.769-1.457,1.043c-0.285,0.275-0.495,0.57-0.632,0.887c-0.136,0.314-0.203,0.674-0.203,1.076
		c0,0.723,0.239,1.297,0.719,1.721C109.813,45.11,110.452,45.321,111.25,45.321z M109.812,35.655c0,0.426,0.111,0.833,0.334,1.22
		c0.224,0.387,0.604,0.852,1.142,1.396c0.798-0.463,1.353-0.892,1.666-1.284c0.312-0.393,0.468-0.846,0.468-1.359
		c0-0.477-0.159-0.864-0.479-1.164c-0.317-0.3-0.743-0.45-1.274-0.45c-0.551,0-0.997,0.148-1.341,0.445
		C109.984,34.754,109.812,35.153,109.812,35.655z"/>
	<path fill="#325A99" d="M132.448,34.17c-1.49,0-2.667,0.496-3.529,1.488c-0.863,0.993-1.294,2.352-1.294,4.078
		c0,1.774,0.416,3.146,1.248,4.114c0.832,0.968,2.018,1.452,3.558,1.452c0.946,0,2.025-0.171,3.238-0.511v1.382
		c-0.94,0.354-2.101,0.529-3.479,0.529c-1.998,0-3.54-0.606-4.625-1.818c-1.086-1.212-1.628-2.935-1.628-5.168
		c0-1.397,0.261-2.622,0.784-3.674c0.523-1.051,1.277-1.861,2.264-2.43c0.987-0.569,2.148-0.854,3.484-0.854
		c1.422,0,2.666,0.26,3.729,0.779l-0.668,1.354C134.502,34.411,133.475,34.17,132.448,34.17z"/>
	<path fill="#325A99" d="M147.172,41.424c0,1.658-0.417,2.952-1.252,3.883c-0.835,0.932-1.989,1.396-3.46,1.396
		c-0.909,0-1.716-0.213-2.421-0.641c-0.705-0.426-1.25-1.039-1.634-1.836c-0.384-0.799-0.574-1.732-0.574-2.803
		c0-1.657,0.414-2.948,1.243-3.873c0.828-0.924,1.979-1.387,3.45-1.387c1.422,0,2.554,0.473,3.392,1.42
		C146.753,38.53,147.172,39.811,147.172,41.424z M139.425,41.424c0,1.299,0.26,2.289,0.779,2.969
		c0.52,0.681,1.282,1.021,2.292,1.021c1.008,0,1.772-0.339,2.296-1.017c0.522-0.677,0.784-1.668,0.784-2.974
		c0-1.292-0.262-2.273-0.784-2.945c-0.522-0.671-1.294-1.006-2.314-1.006c-1.008,0-1.769,0.33-2.282,0.992
		C139.681,39.127,139.425,40.114,139.425,41.424z"/>
	<path fill="#325A99" d="M151.411,46.518h-1.54V32.083h1.54V46.518z"/>
	<path fill="#325A99" d="M163.453,41.424c0,1.658-0.417,2.952-1.252,3.883c-0.835,0.932-1.989,1.396-3.46,1.396
		c-0.909,0-1.717-0.213-2.422-0.641c-0.705-0.426-1.25-1.039-1.633-1.836c-0.384-0.799-0.575-1.732-0.575-2.803
		c0-1.657,0.414-2.948,1.243-3.873c0.829-0.924,1.979-1.387,3.451-1.387c1.422,0,2.553,0.473,3.391,1.42
		S163.453,39.811,163.453,41.424z M155.707,41.424c0,1.299,0.26,2.289,0.778,2.969c0.521,0.681,1.283,1.021,2.292,1.021
		s1.773-0.339,2.297-1.017c0.522-0.677,0.783-1.668,0.783-2.974c0-1.292-0.261-2.273-0.783-2.945
		c-0.522-0.671-1.295-1.006-2.314-1.006c-1.008,0-1.769,0.33-2.282,0.992C155.963,39.127,155.707,40.114,155.707,41.424z"/>
</g>
<g enable-background="new    ">
	<path fill="#325A99" d="M171.058,36.165c0.451,0,0.856,0.037,1.215,0.111l-0.213,1.429c-0.421-0.093-0.792-0.14-1.113-0.14
		c-0.822,0-1.525,0.334-2.109,1.002c-0.585,0.668-0.877,1.5-0.877,2.496v5.455h-1.54V36.35h1.271l0.177,1.883h0.073
		c0.377-0.661,0.832-1.172,1.364-1.53C169.836,36.344,170.421,36.165,171.058,36.165z"/>
</g>
<g enable-background="new    ">
	<path fill="#325A99" d="M56.351,373.819c0,1.194-0.433,2.125-1.299,2.793s-2.041,1.002-3.525,1.002
		c-1.607,0-2.845-0.207-3.711-0.621v-1.521c0.558,0.233,1.163,0.42,1.818,0.557c0.655,0.136,1.305,0.203,1.948,0.203
		c1.051,0,1.843-0.198,2.375-0.599c0.531-0.398,0.798-0.953,0.798-1.665c0-0.47-0.094-0.854-0.283-1.154
		c-0.188-0.3-0.504-0.577-0.946-0.83c-0.441-0.254-1.114-0.542-2.018-0.862c-1.262-0.451-2.163-0.986-2.704-1.605
		c-0.542-0.618-0.812-1.426-0.812-2.421c0-1.046,0.393-1.877,1.178-2.495c0.785-0.619,1.824-0.928,3.117-0.928
		c1.348,0,2.588,0.246,3.72,0.742l-0.492,1.373c-1.12-0.472-2.208-0.705-3.266-0.705c-0.835,0-1.488,0.179-1.958,0.537
		c-0.471,0.358-0.705,0.856-0.705,1.494c0,0.469,0.086,0.854,0.26,1.154c0.173,0.3,0.465,0.575,0.876,0.825
		c0.412,0.251,1.041,0.526,1.888,0.829c1.423,0.509,2.401,1.053,2.937,1.634C56.083,372.137,56.351,372.891,56.351,373.819z"/>
	<path fill="#325A99" d="M58.763,364.504c0-0.353,0.086-0.61,0.26-0.774c0.173-0.163,0.391-0.245,0.649-0.245
		c0.247,0,0.46,0.083,0.64,0.25s0.27,0.424,0.27,0.77c0,0.348-0.09,0.605-0.27,0.775s-0.393,0.256-0.64,0.256
		c-0.26,0-0.478-0.086-0.649-0.256C58.849,365.11,58.763,364.851,58.763,364.504z M60.433,377.428h-1.54V367.26h1.54V377.428z"/>
	<path fill="#325A99" d="M70.202,377.428h-7.375v-1.049l5.548-7.922H63.17v-1.197h6.893v1.197l-5.474,7.772h5.613V377.428z"/>
</g>
<g enable-background="new    ">
	<path fill="#325A99" d="M77.536,377.614c-1.503,0-2.689-0.457-3.559-1.373c-0.869-0.914-1.303-2.187-1.303-3.813
		c0-1.641,0.404-2.941,1.21-3.906c0.808-0.965,1.891-1.447,3.252-1.447c1.274,0,2.282,0.42,3.024,1.258
		c0.741,0.838,1.112,1.943,1.112,3.316v0.975H74.27c0.031,1.192,0.333,2.1,0.905,2.717c0.572,0.619,1.377,0.929,2.417,0.929
		c1.095,0,2.177-0.229,3.247-0.687v1.373c-0.544,0.234-1.06,0.403-1.544,0.506C78.809,377.563,78.223,377.614,77.536,377.614z
		 M77.119,368.364c-0.816,0-1.468,0.268-1.953,0.799s-0.771,1.269-0.858,2.207h5.316c0-0.971-0.217-1.713-0.649-2.229
		C78.541,368.624,77.923,368.364,77.119,368.364z"/>
</g>
<g>
	<rect x="0.338" y="50.014" fill="#00468C" width="297.639" height="1"/>
</g>
<g>
	<path fill="#00468C" d="M298.959,52.533c1.072,0,1.944-0.872,1.944-1.947s-0.872-1.947-1.944-1.947
		c-1.075,0-1.947,0.872-1.947,1.947S297.884,52.533,298.959,52.533"/>
</g>
<g>
	<rect x="0.338" y="6.609" fill="none" width="561.26" height="652.282"/>
</g>
<g>
	<rect x="0.801" y="381.213" fill="#00468C" width="297.638" height="1"/>
</g>
<g>
	<g>
		<g>
			<defs>
				<rect id="SVGID_1_" x="-7.703" y="-67.618" width="561.26" height="652.283"/>
			</defs>
			<clipPath id="SVGID_2_">
				<use xlink:href="#SVGID_1_"  overflow="visible"/>
			</clipPath>
			<g clip-path="url(#SVGID_2_)">
				<path fill="#00468C" d="M299.422,383.732c1.074,0,1.945-0.873,1.945-1.946c0-1.074-0.871-1.947-1.945-1.947
					c-1.075,0-1.948,0.873-1.948,1.947C297.474,382.859,298.347,383.732,299.422,383.732"/>
			</g>
		</g>
	</g>
</g>
<g enable-background="new    ">
	<path fill="#4E4542" d="M235.421,280.99c0,0.271-0.045,0.521-0.117,0.747c-0.081,0.234-0.188,0.441-0.315,0.612
		c-0.144,0.181-0.306,0.324-0.485,0.433c-0.189,0.126-0.387,0.207-0.594,0.261l1.639,2.755h-0.396l-1.61-2.691h-2.467v2.691h-0.36
		v-6.932h2.575c0.288,0,0.558,0.054,0.818,0.144c0.252,0.099,0.486,0.234,0.685,0.414c0.188,0.189,0.342,0.414,0.459,0.675
		C235.358,280.369,235.421,280.666,235.421,280.99z M233.287,282.746c0.233,0,0.468-0.036,0.684-0.117
		c0.216-0.072,0.405-0.18,0.567-0.333c0.162-0.145,0.288-0.333,0.387-0.559c0.09-0.216,0.135-0.459,0.135-0.747
		c0-0.279-0.045-0.531-0.135-0.756c-0.099-0.216-0.225-0.396-0.378-0.55c-0.162-0.144-0.352-0.261-0.559-0.342
		c-0.216-0.072-0.449-0.117-0.684-0.117h-2.233v3.521H233.287z"/>
</g>
<g enable-background="new    ">
	<path fill="#4E4542" d="M238.939,278.82c0.288,0,0.559,0.055,0.819,0.162c0.252,0.108,0.486,0.262,0.685,0.441
		c0.189,0.198,0.343,0.423,0.459,0.675c0.108,0.271,0.171,0.55,0.171,0.855c0,0.162-0.026,0.333-0.063,0.495
		c-0.045,0.171-0.108,0.333-0.18,0.495c-0.081,0.162-0.181,0.315-0.288,0.459c-0.117,0.145-0.243,0.271-0.388,0.379
		c-0.18,0.135-0.368,0.27-0.575,0.396c-0.217,0.146-0.424,0.279-0.64,0.414c-0.216,0.145-0.432,0.298-0.63,0.441
		c-0.207,0.153-0.387,0.307-0.54,0.45c-0.162,0.162-0.288,0.315-0.378,0.468c-0.099,0.162-0.144,0.333-0.144,0.495h3.952v0.352
		h-4.447c0-0.396,0.107-0.756,0.324-1.071c0.216-0.306,0.485-0.585,0.81-0.847c0.315-0.252,0.657-0.485,1.036-0.711
		c0.36-0.216,0.702-0.441,1.017-0.675c0.216-0.162,0.388-0.388,0.531-0.676c0.135-0.27,0.207-0.558,0.207-0.864
		c0-0.233-0.045-0.468-0.135-0.684c-0.09-0.207-0.216-0.388-0.369-0.55c-0.162-0.152-0.352-0.278-0.558-0.378
		c-0.217-0.09-0.441-0.135-0.676-0.135c-0.208,0-0.415,0.036-0.611,0.107c-0.207,0.072-0.388,0.181-0.55,0.307
		c-0.171,0.135-0.306,0.297-0.404,0.477c-0.108,0.189-0.153,0.396-0.153,0.622h-0.387c0-0.271,0.054-0.521,0.18-0.757
		c0.117-0.233,0.279-0.432,0.478-0.603c0.197-0.162,0.423-0.298,0.675-0.396C238.417,278.875,238.669,278.82,238.939,278.82z"/>
</g>
<g enable-background="new    ">
	<path fill="#4E4542" d="M246.464,278.866v0.359h-3.106l-0.314,2.791c0.09-0.099,0.198-0.189,0.333-0.279
		c0.126-0.081,0.261-0.152,0.404-0.216c0.136-0.054,0.279-0.099,0.424-0.135c0.135-0.027,0.261-0.045,0.387-0.045
		c0.306,0,0.603,0.063,0.874,0.18c0.27,0.126,0.504,0.288,0.711,0.486c0.198,0.216,0.351,0.45,0.477,0.72
		c0.108,0.271,0.172,0.559,0.172,0.864c0,0.307-0.063,0.604-0.172,0.874c-0.126,0.278-0.278,0.521-0.477,0.729
		c-0.207,0.217-0.441,0.379-0.711,0.505c-0.271,0.126-0.567,0.188-0.874,0.188c-0.271,0-0.513-0.045-0.747-0.135
		c-0.234-0.081-0.45-0.198-0.63-0.36c-0.198-0.153-0.36-0.333-0.486-0.549c-0.144-0.198-0.243-0.423-0.297-0.676h0.387
		c0.045,0.207,0.126,0.388,0.243,0.55c0.108,0.171,0.234,0.314,0.396,0.432c0.144,0.126,0.323,0.216,0.521,0.279
		c0.189,0.072,0.396,0.099,0.612,0.099c0.252,0,0.486-0.054,0.72-0.162c0.226-0.099,0.423-0.242,0.604-0.423
		c0.162-0.171,0.297-0.378,0.404-0.612c0.091-0.233,0.145-0.477,0.145-0.738c0-0.252-0.054-0.504-0.145-0.738
		c-0.107-0.225-0.242-0.423-0.404-0.603c-0.171-0.162-0.369-0.297-0.595-0.405c-0.233-0.09-0.478-0.145-0.729-0.145
		c-0.279,0-0.531,0.063-0.756,0.172c-0.234,0.116-0.441,0.27-0.612,0.459h-0.576l0.396-3.466H246.464z"/>
	<path fill="#4E4542" d="M251.792,278.866v0.359h-3.106l-0.314,2.791c0.09-0.099,0.197-0.189,0.333-0.279
		c0.126-0.081,0.261-0.152,0.404-0.216c0.136-0.054,0.279-0.099,0.424-0.135c0.135-0.027,0.261-0.045,0.387-0.045
		c0.306,0,0.603,0.063,0.874,0.18c0.27,0.126,0.504,0.288,0.711,0.486c0.198,0.216,0.351,0.45,0.477,0.72
		c0.108,0.271,0.171,0.559,0.171,0.864c0,0.307-0.063,0.604-0.171,0.874c-0.126,0.278-0.278,0.521-0.477,0.729
		c-0.207,0.217-0.441,0.379-0.711,0.505c-0.271,0.126-0.567,0.188-0.874,0.188c-0.271,0-0.514-0.045-0.747-0.135
		c-0.234-0.081-0.45-0.198-0.63-0.36c-0.198-0.153-0.36-0.333-0.486-0.549c-0.144-0.198-0.243-0.423-0.297-0.676h0.387
		c0.045,0.207,0.126,0.388,0.243,0.55c0.108,0.171,0.234,0.314,0.396,0.432c0.144,0.126,0.323,0.216,0.521,0.279
		c0.189,0.072,0.396,0.099,0.612,0.099c0.252,0,0.485-0.054,0.72-0.162c0.225-0.099,0.423-0.242,0.604-0.423
		c0.161-0.171,0.297-0.378,0.404-0.612c0.09-0.233,0.145-0.477,0.145-0.738c0-0.252-0.055-0.504-0.145-0.738
		c-0.107-0.225-0.243-0.423-0.404-0.603c-0.172-0.162-0.369-0.297-0.595-0.405c-0.233-0.09-0.478-0.145-0.729-0.145
		c-0.279,0-0.531,0.063-0.756,0.172c-0.234,0.116-0.441,0.27-0.612,0.459h-0.576l0.396-3.466H251.792z"/>
	<path fill="#4E4542" d="M256.938,286.833h-0.359v-7.967h0.359V286.833z"/>
	<path fill="#4E4542" d="M267.182,284.997c-0.144,0.135-0.306,0.252-0.495,0.359c-0.198,0.117-0.404,0.217-0.621,0.288
		c-0.225,0.081-0.449,0.145-0.675,0.181c-0.233,0.045-0.45,0.063-0.647,0.063c-0.486,0-0.928-0.099-1.323-0.297
		c-0.396-0.189-0.738-0.45-1.008-0.783c-0.288-0.324-0.504-0.693-0.648-1.125c-0.162-0.424-0.234-0.864-0.234-1.333
		c0-0.459,0.072-0.9,0.217-1.332c0.144-0.423,0.351-0.802,0.63-1.126c0.271-0.323,0.604-0.585,1.008-0.783
		c0.396-0.188,0.846-0.288,1.359-0.288c0.396,0,0.773,0.081,1.144,0.226c0.36,0.162,0.702,0.378,1.044,0.657l-0.252,0.27
		c-0.252-0.233-0.549-0.432-0.892-0.576s-0.693-0.216-1.044-0.216c-0.414,0-0.783,0.081-1.125,0.243
		c-0.352,0.162-0.657,0.388-0.909,0.666c-0.261,0.288-0.459,0.631-0.604,1.009c-0.144,0.387-0.216,0.801-0.216,1.251
		c0,0.45,0.063,0.873,0.207,1.252c0.135,0.396,0.333,0.729,0.585,1.008c0.243,0.288,0.541,0.514,0.9,0.675
		c0.342,0.162,0.729,0.243,1.161,0.243c0.161,0,0.333-0.009,0.53-0.045c0.181-0.026,0.369-0.071,0.559-0.135
		c0.18-0.054,0.359-0.126,0.541-0.216c0.162-0.081,0.314-0.171,0.449-0.279v-2.341h-1.629v-0.36h1.99L267.182,284.997
		L267.182,284.997z"/>
</g>
<g enable-background="new    ">
	<path fill="#4E4542" d="M272.643,278.82c0.288,0,0.559,0.055,0.819,0.162c0.252,0.108,0.485,0.262,0.685,0.441
		c0.188,0.198,0.342,0.423,0.459,0.675c0.108,0.271,0.171,0.55,0.171,0.855c0,0.162-0.026,0.333-0.063,0.495
		c-0.045,0.171-0.108,0.333-0.181,0.495c-0.081,0.162-0.181,0.315-0.288,0.459c-0.117,0.145-0.242,0.271-0.388,0.379
		c-0.18,0.135-0.368,0.27-0.575,0.396c-0.217,0.146-0.424,0.279-0.64,0.414c-0.216,0.145-0.432,0.298-0.63,0.441
		c-0.207,0.153-0.387,0.307-0.54,0.45c-0.162,0.162-0.288,0.315-0.378,0.468c-0.099,0.162-0.144,0.333-0.144,0.495h3.951v0.352
		h-4.446c0-0.396,0.107-0.756,0.323-1.071c0.217-0.306,0.486-0.585,0.811-0.847c0.314-0.252,0.657-0.485,1.036-0.711
		c0.359-0.216,0.702-0.441,1.017-0.675c0.217-0.162,0.389-0.388,0.531-0.676c0.136-0.27,0.207-0.558,0.207-0.864
		c0-0.233-0.045-0.468-0.135-0.684c-0.09-0.207-0.217-0.388-0.369-0.55c-0.162-0.152-0.353-0.278-0.56-0.378
		c-0.215-0.09-0.439-0.135-0.674-0.135c-0.208,0-0.415,0.036-0.611,0.107c-0.207,0.072-0.388,0.181-0.55,0.307
		c-0.171,0.135-0.306,0.297-0.404,0.477c-0.108,0.189-0.153,0.396-0.153,0.622h-0.387c0-0.271,0.054-0.521,0.18-0.757
		c0.117-0.233,0.279-0.432,0.477-0.603c0.198-0.162,0.424-0.298,0.676-0.396C272.121,278.875,272.373,278.82,272.643,278.82z"/>
</g>
<g enable-background="new    ">
	<path fill="#4E4542" d="M280.169,278.866v0.359h-3.106l-0.314,2.791c0.09-0.099,0.197-0.189,0.334-0.279
		c0.125-0.081,0.261-0.152,0.403-0.216c0.136-0.054,0.279-0.099,0.425-0.135c0.135-0.027,0.261-0.045,0.387-0.045
		c0.307,0,0.604,0.063,0.873,0.18c0.271,0.126,0.504,0.288,0.711,0.486c0.199,0.216,0.352,0.45,0.478,0.72
		c0.108,0.271,0.171,0.559,0.171,0.864c0,0.307-0.063,0.604-0.171,0.874c-0.126,0.278-0.277,0.521-0.478,0.729
		c-0.207,0.217-0.44,0.379-0.711,0.505s-0.566,0.188-0.873,0.188c-0.271,0-0.514-0.045-0.747-0.135
		c-0.234-0.081-0.45-0.198-0.63-0.36c-0.198-0.153-0.36-0.333-0.486-0.549c-0.145-0.198-0.243-0.423-0.297-0.676h0.387
		c0.045,0.207,0.126,0.388,0.243,0.55c0.108,0.171,0.233,0.314,0.396,0.432c0.145,0.126,0.323,0.216,0.521,0.279
		c0.189,0.072,0.396,0.099,0.612,0.099c0.252,0,0.486-0.054,0.721-0.162c0.226-0.099,0.423-0.242,0.604-0.423
		c0.162-0.171,0.298-0.378,0.404-0.612c0.091-0.233,0.146-0.477,0.146-0.738c0-0.252-0.055-0.504-0.146-0.738
		c-0.106-0.225-0.242-0.423-0.404-0.603c-0.171-0.162-0.369-0.297-0.595-0.405c-0.233-0.09-0.478-0.145-0.729-0.145
		c-0.279,0-0.531,0.063-0.756,0.172c-0.234,0.116-0.441,0.27-0.612,0.459h-0.576l0.396-3.466H280.169z"/>
	<path fill="#4E4542" d="M285.497,278.866v0.359h-3.106l-0.314,2.791c0.09-0.099,0.197-0.189,0.334-0.279
		c0.125-0.081,0.261-0.152,0.403-0.216c0.136-0.054,0.279-0.099,0.424-0.135c0.136-0.027,0.262-0.045,0.388-0.045
		c0.307,0,0.604,0.063,0.873,0.18c0.271,0.126,0.504,0.288,0.711,0.486c0.199,0.216,0.352,0.45,0.478,0.72
		c0.108,0.271,0.171,0.559,0.171,0.864c0,0.307-0.063,0.604-0.171,0.874c-0.126,0.278-0.277,0.521-0.478,0.729
		c-0.207,0.217-0.44,0.379-0.711,0.505s-0.566,0.188-0.873,0.188c-0.271,0-0.515-0.045-0.747-0.135
		c-0.234-0.081-0.45-0.198-0.63-0.36c-0.198-0.153-0.36-0.333-0.486-0.549c-0.145-0.198-0.243-0.423-0.297-0.676h0.387
		c0.045,0.207,0.126,0.388,0.243,0.55c0.108,0.171,0.233,0.314,0.396,0.432c0.145,0.126,0.323,0.216,0.521,0.279
		c0.189,0.072,0.396,0.099,0.612,0.099c0.252,0,0.485-0.054,0.721-0.162c0.225-0.099,0.423-0.242,0.604-0.423
		c0.161-0.171,0.298-0.378,0.404-0.612c0.09-0.233,0.146-0.477,0.146-0.738c0-0.252-0.056-0.504-0.146-0.738
		c-0.106-0.225-0.243-0.423-0.404-0.603c-0.172-0.162-0.369-0.297-0.595-0.405c-0.233-0.09-0.478-0.145-0.729-0.145
		c-0.279,0-0.531,0.063-0.756,0.172c-0.234,0.116-0.441,0.27-0.612,0.459h-0.576l0.396-3.466H285.497z"/>
	<path fill="#4E4542" d="M290.644,286.833h-0.359v-7.967h0.359V286.833z"/>
</g>
<g enable-background="new    ">
	<path fill="#4E4542" d="M300.608,282.178c0.271,0.036,0.495,0.108,0.693,0.225c0.181,0.127,0.333,0.271,0.459,0.433
		c0.117,0.171,0.207,0.352,0.261,0.54c0.055,0.198,0.082,0.378,0.082,0.549c0,0.262-0.055,0.505-0.146,0.721
		c-0.107,0.234-0.242,0.432-0.404,0.594c-0.182,0.181-0.378,0.315-0.596,0.405c-0.232,0.108-0.477,0.153-0.729,0.153h-3.149v-6.932
		h2.951c0.234,0,0.468,0.045,0.686,0.135c0.207,0.09,0.396,0.216,0.558,0.369c0.153,0.162,0.279,0.351,0.378,0.558
		c0.09,0.217,0.135,0.45,0.135,0.693c0,0.162-0.025,0.324-0.079,0.495c-0.063,0.181-0.146,0.352-0.243,0.495
		c-0.108,0.153-0.234,0.279-0.378,0.378C300.941,282.097,300.779,282.161,300.608,282.178z M297.439,279.225v2.8h2.574
		c0.188,0,0.369-0.036,0.55-0.117c0.171-0.071,0.324-0.171,0.459-0.297c0.126-0.126,0.226-0.27,0.306-0.45
		c0.072-0.162,0.108-0.342,0.108-0.54c0-0.198-0.036-0.387-0.108-0.567c-0.07-0.162-0.17-0.313-0.297-0.439
		c-0.125-0.117-0.278-0.217-0.44-0.288c-0.181-0.063-0.359-0.1-0.559-0.1L297.439,279.225L297.439,279.225z M300.23,285.437
		c0.207,0,0.404-0.036,0.594-0.117c0.181-0.071,0.334-0.18,0.479-0.323c0.135-0.136,0.243-0.298,0.324-0.486
		c0.07-0.181,0.115-0.369,0.115-0.586c0-0.188-0.035-0.378-0.099-0.566c-0.071-0.181-0.171-0.343-0.288-0.486
		c-0.126-0.145-0.261-0.261-0.423-0.352c-0.171-0.09-0.352-0.135-0.55-0.135h-2.943v3.052L300.23,285.437L300.23,285.437z"/>
	<path fill="#4E4542" d="M305.179,278.82c0.289,0,0.559,0.055,0.818,0.162c0.253,0.108,0.486,0.262,0.686,0.441
		c0.188,0.198,0.342,0.423,0.459,0.675c0.106,0.271,0.171,0.55,0.171,0.855c0,0.162-0.026,0.333-0.063,0.495
		c-0.046,0.171-0.107,0.333-0.181,0.495c-0.081,0.162-0.18,0.315-0.288,0.459c-0.115,0.145-0.243,0.271-0.387,0.379
		c-0.181,0.135-0.369,0.27-0.576,0.396c-0.216,0.146-0.423,0.279-0.64,0.414c-0.216,0.145-0.433,0.298-0.63,0.441
		c-0.207,0.153-0.389,0.307-0.54,0.45c-0.162,0.162-0.288,0.315-0.379,0.468c-0.1,0.162-0.145,0.333-0.145,0.495h3.952v0.352h-4.447
		c0-0.396,0.108-0.756,0.324-1.071c0.216-0.306,0.486-0.585,0.812-0.847c0.313-0.252,0.655-0.485,1.034-0.711
		c0.359-0.216,0.702-0.441,1.019-0.675c0.216-0.162,0.387-0.388,0.531-0.676c0.135-0.27,0.207-0.558,0.207-0.864
		c0-0.233-0.046-0.468-0.137-0.684c-0.09-0.207-0.216-0.388-0.369-0.55c-0.16-0.152-0.351-0.278-0.558-0.378
		c-0.217-0.09-0.441-0.135-0.676-0.135c-0.207,0-0.414,0.036-0.611,0.107c-0.207,0.072-0.388,0.181-0.55,0.307
		c-0.171,0.135-0.306,0.297-0.405,0.477c-0.106,0.189-0.151,0.396-0.151,0.622h-0.389c0-0.271,0.055-0.521,0.182-0.757
		c0.116-0.233,0.277-0.432,0.477-0.603c0.198-0.162,0.424-0.298,0.676-0.396C304.656,278.875,304.908,278.82,305.179,278.82z"/>
</g>
<g enable-background="new    ">
	<path fill="#4E4542" d="M313.063,278.866v0.359h-3.106l-0.313,2.791c0.09-0.099,0.197-0.189,0.333-0.279
		c0.126-0.081,0.261-0.152,0.405-0.216c0.135-0.054,0.278-0.099,0.423-0.135c0.136-0.027,0.261-0.045,0.388-0.045
		c0.306,0,0.604,0.063,0.873,0.18c0.271,0.126,0.504,0.288,0.711,0.486c0.198,0.216,0.353,0.45,0.478,0.72
		c0.108,0.271,0.172,0.559,0.172,0.864c0,0.307-0.063,0.604-0.172,0.874c-0.125,0.278-0.278,0.521-0.478,0.729
		c-0.207,0.217-0.44,0.379-0.711,0.505s-0.567,0.188-0.873,0.188c-0.271,0-0.514-0.045-0.748-0.135
		c-0.233-0.081-0.449-0.198-0.63-0.36c-0.198-0.153-0.36-0.333-0.485-0.549c-0.145-0.198-0.243-0.423-0.298-0.676h0.389
		c0.045,0.207,0.125,0.388,0.241,0.55c0.108,0.171,0.234,0.314,0.396,0.432c0.145,0.126,0.324,0.216,0.521,0.279
		c0.189,0.072,0.396,0.099,0.613,0.099c0.252,0,0.486-0.054,0.72-0.162c0.227-0.099,0.424-0.242,0.604-0.423
		c0.162-0.171,0.298-0.378,0.406-0.612c0.09-0.233,0.144-0.477,0.144-0.738c0-0.252-0.054-0.504-0.144-0.738
		c-0.108-0.225-0.244-0.423-0.406-0.603c-0.17-0.162-0.369-0.297-0.594-0.405c-0.234-0.09-0.478-0.145-0.729-0.145
		c-0.279,0-0.531,0.063-0.757,0.172c-0.233,0.116-0.44,0.27-0.612,0.459h-0.576l0.396-3.466H313.063z"/>
</g>
<g enable-background="new    ">
	<path fill="#4E4542" d="M318.74,278.866v0.359h-3.104l-0.315,2.791c0.09-0.099,0.198-0.189,0.333-0.279
		c0.126-0.081,0.262-0.152,0.405-0.216c0.135-0.054,0.278-0.099,0.423-0.135c0.135-0.027,0.262-0.045,0.387-0.045
		c0.308,0,0.604,0.063,0.874,0.18c0.271,0.126,0.504,0.288,0.711,0.486c0.198,0.216,0.352,0.45,0.479,0.72
		c0.106,0.271,0.171,0.559,0.171,0.864c0,0.307-0.063,0.604-0.171,0.874c-0.127,0.278-0.279,0.521-0.479,0.729
		c-0.207,0.217-0.439,0.379-0.711,0.505c-0.271,0.126-0.566,0.188-0.874,0.188c-0.27,0-0.513-0.045-0.746-0.135
		c-0.233-0.081-0.45-0.198-0.631-0.36c-0.196-0.153-0.358-0.333-0.485-0.549c-0.145-0.198-0.242-0.423-0.297-0.676h0.387
		c0.045,0.207,0.127,0.388,0.244,0.55c0.106,0.171,0.232,0.314,0.396,0.432c0.145,0.126,0.324,0.216,0.522,0.279
		c0.188,0.072,0.396,0.099,0.61,0.099c0.252,0,0.486-0.054,0.722-0.162c0.225-0.099,0.424-0.242,0.604-0.423
		c0.162-0.171,0.297-0.378,0.404-0.612c0.09-0.233,0.145-0.477,0.145-0.738c0-0.252-0.055-0.504-0.145-0.738
		c-0.107-0.225-0.242-0.423-0.404-0.603c-0.172-0.162-0.369-0.297-0.594-0.405c-0.234-0.09-0.479-0.145-0.73-0.145
		c-0.277,0-0.53,0.063-0.756,0.172c-0.233,0.116-0.44,0.27-0.61,0.459h-0.576l0.396-3.466H318.74z"/>
</g>
<g enable-background="new    ">
	<path fill="#4E4542" d="M236.006,303.194c-0.288,0.27-0.612,0.485-0.981,0.647c-0.378,0.162-0.773,0.243-1.188,0.243
		c-0.486,0-0.927-0.099-1.323-0.297c-0.396-0.189-0.738-0.45-1.008-0.783c-0.288-0.324-0.504-0.693-0.648-1.125
		c-0.162-0.424-0.233-0.864-0.233-1.333c0-0.459,0.071-0.9,0.216-1.332c0.144-0.423,0.351-0.802,0.63-1.126
		c0.271-0.323,0.604-0.585,1.008-0.783c0.396-0.188,0.848-0.288,1.359-0.288c0.396,0,0.773,0.081,1.144,0.226
		c0.36,0.162,0.702,0.378,1.044,0.657l-0.252,0.27c-0.252-0.233-0.549-0.432-0.891-0.576s-0.693-0.216-1.044-0.216
		c-0.414,0-0.783,0.081-1.125,0.243c-0.352,0.162-0.657,0.388-0.909,0.666c-0.261,0.288-0.459,0.631-0.604,1.009
		c-0.145,0.387-0.217,0.801-0.217,1.251c0,0.45,0.063,0.873,0.207,1.252c0.136,0.396,0.333,0.729,0.585,1.008
		c0.243,0.288,0.54,0.514,0.9,0.675c0.342,0.162,0.729,0.243,1.161,0.243c0.352,0,0.703-0.071,1.044-0.216
		c0.342-0.135,0.63-0.324,0.882-0.567L236.006,303.194z"/>
</g>
<g enable-background="new    ">
	<path fill="#4E4542" d="M239.749,296.972c0.378,0,0.72,0.091,1.025,0.252c0.288,0.181,0.541,0.424,0.748,0.729
		c0.198,0.315,0.342,0.693,0.45,1.126c0.099,0.44,0.153,0.927,0.153,1.449c0,0.531-0.055,1.017-0.153,1.449
		c-0.108,0.441-0.252,0.819-0.45,1.125c-0.207,0.315-0.459,0.559-0.748,0.721c-0.306,0.18-0.647,0.261-1.025,0.261
		c-0.388,0-0.729-0.081-1.018-0.261c-0.306-0.162-0.549-0.405-0.747-0.721c-0.207-0.306-0.359-0.684-0.459-1.125
		c-0.107-0.433-0.152-0.918-0.152-1.449c0-0.522,0.045-1.009,0.152-1.449c0.1-0.433,0.252-0.811,0.459-1.126
		c0.198-0.306,0.441-0.549,0.747-0.729C239.02,297.063,239.362,296.972,239.749,296.972z M239.749,303.724
		c0.288,0,0.558-0.063,0.811-0.207c0.243-0.135,0.459-0.342,0.64-0.612c0.18-0.271,0.314-0.604,0.423-1.008
		c0.09-0.396,0.144-0.847,0.144-1.368c0-0.514-0.054-0.973-0.144-1.378c-0.108-0.396-0.243-0.729-0.423-0.999
		c-0.181-0.27-0.396-0.468-0.64-0.612c-0.252-0.135-0.521-0.207-0.811-0.207c-0.297,0-0.567,0.072-0.811,0.207
		c-0.252,0.145-0.459,0.342-0.639,0.612s-0.324,0.604-0.414,0.999c-0.108,0.405-0.153,0.864-0.153,1.378
		c0,0.521,0.045,0.972,0.153,1.368c0.09,0.405,0.234,0.738,0.414,1.008s0.387,0.478,0.639,0.612
		C239.182,303.662,239.452,303.724,239.749,303.724z"/>
	<path fill="#4E4542" d="M246.993,305.03h-0.36v-7.967h0.36V305.03z"/>
	<path fill="#4E4542" d="M257.687,297.063l0.279,6.932h-0.36l-0.243-6.212l-2.548,5.077l-2.557-5.077l-0.225,6.212h-0.36
		l0.279-6.932h0.306l2.557,4.87l2.558-4.87H257.687z"/>
	<path fill="#4E4542" d="M261.232,296.972c0.378,0,0.721,0.091,1.026,0.252c0.288,0.181,0.54,0.424,0.748,0.729
		c0.198,0.315,0.342,0.693,0.45,1.126c0.099,0.44,0.152,0.927,0.152,1.449c0,0.531-0.054,1.017-0.152,1.449
		c-0.108,0.441-0.252,0.819-0.45,1.125c-0.208,0.315-0.459,0.559-0.748,0.721c-0.306,0.18-0.648,0.261-1.026,0.261
		c-0.387,0-0.729-0.081-1.017-0.261c-0.306-0.162-0.549-0.405-0.747-0.721c-0.207-0.306-0.36-0.684-0.459-1.125
		c-0.108-0.433-0.153-0.918-0.153-1.449c0-0.522,0.045-1.009,0.153-1.449c0.099-0.433,0.252-0.811,0.459-1.126
		c0.198-0.306,0.441-0.549,0.747-0.729C260.503,297.063,260.845,296.972,261.232,296.972z M261.232,303.724
		c0.288,0,0.56-0.063,0.812-0.207c0.243-0.135,0.459-0.342,0.639-0.612c0.18-0.271,0.315-0.604,0.423-1.008
		c0.09-0.396,0.145-0.847,0.145-1.368c0-0.514-0.055-0.973-0.145-1.378c-0.107-0.396-0.243-0.729-0.423-0.999
		s-0.396-0.468-0.639-0.612c-0.252-0.135-0.522-0.207-0.812-0.207c-0.297,0-0.566,0.072-0.81,0.207
		c-0.252,0.145-0.459,0.342-0.639,0.612c-0.181,0.27-0.324,0.604-0.414,0.999c-0.108,0.405-0.153,0.864-0.153,1.378
		c0,0.521,0.045,0.972,0.153,1.368c0.09,0.405,0.233,0.738,0.414,1.008c0.18,0.271,0.387,0.478,0.639,0.612
		C260.665,303.662,260.935,303.724,261.232,303.724z"/>
	<path fill="#4E4542" d="M268.476,305.03h-0.359v-7.967h0.359V305.03z"/>
</g>
<g enable-background="new    ">
	<path fill="#4E4542" d="M278.917,301.005v2.989h-0.359v-2.989l-2.549-3.942h0.451l2.276,3.556l2.277-3.556h0.441L278.917,301.005z"
		/>
</g>
<g enable-background="new    ">
	<path fill="#4E4542" d="M284.947,296.972c0.38,0,0.722,0.091,1.027,0.252c0.287,0.181,0.54,0.424,0.747,0.729
		c0.198,0.315,0.342,0.693,0.45,1.126c0.099,0.44,0.152,0.927,0.152,1.449c0,0.531-0.055,1.017-0.152,1.449
		c-0.108,0.441-0.252,0.819-0.45,1.125c-0.207,0.315-0.46,0.559-0.747,0.721c-0.307,0.18-0.647,0.261-1.027,0.261
		c-0.387,0-0.729-0.081-1.017-0.261c-0.306-0.162-0.55-0.405-0.747-0.721c-0.207-0.306-0.36-0.684-0.459-1.125
		c-0.108-0.433-0.153-0.918-0.153-1.449c0-0.522,0.045-1.009,0.153-1.449c0.099-0.433,0.252-0.811,0.459-1.126
		c0.197-0.306,0.441-0.549,0.747-0.729C284.218,297.063,284.56,296.972,284.947,296.972z M284.947,303.724
		c0.289,0,0.56-0.063,0.812-0.207c0.244-0.135,0.459-0.342,0.64-0.612c0.182-0.271,0.315-0.604,0.423-1.008
		c0.091-0.396,0.146-0.847,0.146-1.368c0-0.514-0.055-0.973-0.146-1.378c-0.106-0.396-0.241-0.729-0.423-0.999
		c-0.181-0.27-0.396-0.468-0.64-0.612c-0.252-0.135-0.521-0.207-0.812-0.207c-0.297,0-0.565,0.072-0.81,0.207
		c-0.252,0.145-0.459,0.342-0.64,0.612c-0.181,0.271-0.324,0.604-0.414,0.999c-0.107,0.405-0.152,0.864-0.152,1.378
		c0,0.521,0.045,0.972,0.152,1.368c0.09,0.405,0.233,0.738,0.414,1.008s0.388,0.478,0.64,0.612
		C284.38,303.662,284.65,303.724,284.947,303.724z"/>
	<path fill="#4E4542" d="M292.191,305.03h-0.358v-7.967h0.358V305.03z"/>
</g>
<g enable-background="new    ">
	<path fill="#4E4542" d="M299.669,300.25l3.646,3.745h-0.468l-3.493-3.385l-0.721,0.81v2.575h-0.359v-6.932h0.359v3.78l3.494-3.78
		h0.513L299.669,300.25z"/>
</g>
<g enable-background="new    ">
	<path fill="#4E4542" d="M306.787,296.972c0.379,0,0.722,0.091,1.027,0.252c0.287,0.181,0.54,0.424,0.747,0.729
		c0.198,0.315,0.342,0.693,0.45,1.126c0.099,0.44,0.151,0.927,0.151,1.449c0,0.531-0.054,1.017-0.151,1.449
		c-0.108,0.441-0.252,0.819-0.45,1.125c-0.207,0.315-0.46,0.559-0.747,0.721c-0.307,0.18-0.648,0.261-1.027,0.261
		c-0.387,0-0.729-0.081-1.017-0.261c-0.306-0.162-0.55-0.405-0.747-0.721c-0.207-0.306-0.36-0.684-0.459-1.125
		c-0.108-0.433-0.153-0.918-0.153-1.449c0-0.522,0.045-1.009,0.153-1.449c0.099-0.433,0.252-0.811,0.459-1.126
		c0.197-0.306,0.441-0.549,0.747-0.729C306.06,297.063,306.402,296.972,306.787,296.972z M306.787,303.724
		c0.289,0,0.56-0.063,0.812-0.207c0.244-0.135,0.459-0.342,0.64-0.612c0.182-0.271,0.315-0.604,0.423-1.008
		c0.091-0.396,0.146-0.847,0.146-1.368c0-0.514-0.055-0.973-0.146-1.378c-0.106-0.396-0.241-0.729-0.423-0.999
		c-0.181-0.27-0.396-0.468-0.64-0.612c-0.252-0.135-0.521-0.207-0.812-0.207c-0.297,0-0.565,0.072-0.81,0.207
		c-0.252,0.145-0.459,0.342-0.64,0.612c-0.181,0.271-0.324,0.604-0.414,0.999c-0.107,0.405-0.152,0.864-0.152,1.378
		c0,0.521,0.045,0.972,0.152,1.368c0.09,0.405,0.233,0.738,0.414,1.008s0.388,0.478,0.64,0.612
		C306.222,303.662,306.49,303.724,306.787,303.724z"/>
</g>
<g enable-background="new    ">
	<path fill="#4E4542" d="M235.061,315.657l-0.243,1.953h0.874l-0.054,0.342h-0.873l-0.271,2.125h-0.36l0.288-2.125h-2.584
		l-0.271,2.125h-0.351l0.27-2.125h-0.972l0.063-0.342h0.972l0.243-1.953h-0.973l0.063-0.352h0.972l0.315-2.16h0.342l-0.315,2.16
		h2.575l0.297-2.16h0.343l-0.288,2.16h0.882l-0.054,0.352H235.061z M234.719,315.657h-2.575l-0.252,1.953h2.575L234.719,315.657z"/>
</g>
<g enable-background="new    ">
	<path fill="#4E4542" d="M241.874,313.504h-4.15v2.926h3.664v0.359h-3.664v3.287h-0.36v-6.933h4.511V313.504z"/>
	<path fill="#4E4542" d="M247.472,313.504h-4.15v2.926h3.664v0.359h-3.664v3.287h-0.359v-6.933h4.51V313.504z"/>
	<path fill="#4E4542" d="M253.07,313.504h-4.149v2.926h3.664v0.359h-3.664v3.287h-0.36v-6.933h4.51V313.504z"/>
	<path fill="#4E4542" d="M258.668,313.504h-4.15v2.926h3.664v0.359h-3.664v3.287h-0.359v-6.933h4.51V313.504z"/>
	<path fill="#4E4542" d="M264.265,313.504h-4.149v2.926h3.663v0.359h-3.663v3.287h-0.36v-6.933h4.51V313.504L264.265,313.504z"/>
</g>
<g enable-background="new    ">
	<path fill="#4E4542" d="M271.619,313.504h-4.15v2.926h3.664v0.359h-3.664v3.287h-0.36v-6.933h4.511V313.504L271.619,313.504z"/>
</g>
<g>
	<rect x="370.787" y="567.208" fill="#3E3A39" width="0.25" height="2.041"/>
</g>
<g>
	<rect x="340.617" y="488.569" fill="#00468C" width="30.684" height="36.352"/>
</g>
<g>
	<path fill="#FFFFFF" d="M371.551,525.17h-31.184v-36.852h31.184V525.17z M340.867,524.67h30.184v-35.852h-30.184V524.67z"/>
</g>
<g>
	<polygon fill="#FFFFFF" points="351.785,492.051 343.781,500.04 349.117,505.364 343.686,510.77 351.693,518.766 354.35,516.104 
		349.004,510.768 354.453,505.364 349.125,500.04 354.453,494.717 	"/>
</g>
<g>
	<path fill="#00468C" d="M351.693,518.965l-8.207-8.195l0.102-0.102l5.332-5.305l-5.339-5.324l8.206-8.189l0.101,0.102l2.769,2.766
		l-5.329,5.322l5.329,5.324l-0.101,0.102l-5.351,5.303l5.347,5.336L351.693,518.965z M343.886,510.77l7.807,7.797l2.457-2.463
		l-5.346-5.336l0.101-0.102l5.351-5.303l-5.329-5.324l5.329-5.322l-2.469-2.467l-7.806,7.789l5.338,5.324l-0.101,0.1L343.886,510.77
		z"/>
</g>
<g>
	<polygon fill="#FFFFFF" points="360.127,505.551 354.768,510.86 360.137,516.145 357.443,518.786 360.119,521.426 368.178,513.479 
			"/>
</g>
<g>
	<path fill="#00468C" d="M360.119,521.625l-2.88-2.84l2.694-2.643l-5.368-5.283l5.562-5.51l0.1,0.1l8.152,8.027l-0.103,0.102
		L360.119,521.625z M357.645,518.786l2.476,2.441l7.856-7.748l-7.85-7.729l-5.158,5.109l5.37,5.283L357.645,518.786z"/>
</g>
<g>
	<polygon fill="#FFFFFF" points="365.387,494.979 360.172,500.178 365.387,505.364 	"/>
</g>
<g>
	<path fill="#00468C" d="M365.529,505.704l-5.557-5.525l5.557-5.539V505.704z M360.371,500.178l4.873,4.846v-9.703L360.371,500.178z
		"/>
</g>
<g>
	<rect x="340.879" y="529.987" fill="#3E3A39" width="30.103" height="0.25"/>
</g>
<g>
	<rect x="340.754" y="529.081" fill="#3E3A39" width="0.25" height="2.041"/>
</g>
<g>
	<rect x="378.389" y="489.01" fill="#3E3A39" width="0.25" height="35.643"/>
</g>
<g>
	<rect x="377.504" y="488.885" fill="#3E3A39" width="2.041" height="0.25"/>
</g>
<g>
	<rect x="377.504" y="524.448" fill="#3E3A39" width="2.041" height="0.25"/>
</g>
<g enable-background="new    ">
	<path fill="#3E3A39" d="M386.687,510.907h-0.383v-4.16c0-0.379,0.016-0.771,0.047-1.176c-0.039,0.039-0.08,0.076-0.121,0.111
		c-0.042,0.037-0.444,0.354-1.207,0.949l-0.223-0.275l1.551-1.16h0.336V510.907z"/>
	<path fill="#3E3A39" d="M392.412,506.54c0,0.354-0.11,0.652-0.334,0.895c-0.223,0.242-0.521,0.396-0.896,0.465v0.023
		c0.458,0.059,0.807,0.203,1.047,0.438c0.239,0.234,0.359,0.551,0.359,0.945c0,0.533-0.183,0.947-0.545,1.24
		c-0.363,0.293-0.888,0.439-1.568,0.439c-0.581,0-1.088-0.109-1.521-0.324v-0.387c0.22,0.113,0.465,0.203,0.736,0.27
		c0.271,0.064,0.527,0.098,0.769,0.098c0.574,0,1.008-0.115,1.297-0.35s0.434-0.563,0.434-0.986c0-0.379-0.147-0.668-0.443-0.871
		s-0.729-0.305-1.303-0.305h-0.617v-0.375h0.625c0.475,0,0.851-0.113,1.127-0.338c0.277-0.227,0.416-0.531,0.416-0.916
		c0-0.318-0.112-0.572-0.338-0.764s-0.521-0.287-0.885-0.287c-0.284,0-0.543,0.039-0.777,0.119
		c-0.233,0.078-0.498,0.215-0.789,0.406l-0.19-0.262c0.221-0.184,0.488-0.33,0.801-0.438c0.313-0.109,0.629-0.162,0.949-0.162
		c0.524,0,0.932,0.123,1.219,0.373C392.27,505.735,392.412,506.084,392.412,506.54z"/>
	<path fill="#3E3A39" d="M399.171,510.907v-2.785c0-0.414-0.081-0.717-0.242-0.906c-0.162-0.189-0.409-0.285-0.742-0.285
		c-0.437,0-0.757,0.119-0.965,0.359c-0.209,0.238-0.313,0.615-0.313,1.129v2.488h-0.395v-2.902c0-0.717-0.328-1.074-0.984-1.074
		c-0.444,0-0.77,0.129-0.973,0.389s-0.305,0.674-0.305,1.244v2.344h-0.388v-4.246h0.32l0.082,0.582h0.022
		c0.117-0.211,0.283-0.373,0.5-0.49c0.217-0.115,0.454-0.174,0.716-0.174c0.669,0,1.099,0.252,1.289,0.754h0.016
		c0.138-0.242,0.323-0.428,0.557-0.559c0.232-0.131,0.498-0.195,0.795-0.195c0.464,0,0.812,0.125,1.043,0.371
		c0.231,0.248,0.349,0.641,0.349,1.18v2.777H399.171L399.171,510.907z"/>
</g>
<g enable-background="new    ">
	<path fill="#3E3A39" d="M407.193,510.907v-2.785c0-0.414-0.08-0.717-0.242-0.906s-0.407-0.285-0.741-0.285
		c-0.437,0-0.757,0.119-0.966,0.359c-0.209,0.238-0.313,0.615-0.313,1.129v2.488h-0.396v-2.902c0-0.717-0.328-1.074-0.983-1.074
		c-0.445,0-0.771,0.129-0.974,0.389c-0.202,0.26-0.305,0.674-0.305,1.244v2.344h-0.387v-4.246h0.32l0.081,0.582h0.023
		c0.117-0.211,0.283-0.373,0.5-0.49c0.217-0.115,0.455-0.174,0.715-0.174c0.67,0,1.101,0.252,1.289,0.754h0.017
		c0.139-0.242,0.323-0.428,0.557-0.559c0.232-0.131,0.498-0.195,0.795-0.195c0.463,0,0.811,0.125,1.043,0.371
		c0.232,0.248,0.348,0.641,0.348,1.18v2.777H407.193L407.193,510.907z"/>
</g>
<g enable-background="new    ">
	<path fill="#3E3A39" d="M346.294,540.243h-0.384v-4.16c0-0.379,0.017-0.771,0.047-1.176c-0.038,0.039-0.078,0.076-0.12,0.111
		c-0.041,0.037-0.443,0.354-1.207,0.949l-0.224-0.275l1.551-1.16h0.337V540.243z"/>
	<path fill="#3E3A39" d="M350.861,540.243h-0.383v-4.16c0-0.379,0.016-0.771,0.047-1.176c-0.039,0.039-0.079,0.076-0.121,0.111
		c-0.041,0.037-0.442,0.354-1.207,0.949l-0.223-0.275l1.551-1.16h0.336V540.243z"/>
	<path fill="#3E3A39" d="M358.779,540.243v-2.785c0-0.414-0.08-0.717-0.242-0.906c-0.161-0.189-0.407-0.285-0.741-0.285
		c-0.436,0-0.757,0.119-0.966,0.359c-0.208,0.238-0.313,0.615-0.313,1.129v2.488h-0.396v-2.902c0-0.717-0.327-1.074-0.983-1.074
		c-0.445,0-0.771,0.131-0.974,0.389c-0.202,0.26-0.305,0.674-0.305,1.244v2.344h-0.387v-4.246h0.32l0.082,0.582h0.022
		c0.117-0.211,0.284-0.373,0.5-0.49c0.217-0.115,0.455-0.174,0.715-0.174c0.67,0,1.101,0.252,1.289,0.754h0.017
		c0.139-0.242,0.323-0.428,0.557-0.559c0.233-0.129,0.498-0.195,0.795-0.195c0.464,0,0.813,0.125,1.043,0.371
		c0.232,0.248,0.348,0.641,0.348,1.18v2.777H358.779L358.779,540.243z"/>
</g>
<g enable-background="new    ">
	<path fill="#3E3A39" d="M366.801,540.243v-2.785c0-0.414-0.081-0.717-0.242-0.906s-0.409-0.285-0.742-0.285
		c-0.435,0-0.757,0.119-0.965,0.359c-0.208,0.238-0.313,0.615-0.313,1.129v2.488h-0.395v-2.902c0-0.717-0.328-1.074-0.984-1.074
		c-0.444,0-0.77,0.131-0.973,0.389c-0.203,0.26-0.305,0.674-0.305,1.244v2.344h-0.388v-4.246h0.32l0.082,0.582h0.023
		c0.116-0.211,0.283-0.373,0.5-0.49c0.216-0.115,0.454-0.174,0.715-0.174c0.669,0,1.099,0.252,1.289,0.754h0.016
		c0.138-0.242,0.323-0.428,0.557-0.559c0.234-0.129,0.498-0.195,0.796-0.195c0.464,0,0.812,0.125,1.043,0.371
		c0.23,0.248,0.348,0.641,0.348,1.18v2.777H366.801L366.801,540.243z"/>
</g>
<g enable-background="new    ">
	<path fill="#3E3A39" d="M334.853,563.807v-0.313h2.404v-2h0.358v2c0.847,0,1.693-0.09,2.558-0.289l0.055,0.307
		c-0.865,0.197-1.855,0.297-2.971,0.297h-2.404V563.807z M337.337,559.1v-0.289h-1.937v-0.314h1.945v-0.854h0.358v0.854h1.964v0.314
		h-1.953v0.289c0,0.449,0.225,0.928,0.675,1.412c0.45,0.496,0.98,0.855,1.593,1.072l-0.27,0.252
		c-0.648-0.252-1.197-0.639-1.666-1.18c-0.233-0.252-0.404-0.514-0.514-0.773c-0.115,0.287-0.297,0.584-0.54,0.873
		c-0.469,0.576-1.018,0.99-1.646,1.252l-0.271-0.254c0.604-0.232,1.136-0.611,1.585-1.143
		C337.113,560.09,337.337,559.586,337.337,559.1z M341.38,565.79h-0.36v-8.463h0.36V565.79z"/>
	<path fill="#3E3A39" d="M347.139,562.008v2.25h3.754v0.314h-7.868v-0.314h3.754v-2.25H347.139z M349.903,562.008
		c-0.99-0.307-1.765-0.783-2.305-1.432c-0.298-0.354-0.513-0.723-0.641-1.1c-0.135,0.377-0.351,0.746-0.647,1.1
		c-0.539,0.646-1.305,1.125-2.295,1.432l-0.271-0.254c0.953-0.287,1.691-0.729,2.232-1.332c0.521-0.594,0.792-1.242,0.792-1.926
		v-0.541h0.378v0.541c0,0.684,0.262,1.332,0.801,1.926c0.522,0.605,1.271,1.045,2.226,1.332L349.903,562.008z"/>
	<path fill="#3E3A39" d="M356.31,563.34c-0.648-0.414-1.197-1-1.665-1.773c-0.234-0.377-0.405-0.773-0.522-1.172
		c-0.116,0.416-0.287,0.83-0.521,1.227c-0.469,0.783-1.018,1.387-1.656,1.809l-0.271-0.252c0.612-0.395,1.145-0.973,1.594-1.709
		c0.441-0.738,0.666-1.504,0.666-2.297v-1.215h0.379v1.215c0,0.783,0.225,1.531,0.675,2.25c0.45,0.73,0.981,1.289,1.594,1.676
		L356.31,563.34z M358.119,561.018v4.771h-0.36v-8.463h0.36v3.377h1.574v0.314H358.119z"/>
	<path fill="#3E3A39" d="M365.023,560.504c0,0.686-0.217,1.25-0.64,1.691c-0.434,0.451-0.974,0.666-1.62,0.666
		c-0.658,0-1.197-0.215-1.621-0.666c-0.432-0.441-0.639-1.008-0.639-1.691s0.207-1.252,0.639-1.701
		c0.424-0.441,0.963-0.666,1.621-0.666c0.646,0,1.188,0.225,1.62,0.666C364.806,559.252,365.023,559.821,365.023,560.504z
		 M364.66,560.504c0-0.594-0.18-1.08-0.539-1.477c-0.36-0.379-0.811-0.576-1.352-0.576c-0.549,0-0.998,0.197-1.359,0.576
		c-0.368,0.395-0.549,0.883-0.549,1.477c0,0.584,0.18,1.07,0.549,1.459c0.361,0.396,0.812,0.584,1.359,0.584
		c0.541,0,0.99-0.188,1.352-0.584C364.482,561.577,364.66,561.088,364.66,560.504z M367.03,565.79h-0.359v-8.463h0.359V565.79z"/>
</g>
<g enable-background="new    ">
	<path fill="#3E3A39" d="M377.947,564.258v0.314h-7.867v-0.314H377.947z M376.74,562.188c-0.792-0.271-1.476-0.701-2.044-1.307
		c-0.324-0.332-0.549-0.674-0.684-1.016c-0.146,0.342-0.379,0.684-0.685,1.016c-0.575,0.605-1.252,1.035-2.045,1.307l-0.27-0.252
		c0.756-0.242,1.422-0.648,1.979-1.207c0.55-0.559,0.828-1.135,0.828-1.736v-0.451h-2.467v-0.314h5.313v0.314h-2.467v0.451
		c0,0.604,0.279,1.18,0.837,1.736c0.55,0.559,1.206,0.965,1.973,1.207L376.74,562.188z"/>
</g>
<g>
	<rect x="163.1" y="434" fill="#00468C" width="77.453" height="91.627"/>
</g>
<g>
	<path fill="#FFFFFF" d="M240.803,525.877H162.85V433.75h77.953V525.877L240.803,525.877z M163.35,525.377h76.953V434.25H163.35
		V525.377z"/>
</g>
<g>
	<polygon fill="#FFFFFF" points="191.547,442.78 171.089,462.932 184.726,476.366 170.842,490.006 191.306,510.174 198.098,503.459 
		184.431,489.995 198.362,476.366 184.743,462.932 198.362,449.506 	"/>
</g>
<g>
	<path fill="#00468C" d="M191.306,510.374l-0.099-0.098l-20.566-20.27l13.884-13.641l-13.637-13.436l0.104-0.1l20.557-20.25
		l0.1,0.098l6.917,6.826l-0.103,0.102l-13.517,13.324l13.619,13.436l-0.103,0.102l-13.828,13.527l13.667,13.465L191.306,510.374z
		 M171.044,490.006l20.262,19.969l6.59-6.516l-13.667-13.465l0.104-0.104l13.828-13.525l-13.618-13.436l0.103-0.1l13.517-13.326
		l-6.613-6.527l-20.256,19.953l13.637,13.436L171.044,490.006z"/>
</g>
<g>
	<polygon fill="#FFFFFF" points="212.183,476.618 198.545,490.063 212.211,503.446 205.354,510.135 212.17,516.819 232.673,496.698 
			"/>
</g>
<g>
	<path fill="#00468C" d="M212.17,517.016l-0.1-0.098l-6.919-6.783l0.104-0.102l6.753-6.588l-13.665-13.385l0.103-0.1l13.736-13.543
		l20.693,20.277l-0.104,0.102L212.17,517.016z M205.556,510.135l6.614,6.484l20.301-19.922l-20.288-19.883l-13.437,13.246
		l13.667,13.385L205.556,510.135z"/>
</g>
<g>
	<polygon fill="#FFFFFF" points="225.605,450.188 212.057,463.555 225.605,476.877 	"/>
</g>
<g>
	<path fill="#00468C" d="M225.746,477.215l-0.241-0.238l-13.65-13.422l13.892-13.707V477.215L225.746,477.215z M212.259,463.555
		l13.205,12.984v-26.014L212.259,463.555z"/>
</g>
<g>
	<rect x="247.441" y="435.106" fill="#3E3A39" width="0.25" height="90.234"/>
</g>
<g>
	<rect x="211.535" y="450.809" fill="#3E3A39" width="2.041" height="0.25"/>
</g>
<g>
	<rect x="246.584" y="525.202" fill="#3E3A39" width="2.041" height="0.25"/>
</g>
<g>
	<rect x="163.683" y="532.879" fill="#3E3A39" width="76.437" height="0.25"/>
</g>
<g>
	<rect x="163.559" y="531.973" fill="#3E3A39" width="0.25" height="2.041"/>
</g>
<g>
	<rect x="239.924" y="531.973" fill="#3E3A39" width="0.25" height="2.041"/>
</g>
<g enable-background="new    ">
	<path fill="#3E3A39" d="M257.524,477.34c0,0.355-0.11,0.652-0.334,0.896c-0.223,0.242-0.521,0.396-0.896,0.465v0.021
		c0.458,0.059,0.807,0.203,1.047,0.439c0.24,0.234,0.359,0.549,0.359,0.945c0,0.533-0.183,0.945-0.546,1.238
		c-0.362,0.293-0.886,0.439-1.567,0.439c-0.581,0-1.087-0.107-1.521-0.324v-0.387c0.22,0.115,0.464,0.205,0.736,0.27
		c0.271,0.066,0.528,0.1,0.768,0.1c0.576,0,1.009-0.117,1.298-0.352c0.288-0.232,0.434-0.561,0.434-0.984
		c0-0.379-0.148-0.67-0.443-0.871c-0.295-0.203-0.729-0.307-1.303-0.307h-0.617v-0.375h0.625c0.475,0,0.851-0.111,1.127-0.338
		c0.277-0.225,0.416-0.529,0.416-0.916c0-0.316-0.112-0.572-0.338-0.764c-0.225-0.191-0.52-0.287-0.885-0.287
		c-0.284,0-0.543,0.041-0.777,0.119c-0.233,0.08-0.498,0.217-0.789,0.408l-0.19-0.262c0.221-0.186,0.487-0.332,0.801-0.439
		c0.313-0.107,0.629-0.162,0.949-0.162c0.525,0,0.932,0.125,1.219,0.373C257.383,476.538,257.524,476.887,257.524,477.34z"/>
	<path fill="#3E3A39" d="M262.282,481.708h-3.574v-0.344l1.52-1.586c0.427-0.441,0.728-0.781,0.898-1.016s0.298-0.459,0.379-0.672
		c0.081-0.215,0.121-0.438,0.121-0.672c0-0.342-0.112-0.619-0.336-0.832c-0.225-0.215-0.515-0.32-0.871-0.32
		c-0.478,0-0.933,0.174-1.367,0.52l-0.211-0.27c0.477-0.4,1.005-0.602,1.586-0.602c0.498,0,0.889,0.133,1.174,0.398
		c0.285,0.264,0.428,0.631,0.428,1.098c0,0.377-0.096,0.742-0.286,1.096c-0.191,0.354-0.541,0.787-1.05,1.307l-1.465,1.504v0.016
		h3.056L262.282,481.708L262.282,481.708z"/>
	<path fill="#3E3A39" d="M263.466,481.405c0-0.256,0.104-0.385,0.313-0.385c0.214,0,0.32,0.129,0.32,0.385
		c0,0.254-0.106,0.383-0.32,0.383C263.57,481.788,263.466,481.659,263.466,481.405z"/>
	<path fill="#3E3A39" d="M266.833,478.276c0.608,0,1.089,0.146,1.438,0.439c0.351,0.295,0.525,0.699,0.525,1.215
		c0,0.586-0.183,1.043-0.547,1.367c-0.365,0.326-0.867,0.488-1.508,0.488c-0.284,0-0.554-0.027-0.81-0.084s-0.469-0.135-0.641-0.24
		v-0.402c0.281,0.145,0.531,0.244,0.75,0.301c0.219,0.055,0.452,0.084,0.699,0.084c0.5,0,0.9-0.133,1.202-0.396
		c0.303-0.264,0.453-0.623,0.453-1.072c0-0.426-0.146-0.758-0.44-1s-0.694-0.363-1.199-0.363c-0.338,0-0.693,0.051-1.063,0.152
		l-0.233-0.152l0.227-2.613h2.75v0.375h-2.383l-0.176,2.016C266.286,478.313,266.604,478.276,266.833,478.276z"/>
	<path fill="#3E3A39" d="M275.318,481.708v-2.785c0-0.414-0.081-0.715-0.241-0.906c-0.162-0.189-0.409-0.283-0.742-0.283
		c-0.437,0-0.757,0.119-0.965,0.357c-0.209,0.24-0.313,0.617-0.313,1.129v2.488h-0.395v-2.902c0-0.715-0.328-1.072-0.984-1.072
		c-0.445,0-0.77,0.129-0.973,0.389c-0.203,0.258-0.306,0.674-0.306,1.244v2.344h-0.387v-4.246h0.32l0.082,0.582h0.022
		c0.117-0.211,0.284-0.375,0.5-0.49s0.455-0.174,0.715-0.174c0.669,0,1.1,0.25,1.289,0.754h0.017
		c0.138-0.242,0.324-0.43,0.557-0.559c0.232-0.131,0.498-0.195,0.795-0.195c0.463,0,0.812,0.123,1.043,0.371
		c0.231,0.246,0.349,0.641,0.349,1.18v2.777h-0.383V481.708z"/>
</g>
<g enable-background="new    ">
	<path fill="#3E3A39" d="M283.98,481.708v-2.785c0-0.414-0.08-0.715-0.242-0.906c-0.161-0.189-0.407-0.283-0.741-0.283
		c-0.437,0-0.757,0.119-0.966,0.357c-0.209,0.24-0.313,0.617-0.313,1.129v2.488h-0.395v-2.902c0-0.715-0.328-1.072-0.984-1.072
		c-0.445,0-0.771,0.129-0.973,0.389c-0.203,0.258-0.306,0.674-0.306,1.244v2.344h-0.387v-4.246h0.32l0.082,0.582h0.022
		c0.117-0.211,0.283-0.375,0.5-0.49s0.455-0.174,0.715-0.174c0.67,0,1.101,0.25,1.289,0.754h0.017
		c0.139-0.242,0.323-0.43,0.557-0.559c0.233-0.131,0.498-0.195,0.795-0.195c0.463,0,0.812,0.123,1.043,0.371
		c0.232,0.246,0.348,0.641,0.348,1.18v2.777h-0.382V481.708z"/>
</g>
<g enable-background="new    ">
	<path fill="#3E3A39" d="M189.899,545.844h-3.573V545.5l1.52-1.586c0.427-0.441,0.727-0.781,0.898-1.016
		c0.171-0.234,0.298-0.457,0.379-0.672s0.121-0.438,0.121-0.672c0-0.342-0.112-0.619-0.336-0.832
		c-0.225-0.215-0.515-0.32-0.871-0.32c-0.478,0-0.933,0.174-1.367,0.52l-0.211-0.27c0.477-0.4,1.005-0.602,1.586-0.602
		c0.498,0,0.889,0.133,1.174,0.398c0.285,0.264,0.428,0.631,0.428,1.098c0,0.377-0.096,0.742-0.287,1.096
		c-0.19,0.354-0.541,0.787-1.049,1.307l-1.465,1.504v0.016h3.055L189.899,545.844L189.899,545.844z"/>
	<path fill="#3E3A39" d="M191.755,545.844l2.352-5.336h-3.229v-0.375h3.694v0.285l-2.358,5.426H191.755z"/>
	<path fill="#3E3A39" d="M195.649,545.542c0-0.256,0.104-0.383,0.313-0.383c0.213,0,0.32,0.127,0.32,0.383
		c0,0.254-0.107,0.383-0.32,0.383C195.753,545.922,195.649,545.795,195.649,545.542z"/>
	<path fill="#3E3A39" d="M199.016,542.413c0.609,0,1.089,0.146,1.439,0.439c0.35,0.295,0.524,0.699,0.524,1.217
		c0,0.586-0.182,1.041-0.547,1.365c-0.365,0.326-0.867,0.488-1.508,0.488c-0.284,0-0.553-0.027-0.809-0.084
		c-0.257-0.055-0.47-0.135-0.642-0.24v-0.4c0.281,0.143,0.531,0.242,0.75,0.299c0.219,0.055,0.452,0.084,0.699,0.084
		c0.5,0,0.901-0.133,1.203-0.396s0.453-0.623,0.453-1.072c0-0.426-0.147-0.758-0.441-1s-0.694-0.363-1.199-0.363
		c-0.338,0-0.692,0.051-1.063,0.152l-0.234-0.152l0.228-2.613h2.75v0.375h-2.384l-0.176,2.018
		C198.469,542.45,198.787,542.413,199.016,542.413z"/>
	<path fill="#3E3A39" d="M207.501,545.844v-2.785c0-0.414-0.081-0.715-0.242-0.904c-0.161-0.191-0.409-0.285-0.742-0.285
		c-0.435,0-0.756,0.119-0.965,0.357c-0.209,0.24-0.313,0.617-0.313,1.131v2.486h-0.395v-2.9c0-0.717-0.328-1.074-0.984-1.074
		c-0.444,0-0.77,0.129-0.973,0.389c-0.203,0.258-0.305,0.674-0.305,1.244v2.344h-0.388V541.6h0.32l0.082,0.582h0.023
		c0.116-0.211,0.283-0.375,0.5-0.49c0.216-0.115,0.455-0.174,0.715-0.174c0.669,0,1.099,0.25,1.289,0.754h0.016
		c0.138-0.242,0.324-0.43,0.557-0.559c0.233-0.131,0.498-0.195,0.796-0.195c0.463,0,0.811,0.123,1.043,0.371
		c0.231,0.246,0.348,0.641,0.348,1.18v2.777h-0.382V545.844z"/>
</g>
<g enable-background="new    ">
	<path fill="#3E3A39" d="M216.163,545.844v-2.785c0-0.414-0.081-0.715-0.242-0.904c-0.161-0.191-0.409-0.285-0.742-0.285
		c-0.435,0-0.756,0.119-0.965,0.357c-0.209,0.24-0.313,0.617-0.313,1.131v2.486h-0.395v-2.9c0-0.717-0.328-1.074-0.984-1.074
		c-0.444,0-0.77,0.129-0.973,0.389c-0.203,0.258-0.305,0.674-0.305,1.244v2.344h-0.388V541.6h0.32l0.082,0.582h0.023
		c0.116-0.211,0.283-0.375,0.5-0.49c0.216-0.115,0.454-0.174,0.715-0.174c0.669,0,1.099,0.25,1.289,0.754h0.016
		c0.138-0.242,0.324-0.43,0.557-0.559c0.233-0.131,0.498-0.195,0.795-0.195c0.464,0,0.812,0.123,1.043,0.371
		c0.232,0.246,0.349,0.641,0.349,1.18v2.777h-0.382V545.844z"/>
</g>
<g enable-background="new    ">
	<path fill="#3E3A39" d="M180.403,564.336c0.99-0.342,1.846-0.955,2.583-1.828c0.667-0.791,1.036-1.719,1.1-2.781h-3.412v-0.314
		h3.799c0,1.26-0.378,2.35-1.135,3.26c-0.756,0.918-1.647,1.557-2.665,1.916L180.403,564.336z M186.75,567.065h-0.36v-8.463h0.36
		V567.065z"/>
	<path fill="#3E3A39" d="M192.284,565.157v-1.918h-3.979v-0.314h8.048v0.314h-3.709v1.918H192.284z M195.056,561.977
		c-0.792-0.205-1.476-0.559-2.043-1.053c-0.324-0.27-0.549-0.541-0.684-0.801c-0.145,0.26-0.378,0.531-0.685,0.801
		c-0.576,0.494-1.251,0.846-2.044,1.053l-0.27-0.252c0.765-0.18,1.422-0.504,1.979-0.953c0.549-0.449,0.829-0.873,0.829-1.27v-0.271
		h-2.467v-0.314h5.312v0.314h-2.467v0.271c0,0.396,0.279,0.818,0.837,1.27c0.549,0.449,1.206,0.773,1.973,0.953L195.056,561.977z
		 M195.074,566.838h-5.401v-2.52h0.36v2.205h5.042L195.074,566.838L195.074,566.838z"/>
	<path fill="#3E3A39" d="M201.68,564.616c-0.647-0.414-1.197-0.998-1.666-1.773c-0.234-0.377-0.405-0.773-0.521-1.17
		c-0.117,0.414-0.288,0.828-0.522,1.225c-0.468,0.783-1.017,1.387-1.656,1.811l-0.271-0.252c0.611-0.396,1.144-0.975,1.594-1.711
		c0.441-0.738,0.666-1.504,0.666-2.295v-1.217h0.378v1.217c0,0.781,0.225,1.529,0.675,2.25c0.45,0.729,0.981,1.287,1.595,1.674
		L201.68,564.616z M203.49,562.293v4.771h-0.36v-8.463h0.36v3.375h1.574v0.316H203.49z"/>
	<path fill="#3E3A39" d="M210.392,561.78c0,0.686-0.216,1.252-0.639,1.691c-0.433,0.451-0.974,0.666-1.621,0.666
		c-0.657,0-1.197-0.215-1.621-0.666c-0.432-0.439-0.639-1.008-0.639-1.691s0.207-1.25,0.639-1.701
		c0.423-0.441,0.963-0.666,1.621-0.666c0.647,0,1.188,0.225,1.621,0.666C210.176,560.53,210.392,561.094,210.392,561.78z
		 M210.032,561.78c0-0.594-0.181-1.08-0.54-1.477c-0.36-0.379-0.812-0.576-1.352-0.576c-0.549,0-0.999,0.197-1.358,0.576
		c-0.369,0.396-0.55,0.883-0.55,1.477c0,0.586,0.181,1.07,0.55,1.459c0.359,0.396,0.811,0.586,1.358,0.586
		c0.54,0,0.99-0.189,1.352-0.586C209.852,562.85,210.032,562.366,210.032,561.78z M212.4,567.065h-0.359v-8.463h0.359V567.065z"/>
</g>
<g enable-background="new    ">
	<path fill="#3E3A39" d="M223.317,565.534v0.314h-7.867v-0.314H223.317z M222.111,563.463c-0.792-0.271-1.476-0.703-2.043-1.307
		c-0.323-0.332-0.549-0.674-0.684-1.018c-0.145,0.342-0.378,0.686-0.684,1.018c-0.576,0.604-1.252,1.035-2.045,1.307l-0.27-0.252
		c0.756-0.244,1.422-0.648,1.979-1.207c0.55-0.559,0.829-1.135,0.829-1.738v-0.449h-2.467v-0.314h5.313v0.314h-2.468v0.449
		c0,0.605,0.279,1.182,0.838,1.738c0.549,0.559,1.205,0.963,1.972,1.207L222.111,563.463z"/>
</g>
</svg>
